G04 #@! TF.GenerationSoftware,KiCad,Pcbnew,(5.0.0)*
G04 #@! TF.CreationDate,2018-07-26T01:08:59+02:00*
G04 #@! TF.ProjectId,bosch_kf4_pll,626F7363685F6B66345F706C6C2E6B69,rev?*
G04 #@! TF.SameCoordinates,Original*
G04 #@! TF.FileFunction,Soldermask,Top*
G04 #@! TF.FilePolarity,Negative*
%FSLAX46Y46*%
G04 Gerber Fmt 4.6, Leading zero omitted, Abs format (unit mm)*
G04 Created by KiCad (PCBNEW (5.0.0)) date 07/26/18 01:08:59*
%MOMM*%
%LPD*%
G01*
G04 APERTURE LIST*
%ADD10C,0.100000*%
%ADD11C,1.076600*%
%ADD12O,1.701600X1.701600*%
%ADD13R,1.701600X1.701600*%
%ADD14R,0.901600X1.001600*%
%ADD15O,1.801600X1.801600*%
%ADD16R,1.801600X1.801600*%
G04 APERTURE END LIST*
D10*
G04 #@! TO.C,C5*
G36*
X128898031Y-75767996D02*
X128924159Y-75771872D01*
X128949780Y-75778290D01*
X128974649Y-75787188D01*
X128998526Y-75798481D01*
X129021182Y-75812060D01*
X129042397Y-75827794D01*
X129061968Y-75845532D01*
X129079706Y-75865103D01*
X129095440Y-75886318D01*
X129109019Y-75908974D01*
X129120312Y-75932851D01*
X129129210Y-75957720D01*
X129135628Y-75983341D01*
X129139504Y-76009469D01*
X129140800Y-76035850D01*
X129140800Y-76999150D01*
X129139504Y-77025531D01*
X129135628Y-77051659D01*
X129129210Y-77077280D01*
X129120312Y-77102149D01*
X129109019Y-77126026D01*
X129095440Y-77148682D01*
X129079706Y-77169897D01*
X129061968Y-77189468D01*
X129042397Y-77207206D01*
X129021182Y-77222940D01*
X128998526Y-77236519D01*
X128974649Y-77247812D01*
X128949780Y-77256710D01*
X128924159Y-77263128D01*
X128898031Y-77267004D01*
X128871650Y-77268300D01*
X128333350Y-77268300D01*
X128306969Y-77267004D01*
X128280841Y-77263128D01*
X128255220Y-77256710D01*
X128230351Y-77247812D01*
X128206474Y-77236519D01*
X128183818Y-77222940D01*
X128162603Y-77207206D01*
X128143032Y-77189468D01*
X128125294Y-77169897D01*
X128109560Y-77148682D01*
X128095981Y-77126026D01*
X128084688Y-77102149D01*
X128075790Y-77077280D01*
X128069372Y-77051659D01*
X128065496Y-77025531D01*
X128064200Y-76999150D01*
X128064200Y-76035850D01*
X128065496Y-76009469D01*
X128069372Y-75983341D01*
X128075790Y-75957720D01*
X128084688Y-75932851D01*
X128095981Y-75908974D01*
X128109560Y-75886318D01*
X128125294Y-75865103D01*
X128143032Y-75845532D01*
X128162603Y-75827794D01*
X128183818Y-75812060D01*
X128206474Y-75798481D01*
X128230351Y-75787188D01*
X128255220Y-75778290D01*
X128280841Y-75771872D01*
X128306969Y-75767996D01*
X128333350Y-75766700D01*
X128871650Y-75766700D01*
X128898031Y-75767996D01*
X128898031Y-75767996D01*
G37*
D11*
X128602500Y-76517500D03*
D10*
G36*
X130773031Y-75767996D02*
X130799159Y-75771872D01*
X130824780Y-75778290D01*
X130849649Y-75787188D01*
X130873526Y-75798481D01*
X130896182Y-75812060D01*
X130917397Y-75827794D01*
X130936968Y-75845532D01*
X130954706Y-75865103D01*
X130970440Y-75886318D01*
X130984019Y-75908974D01*
X130995312Y-75932851D01*
X131004210Y-75957720D01*
X131010628Y-75983341D01*
X131014504Y-76009469D01*
X131015800Y-76035850D01*
X131015800Y-76999150D01*
X131014504Y-77025531D01*
X131010628Y-77051659D01*
X131004210Y-77077280D01*
X130995312Y-77102149D01*
X130984019Y-77126026D01*
X130970440Y-77148682D01*
X130954706Y-77169897D01*
X130936968Y-77189468D01*
X130917397Y-77207206D01*
X130896182Y-77222940D01*
X130873526Y-77236519D01*
X130849649Y-77247812D01*
X130824780Y-77256710D01*
X130799159Y-77263128D01*
X130773031Y-77267004D01*
X130746650Y-77268300D01*
X130208350Y-77268300D01*
X130181969Y-77267004D01*
X130155841Y-77263128D01*
X130130220Y-77256710D01*
X130105351Y-77247812D01*
X130081474Y-77236519D01*
X130058818Y-77222940D01*
X130037603Y-77207206D01*
X130018032Y-77189468D01*
X130000294Y-77169897D01*
X129984560Y-77148682D01*
X129970981Y-77126026D01*
X129959688Y-77102149D01*
X129950790Y-77077280D01*
X129944372Y-77051659D01*
X129940496Y-77025531D01*
X129939200Y-76999150D01*
X129939200Y-76035850D01*
X129940496Y-76009469D01*
X129944372Y-75983341D01*
X129950790Y-75957720D01*
X129959688Y-75932851D01*
X129970981Y-75908974D01*
X129984560Y-75886318D01*
X130000294Y-75865103D01*
X130018032Y-75845532D01*
X130037603Y-75827794D01*
X130058818Y-75812060D01*
X130081474Y-75798481D01*
X130105351Y-75787188D01*
X130130220Y-75778290D01*
X130155841Y-75771872D01*
X130181969Y-75767996D01*
X130208350Y-75766700D01*
X130746650Y-75766700D01*
X130773031Y-75767996D01*
X130773031Y-75767996D01*
G37*
D11*
X130477500Y-76517500D03*
G04 #@! TD*
D12*
G04 #@! TO.C,J2*
X140970000Y-62230000D03*
X125730000Y-90170000D03*
X140970000Y-64770000D03*
X125730000Y-87630000D03*
X140970000Y-67310000D03*
X125730000Y-85090000D03*
X140970000Y-69850000D03*
X125730000Y-82550000D03*
X140970000Y-72390000D03*
X125730000Y-80010000D03*
X140970000Y-74930000D03*
X125730000Y-77470000D03*
X140970000Y-77470000D03*
X125730000Y-74930000D03*
X140970000Y-80010000D03*
X125730000Y-72390000D03*
X140970000Y-82550000D03*
X125730000Y-69850000D03*
X140970000Y-85090000D03*
X125730000Y-67310000D03*
X140970000Y-87630000D03*
X125730000Y-64770000D03*
X140970000Y-90170000D03*
D13*
X125730000Y-62230000D03*
G04 #@! TD*
D14*
G04 #@! TO.C,Q1*
X138745000Y-72977500D03*
X136845000Y-72977500D03*
X137795000Y-74977500D03*
G04 #@! TD*
D10*
G04 #@! TO.C,C1*
G36*
X136835531Y-62750496D02*
X136861659Y-62754372D01*
X136887280Y-62760790D01*
X136912149Y-62769688D01*
X136936026Y-62780981D01*
X136958682Y-62794560D01*
X136979897Y-62810294D01*
X136999468Y-62828032D01*
X137017206Y-62847603D01*
X137032940Y-62868818D01*
X137046519Y-62891474D01*
X137057812Y-62915351D01*
X137066710Y-62940220D01*
X137073128Y-62965841D01*
X137077004Y-62991969D01*
X137078300Y-63018350D01*
X137078300Y-63981650D01*
X137077004Y-64008031D01*
X137073128Y-64034159D01*
X137066710Y-64059780D01*
X137057812Y-64084649D01*
X137046519Y-64108526D01*
X137032940Y-64131182D01*
X137017206Y-64152397D01*
X136999468Y-64171968D01*
X136979897Y-64189706D01*
X136958682Y-64205440D01*
X136936026Y-64219019D01*
X136912149Y-64230312D01*
X136887280Y-64239210D01*
X136861659Y-64245628D01*
X136835531Y-64249504D01*
X136809150Y-64250800D01*
X136270850Y-64250800D01*
X136244469Y-64249504D01*
X136218341Y-64245628D01*
X136192720Y-64239210D01*
X136167851Y-64230312D01*
X136143974Y-64219019D01*
X136121318Y-64205440D01*
X136100103Y-64189706D01*
X136080532Y-64171968D01*
X136062794Y-64152397D01*
X136047060Y-64131182D01*
X136033481Y-64108526D01*
X136022188Y-64084649D01*
X136013290Y-64059780D01*
X136006872Y-64034159D01*
X136002996Y-64008031D01*
X136001700Y-63981650D01*
X136001700Y-63018350D01*
X136002996Y-62991969D01*
X136006872Y-62965841D01*
X136013290Y-62940220D01*
X136022188Y-62915351D01*
X136033481Y-62891474D01*
X136047060Y-62868818D01*
X136062794Y-62847603D01*
X136080532Y-62828032D01*
X136100103Y-62810294D01*
X136121318Y-62794560D01*
X136143974Y-62780981D01*
X136167851Y-62769688D01*
X136192720Y-62760790D01*
X136218341Y-62754372D01*
X136244469Y-62750496D01*
X136270850Y-62749200D01*
X136809150Y-62749200D01*
X136835531Y-62750496D01*
X136835531Y-62750496D01*
G37*
D11*
X136540000Y-63500000D03*
D10*
G36*
X138710531Y-62750496D02*
X138736659Y-62754372D01*
X138762280Y-62760790D01*
X138787149Y-62769688D01*
X138811026Y-62780981D01*
X138833682Y-62794560D01*
X138854897Y-62810294D01*
X138874468Y-62828032D01*
X138892206Y-62847603D01*
X138907940Y-62868818D01*
X138921519Y-62891474D01*
X138932812Y-62915351D01*
X138941710Y-62940220D01*
X138948128Y-62965841D01*
X138952004Y-62991969D01*
X138953300Y-63018350D01*
X138953300Y-63981650D01*
X138952004Y-64008031D01*
X138948128Y-64034159D01*
X138941710Y-64059780D01*
X138932812Y-64084649D01*
X138921519Y-64108526D01*
X138907940Y-64131182D01*
X138892206Y-64152397D01*
X138874468Y-64171968D01*
X138854897Y-64189706D01*
X138833682Y-64205440D01*
X138811026Y-64219019D01*
X138787149Y-64230312D01*
X138762280Y-64239210D01*
X138736659Y-64245628D01*
X138710531Y-64249504D01*
X138684150Y-64250800D01*
X138145850Y-64250800D01*
X138119469Y-64249504D01*
X138093341Y-64245628D01*
X138067720Y-64239210D01*
X138042851Y-64230312D01*
X138018974Y-64219019D01*
X137996318Y-64205440D01*
X137975103Y-64189706D01*
X137955532Y-64171968D01*
X137937794Y-64152397D01*
X137922060Y-64131182D01*
X137908481Y-64108526D01*
X137897188Y-64084649D01*
X137888290Y-64059780D01*
X137881872Y-64034159D01*
X137877996Y-64008031D01*
X137876700Y-63981650D01*
X137876700Y-63018350D01*
X137877996Y-62991969D01*
X137881872Y-62965841D01*
X137888290Y-62940220D01*
X137897188Y-62915351D01*
X137908481Y-62891474D01*
X137922060Y-62868818D01*
X137937794Y-62847603D01*
X137955532Y-62828032D01*
X137975103Y-62810294D01*
X137996318Y-62794560D01*
X138018974Y-62780981D01*
X138042851Y-62769688D01*
X138067720Y-62760790D01*
X138093341Y-62754372D01*
X138119469Y-62750496D01*
X138145850Y-62749200D01*
X138684150Y-62749200D01*
X138710531Y-62750496D01*
X138710531Y-62750496D01*
G37*
D11*
X138415000Y-63500000D03*
G04 #@! TD*
D10*
G04 #@! TO.C,C4*
G36*
X135565531Y-80530496D02*
X135591659Y-80534372D01*
X135617280Y-80540790D01*
X135642149Y-80549688D01*
X135666026Y-80560981D01*
X135688682Y-80574560D01*
X135709897Y-80590294D01*
X135729468Y-80608032D01*
X135747206Y-80627603D01*
X135762940Y-80648818D01*
X135776519Y-80671474D01*
X135787812Y-80695351D01*
X135796710Y-80720220D01*
X135803128Y-80745841D01*
X135807004Y-80771969D01*
X135808300Y-80798350D01*
X135808300Y-81761650D01*
X135807004Y-81788031D01*
X135803128Y-81814159D01*
X135796710Y-81839780D01*
X135787812Y-81864649D01*
X135776519Y-81888526D01*
X135762940Y-81911182D01*
X135747206Y-81932397D01*
X135729468Y-81951968D01*
X135709897Y-81969706D01*
X135688682Y-81985440D01*
X135666026Y-81999019D01*
X135642149Y-82010312D01*
X135617280Y-82019210D01*
X135591659Y-82025628D01*
X135565531Y-82029504D01*
X135539150Y-82030800D01*
X135000850Y-82030800D01*
X134974469Y-82029504D01*
X134948341Y-82025628D01*
X134922720Y-82019210D01*
X134897851Y-82010312D01*
X134873974Y-81999019D01*
X134851318Y-81985440D01*
X134830103Y-81969706D01*
X134810532Y-81951968D01*
X134792794Y-81932397D01*
X134777060Y-81911182D01*
X134763481Y-81888526D01*
X134752188Y-81864649D01*
X134743290Y-81839780D01*
X134736872Y-81814159D01*
X134732996Y-81788031D01*
X134731700Y-81761650D01*
X134731700Y-80798350D01*
X134732996Y-80771969D01*
X134736872Y-80745841D01*
X134743290Y-80720220D01*
X134752188Y-80695351D01*
X134763481Y-80671474D01*
X134777060Y-80648818D01*
X134792794Y-80627603D01*
X134810532Y-80608032D01*
X134830103Y-80590294D01*
X134851318Y-80574560D01*
X134873974Y-80560981D01*
X134897851Y-80549688D01*
X134922720Y-80540790D01*
X134948341Y-80534372D01*
X134974469Y-80530496D01*
X135000850Y-80529200D01*
X135539150Y-80529200D01*
X135565531Y-80530496D01*
X135565531Y-80530496D01*
G37*
D11*
X135270000Y-81280000D03*
D10*
G36*
X137440531Y-80530496D02*
X137466659Y-80534372D01*
X137492280Y-80540790D01*
X137517149Y-80549688D01*
X137541026Y-80560981D01*
X137563682Y-80574560D01*
X137584897Y-80590294D01*
X137604468Y-80608032D01*
X137622206Y-80627603D01*
X137637940Y-80648818D01*
X137651519Y-80671474D01*
X137662812Y-80695351D01*
X137671710Y-80720220D01*
X137678128Y-80745841D01*
X137682004Y-80771969D01*
X137683300Y-80798350D01*
X137683300Y-81761650D01*
X137682004Y-81788031D01*
X137678128Y-81814159D01*
X137671710Y-81839780D01*
X137662812Y-81864649D01*
X137651519Y-81888526D01*
X137637940Y-81911182D01*
X137622206Y-81932397D01*
X137604468Y-81951968D01*
X137584897Y-81969706D01*
X137563682Y-81985440D01*
X137541026Y-81999019D01*
X137517149Y-82010312D01*
X137492280Y-82019210D01*
X137466659Y-82025628D01*
X137440531Y-82029504D01*
X137414150Y-82030800D01*
X136875850Y-82030800D01*
X136849469Y-82029504D01*
X136823341Y-82025628D01*
X136797720Y-82019210D01*
X136772851Y-82010312D01*
X136748974Y-81999019D01*
X136726318Y-81985440D01*
X136705103Y-81969706D01*
X136685532Y-81951968D01*
X136667794Y-81932397D01*
X136652060Y-81911182D01*
X136638481Y-81888526D01*
X136627188Y-81864649D01*
X136618290Y-81839780D01*
X136611872Y-81814159D01*
X136607996Y-81788031D01*
X136606700Y-81761650D01*
X136606700Y-80798350D01*
X136607996Y-80771969D01*
X136611872Y-80745841D01*
X136618290Y-80720220D01*
X136627188Y-80695351D01*
X136638481Y-80671474D01*
X136652060Y-80648818D01*
X136667794Y-80627603D01*
X136685532Y-80608032D01*
X136705103Y-80590294D01*
X136726318Y-80574560D01*
X136748974Y-80560981D01*
X136772851Y-80549688D01*
X136797720Y-80540790D01*
X136823341Y-80534372D01*
X136849469Y-80530496D01*
X136875850Y-80529200D01*
X137414150Y-80529200D01*
X137440531Y-80530496D01*
X137440531Y-80530496D01*
G37*
D11*
X137145000Y-81280000D03*
G04 #@! TD*
D15*
G04 #@! TO.C,J1*
X135890000Y-87630000D03*
X135890000Y-90170000D03*
X133350000Y-87630000D03*
X133350000Y-90170000D03*
X130810000Y-87630000D03*
D16*
X130810000Y-90170000D03*
G04 #@! TD*
D10*
G04 #@! TO.C,R1*
G36*
X130138031Y-66560496D02*
X130164159Y-66564372D01*
X130189780Y-66570790D01*
X130214649Y-66579688D01*
X130238526Y-66590981D01*
X130261182Y-66604560D01*
X130282397Y-66620294D01*
X130301968Y-66638032D01*
X130319706Y-66657603D01*
X130335440Y-66678818D01*
X130349019Y-66701474D01*
X130360312Y-66725351D01*
X130369210Y-66750220D01*
X130375628Y-66775841D01*
X130379504Y-66801969D01*
X130380800Y-66828350D01*
X130380800Y-67791650D01*
X130379504Y-67818031D01*
X130375628Y-67844159D01*
X130369210Y-67869780D01*
X130360312Y-67894649D01*
X130349019Y-67918526D01*
X130335440Y-67941182D01*
X130319706Y-67962397D01*
X130301968Y-67981968D01*
X130282397Y-67999706D01*
X130261182Y-68015440D01*
X130238526Y-68029019D01*
X130214649Y-68040312D01*
X130189780Y-68049210D01*
X130164159Y-68055628D01*
X130138031Y-68059504D01*
X130111650Y-68060800D01*
X129573350Y-68060800D01*
X129546969Y-68059504D01*
X129520841Y-68055628D01*
X129495220Y-68049210D01*
X129470351Y-68040312D01*
X129446474Y-68029019D01*
X129423818Y-68015440D01*
X129402603Y-67999706D01*
X129383032Y-67981968D01*
X129365294Y-67962397D01*
X129349560Y-67941182D01*
X129335981Y-67918526D01*
X129324688Y-67894649D01*
X129315790Y-67869780D01*
X129309372Y-67844159D01*
X129305496Y-67818031D01*
X129304200Y-67791650D01*
X129304200Y-66828350D01*
X129305496Y-66801969D01*
X129309372Y-66775841D01*
X129315790Y-66750220D01*
X129324688Y-66725351D01*
X129335981Y-66701474D01*
X129349560Y-66678818D01*
X129365294Y-66657603D01*
X129383032Y-66638032D01*
X129402603Y-66620294D01*
X129423818Y-66604560D01*
X129446474Y-66590981D01*
X129470351Y-66579688D01*
X129495220Y-66570790D01*
X129520841Y-66564372D01*
X129546969Y-66560496D01*
X129573350Y-66559200D01*
X130111650Y-66559200D01*
X130138031Y-66560496D01*
X130138031Y-66560496D01*
G37*
D11*
X129842500Y-67310000D03*
D10*
G36*
X128263031Y-66560496D02*
X128289159Y-66564372D01*
X128314780Y-66570790D01*
X128339649Y-66579688D01*
X128363526Y-66590981D01*
X128386182Y-66604560D01*
X128407397Y-66620294D01*
X128426968Y-66638032D01*
X128444706Y-66657603D01*
X128460440Y-66678818D01*
X128474019Y-66701474D01*
X128485312Y-66725351D01*
X128494210Y-66750220D01*
X128500628Y-66775841D01*
X128504504Y-66801969D01*
X128505800Y-66828350D01*
X128505800Y-67791650D01*
X128504504Y-67818031D01*
X128500628Y-67844159D01*
X128494210Y-67869780D01*
X128485312Y-67894649D01*
X128474019Y-67918526D01*
X128460440Y-67941182D01*
X128444706Y-67962397D01*
X128426968Y-67981968D01*
X128407397Y-67999706D01*
X128386182Y-68015440D01*
X128363526Y-68029019D01*
X128339649Y-68040312D01*
X128314780Y-68049210D01*
X128289159Y-68055628D01*
X128263031Y-68059504D01*
X128236650Y-68060800D01*
X127698350Y-68060800D01*
X127671969Y-68059504D01*
X127645841Y-68055628D01*
X127620220Y-68049210D01*
X127595351Y-68040312D01*
X127571474Y-68029019D01*
X127548818Y-68015440D01*
X127527603Y-67999706D01*
X127508032Y-67981968D01*
X127490294Y-67962397D01*
X127474560Y-67941182D01*
X127460981Y-67918526D01*
X127449688Y-67894649D01*
X127440790Y-67869780D01*
X127434372Y-67844159D01*
X127430496Y-67818031D01*
X127429200Y-67791650D01*
X127429200Y-66828350D01*
X127430496Y-66801969D01*
X127434372Y-66775841D01*
X127440790Y-66750220D01*
X127449688Y-66725351D01*
X127460981Y-66701474D01*
X127474560Y-66678818D01*
X127490294Y-66657603D01*
X127508032Y-66638032D01*
X127527603Y-66620294D01*
X127548818Y-66604560D01*
X127571474Y-66590981D01*
X127595351Y-66579688D01*
X127620220Y-66570790D01*
X127645841Y-66564372D01*
X127671969Y-66560496D01*
X127698350Y-66559200D01*
X128236650Y-66559200D01*
X128263031Y-66560496D01*
X128263031Y-66560496D01*
G37*
D11*
X127967500Y-67310000D03*
G04 #@! TD*
D10*
G04 #@! TO.C,R2*
G36*
X128263031Y-64020496D02*
X128289159Y-64024372D01*
X128314780Y-64030790D01*
X128339649Y-64039688D01*
X128363526Y-64050981D01*
X128386182Y-64064560D01*
X128407397Y-64080294D01*
X128426968Y-64098032D01*
X128444706Y-64117603D01*
X128460440Y-64138818D01*
X128474019Y-64161474D01*
X128485312Y-64185351D01*
X128494210Y-64210220D01*
X128500628Y-64235841D01*
X128504504Y-64261969D01*
X128505800Y-64288350D01*
X128505800Y-65251650D01*
X128504504Y-65278031D01*
X128500628Y-65304159D01*
X128494210Y-65329780D01*
X128485312Y-65354649D01*
X128474019Y-65378526D01*
X128460440Y-65401182D01*
X128444706Y-65422397D01*
X128426968Y-65441968D01*
X128407397Y-65459706D01*
X128386182Y-65475440D01*
X128363526Y-65489019D01*
X128339649Y-65500312D01*
X128314780Y-65509210D01*
X128289159Y-65515628D01*
X128263031Y-65519504D01*
X128236650Y-65520800D01*
X127698350Y-65520800D01*
X127671969Y-65519504D01*
X127645841Y-65515628D01*
X127620220Y-65509210D01*
X127595351Y-65500312D01*
X127571474Y-65489019D01*
X127548818Y-65475440D01*
X127527603Y-65459706D01*
X127508032Y-65441968D01*
X127490294Y-65422397D01*
X127474560Y-65401182D01*
X127460981Y-65378526D01*
X127449688Y-65354649D01*
X127440790Y-65329780D01*
X127434372Y-65304159D01*
X127430496Y-65278031D01*
X127429200Y-65251650D01*
X127429200Y-64288350D01*
X127430496Y-64261969D01*
X127434372Y-64235841D01*
X127440790Y-64210220D01*
X127449688Y-64185351D01*
X127460981Y-64161474D01*
X127474560Y-64138818D01*
X127490294Y-64117603D01*
X127508032Y-64098032D01*
X127527603Y-64080294D01*
X127548818Y-64064560D01*
X127571474Y-64050981D01*
X127595351Y-64039688D01*
X127620220Y-64030790D01*
X127645841Y-64024372D01*
X127671969Y-64020496D01*
X127698350Y-64019200D01*
X128236650Y-64019200D01*
X128263031Y-64020496D01*
X128263031Y-64020496D01*
G37*
D11*
X127967500Y-64770000D03*
D10*
G36*
X130138031Y-64020496D02*
X130164159Y-64024372D01*
X130189780Y-64030790D01*
X130214649Y-64039688D01*
X130238526Y-64050981D01*
X130261182Y-64064560D01*
X130282397Y-64080294D01*
X130301968Y-64098032D01*
X130319706Y-64117603D01*
X130335440Y-64138818D01*
X130349019Y-64161474D01*
X130360312Y-64185351D01*
X130369210Y-64210220D01*
X130375628Y-64235841D01*
X130379504Y-64261969D01*
X130380800Y-64288350D01*
X130380800Y-65251650D01*
X130379504Y-65278031D01*
X130375628Y-65304159D01*
X130369210Y-65329780D01*
X130360312Y-65354649D01*
X130349019Y-65378526D01*
X130335440Y-65401182D01*
X130319706Y-65422397D01*
X130301968Y-65441968D01*
X130282397Y-65459706D01*
X130261182Y-65475440D01*
X130238526Y-65489019D01*
X130214649Y-65500312D01*
X130189780Y-65509210D01*
X130164159Y-65515628D01*
X130138031Y-65519504D01*
X130111650Y-65520800D01*
X129573350Y-65520800D01*
X129546969Y-65519504D01*
X129520841Y-65515628D01*
X129495220Y-65509210D01*
X129470351Y-65500312D01*
X129446474Y-65489019D01*
X129423818Y-65475440D01*
X129402603Y-65459706D01*
X129383032Y-65441968D01*
X129365294Y-65422397D01*
X129349560Y-65401182D01*
X129335981Y-65378526D01*
X129324688Y-65354649D01*
X129315790Y-65329780D01*
X129309372Y-65304159D01*
X129305496Y-65278031D01*
X129304200Y-65251650D01*
X129304200Y-64288350D01*
X129305496Y-64261969D01*
X129309372Y-64235841D01*
X129315790Y-64210220D01*
X129324688Y-64185351D01*
X129335981Y-64161474D01*
X129349560Y-64138818D01*
X129365294Y-64117603D01*
X129383032Y-64098032D01*
X129402603Y-64080294D01*
X129423818Y-64064560D01*
X129446474Y-64050981D01*
X129470351Y-64039688D01*
X129495220Y-64030790D01*
X129520841Y-64024372D01*
X129546969Y-64020496D01*
X129573350Y-64019200D01*
X130111650Y-64019200D01*
X130138031Y-64020496D01*
X130138031Y-64020496D01*
G37*
D11*
X129842500Y-64770000D03*
G04 #@! TD*
M02*
