G04 #@! TF.GenerationSoftware,KiCad,Pcbnew,(5.0.0)*
G04 #@! TF.CreationDate,2018-10-07T23:11:39+02:00*
G04 #@! TF.ProjectId,bosch_kf4_pll,626F7363685F6B66345F706C6C2E6B69,rev?*
G04 #@! TF.SameCoordinates,Original*
G04 #@! TF.FileFunction,Soldermask,Top*
G04 #@! TF.FilePolarity,Negative*
%FSLAX46Y46*%
G04 Gerber Fmt 4.6, Leading zero omitted, Abs format (unit mm)*
G04 Created by KiCad (PCBNEW (5.0.0)) date 10/07/18 23:11:39*
%MOMM*%
%LPD*%
G01*
G04 APERTURE LIST*
%ADD10R,1.801600X1.801600*%
%ADD11O,1.801600X1.801600*%
%ADD12C,0.100000*%
%ADD13C,1.076600*%
%ADD14C,0.651600*%
%ADD15O,1.701600X1.701600*%
%ADD16R,1.701600X1.701600*%
G04 APERTURE END LIST*
D10*
G04 #@! TO.C,J3*
X132080000Y-62230000D03*
D11*
X132080000Y-64770000D03*
X134620000Y-62230000D03*
X134620000Y-64770000D03*
X137160000Y-62230000D03*
X137160000Y-64770000D03*
G04 #@! TD*
D12*
G04 #@! TO.C,C1*
G36*
X136488031Y-69100496D02*
X136514159Y-69104372D01*
X136539780Y-69110790D01*
X136564649Y-69119688D01*
X136588526Y-69130981D01*
X136611182Y-69144560D01*
X136632397Y-69160294D01*
X136651968Y-69178032D01*
X136669706Y-69197603D01*
X136685440Y-69218818D01*
X136699019Y-69241474D01*
X136710312Y-69265351D01*
X136719210Y-69290220D01*
X136725628Y-69315841D01*
X136729504Y-69341969D01*
X136730800Y-69368350D01*
X136730800Y-70331650D01*
X136729504Y-70358031D01*
X136725628Y-70384159D01*
X136719210Y-70409780D01*
X136710312Y-70434649D01*
X136699019Y-70458526D01*
X136685440Y-70481182D01*
X136669706Y-70502397D01*
X136651968Y-70521968D01*
X136632397Y-70539706D01*
X136611182Y-70555440D01*
X136588526Y-70569019D01*
X136564649Y-70580312D01*
X136539780Y-70589210D01*
X136514159Y-70595628D01*
X136488031Y-70599504D01*
X136461650Y-70600800D01*
X135923350Y-70600800D01*
X135896969Y-70599504D01*
X135870841Y-70595628D01*
X135845220Y-70589210D01*
X135820351Y-70580312D01*
X135796474Y-70569019D01*
X135773818Y-70555440D01*
X135752603Y-70539706D01*
X135733032Y-70521968D01*
X135715294Y-70502397D01*
X135699560Y-70481182D01*
X135685981Y-70458526D01*
X135674688Y-70434649D01*
X135665790Y-70409780D01*
X135659372Y-70384159D01*
X135655496Y-70358031D01*
X135654200Y-70331650D01*
X135654200Y-69368350D01*
X135655496Y-69341969D01*
X135659372Y-69315841D01*
X135665790Y-69290220D01*
X135674688Y-69265351D01*
X135685981Y-69241474D01*
X135699560Y-69218818D01*
X135715294Y-69197603D01*
X135733032Y-69178032D01*
X135752603Y-69160294D01*
X135773818Y-69144560D01*
X135796474Y-69130981D01*
X135820351Y-69119688D01*
X135845220Y-69110790D01*
X135870841Y-69104372D01*
X135896969Y-69100496D01*
X135923350Y-69099200D01*
X136461650Y-69099200D01*
X136488031Y-69100496D01*
X136488031Y-69100496D01*
G37*
D13*
X136192500Y-69850000D03*
D12*
G36*
X134613031Y-69100496D02*
X134639159Y-69104372D01*
X134664780Y-69110790D01*
X134689649Y-69119688D01*
X134713526Y-69130981D01*
X134736182Y-69144560D01*
X134757397Y-69160294D01*
X134776968Y-69178032D01*
X134794706Y-69197603D01*
X134810440Y-69218818D01*
X134824019Y-69241474D01*
X134835312Y-69265351D01*
X134844210Y-69290220D01*
X134850628Y-69315841D01*
X134854504Y-69341969D01*
X134855800Y-69368350D01*
X134855800Y-70331650D01*
X134854504Y-70358031D01*
X134850628Y-70384159D01*
X134844210Y-70409780D01*
X134835312Y-70434649D01*
X134824019Y-70458526D01*
X134810440Y-70481182D01*
X134794706Y-70502397D01*
X134776968Y-70521968D01*
X134757397Y-70539706D01*
X134736182Y-70555440D01*
X134713526Y-70569019D01*
X134689649Y-70580312D01*
X134664780Y-70589210D01*
X134639159Y-70595628D01*
X134613031Y-70599504D01*
X134586650Y-70600800D01*
X134048350Y-70600800D01*
X134021969Y-70599504D01*
X133995841Y-70595628D01*
X133970220Y-70589210D01*
X133945351Y-70580312D01*
X133921474Y-70569019D01*
X133898818Y-70555440D01*
X133877603Y-70539706D01*
X133858032Y-70521968D01*
X133840294Y-70502397D01*
X133824560Y-70481182D01*
X133810981Y-70458526D01*
X133799688Y-70434649D01*
X133790790Y-70409780D01*
X133784372Y-70384159D01*
X133780496Y-70358031D01*
X133779200Y-70331650D01*
X133779200Y-69368350D01*
X133780496Y-69341969D01*
X133784372Y-69315841D01*
X133790790Y-69290220D01*
X133799688Y-69265351D01*
X133810981Y-69241474D01*
X133824560Y-69218818D01*
X133840294Y-69197603D01*
X133858032Y-69178032D01*
X133877603Y-69160294D01*
X133898818Y-69144560D01*
X133921474Y-69130981D01*
X133945351Y-69119688D01*
X133970220Y-69110790D01*
X133995841Y-69104372D01*
X134021969Y-69100496D01*
X134048350Y-69099200D01*
X134586650Y-69099200D01*
X134613031Y-69100496D01*
X134613031Y-69100496D01*
G37*
D13*
X134317500Y-69850000D03*
G04 #@! TD*
D14*
G04 #@! TO.C,U1*
X138335103Y-79765305D03*
D12*
G36*
X137503121Y-79394074D02*
X137963872Y-78933323D01*
X139167085Y-80136536D01*
X138706334Y-80597287D01*
X137503121Y-79394074D01*
X137503121Y-79394074D01*
G37*
D14*
X137769417Y-80330990D03*
D12*
G36*
X136937435Y-79959759D02*
X137398186Y-79499008D01*
X138601399Y-80702221D01*
X138140648Y-81162972D01*
X136937435Y-79959759D01*
X136937435Y-79959759D01*
G37*
D14*
X137203732Y-80896676D03*
D12*
G36*
X136371750Y-80525445D02*
X136832501Y-80064694D01*
X138035714Y-81267907D01*
X137574963Y-81728658D01*
X136371750Y-80525445D01*
X136371750Y-80525445D01*
G37*
D14*
X136638047Y-81462361D03*
D12*
G36*
X135806065Y-81091130D02*
X136266816Y-80630379D01*
X137470029Y-81833592D01*
X137009278Y-82294343D01*
X135806065Y-81091130D01*
X135806065Y-81091130D01*
G37*
D14*
X136072361Y-82028047D03*
D12*
G36*
X135240379Y-81656816D02*
X135701130Y-81196065D01*
X136904343Y-82399278D01*
X136443592Y-82860029D01*
X135240379Y-81656816D01*
X135240379Y-81656816D01*
G37*
D14*
X135506676Y-82593732D03*
D12*
G36*
X134674694Y-82222501D02*
X135135445Y-81761750D01*
X136338658Y-82964963D01*
X135877907Y-83425714D01*
X134674694Y-82222501D01*
X134674694Y-82222501D01*
G37*
D14*
X134940990Y-83159417D03*
D12*
G36*
X134109008Y-82788186D02*
X134569759Y-82327435D01*
X135772972Y-83530648D01*
X135312221Y-83991399D01*
X134109008Y-82788186D01*
X134109008Y-82788186D01*
G37*
D14*
X134375305Y-83725103D03*
D12*
G36*
X133543323Y-83353872D02*
X134004074Y-82893121D01*
X135207287Y-84096334D01*
X134746536Y-84557085D01*
X133543323Y-83353872D01*
X133543323Y-83353872D01*
G37*
D14*
X132324695Y-83725103D03*
D12*
G36*
X132695926Y-82893121D02*
X133156677Y-83353872D01*
X131953464Y-84557085D01*
X131492713Y-84096334D01*
X132695926Y-82893121D01*
X132695926Y-82893121D01*
G37*
D14*
X131759010Y-83159417D03*
D12*
G36*
X132130241Y-82327435D02*
X132590992Y-82788186D01*
X131387779Y-83991399D01*
X130927028Y-83530648D01*
X132130241Y-82327435D01*
X132130241Y-82327435D01*
G37*
D14*
X131193324Y-82593732D03*
D12*
G36*
X131564555Y-81761750D02*
X132025306Y-82222501D01*
X130822093Y-83425714D01*
X130361342Y-82964963D01*
X131564555Y-81761750D01*
X131564555Y-81761750D01*
G37*
D14*
X130627639Y-82028047D03*
D12*
G36*
X130998870Y-81196065D02*
X131459621Y-81656816D01*
X130256408Y-82860029D01*
X129795657Y-82399278D01*
X130998870Y-81196065D01*
X130998870Y-81196065D01*
G37*
D14*
X130061953Y-81462361D03*
D12*
G36*
X130433184Y-80630379D02*
X130893935Y-81091130D01*
X129690722Y-82294343D01*
X129229971Y-81833592D01*
X130433184Y-80630379D01*
X130433184Y-80630379D01*
G37*
D14*
X129496268Y-80896676D03*
D12*
G36*
X129867499Y-80064694D02*
X130328250Y-80525445D01*
X129125037Y-81728658D01*
X128664286Y-81267907D01*
X129867499Y-80064694D01*
X129867499Y-80064694D01*
G37*
D14*
X128930583Y-80330990D03*
D12*
G36*
X129301814Y-79499008D02*
X129762565Y-79959759D01*
X128559352Y-81162972D01*
X128098601Y-80702221D01*
X129301814Y-79499008D01*
X129301814Y-79499008D01*
G37*
D14*
X128364897Y-79765305D03*
D12*
G36*
X128736128Y-78933323D02*
X129196879Y-79394074D01*
X127993666Y-80597287D01*
X127532915Y-80136536D01*
X128736128Y-78933323D01*
X128736128Y-78933323D01*
G37*
D14*
X128364897Y-77714695D03*
D12*
G36*
X127532915Y-77343464D02*
X127993666Y-76882713D01*
X129196879Y-78085926D01*
X128736128Y-78546677D01*
X127532915Y-77343464D01*
X127532915Y-77343464D01*
G37*
D14*
X128930583Y-77149010D03*
D12*
G36*
X128098601Y-76777779D02*
X128559352Y-76317028D01*
X129762565Y-77520241D01*
X129301814Y-77980992D01*
X128098601Y-76777779D01*
X128098601Y-76777779D01*
G37*
D14*
X129496268Y-76583324D03*
D12*
G36*
X128664286Y-76212093D02*
X129125037Y-75751342D01*
X130328250Y-76954555D01*
X129867499Y-77415306D01*
X128664286Y-76212093D01*
X128664286Y-76212093D01*
G37*
D14*
X130061953Y-76017639D03*
D12*
G36*
X129229971Y-75646408D02*
X129690722Y-75185657D01*
X130893935Y-76388870D01*
X130433184Y-76849621D01*
X129229971Y-75646408D01*
X129229971Y-75646408D01*
G37*
D14*
X130627639Y-75451953D03*
D12*
G36*
X129795657Y-75080722D02*
X130256408Y-74619971D01*
X131459621Y-75823184D01*
X130998870Y-76283935D01*
X129795657Y-75080722D01*
X129795657Y-75080722D01*
G37*
D14*
X131193324Y-74886268D03*
D12*
G36*
X130361342Y-74515037D02*
X130822093Y-74054286D01*
X132025306Y-75257499D01*
X131564555Y-75718250D01*
X130361342Y-74515037D01*
X130361342Y-74515037D01*
G37*
D14*
X131759010Y-74320583D03*
D12*
G36*
X130927028Y-73949352D02*
X131387779Y-73488601D01*
X132590992Y-74691814D01*
X132130241Y-75152565D01*
X130927028Y-73949352D01*
X130927028Y-73949352D01*
G37*
D14*
X132324695Y-73754897D03*
D12*
G36*
X131492713Y-73383666D02*
X131953464Y-72922915D01*
X133156677Y-74126128D01*
X132695926Y-74586879D01*
X131492713Y-73383666D01*
X131492713Y-73383666D01*
G37*
D14*
X134375305Y-73754897D03*
D12*
G36*
X134746536Y-72922915D02*
X135207287Y-73383666D01*
X134004074Y-74586879D01*
X133543323Y-74126128D01*
X134746536Y-72922915D01*
X134746536Y-72922915D01*
G37*
D14*
X134940990Y-74320583D03*
D12*
G36*
X135312221Y-73488601D02*
X135772972Y-73949352D01*
X134569759Y-75152565D01*
X134109008Y-74691814D01*
X135312221Y-73488601D01*
X135312221Y-73488601D01*
G37*
D14*
X135506676Y-74886268D03*
D12*
G36*
X135877907Y-74054286D02*
X136338658Y-74515037D01*
X135135445Y-75718250D01*
X134674694Y-75257499D01*
X135877907Y-74054286D01*
X135877907Y-74054286D01*
G37*
D14*
X136072361Y-75451953D03*
D12*
G36*
X136443592Y-74619971D02*
X136904343Y-75080722D01*
X135701130Y-76283935D01*
X135240379Y-75823184D01*
X136443592Y-74619971D01*
X136443592Y-74619971D01*
G37*
D14*
X136638047Y-76017639D03*
D12*
G36*
X137009278Y-75185657D02*
X137470029Y-75646408D01*
X136266816Y-76849621D01*
X135806065Y-76388870D01*
X137009278Y-75185657D01*
X137009278Y-75185657D01*
G37*
D14*
X137203732Y-76583324D03*
D12*
G36*
X137574963Y-75751342D02*
X138035714Y-76212093D01*
X136832501Y-77415306D01*
X136371750Y-76954555D01*
X137574963Y-75751342D01*
X137574963Y-75751342D01*
G37*
D14*
X137769417Y-77149010D03*
D12*
G36*
X138140648Y-76317028D02*
X138601399Y-76777779D01*
X137398186Y-77980992D01*
X136937435Y-77520241D01*
X138140648Y-76317028D01*
X138140648Y-76317028D01*
G37*
D14*
X138335103Y-77714695D03*
D12*
G36*
X138706334Y-76882713D02*
X139167085Y-77343464D01*
X137963872Y-78546677D01*
X137503121Y-78085926D01*
X138706334Y-76882713D01*
X138706334Y-76882713D01*
G37*
G04 #@! TD*
D11*
G04 #@! TO.C,J1*
X135890000Y-87630000D03*
X135890000Y-90170000D03*
X133350000Y-87630000D03*
X133350000Y-90170000D03*
X130810000Y-87630000D03*
D10*
X130810000Y-90170000D03*
G04 #@! TD*
D15*
G04 #@! TO.C,J2*
X140970000Y-62230000D03*
X125730000Y-90170000D03*
X140970000Y-64770000D03*
X125730000Y-87630000D03*
X140970000Y-67310000D03*
X125730000Y-85090000D03*
X140970000Y-69850000D03*
X125730000Y-82550000D03*
X140970000Y-72390000D03*
X125730000Y-80010000D03*
X140970000Y-74930000D03*
X125730000Y-77470000D03*
X140970000Y-77470000D03*
X125730000Y-74930000D03*
X140970000Y-80010000D03*
X125730000Y-72390000D03*
X140970000Y-82550000D03*
X125730000Y-69850000D03*
X140970000Y-85090000D03*
X125730000Y-67310000D03*
X140970000Y-87630000D03*
X125730000Y-64770000D03*
X140970000Y-90170000D03*
D16*
X125730000Y-62230000D03*
G04 #@! TD*
D12*
G04 #@! TO.C,R4*
G36*
X128778031Y-62025496D02*
X128804159Y-62029372D01*
X128829780Y-62035790D01*
X128854649Y-62044688D01*
X128878526Y-62055981D01*
X128901182Y-62069560D01*
X128922397Y-62085294D01*
X128941968Y-62103032D01*
X128959706Y-62122603D01*
X128975440Y-62143818D01*
X128989019Y-62166474D01*
X129000312Y-62190351D01*
X129009210Y-62215220D01*
X129015628Y-62240841D01*
X129019504Y-62266969D01*
X129020800Y-62293350D01*
X129020800Y-62831650D01*
X129019504Y-62858031D01*
X129015628Y-62884159D01*
X129009210Y-62909780D01*
X129000312Y-62934649D01*
X128989019Y-62958526D01*
X128975440Y-62981182D01*
X128959706Y-63002397D01*
X128941968Y-63021968D01*
X128922397Y-63039706D01*
X128901182Y-63055440D01*
X128878526Y-63069019D01*
X128854649Y-63080312D01*
X128829780Y-63089210D01*
X128804159Y-63095628D01*
X128778031Y-63099504D01*
X128751650Y-63100800D01*
X127788350Y-63100800D01*
X127761969Y-63099504D01*
X127735841Y-63095628D01*
X127710220Y-63089210D01*
X127685351Y-63080312D01*
X127661474Y-63069019D01*
X127638818Y-63055440D01*
X127617603Y-63039706D01*
X127598032Y-63021968D01*
X127580294Y-63002397D01*
X127564560Y-62981182D01*
X127550981Y-62958526D01*
X127539688Y-62934649D01*
X127530790Y-62909780D01*
X127524372Y-62884159D01*
X127520496Y-62858031D01*
X127519200Y-62831650D01*
X127519200Y-62293350D01*
X127520496Y-62266969D01*
X127524372Y-62240841D01*
X127530790Y-62215220D01*
X127539688Y-62190351D01*
X127550981Y-62166474D01*
X127564560Y-62143818D01*
X127580294Y-62122603D01*
X127598032Y-62103032D01*
X127617603Y-62085294D01*
X127638818Y-62069560D01*
X127661474Y-62055981D01*
X127685351Y-62044688D01*
X127710220Y-62035790D01*
X127735841Y-62029372D01*
X127761969Y-62025496D01*
X127788350Y-62024200D01*
X128751650Y-62024200D01*
X128778031Y-62025496D01*
X128778031Y-62025496D01*
G37*
D13*
X128270000Y-62562500D03*
D12*
G36*
X128778031Y-63900496D02*
X128804159Y-63904372D01*
X128829780Y-63910790D01*
X128854649Y-63919688D01*
X128878526Y-63930981D01*
X128901182Y-63944560D01*
X128922397Y-63960294D01*
X128941968Y-63978032D01*
X128959706Y-63997603D01*
X128975440Y-64018818D01*
X128989019Y-64041474D01*
X129000312Y-64065351D01*
X129009210Y-64090220D01*
X129015628Y-64115841D01*
X129019504Y-64141969D01*
X129020800Y-64168350D01*
X129020800Y-64706650D01*
X129019504Y-64733031D01*
X129015628Y-64759159D01*
X129009210Y-64784780D01*
X129000312Y-64809649D01*
X128989019Y-64833526D01*
X128975440Y-64856182D01*
X128959706Y-64877397D01*
X128941968Y-64896968D01*
X128922397Y-64914706D01*
X128901182Y-64930440D01*
X128878526Y-64944019D01*
X128854649Y-64955312D01*
X128829780Y-64964210D01*
X128804159Y-64970628D01*
X128778031Y-64974504D01*
X128751650Y-64975800D01*
X127788350Y-64975800D01*
X127761969Y-64974504D01*
X127735841Y-64970628D01*
X127710220Y-64964210D01*
X127685351Y-64955312D01*
X127661474Y-64944019D01*
X127638818Y-64930440D01*
X127617603Y-64914706D01*
X127598032Y-64896968D01*
X127580294Y-64877397D01*
X127564560Y-64856182D01*
X127550981Y-64833526D01*
X127539688Y-64809649D01*
X127530790Y-64784780D01*
X127524372Y-64759159D01*
X127520496Y-64733031D01*
X127519200Y-64706650D01*
X127519200Y-64168350D01*
X127520496Y-64141969D01*
X127524372Y-64115841D01*
X127530790Y-64090220D01*
X127539688Y-64065351D01*
X127550981Y-64041474D01*
X127564560Y-64018818D01*
X127580294Y-63997603D01*
X127598032Y-63978032D01*
X127617603Y-63960294D01*
X127638818Y-63944560D01*
X127661474Y-63930981D01*
X127685351Y-63919688D01*
X127710220Y-63910790D01*
X127735841Y-63904372D01*
X127761969Y-63900496D01*
X127788350Y-63899200D01*
X128751650Y-63899200D01*
X128778031Y-63900496D01*
X128778031Y-63900496D01*
G37*
D13*
X128270000Y-64437500D03*
G04 #@! TD*
M02*
