M48
;DRILL file {KiCad (5.0.0)} date 10/07/18 23:11:36
;FORMAT={-:-/ absolute / inch / decimal}
FMAT,2
INCH,TZ
T1C0.0130
T2C0.0150
T3C0.0315
T4C0.0394
%
G90
G05
M72
T1
X5.075Y-2.7625
X5.1125Y-3.1125
X5.2375Y-2.775
X5.25Y-2.9625
X5.2527Y-3.0277
T2
X5.0125Y-3.4875
X5.05Y-3.575
X5.075Y-3.2875
X5.0875Y-2.6
X5.1Y-3.3875
X5.125Y-2.4375
X5.125Y-3.2875
X5.1625Y-2.8
X5.1848Y-3.1875
X5.2Y-2.7
X5.2Y-3.4
X5.2375Y-3.2375
X5.25Y-3.3125
X5.275Y-3.225
X5.2875Y-3.0875
X5.2875Y-3.1875
X5.325Y-2.8125
X5.325Y-3.175
X5.3375Y-3.1375
X5.35Y-2.6125
X5.35Y-3.0875
X5.4Y-2.7875
X5.4125Y-2.7
X5.425Y-2.8875
X5.425Y-2.95
X5.425Y-3.4
X5.45Y-2.799
X5.45Y-3.3
X5.4625Y-3.1
X5.4875Y-2.775
X5.495Y-3.06
X5.5Y-3.1875
T3
X4.95Y-2.45
X4.95Y-2.55
X4.95Y-2.65
X4.95Y-2.75
X4.95Y-2.85
X4.95Y-2.95
X4.95Y-3.05
X4.95Y-3.15
X4.95Y-3.25
X4.95Y-3.35
X4.95Y-3.45
X4.95Y-3.55
X5.55Y-2.45
X5.55Y-2.55
X5.55Y-2.65
X5.55Y-2.75
X5.55Y-2.85
X5.55Y-2.95
X5.55Y-3.05
X5.55Y-3.15
X5.55Y-3.25
X5.55Y-3.35
X5.55Y-3.45
X5.55Y-3.55
T4
X5.2Y-2.45
X5.2Y-2.55
X5.3Y-2.45
X5.3Y-2.55
X5.4Y-2.45
X5.4Y-2.55
X5.15Y-3.45
X5.15Y-3.55
X5.25Y-3.45
X5.25Y-3.55
X5.35Y-3.45
X5.35Y-3.55
T0
M30
