G04 #@! TF.GenerationSoftware,KiCad,Pcbnew,(5.0.0)*
G04 #@! TF.CreationDate,2018-07-26T01:08:59+02:00*
G04 #@! TF.ProjectId,bosch_kf4_pll,626F7363685F6B66345F706C6C2E6B69,rev?*
G04 #@! TF.SameCoordinates,Original*
G04 #@! TF.FileFunction,Legend,Top*
G04 #@! TF.FilePolarity,Positive*
%FSLAX46Y46*%
G04 Gerber Fmt 4.6, Leading zero omitted, Abs format (unit mm)*
G04 Created by KiCad (PCBNEW (5.0.0)) date 07/26/18 01:08:59*
%MOMM*%
%LPD*%
G01*
G04 APERTURE LIST*
%ADD10C,0.190500*%
%ADD11C,0.120000*%
%ADD12C,0.010000*%
%ADD13C,0.150000*%
G04 APERTURE END LIST*
D10*
X127495904Y-73802119D02*
X127495904Y-72786119D01*
X128076476Y-73802119D02*
X127641047Y-73221547D01*
X128076476Y-72786119D02*
X127495904Y-73366690D01*
X128850571Y-73269928D02*
X128511904Y-73269928D01*
X128511904Y-73802119D02*
X128511904Y-72786119D01*
X128995714Y-72786119D01*
X129286000Y-73802119D02*
X129818190Y-73124785D01*
X129286000Y-73124785D02*
X129818190Y-73802119D01*
X130640666Y-73124785D02*
X130640666Y-73802119D01*
X130398761Y-72737738D02*
X130156857Y-73463452D01*
X130785809Y-73463452D01*
X131946952Y-73802119D02*
X131946952Y-72786119D01*
X132334000Y-72786119D01*
X132430761Y-72834500D01*
X132479142Y-72882880D01*
X132527523Y-72979642D01*
X132527523Y-73124785D01*
X132479142Y-73221547D01*
X132430761Y-73269928D01*
X132334000Y-73318309D01*
X131946952Y-73318309D01*
X133446761Y-73802119D02*
X132962952Y-73802119D01*
X132962952Y-72786119D01*
X134269238Y-73802119D02*
X133785428Y-73802119D01*
X133785428Y-72786119D01*
X139582071Y-90433071D02*
X139037785Y-90814071D01*
X139582071Y-91086214D02*
X138439071Y-91086214D01*
X138439071Y-90650785D01*
X138493500Y-90541928D01*
X138547928Y-90487500D01*
X138656785Y-90433071D01*
X138820071Y-90433071D01*
X138928928Y-90487500D01*
X138983357Y-90541928D01*
X139037785Y-90650785D01*
X139037785Y-91086214D01*
X139582071Y-89779928D02*
X139527642Y-89888785D01*
X139473214Y-89943214D01*
X139364357Y-89997642D01*
X139037785Y-89997642D01*
X138928928Y-89943214D01*
X138874500Y-89888785D01*
X138820071Y-89779928D01*
X138820071Y-89616642D01*
X138874500Y-89507785D01*
X138928928Y-89453357D01*
X139037785Y-89398928D01*
X139364357Y-89398928D01*
X139473214Y-89453357D01*
X139527642Y-89507785D01*
X139582071Y-89616642D01*
X139582071Y-89779928D01*
X139582071Y-88909071D02*
X138439071Y-88909071D01*
X138874500Y-88909071D02*
X138820071Y-88800214D01*
X138820071Y-88582500D01*
X138874500Y-88473642D01*
X138928928Y-88419214D01*
X139037785Y-88364785D01*
X139364357Y-88364785D01*
X139473214Y-88419214D01*
X139527642Y-88473642D01*
X139582071Y-88582500D01*
X139582071Y-88800214D01*
X139527642Y-88909071D01*
X139582071Y-87874928D02*
X138820071Y-87874928D01*
X138439071Y-87874928D02*
X138493500Y-87929357D01*
X138547928Y-87874928D01*
X138493500Y-87820500D01*
X138439071Y-87874928D01*
X138547928Y-87874928D01*
X138820071Y-87330642D02*
X139582071Y-87330642D01*
X138928928Y-87330642D02*
X138874500Y-87276214D01*
X138820071Y-87167357D01*
X138820071Y-87004071D01*
X138874500Y-86895214D01*
X138983357Y-86840785D01*
X139582071Y-86840785D01*
X138439071Y-86078785D02*
X138439071Y-85861071D01*
X138493500Y-85752214D01*
X138602357Y-85643357D01*
X138820071Y-85588928D01*
X139201071Y-85588928D01*
X139418785Y-85643357D01*
X139527642Y-85752214D01*
X139582071Y-85861071D01*
X139582071Y-86078785D01*
X139527642Y-86187642D01*
X139418785Y-86296500D01*
X139201071Y-86350928D01*
X138820071Y-86350928D01*
X138602357Y-86296500D01*
X138493500Y-86187642D01*
X138439071Y-86078785D01*
X139582071Y-84935785D02*
X139527642Y-85044642D01*
X139418785Y-85099071D01*
X138439071Y-85099071D01*
X139527642Y-84064928D02*
X139582071Y-84173785D01*
X139582071Y-84391500D01*
X139527642Y-84500357D01*
X139418785Y-84554785D01*
X138983357Y-84554785D01*
X138874500Y-84500357D01*
X138820071Y-84391500D01*
X138820071Y-84173785D01*
X138874500Y-84064928D01*
X138983357Y-84010500D01*
X139092214Y-84010500D01*
X139201071Y-84554785D01*
X138820071Y-83520642D02*
X139799785Y-83520642D01*
X139908642Y-83575071D01*
X139963071Y-83683928D01*
X139963071Y-83738357D01*
X138439071Y-83520642D02*
X138493500Y-83575071D01*
X138547928Y-83520642D01*
X138493500Y-83466214D01*
X138439071Y-83520642D01*
X138547928Y-83520642D01*
X138820071Y-82976357D02*
X139582071Y-82976357D01*
X138928928Y-82976357D02*
X138874500Y-82921928D01*
X138820071Y-82813071D01*
X138820071Y-82649785D01*
X138874500Y-82540928D01*
X138983357Y-82486500D01*
X139582071Y-82486500D01*
X139582071Y-81942214D02*
X138820071Y-81942214D01*
X138439071Y-81942214D02*
X138493500Y-81996642D01*
X138547928Y-81942214D01*
X138493500Y-81887785D01*
X138439071Y-81942214D01*
X138547928Y-81942214D01*
X139582071Y-81397928D02*
X138439071Y-81397928D01*
X139146642Y-81289071D02*
X139582071Y-80962500D01*
X138820071Y-80962500D02*
X139255500Y-81397928D01*
X139473214Y-80472642D02*
X139527642Y-80418214D01*
X139582071Y-80472642D01*
X139527642Y-80527071D01*
X139473214Y-80472642D01*
X139582071Y-80472642D01*
X139582071Y-79438500D02*
X138439071Y-79438500D01*
X139527642Y-79438500D02*
X139582071Y-79547357D01*
X139582071Y-79765071D01*
X139527642Y-79873928D01*
X139473214Y-79928357D01*
X139364357Y-79982785D01*
X139037785Y-79982785D01*
X138928928Y-79928357D01*
X138874500Y-79873928D01*
X138820071Y-79765071D01*
X138820071Y-79547357D01*
X138874500Y-79438500D01*
X139527642Y-78458785D02*
X139582071Y-78567642D01*
X139582071Y-78785357D01*
X139527642Y-78894214D01*
X139418785Y-78948642D01*
X138983357Y-78948642D01*
X138874500Y-78894214D01*
X138820071Y-78785357D01*
X138820071Y-78567642D01*
X138874500Y-78458785D01*
X138983357Y-78404357D01*
X139092214Y-78404357D01*
X139201071Y-78948642D01*
D11*
G04 #@! TO.C,C5*
X129281422Y-75807500D02*
X129798578Y-75807500D01*
X129281422Y-77227500D02*
X129798578Y-77227500D01*
G04 #@! TO.C,Q1*
X136215000Y-74737500D02*
X137145000Y-74737500D01*
X139375000Y-74737500D02*
X138445000Y-74737500D01*
X139375000Y-74737500D02*
X139375000Y-72577500D01*
X136215000Y-74737500D02*
X136215000Y-73277500D01*
G04 #@! TO.C,C1*
X137736078Y-62790000D02*
X137218922Y-62790000D01*
X137736078Y-64210000D02*
X137218922Y-64210000D01*
G04 #@! TO.C,C4*
X135948922Y-80570000D02*
X136466078Y-80570000D01*
X135948922Y-81990000D02*
X136466078Y-81990000D01*
G04 #@! TO.C,J1*
X129480000Y-91500000D02*
X129480000Y-90170000D01*
X130810000Y-91500000D02*
X129480000Y-91500000D01*
X129480000Y-88900000D02*
X129480000Y-86300000D01*
X132080000Y-88900000D02*
X129480000Y-88900000D01*
X132080000Y-91500000D02*
X132080000Y-88900000D01*
X129480000Y-86300000D02*
X137220000Y-86300000D01*
X132080000Y-91500000D02*
X137220000Y-91500000D01*
X137220000Y-91500000D02*
X137220000Y-86300000D01*
G04 #@! TO.C,R1*
X128646422Y-68020000D02*
X129163578Y-68020000D01*
X128646422Y-66600000D02*
X129163578Y-66600000D01*
G04 #@! TO.C,R2*
X128646422Y-64060000D02*
X129163578Y-64060000D01*
X128646422Y-65480000D02*
X129163578Y-65480000D01*
D12*
G04 #@! TO.C,REF\002A\002A*
G36*
X130234464Y-79840018D02*
X130291312Y-80141570D01*
X130710838Y-80314512D01*
X130962484Y-80143395D01*
X131032958Y-80095750D01*
X131096663Y-80053210D01*
X131150626Y-80017715D01*
X131191873Y-79991210D01*
X131217434Y-79975636D01*
X131224395Y-79972278D01*
X131236935Y-79980914D01*
X131263731Y-80004792D01*
X131301780Y-80040859D01*
X131348079Y-80086067D01*
X131399623Y-80137364D01*
X131453409Y-80191701D01*
X131506435Y-80246028D01*
X131555695Y-80297295D01*
X131598187Y-80342451D01*
X131630907Y-80378446D01*
X131650851Y-80402230D01*
X131655619Y-80410190D01*
X131648757Y-80424865D01*
X131629520Y-80457014D01*
X131599930Y-80503492D01*
X131562010Y-80561156D01*
X131517782Y-80626860D01*
X131492154Y-80664336D01*
X131445441Y-80732768D01*
X131403932Y-80794520D01*
X131369640Y-80846519D01*
X131344580Y-80885692D01*
X131330764Y-80908965D01*
X131328688Y-80913855D01*
X131333395Y-80927755D01*
X131346223Y-80960150D01*
X131365238Y-81006485D01*
X131388503Y-81062206D01*
X131414084Y-81122758D01*
X131440045Y-81183586D01*
X131464450Y-81240136D01*
X131485363Y-81287852D01*
X131500849Y-81322181D01*
X131508972Y-81338568D01*
X131509452Y-81339212D01*
X131522207Y-81342341D01*
X131556177Y-81349321D01*
X131607840Y-81359467D01*
X131673676Y-81372092D01*
X131750164Y-81386509D01*
X131794790Y-81394823D01*
X131876521Y-81410384D01*
X131950343Y-81425192D01*
X132012521Y-81438436D01*
X132059322Y-81449305D01*
X132087009Y-81456989D01*
X132092574Y-81459427D01*
X132098026Y-81475930D01*
X132102424Y-81513200D01*
X132105772Y-81566880D01*
X132108074Y-81632612D01*
X132109332Y-81706037D01*
X132109548Y-81782796D01*
X132108727Y-81858532D01*
X132106871Y-81928886D01*
X132103982Y-81989500D01*
X132100065Y-82036016D01*
X132095122Y-82064075D01*
X132092157Y-82069916D01*
X132074434Y-82076917D01*
X132036881Y-82086927D01*
X131984464Y-82098769D01*
X131922152Y-82111267D01*
X131900400Y-82115310D01*
X131795524Y-82134520D01*
X131712680Y-82149991D01*
X131649130Y-82162337D01*
X131602137Y-82172173D01*
X131568963Y-82180114D01*
X131546871Y-82186776D01*
X131533124Y-82192773D01*
X131524984Y-82198719D01*
X131523845Y-82199894D01*
X131512477Y-82218826D01*
X131495135Y-82255669D01*
X131473550Y-82305913D01*
X131449454Y-82365046D01*
X131424579Y-82428556D01*
X131400657Y-82491932D01*
X131379419Y-82550662D01*
X131362597Y-82600235D01*
X131351922Y-82636139D01*
X131349127Y-82653862D01*
X131349360Y-82654483D01*
X131358831Y-82668970D01*
X131380318Y-82700844D01*
X131411563Y-82746789D01*
X131450307Y-82803485D01*
X131494293Y-82867617D01*
X131506819Y-82885842D01*
X131551484Y-82951914D01*
X131590788Y-83012200D01*
X131622588Y-83063235D01*
X131644745Y-83101560D01*
X131655117Y-83123711D01*
X131655619Y-83126432D01*
X131646905Y-83140736D01*
X131622825Y-83169072D01*
X131586476Y-83208396D01*
X131540953Y-83255661D01*
X131489352Y-83307823D01*
X131434767Y-83361835D01*
X131380294Y-83414653D01*
X131329029Y-83463231D01*
X131284067Y-83504523D01*
X131248504Y-83535485D01*
X131225435Y-83553070D01*
X131219054Y-83555941D01*
X131204199Y-83549178D01*
X131173786Y-83530939D01*
X131132768Y-83504297D01*
X131101209Y-83482852D01*
X131044025Y-83443503D01*
X130976306Y-83397171D01*
X130908380Y-83350913D01*
X130871861Y-83326155D01*
X130748252Y-83242547D01*
X130644491Y-83298650D01*
X130597220Y-83323228D01*
X130557023Y-83342331D01*
X130529826Y-83353227D01*
X130522902Y-83354743D01*
X130514577Y-83343549D01*
X130498154Y-83311917D01*
X130474857Y-83262765D01*
X130445914Y-83199010D01*
X130412550Y-83123571D01*
X130375991Y-83039364D01*
X130337464Y-82949308D01*
X130298194Y-82856321D01*
X130259408Y-82763320D01*
X130222330Y-82673223D01*
X130188189Y-82588948D01*
X130158208Y-82513413D01*
X130133616Y-82449534D01*
X130115636Y-82400231D01*
X130105497Y-82368421D01*
X130103866Y-82357496D01*
X130116791Y-82343561D01*
X130145089Y-82320940D01*
X130182846Y-82294333D01*
X130186015Y-82292228D01*
X130283600Y-82214114D01*
X130362286Y-82122982D01*
X130421391Y-82021745D01*
X130460232Y-81913318D01*
X130478128Y-81800614D01*
X130474397Y-81686548D01*
X130448357Y-81574034D01*
X130399325Y-81465985D01*
X130384900Y-81442345D01*
X130309869Y-81346887D01*
X130221230Y-81270232D01*
X130122049Y-81212780D01*
X130015395Y-81174929D01*
X129904336Y-81157078D01*
X129791939Y-81159625D01*
X129681273Y-81182970D01*
X129575406Y-81227510D01*
X129477405Y-81293645D01*
X129447090Y-81320487D01*
X129369938Y-81404512D01*
X129313718Y-81492966D01*
X129275153Y-81592115D01*
X129253674Y-81690303D01*
X129248372Y-81800697D01*
X129266052Y-81911640D01*
X129304919Y-82019381D01*
X129363177Y-82120169D01*
X129439031Y-82210256D01*
X129530683Y-82285892D01*
X129542728Y-82293864D01*
X129580889Y-82319974D01*
X129609899Y-82342595D01*
X129623768Y-82357039D01*
X129623969Y-82357496D01*
X129620992Y-82373121D01*
X129609189Y-82408582D01*
X129589786Y-82460962D01*
X129564012Y-82527345D01*
X129533091Y-82604814D01*
X129498251Y-82690450D01*
X129460717Y-82781337D01*
X129421717Y-82874559D01*
X129382477Y-82967197D01*
X129344224Y-83056335D01*
X129308183Y-83139055D01*
X129275583Y-83212441D01*
X129247648Y-83273575D01*
X129225605Y-83319541D01*
X129210682Y-83347421D01*
X129204672Y-83354743D01*
X129186309Y-83349041D01*
X129151948Y-83333749D01*
X129107516Y-83311599D01*
X129083083Y-83298650D01*
X128979322Y-83242547D01*
X128855713Y-83326155D01*
X128792614Y-83368987D01*
X128723530Y-83416122D01*
X128658793Y-83460503D01*
X128626366Y-83482852D01*
X128580759Y-83513477D01*
X128542140Y-83537747D01*
X128515548Y-83552587D01*
X128506910Y-83555724D01*
X128494339Y-83547261D01*
X128466516Y-83523636D01*
X128426139Y-83487302D01*
X128375905Y-83440711D01*
X128318512Y-83386317D01*
X128282214Y-83351392D01*
X128218710Y-83288996D01*
X128163827Y-83233188D01*
X128119786Y-83186354D01*
X128088805Y-83150882D01*
X128073102Y-83129161D01*
X128071595Y-83124752D01*
X128078586Y-83107985D01*
X128097906Y-83074082D01*
X128127409Y-83026476D01*
X128164955Y-82968599D01*
X128208400Y-82903884D01*
X128220755Y-82885842D01*
X128265773Y-82820267D01*
X128306160Y-82761228D01*
X128339660Y-82712042D01*
X128364014Y-82676028D01*
X128376964Y-82656502D01*
X128378215Y-82654483D01*
X128376344Y-82638922D01*
X128366413Y-82604709D01*
X128350153Y-82556355D01*
X128329295Y-82498371D01*
X128305573Y-82435270D01*
X128280716Y-82371563D01*
X128256458Y-82311761D01*
X128234529Y-82260376D01*
X128216662Y-82221919D01*
X128204587Y-82200902D01*
X128203729Y-82199894D01*
X128196346Y-82193888D01*
X128183875Y-82187948D01*
X128163580Y-82181460D01*
X128132722Y-82173809D01*
X128088566Y-82164380D01*
X128028374Y-82152559D01*
X127949407Y-82137729D01*
X127848930Y-82119277D01*
X127827175Y-82115310D01*
X127762698Y-82102853D01*
X127706489Y-82090666D01*
X127663513Y-82079926D01*
X127638740Y-82071809D01*
X127635418Y-82069916D01*
X127629944Y-82053138D01*
X127625494Y-82015645D01*
X127622072Y-81961794D01*
X127619681Y-81895944D01*
X127618323Y-81822453D01*
X127618001Y-81745680D01*
X127618719Y-81669983D01*
X127620479Y-81599720D01*
X127623284Y-81539250D01*
X127627138Y-81492930D01*
X127632043Y-81465119D01*
X127635000Y-81459427D01*
X127651463Y-81453686D01*
X127688949Y-81444345D01*
X127743725Y-81432215D01*
X127812055Y-81418107D01*
X127890206Y-81402830D01*
X127932784Y-81394823D01*
X128013571Y-81379721D01*
X128085613Y-81366040D01*
X128145389Y-81354467D01*
X128189379Y-81345687D01*
X128214061Y-81340387D01*
X128218123Y-81339212D01*
X128224989Y-81325965D01*
X128239502Y-81294057D01*
X128259729Y-81248047D01*
X128283734Y-81192492D01*
X128309582Y-81131953D01*
X128335340Y-81070986D01*
X128359073Y-81014151D01*
X128378846Y-80966006D01*
X128392724Y-80931110D01*
X128398774Y-80914021D01*
X128398886Y-80913274D01*
X128392028Y-80899793D01*
X128372802Y-80868770D01*
X128343228Y-80823289D01*
X128305327Y-80766432D01*
X128261120Y-80701283D01*
X128235421Y-80663862D01*
X128188593Y-80595247D01*
X128147001Y-80532952D01*
X128112675Y-80480129D01*
X128087643Y-80439927D01*
X128073935Y-80415500D01*
X128071956Y-80410024D01*
X128080466Y-80397278D01*
X128103993Y-80370063D01*
X128139532Y-80331428D01*
X128184077Y-80284423D01*
X128234623Y-80232095D01*
X128288164Y-80177495D01*
X128341695Y-80123670D01*
X128392211Y-80073670D01*
X128436706Y-80030543D01*
X128472175Y-79997339D01*
X128495613Y-79977106D01*
X128503454Y-79972278D01*
X128516220Y-79979067D01*
X128546756Y-79998142D01*
X128592090Y-80027561D01*
X128649256Y-80065381D01*
X128715284Y-80109661D01*
X128765090Y-80143395D01*
X129016736Y-80314512D01*
X129226499Y-80228041D01*
X129436263Y-80141570D01*
X129493111Y-79840018D01*
X129549960Y-79538466D01*
X130177615Y-79538466D01*
X130234464Y-79840018D01*
X130234464Y-79840018D01*
G37*
X130234464Y-79840018D02*
X130291312Y-80141570D01*
X130710838Y-80314512D01*
X130962484Y-80143395D01*
X131032958Y-80095750D01*
X131096663Y-80053210D01*
X131150626Y-80017715D01*
X131191873Y-79991210D01*
X131217434Y-79975636D01*
X131224395Y-79972278D01*
X131236935Y-79980914D01*
X131263731Y-80004792D01*
X131301780Y-80040859D01*
X131348079Y-80086067D01*
X131399623Y-80137364D01*
X131453409Y-80191701D01*
X131506435Y-80246028D01*
X131555695Y-80297295D01*
X131598187Y-80342451D01*
X131630907Y-80378446D01*
X131650851Y-80402230D01*
X131655619Y-80410190D01*
X131648757Y-80424865D01*
X131629520Y-80457014D01*
X131599930Y-80503492D01*
X131562010Y-80561156D01*
X131517782Y-80626860D01*
X131492154Y-80664336D01*
X131445441Y-80732768D01*
X131403932Y-80794520D01*
X131369640Y-80846519D01*
X131344580Y-80885692D01*
X131330764Y-80908965D01*
X131328688Y-80913855D01*
X131333395Y-80927755D01*
X131346223Y-80960150D01*
X131365238Y-81006485D01*
X131388503Y-81062206D01*
X131414084Y-81122758D01*
X131440045Y-81183586D01*
X131464450Y-81240136D01*
X131485363Y-81287852D01*
X131500849Y-81322181D01*
X131508972Y-81338568D01*
X131509452Y-81339212D01*
X131522207Y-81342341D01*
X131556177Y-81349321D01*
X131607840Y-81359467D01*
X131673676Y-81372092D01*
X131750164Y-81386509D01*
X131794790Y-81394823D01*
X131876521Y-81410384D01*
X131950343Y-81425192D01*
X132012521Y-81438436D01*
X132059322Y-81449305D01*
X132087009Y-81456989D01*
X132092574Y-81459427D01*
X132098026Y-81475930D01*
X132102424Y-81513200D01*
X132105772Y-81566880D01*
X132108074Y-81632612D01*
X132109332Y-81706037D01*
X132109548Y-81782796D01*
X132108727Y-81858532D01*
X132106871Y-81928886D01*
X132103982Y-81989500D01*
X132100065Y-82036016D01*
X132095122Y-82064075D01*
X132092157Y-82069916D01*
X132074434Y-82076917D01*
X132036881Y-82086927D01*
X131984464Y-82098769D01*
X131922152Y-82111267D01*
X131900400Y-82115310D01*
X131795524Y-82134520D01*
X131712680Y-82149991D01*
X131649130Y-82162337D01*
X131602137Y-82172173D01*
X131568963Y-82180114D01*
X131546871Y-82186776D01*
X131533124Y-82192773D01*
X131524984Y-82198719D01*
X131523845Y-82199894D01*
X131512477Y-82218826D01*
X131495135Y-82255669D01*
X131473550Y-82305913D01*
X131449454Y-82365046D01*
X131424579Y-82428556D01*
X131400657Y-82491932D01*
X131379419Y-82550662D01*
X131362597Y-82600235D01*
X131351922Y-82636139D01*
X131349127Y-82653862D01*
X131349360Y-82654483D01*
X131358831Y-82668970D01*
X131380318Y-82700844D01*
X131411563Y-82746789D01*
X131450307Y-82803485D01*
X131494293Y-82867617D01*
X131506819Y-82885842D01*
X131551484Y-82951914D01*
X131590788Y-83012200D01*
X131622588Y-83063235D01*
X131644745Y-83101560D01*
X131655117Y-83123711D01*
X131655619Y-83126432D01*
X131646905Y-83140736D01*
X131622825Y-83169072D01*
X131586476Y-83208396D01*
X131540953Y-83255661D01*
X131489352Y-83307823D01*
X131434767Y-83361835D01*
X131380294Y-83414653D01*
X131329029Y-83463231D01*
X131284067Y-83504523D01*
X131248504Y-83535485D01*
X131225435Y-83553070D01*
X131219054Y-83555941D01*
X131204199Y-83549178D01*
X131173786Y-83530939D01*
X131132768Y-83504297D01*
X131101209Y-83482852D01*
X131044025Y-83443503D01*
X130976306Y-83397171D01*
X130908380Y-83350913D01*
X130871861Y-83326155D01*
X130748252Y-83242547D01*
X130644491Y-83298650D01*
X130597220Y-83323228D01*
X130557023Y-83342331D01*
X130529826Y-83353227D01*
X130522902Y-83354743D01*
X130514577Y-83343549D01*
X130498154Y-83311917D01*
X130474857Y-83262765D01*
X130445914Y-83199010D01*
X130412550Y-83123571D01*
X130375991Y-83039364D01*
X130337464Y-82949308D01*
X130298194Y-82856321D01*
X130259408Y-82763320D01*
X130222330Y-82673223D01*
X130188189Y-82588948D01*
X130158208Y-82513413D01*
X130133616Y-82449534D01*
X130115636Y-82400231D01*
X130105497Y-82368421D01*
X130103866Y-82357496D01*
X130116791Y-82343561D01*
X130145089Y-82320940D01*
X130182846Y-82294333D01*
X130186015Y-82292228D01*
X130283600Y-82214114D01*
X130362286Y-82122982D01*
X130421391Y-82021745D01*
X130460232Y-81913318D01*
X130478128Y-81800614D01*
X130474397Y-81686548D01*
X130448357Y-81574034D01*
X130399325Y-81465985D01*
X130384900Y-81442345D01*
X130309869Y-81346887D01*
X130221230Y-81270232D01*
X130122049Y-81212780D01*
X130015395Y-81174929D01*
X129904336Y-81157078D01*
X129791939Y-81159625D01*
X129681273Y-81182970D01*
X129575406Y-81227510D01*
X129477405Y-81293645D01*
X129447090Y-81320487D01*
X129369938Y-81404512D01*
X129313718Y-81492966D01*
X129275153Y-81592115D01*
X129253674Y-81690303D01*
X129248372Y-81800697D01*
X129266052Y-81911640D01*
X129304919Y-82019381D01*
X129363177Y-82120169D01*
X129439031Y-82210256D01*
X129530683Y-82285892D01*
X129542728Y-82293864D01*
X129580889Y-82319974D01*
X129609899Y-82342595D01*
X129623768Y-82357039D01*
X129623969Y-82357496D01*
X129620992Y-82373121D01*
X129609189Y-82408582D01*
X129589786Y-82460962D01*
X129564012Y-82527345D01*
X129533091Y-82604814D01*
X129498251Y-82690450D01*
X129460717Y-82781337D01*
X129421717Y-82874559D01*
X129382477Y-82967197D01*
X129344224Y-83056335D01*
X129308183Y-83139055D01*
X129275583Y-83212441D01*
X129247648Y-83273575D01*
X129225605Y-83319541D01*
X129210682Y-83347421D01*
X129204672Y-83354743D01*
X129186309Y-83349041D01*
X129151948Y-83333749D01*
X129107516Y-83311599D01*
X129083083Y-83298650D01*
X128979322Y-83242547D01*
X128855713Y-83326155D01*
X128792614Y-83368987D01*
X128723530Y-83416122D01*
X128658793Y-83460503D01*
X128626366Y-83482852D01*
X128580759Y-83513477D01*
X128542140Y-83537747D01*
X128515548Y-83552587D01*
X128506910Y-83555724D01*
X128494339Y-83547261D01*
X128466516Y-83523636D01*
X128426139Y-83487302D01*
X128375905Y-83440711D01*
X128318512Y-83386317D01*
X128282214Y-83351392D01*
X128218710Y-83288996D01*
X128163827Y-83233188D01*
X128119786Y-83186354D01*
X128088805Y-83150882D01*
X128073102Y-83129161D01*
X128071595Y-83124752D01*
X128078586Y-83107985D01*
X128097906Y-83074082D01*
X128127409Y-83026476D01*
X128164955Y-82968599D01*
X128208400Y-82903884D01*
X128220755Y-82885842D01*
X128265773Y-82820267D01*
X128306160Y-82761228D01*
X128339660Y-82712042D01*
X128364014Y-82676028D01*
X128376964Y-82656502D01*
X128378215Y-82654483D01*
X128376344Y-82638922D01*
X128366413Y-82604709D01*
X128350153Y-82556355D01*
X128329295Y-82498371D01*
X128305573Y-82435270D01*
X128280716Y-82371563D01*
X128256458Y-82311761D01*
X128234529Y-82260376D01*
X128216662Y-82221919D01*
X128204587Y-82200902D01*
X128203729Y-82199894D01*
X128196346Y-82193888D01*
X128183875Y-82187948D01*
X128163580Y-82181460D01*
X128132722Y-82173809D01*
X128088566Y-82164380D01*
X128028374Y-82152559D01*
X127949407Y-82137729D01*
X127848930Y-82119277D01*
X127827175Y-82115310D01*
X127762698Y-82102853D01*
X127706489Y-82090666D01*
X127663513Y-82079926D01*
X127638740Y-82071809D01*
X127635418Y-82069916D01*
X127629944Y-82053138D01*
X127625494Y-82015645D01*
X127622072Y-81961794D01*
X127619681Y-81895944D01*
X127618323Y-81822453D01*
X127618001Y-81745680D01*
X127618719Y-81669983D01*
X127620479Y-81599720D01*
X127623284Y-81539250D01*
X127627138Y-81492930D01*
X127632043Y-81465119D01*
X127635000Y-81459427D01*
X127651463Y-81453686D01*
X127688949Y-81444345D01*
X127743725Y-81432215D01*
X127812055Y-81418107D01*
X127890206Y-81402830D01*
X127932784Y-81394823D01*
X128013571Y-81379721D01*
X128085613Y-81366040D01*
X128145389Y-81354467D01*
X128189379Y-81345687D01*
X128214061Y-81340387D01*
X128218123Y-81339212D01*
X128224989Y-81325965D01*
X128239502Y-81294057D01*
X128259729Y-81248047D01*
X128283734Y-81192492D01*
X128309582Y-81131953D01*
X128335340Y-81070986D01*
X128359073Y-81014151D01*
X128378846Y-80966006D01*
X128392724Y-80931110D01*
X128398774Y-80914021D01*
X128398886Y-80913274D01*
X128392028Y-80899793D01*
X128372802Y-80868770D01*
X128343228Y-80823289D01*
X128305327Y-80766432D01*
X128261120Y-80701283D01*
X128235421Y-80663862D01*
X128188593Y-80595247D01*
X128147001Y-80532952D01*
X128112675Y-80480129D01*
X128087643Y-80439927D01*
X128073935Y-80415500D01*
X128071956Y-80410024D01*
X128080466Y-80397278D01*
X128103993Y-80370063D01*
X128139532Y-80331428D01*
X128184077Y-80284423D01*
X128234623Y-80232095D01*
X128288164Y-80177495D01*
X128341695Y-80123670D01*
X128392211Y-80073670D01*
X128436706Y-80030543D01*
X128472175Y-79997339D01*
X128495613Y-79977106D01*
X128503454Y-79972278D01*
X128516220Y-79979067D01*
X128546756Y-79998142D01*
X128592090Y-80027561D01*
X128649256Y-80065381D01*
X128715284Y-80109661D01*
X128765090Y-80143395D01*
X129016736Y-80314512D01*
X129226499Y-80228041D01*
X129436263Y-80141570D01*
X129493111Y-79840018D01*
X129549960Y-79538466D01*
X130177615Y-79538466D01*
X130234464Y-79840018D01*
G36*
X131656960Y-84008030D02*
X131700211Y-84021245D01*
X131728058Y-84037941D01*
X131737129Y-84051145D01*
X131734632Y-84066797D01*
X131718431Y-84091385D01*
X131704732Y-84108800D01*
X131676492Y-84140283D01*
X131655275Y-84153529D01*
X131637188Y-84152664D01*
X131583535Y-84139010D01*
X131544130Y-84139630D01*
X131512132Y-84155104D01*
X131501390Y-84164161D01*
X131467005Y-84196027D01*
X131467005Y-84612179D01*
X131328688Y-84612179D01*
X131328688Y-84008614D01*
X131397847Y-84008614D01*
X131439369Y-84010256D01*
X131460791Y-84016087D01*
X131467002Y-84027461D01*
X131467005Y-84027798D01*
X131469939Y-84039713D01*
X131483204Y-84038159D01*
X131501584Y-84029563D01*
X131539546Y-84013568D01*
X131570372Y-84003945D01*
X131610036Y-84001478D01*
X131656960Y-84008030D01*
X131656960Y-84008030D01*
G37*
X131656960Y-84008030D02*
X131700211Y-84021245D01*
X131728058Y-84037941D01*
X131737129Y-84051145D01*
X131734632Y-84066797D01*
X131718431Y-84091385D01*
X131704732Y-84108800D01*
X131676492Y-84140283D01*
X131655275Y-84153529D01*
X131637188Y-84152664D01*
X131583535Y-84139010D01*
X131544130Y-84139630D01*
X131512132Y-84155104D01*
X131501390Y-84164161D01*
X131467005Y-84196027D01*
X131467005Y-84612179D01*
X131328688Y-84612179D01*
X131328688Y-84008614D01*
X131397847Y-84008614D01*
X131439369Y-84010256D01*
X131460791Y-84016087D01*
X131467002Y-84027461D01*
X131467005Y-84027798D01*
X131469939Y-84039713D01*
X131483204Y-84038159D01*
X131501584Y-84029563D01*
X131539546Y-84013568D01*
X131570372Y-84003945D01*
X131610036Y-84001478D01*
X131656960Y-84008030D01*
G36*
X129103488Y-84019002D02*
X129134783Y-84033950D01*
X129165091Y-84055541D01*
X129188182Y-84080391D01*
X129205000Y-84112087D01*
X129216494Y-84154214D01*
X129223609Y-84210358D01*
X129227293Y-84284106D01*
X129228492Y-84379044D01*
X129228511Y-84388985D01*
X129228787Y-84612179D01*
X129090470Y-84612179D01*
X129090470Y-84406418D01*
X129090372Y-84330189D01*
X129089691Y-84274939D01*
X129087849Y-84236501D01*
X129084267Y-84210706D01*
X129078368Y-84193384D01*
X129069573Y-84180368D01*
X129057320Y-84167507D01*
X129014453Y-84139873D01*
X128967657Y-84134745D01*
X128923076Y-84152217D01*
X128907572Y-84165221D01*
X128896190Y-84177447D01*
X128888019Y-84190540D01*
X128882526Y-84208615D01*
X128879180Y-84235787D01*
X128877449Y-84276170D01*
X128876803Y-84333879D01*
X128876708Y-84404132D01*
X128876708Y-84612179D01*
X128738391Y-84612179D01*
X128738391Y-84008614D01*
X128807550Y-84008614D01*
X128849072Y-84010256D01*
X128870494Y-84016087D01*
X128876705Y-84027461D01*
X128876708Y-84027798D01*
X128879590Y-84038938D01*
X128892301Y-84037674D01*
X128917574Y-84025434D01*
X128974895Y-84007424D01*
X129040463Y-84005421D01*
X129103488Y-84019002D01*
X129103488Y-84019002D01*
G37*
X129103488Y-84019002D02*
X129134783Y-84033950D01*
X129165091Y-84055541D01*
X129188182Y-84080391D01*
X129205000Y-84112087D01*
X129216494Y-84154214D01*
X129223609Y-84210358D01*
X129227293Y-84284106D01*
X129228492Y-84379044D01*
X129228511Y-84388985D01*
X129228787Y-84612179D01*
X129090470Y-84612179D01*
X129090470Y-84406418D01*
X129090372Y-84330189D01*
X129089691Y-84274939D01*
X129087849Y-84236501D01*
X129084267Y-84210706D01*
X129078368Y-84193384D01*
X129069573Y-84180368D01*
X129057320Y-84167507D01*
X129014453Y-84139873D01*
X128967657Y-84134745D01*
X128923076Y-84152217D01*
X128907572Y-84165221D01*
X128896190Y-84177447D01*
X128888019Y-84190540D01*
X128882526Y-84208615D01*
X128879180Y-84235787D01*
X128877449Y-84276170D01*
X128876803Y-84333879D01*
X128876708Y-84404132D01*
X128876708Y-84612179D01*
X128738391Y-84612179D01*
X128738391Y-84008614D01*
X128807550Y-84008614D01*
X128849072Y-84010256D01*
X128870494Y-84016087D01*
X128876705Y-84027461D01*
X128876708Y-84027798D01*
X128879590Y-84038938D01*
X128892301Y-84037674D01*
X128917574Y-84025434D01*
X128974895Y-84007424D01*
X129040463Y-84005421D01*
X129103488Y-84019002D01*
G36*
X132535398Y-84006457D02*
X132567596Y-84014279D01*
X132629325Y-84042921D01*
X132682110Y-84086667D01*
X132718641Y-84139117D01*
X132723660Y-84150893D01*
X132730545Y-84181740D01*
X132735364Y-84227371D01*
X132737005Y-84273492D01*
X132737005Y-84360693D01*
X132554678Y-84360693D01*
X132479479Y-84360978D01*
X132426503Y-84362704D01*
X132392825Y-84367181D01*
X132375520Y-84375720D01*
X132371663Y-84389630D01*
X132378329Y-84410222D01*
X132390270Y-84434315D01*
X132423580Y-84474525D01*
X132469868Y-84494558D01*
X132526444Y-84493905D01*
X132590531Y-84472101D01*
X132645917Y-84445193D01*
X132691875Y-84481532D01*
X132737833Y-84517872D01*
X132694596Y-84557819D01*
X132636874Y-84595563D01*
X132565886Y-84618320D01*
X132489529Y-84624688D01*
X132415699Y-84613268D01*
X132403787Y-84609393D01*
X132338899Y-84575506D01*
X132290630Y-84524986D01*
X132257965Y-84456325D01*
X132239885Y-84368014D01*
X132239675Y-84366121D01*
X132238056Y-84269878D01*
X132244600Y-84235542D01*
X132372352Y-84235542D01*
X132384084Y-84240822D01*
X132415938Y-84244867D01*
X132462897Y-84247176D01*
X132492654Y-84247525D01*
X132548148Y-84247306D01*
X132582846Y-84245916D01*
X132601101Y-84242251D01*
X132607266Y-84235210D01*
X132605695Y-84223690D01*
X132604378Y-84219233D01*
X132581882Y-84177355D01*
X132546503Y-84143604D01*
X132515280Y-84128773D01*
X132473801Y-84129668D01*
X132431769Y-84148164D01*
X132396512Y-84178786D01*
X132375354Y-84216062D01*
X132372352Y-84235542D01*
X132244600Y-84235542D01*
X132254190Y-84185229D01*
X132286198Y-84114191D01*
X132332201Y-84058779D01*
X132390321Y-84021009D01*
X132458680Y-84002896D01*
X132535398Y-84006457D01*
X132535398Y-84006457D01*
G37*
X132535398Y-84006457D02*
X132567596Y-84014279D01*
X132629325Y-84042921D01*
X132682110Y-84086667D01*
X132718641Y-84139117D01*
X132723660Y-84150893D01*
X132730545Y-84181740D01*
X132735364Y-84227371D01*
X132737005Y-84273492D01*
X132737005Y-84360693D01*
X132554678Y-84360693D01*
X132479479Y-84360978D01*
X132426503Y-84362704D01*
X132392825Y-84367181D01*
X132375520Y-84375720D01*
X132371663Y-84389630D01*
X132378329Y-84410222D01*
X132390270Y-84434315D01*
X132423580Y-84474525D01*
X132469868Y-84494558D01*
X132526444Y-84493905D01*
X132590531Y-84472101D01*
X132645917Y-84445193D01*
X132691875Y-84481532D01*
X132737833Y-84517872D01*
X132694596Y-84557819D01*
X132636874Y-84595563D01*
X132565886Y-84618320D01*
X132489529Y-84624688D01*
X132415699Y-84613268D01*
X132403787Y-84609393D01*
X132338899Y-84575506D01*
X132290630Y-84524986D01*
X132257965Y-84456325D01*
X132239885Y-84368014D01*
X132239675Y-84366121D01*
X132238056Y-84269878D01*
X132244600Y-84235542D01*
X132372352Y-84235542D01*
X132384084Y-84240822D01*
X132415938Y-84244867D01*
X132462897Y-84247176D01*
X132492654Y-84247525D01*
X132548148Y-84247306D01*
X132582846Y-84245916D01*
X132601101Y-84242251D01*
X132607266Y-84235210D01*
X132605695Y-84223690D01*
X132604378Y-84219233D01*
X132581882Y-84177355D01*
X132546503Y-84143604D01*
X132515280Y-84128773D01*
X132473801Y-84129668D01*
X132431769Y-84148164D01*
X132396512Y-84178786D01*
X132375354Y-84216062D01*
X132372352Y-84235542D01*
X132244600Y-84235542D01*
X132254190Y-84185229D01*
X132286198Y-84114191D01*
X132332201Y-84058779D01*
X132390321Y-84021009D01*
X132458680Y-84002896D01*
X132535398Y-84006457D01*
G36*
X132074726Y-84013880D02*
X132147580Y-84044830D01*
X132170527Y-84059895D01*
X132199854Y-84083048D01*
X132218264Y-84101253D01*
X132221461Y-84107183D01*
X132212435Y-84120340D01*
X132189337Y-84142667D01*
X132170844Y-84158250D01*
X132120228Y-84198926D01*
X132080260Y-84165295D01*
X132049374Y-84143584D01*
X132019259Y-84136090D01*
X131984792Y-84137920D01*
X131930061Y-84151528D01*
X131892386Y-84179772D01*
X131869491Y-84225433D01*
X131859097Y-84291289D01*
X131859095Y-84291331D01*
X131859994Y-84364939D01*
X131873963Y-84418946D01*
X131901828Y-84455716D01*
X131920825Y-84468168D01*
X131971276Y-84483673D01*
X132025163Y-84483683D01*
X132072046Y-84468638D01*
X132083144Y-84461287D01*
X132110976Y-84442511D01*
X132132736Y-84439434D01*
X132156204Y-84453409D01*
X132182149Y-84478510D01*
X132223216Y-84520880D01*
X132177621Y-84558464D01*
X132107174Y-84600882D01*
X132027733Y-84621785D01*
X131944715Y-84620272D01*
X131890194Y-84606411D01*
X131826470Y-84572135D01*
X131775505Y-84518212D01*
X131752351Y-84480149D01*
X131733599Y-84425536D01*
X131724215Y-84356369D01*
X131724143Y-84281407D01*
X131733324Y-84209409D01*
X131751699Y-84149137D01*
X131754593Y-84142958D01*
X131797452Y-84082351D01*
X131855479Y-84038224D01*
X131924091Y-84011493D01*
X131998701Y-84003073D01*
X132074726Y-84013880D01*
X132074726Y-84013880D01*
G37*
X132074726Y-84013880D02*
X132147580Y-84044830D01*
X132170527Y-84059895D01*
X132199854Y-84083048D01*
X132218264Y-84101253D01*
X132221461Y-84107183D01*
X132212435Y-84120340D01*
X132189337Y-84142667D01*
X132170844Y-84158250D01*
X132120228Y-84198926D01*
X132080260Y-84165295D01*
X132049374Y-84143584D01*
X132019259Y-84136090D01*
X131984792Y-84137920D01*
X131930061Y-84151528D01*
X131892386Y-84179772D01*
X131869491Y-84225433D01*
X131859097Y-84291289D01*
X131859095Y-84291331D01*
X131859994Y-84364939D01*
X131873963Y-84418946D01*
X131901828Y-84455716D01*
X131920825Y-84468168D01*
X131971276Y-84483673D01*
X132025163Y-84483683D01*
X132072046Y-84468638D01*
X132083144Y-84461287D01*
X132110976Y-84442511D01*
X132132736Y-84439434D01*
X132156204Y-84453409D01*
X132182149Y-84478510D01*
X132223216Y-84520880D01*
X132177621Y-84558464D01*
X132107174Y-84600882D01*
X132027733Y-84621785D01*
X131944715Y-84620272D01*
X131890194Y-84606411D01*
X131826470Y-84572135D01*
X131775505Y-84518212D01*
X131752351Y-84480149D01*
X131733599Y-84425536D01*
X131724215Y-84356369D01*
X131724143Y-84281407D01*
X131733324Y-84209409D01*
X131751699Y-84149137D01*
X131754593Y-84142958D01*
X131797452Y-84082351D01*
X131855479Y-84038224D01*
X131924091Y-84011493D01*
X131998701Y-84003073D01*
X132074726Y-84013880D01*
G36*
X130850867Y-84204342D02*
X130852055Y-84296563D01*
X130856397Y-84366610D01*
X130865058Y-84417381D01*
X130879204Y-84451772D01*
X130900000Y-84472679D01*
X130928610Y-84483000D01*
X130964035Y-84485636D01*
X131001136Y-84482682D01*
X131029318Y-84471889D01*
X131049743Y-84450360D01*
X131063579Y-84415199D01*
X131071991Y-84363510D01*
X131076143Y-84292394D01*
X131077203Y-84204342D01*
X131077203Y-84008614D01*
X131215520Y-84008614D01*
X131215520Y-84612179D01*
X131146362Y-84612179D01*
X131104670Y-84610489D01*
X131083201Y-84604556D01*
X131077203Y-84593293D01*
X131073591Y-84583261D01*
X131059214Y-84585383D01*
X131030236Y-84599580D01*
X130963819Y-84621480D01*
X130893375Y-84619928D01*
X130825877Y-84596147D01*
X130793733Y-84577362D01*
X130769215Y-84557022D01*
X130751304Y-84531573D01*
X130738979Y-84497458D01*
X130731223Y-84451121D01*
X130727016Y-84389007D01*
X130725340Y-84307561D01*
X130725124Y-84244578D01*
X130725124Y-84008614D01*
X130850867Y-84008614D01*
X130850867Y-84204342D01*
X130850867Y-84204342D01*
G37*
X130850867Y-84204342D02*
X130852055Y-84296563D01*
X130856397Y-84366610D01*
X130865058Y-84417381D01*
X130879204Y-84451772D01*
X130900000Y-84472679D01*
X130928610Y-84483000D01*
X130964035Y-84485636D01*
X131001136Y-84482682D01*
X131029318Y-84471889D01*
X131049743Y-84450360D01*
X131063579Y-84415199D01*
X131071991Y-84363510D01*
X131076143Y-84292394D01*
X131077203Y-84204342D01*
X131077203Y-84008614D01*
X131215520Y-84008614D01*
X131215520Y-84612179D01*
X131146362Y-84612179D01*
X131104670Y-84610489D01*
X131083201Y-84604556D01*
X131077203Y-84593293D01*
X131073591Y-84583261D01*
X131059214Y-84585383D01*
X131030236Y-84599580D01*
X130963819Y-84621480D01*
X130893375Y-84619928D01*
X130825877Y-84596147D01*
X130793733Y-84577362D01*
X130769215Y-84557022D01*
X130751304Y-84531573D01*
X130738979Y-84497458D01*
X130731223Y-84451121D01*
X130727016Y-84389007D01*
X130725340Y-84307561D01*
X130725124Y-84244578D01*
X130725124Y-84008614D01*
X130850867Y-84008614D01*
X130850867Y-84204342D01*
G36*
X130468262Y-84016055D02*
X130531863Y-84050692D01*
X130581623Y-84105372D01*
X130605068Y-84149842D01*
X130615134Y-84189121D01*
X130621656Y-84245116D01*
X130624451Y-84309621D01*
X130623336Y-84374429D01*
X130618126Y-84431334D01*
X130612041Y-84461727D01*
X130591514Y-84503306D01*
X130555963Y-84547468D01*
X130513119Y-84586087D01*
X130470711Y-84611034D01*
X130469677Y-84611430D01*
X130417053Y-84622331D01*
X130354688Y-84622601D01*
X130295424Y-84612676D01*
X130272540Y-84604722D01*
X130213602Y-84571300D01*
X130171390Y-84527511D01*
X130143656Y-84469538D01*
X130128151Y-84393565D01*
X130124643Y-84353771D01*
X130125090Y-84303766D01*
X130259876Y-84303766D01*
X130264417Y-84376732D01*
X130277486Y-84432334D01*
X130298256Y-84467861D01*
X130313052Y-84478020D01*
X130350964Y-84485104D01*
X130396027Y-84483007D01*
X130434987Y-84472812D01*
X130445204Y-84467204D01*
X130472159Y-84434538D01*
X130489951Y-84384545D01*
X130497524Y-84323705D01*
X130493825Y-84258497D01*
X130485557Y-84219253D01*
X130461820Y-84173805D01*
X130424349Y-84145396D01*
X130379220Y-84135573D01*
X130332511Y-84145887D01*
X130296632Y-84171112D01*
X130277777Y-84191925D01*
X130266772Y-84212439D01*
X130261526Y-84240203D01*
X130259949Y-84282762D01*
X130259876Y-84303766D01*
X130125090Y-84303766D01*
X130125594Y-84247580D01*
X130142888Y-84160501D01*
X130176529Y-84092530D01*
X130226518Y-84043664D01*
X130292856Y-84013899D01*
X130307101Y-84010448D01*
X130392710Y-84002345D01*
X130468262Y-84016055D01*
X130468262Y-84016055D01*
G37*
X130468262Y-84016055D02*
X130531863Y-84050692D01*
X130581623Y-84105372D01*
X130605068Y-84149842D01*
X130615134Y-84189121D01*
X130621656Y-84245116D01*
X130624451Y-84309621D01*
X130623336Y-84374429D01*
X130618126Y-84431334D01*
X130612041Y-84461727D01*
X130591514Y-84503306D01*
X130555963Y-84547468D01*
X130513119Y-84586087D01*
X130470711Y-84611034D01*
X130469677Y-84611430D01*
X130417053Y-84622331D01*
X130354688Y-84622601D01*
X130295424Y-84612676D01*
X130272540Y-84604722D01*
X130213602Y-84571300D01*
X130171390Y-84527511D01*
X130143656Y-84469538D01*
X130128151Y-84393565D01*
X130124643Y-84353771D01*
X130125090Y-84303766D01*
X130259876Y-84303766D01*
X130264417Y-84376732D01*
X130277486Y-84432334D01*
X130298256Y-84467861D01*
X130313052Y-84478020D01*
X130350964Y-84485104D01*
X130396027Y-84483007D01*
X130434987Y-84472812D01*
X130445204Y-84467204D01*
X130472159Y-84434538D01*
X130489951Y-84384545D01*
X130497524Y-84323705D01*
X130493825Y-84258497D01*
X130485557Y-84219253D01*
X130461820Y-84173805D01*
X130424349Y-84145396D01*
X130379220Y-84135573D01*
X130332511Y-84145887D01*
X130296632Y-84171112D01*
X130277777Y-84191925D01*
X130266772Y-84212439D01*
X130261526Y-84240203D01*
X130259949Y-84282762D01*
X130259876Y-84303766D01*
X130125090Y-84303766D01*
X130125594Y-84247580D01*
X130142888Y-84160501D01*
X130176529Y-84092530D01*
X130226518Y-84043664D01*
X130292856Y-84013899D01*
X130307101Y-84010448D01*
X130392710Y-84002345D01*
X130468262Y-84016055D01*
G36*
X129871517Y-84006452D02*
X129919134Y-84015482D01*
X129968534Y-84034370D01*
X129973812Y-84036777D01*
X130011274Y-84056476D01*
X130037217Y-84074781D01*
X130045603Y-84086508D01*
X130037617Y-84105632D01*
X130018220Y-84133850D01*
X130009610Y-84144384D01*
X129974128Y-84185847D01*
X129928385Y-84158858D01*
X129884850Y-84140878D01*
X129834550Y-84131267D01*
X129786312Y-84130660D01*
X129748967Y-84139691D01*
X129740005Y-84145327D01*
X129722937Y-84171171D01*
X129720863Y-84200941D01*
X129733634Y-84224197D01*
X129741188Y-84228708D01*
X129763825Y-84234309D01*
X129803615Y-84240892D01*
X129852666Y-84247183D01*
X129861715Y-84248170D01*
X129940496Y-84261798D01*
X129997636Y-84284946D01*
X130035530Y-84319752D01*
X130056579Y-84368354D01*
X130063135Y-84427718D01*
X130054077Y-84495198D01*
X130024664Y-84548188D01*
X129974778Y-84586783D01*
X129904300Y-84611081D01*
X129826065Y-84620667D01*
X129762266Y-84620552D01*
X129710516Y-84611845D01*
X129675173Y-84599825D01*
X129630517Y-84578880D01*
X129589247Y-84554574D01*
X129574579Y-84543876D01*
X129536857Y-84513084D01*
X129582352Y-84467049D01*
X129627847Y-84421013D01*
X129679572Y-84455243D01*
X129731452Y-84480952D01*
X129786851Y-84494399D01*
X129840105Y-84495818D01*
X129885549Y-84485443D01*
X129917516Y-84463507D01*
X129927838Y-84444998D01*
X129926289Y-84415314D01*
X129900640Y-84392615D01*
X129850960Y-84376940D01*
X129796531Y-84369695D01*
X129712764Y-84355873D01*
X129650533Y-84329796D01*
X129609007Y-84290699D01*
X129587353Y-84237820D01*
X129584353Y-84175126D01*
X129599171Y-84109642D01*
X129632954Y-84060144D01*
X129686005Y-84026408D01*
X129758626Y-84008207D01*
X129812428Y-84004639D01*
X129871517Y-84006452D01*
X129871517Y-84006452D01*
G37*
X129871517Y-84006452D02*
X129919134Y-84015482D01*
X129968534Y-84034370D01*
X129973812Y-84036777D01*
X130011274Y-84056476D01*
X130037217Y-84074781D01*
X130045603Y-84086508D01*
X130037617Y-84105632D01*
X130018220Y-84133850D01*
X130009610Y-84144384D01*
X129974128Y-84185847D01*
X129928385Y-84158858D01*
X129884850Y-84140878D01*
X129834550Y-84131267D01*
X129786312Y-84130660D01*
X129748967Y-84139691D01*
X129740005Y-84145327D01*
X129722937Y-84171171D01*
X129720863Y-84200941D01*
X129733634Y-84224197D01*
X129741188Y-84228708D01*
X129763825Y-84234309D01*
X129803615Y-84240892D01*
X129852666Y-84247183D01*
X129861715Y-84248170D01*
X129940496Y-84261798D01*
X129997636Y-84284946D01*
X130035530Y-84319752D01*
X130056579Y-84368354D01*
X130063135Y-84427718D01*
X130054077Y-84495198D01*
X130024664Y-84548188D01*
X129974778Y-84586783D01*
X129904300Y-84611081D01*
X129826065Y-84620667D01*
X129762266Y-84620552D01*
X129710516Y-84611845D01*
X129675173Y-84599825D01*
X129630517Y-84578880D01*
X129589247Y-84554574D01*
X129574579Y-84543876D01*
X129536857Y-84513084D01*
X129582352Y-84467049D01*
X129627847Y-84421013D01*
X129679572Y-84455243D01*
X129731452Y-84480952D01*
X129786851Y-84494399D01*
X129840105Y-84495818D01*
X129885549Y-84485443D01*
X129917516Y-84463507D01*
X129927838Y-84444998D01*
X129926289Y-84415314D01*
X129900640Y-84392615D01*
X129850960Y-84376940D01*
X129796531Y-84369695D01*
X129712764Y-84355873D01*
X129650533Y-84329796D01*
X129609007Y-84290699D01*
X129587353Y-84237820D01*
X129584353Y-84175126D01*
X129599171Y-84109642D01*
X129632954Y-84060144D01*
X129686005Y-84026408D01*
X129758626Y-84008207D01*
X129812428Y-84004639D01*
X129871517Y-84006452D01*
G36*
X128500801Y-84022614D02*
X128513332Y-84028514D01*
X128556701Y-84060283D01*
X128597710Y-84106646D01*
X128628332Y-84157696D01*
X128637041Y-84181166D01*
X128644988Y-84223091D01*
X128649726Y-84273757D01*
X128650301Y-84294679D01*
X128650371Y-84360693D01*
X128270417Y-84360693D01*
X128278517Y-84395273D01*
X128298396Y-84436170D01*
X128333153Y-84471514D01*
X128374502Y-84494282D01*
X128400851Y-84499010D01*
X128436584Y-84493273D01*
X128479218Y-84478882D01*
X128493701Y-84472262D01*
X128547260Y-84445513D01*
X128592967Y-84480376D01*
X128619342Y-84503955D01*
X128633376Y-84523417D01*
X128634086Y-84529129D01*
X128621549Y-84542973D01*
X128594072Y-84564012D01*
X128569134Y-84580425D01*
X128501836Y-84609930D01*
X128426390Y-84623284D01*
X128351612Y-84619812D01*
X128292005Y-84601663D01*
X128230559Y-84562784D01*
X128186892Y-84511595D01*
X128159574Y-84445367D01*
X128147178Y-84361371D01*
X128146079Y-84322936D01*
X128150478Y-84234861D01*
X128151018Y-84232299D01*
X128276918Y-84232299D01*
X128280385Y-84240558D01*
X128294637Y-84245113D01*
X128324030Y-84247065D01*
X128372925Y-84247517D01*
X128391752Y-84247525D01*
X128449033Y-84246843D01*
X128485359Y-84244364D01*
X128504896Y-84239443D01*
X128511810Y-84231434D01*
X128512055Y-84228862D01*
X128504164Y-84208423D01*
X128484415Y-84179789D01*
X128475925Y-84169763D01*
X128444406Y-84141408D01*
X128411551Y-84130259D01*
X128393849Y-84129327D01*
X128345961Y-84140981D01*
X128305801Y-84172285D01*
X128280327Y-84217752D01*
X128279875Y-84219233D01*
X128276918Y-84232299D01*
X128151018Y-84232299D01*
X128165108Y-84165510D01*
X128191462Y-84110025D01*
X128223693Y-84070639D01*
X128283283Y-84027931D01*
X128353332Y-84005109D01*
X128427839Y-84003046D01*
X128500801Y-84022614D01*
X128500801Y-84022614D01*
G37*
X128500801Y-84022614D02*
X128513332Y-84028514D01*
X128556701Y-84060283D01*
X128597710Y-84106646D01*
X128628332Y-84157696D01*
X128637041Y-84181166D01*
X128644988Y-84223091D01*
X128649726Y-84273757D01*
X128650301Y-84294679D01*
X128650371Y-84360693D01*
X128270417Y-84360693D01*
X128278517Y-84395273D01*
X128298396Y-84436170D01*
X128333153Y-84471514D01*
X128374502Y-84494282D01*
X128400851Y-84499010D01*
X128436584Y-84493273D01*
X128479218Y-84478882D01*
X128493701Y-84472262D01*
X128547260Y-84445513D01*
X128592967Y-84480376D01*
X128619342Y-84503955D01*
X128633376Y-84523417D01*
X128634086Y-84529129D01*
X128621549Y-84542973D01*
X128594072Y-84564012D01*
X128569134Y-84580425D01*
X128501836Y-84609930D01*
X128426390Y-84623284D01*
X128351612Y-84619812D01*
X128292005Y-84601663D01*
X128230559Y-84562784D01*
X128186892Y-84511595D01*
X128159574Y-84445367D01*
X128147178Y-84361371D01*
X128146079Y-84322936D01*
X128150478Y-84234861D01*
X128151018Y-84232299D01*
X128276918Y-84232299D01*
X128280385Y-84240558D01*
X128294637Y-84245113D01*
X128324030Y-84247065D01*
X128372925Y-84247517D01*
X128391752Y-84247525D01*
X128449033Y-84246843D01*
X128485359Y-84244364D01*
X128504896Y-84239443D01*
X128511810Y-84231434D01*
X128512055Y-84228862D01*
X128504164Y-84208423D01*
X128484415Y-84179789D01*
X128475925Y-84169763D01*
X128444406Y-84141408D01*
X128411551Y-84130259D01*
X128393849Y-84129327D01*
X128345961Y-84140981D01*
X128305801Y-84172285D01*
X128280327Y-84217752D01*
X128279875Y-84219233D01*
X128276918Y-84232299D01*
X128151018Y-84232299D01*
X128165108Y-84165510D01*
X128191462Y-84110025D01*
X128223693Y-84070639D01*
X128283283Y-84027931D01*
X128353332Y-84005109D01*
X128427839Y-84003046D01*
X128500801Y-84022614D01*
G36*
X127319239Y-84015148D02*
X127385021Y-84044231D01*
X127434960Y-84092793D01*
X127469126Y-84160908D01*
X127487593Y-84248651D01*
X127488917Y-84262351D01*
X127489954Y-84358939D01*
X127476507Y-84443602D01*
X127449392Y-84512221D01*
X127434873Y-84534294D01*
X127384299Y-84581011D01*
X127319891Y-84611268D01*
X127247834Y-84623824D01*
X127174315Y-84617439D01*
X127118428Y-84597772D01*
X127070368Y-84564629D01*
X127031088Y-84521175D01*
X127030408Y-84520158D01*
X127014456Y-84493338D01*
X127004090Y-84466368D01*
X126997812Y-84432332D01*
X126994127Y-84384310D01*
X126992503Y-84344931D01*
X126991828Y-84309219D01*
X127117545Y-84309219D01*
X127118774Y-84344770D01*
X127123234Y-84392094D01*
X127131103Y-84422465D01*
X127145293Y-84444072D01*
X127158583Y-84456694D01*
X127205698Y-84483122D01*
X127254995Y-84486653D01*
X127300907Y-84467639D01*
X127323862Y-84446331D01*
X127340404Y-84424859D01*
X127350079Y-84404313D01*
X127354326Y-84377574D01*
X127354580Y-84337523D01*
X127353272Y-84300638D01*
X127350457Y-84247947D01*
X127345995Y-84213772D01*
X127337952Y-84191480D01*
X127324397Y-84174442D01*
X127313655Y-84164703D01*
X127268723Y-84139123D01*
X127220251Y-84137847D01*
X127179606Y-84152999D01*
X127144933Y-84184642D01*
X127124276Y-84236620D01*
X127117545Y-84309219D01*
X126991828Y-84309219D01*
X126991021Y-84266621D01*
X126993552Y-84208056D01*
X127001138Y-84164007D01*
X127014819Y-84129248D01*
X127035635Y-84098551D01*
X127043353Y-84089436D01*
X127091611Y-84044021D01*
X127143372Y-84017493D01*
X127206672Y-84006379D01*
X127237539Y-84005471D01*
X127319239Y-84015148D01*
X127319239Y-84015148D01*
G37*
X127319239Y-84015148D02*
X127385021Y-84044231D01*
X127434960Y-84092793D01*
X127469126Y-84160908D01*
X127487593Y-84248651D01*
X127488917Y-84262351D01*
X127489954Y-84358939D01*
X127476507Y-84443602D01*
X127449392Y-84512221D01*
X127434873Y-84534294D01*
X127384299Y-84581011D01*
X127319891Y-84611268D01*
X127247834Y-84623824D01*
X127174315Y-84617439D01*
X127118428Y-84597772D01*
X127070368Y-84564629D01*
X127031088Y-84521175D01*
X127030408Y-84520158D01*
X127014456Y-84493338D01*
X127004090Y-84466368D01*
X126997812Y-84432332D01*
X126994127Y-84384310D01*
X126992503Y-84344931D01*
X126991828Y-84309219D01*
X127117545Y-84309219D01*
X127118774Y-84344770D01*
X127123234Y-84392094D01*
X127131103Y-84422465D01*
X127145293Y-84444072D01*
X127158583Y-84456694D01*
X127205698Y-84483122D01*
X127254995Y-84486653D01*
X127300907Y-84467639D01*
X127323862Y-84446331D01*
X127340404Y-84424859D01*
X127350079Y-84404313D01*
X127354326Y-84377574D01*
X127354580Y-84337523D01*
X127353272Y-84300638D01*
X127350457Y-84247947D01*
X127345995Y-84213772D01*
X127337952Y-84191480D01*
X127324397Y-84174442D01*
X127313655Y-84164703D01*
X127268723Y-84139123D01*
X127220251Y-84137847D01*
X127179606Y-84152999D01*
X127144933Y-84184642D01*
X127124276Y-84236620D01*
X127117545Y-84309219D01*
X126991828Y-84309219D01*
X126991021Y-84266621D01*
X126993552Y-84208056D01*
X127001138Y-84164007D01*
X127014819Y-84129248D01*
X127035635Y-84098551D01*
X127043353Y-84089436D01*
X127091611Y-84044021D01*
X127143372Y-84017493D01*
X127206672Y-84006379D01*
X127237539Y-84005471D01*
X127319239Y-84015148D01*
G36*
X131890081Y-84954970D02*
X131950185Y-84970597D01*
X132000521Y-85002848D01*
X132024893Y-85026940D01*
X132064845Y-85083895D01*
X132087742Y-85149965D01*
X132095608Y-85231182D01*
X132095648Y-85237748D01*
X132095718Y-85303763D01*
X131715764Y-85303763D01*
X131723863Y-85338342D01*
X131738487Y-85369659D01*
X131764081Y-85402291D01*
X131769435Y-85407500D01*
X131815443Y-85435694D01*
X131867910Y-85440475D01*
X131928303Y-85421926D01*
X131938540Y-85416931D01*
X131969939Y-85401745D01*
X131990970Y-85393094D01*
X131994639Y-85392293D01*
X132007448Y-85400063D01*
X132031878Y-85419072D01*
X132044279Y-85429460D01*
X132069976Y-85453321D01*
X132078415Y-85469077D01*
X132072558Y-85483571D01*
X132069428Y-85487534D01*
X132048225Y-85504879D01*
X132013238Y-85525959D01*
X131988837Y-85538265D01*
X131919572Y-85559946D01*
X131842888Y-85566971D01*
X131770265Y-85558647D01*
X131749926Y-85552686D01*
X131686976Y-85518952D01*
X131640315Y-85467045D01*
X131609673Y-85396459D01*
X131594782Y-85306692D01*
X131593147Y-85259753D01*
X131597921Y-85191413D01*
X131718490Y-85191413D01*
X131730152Y-85196465D01*
X131761498Y-85200429D01*
X131807071Y-85202768D01*
X131837946Y-85203169D01*
X131893481Y-85202783D01*
X131928533Y-85200975D01*
X131947762Y-85196773D01*
X131955830Y-85189203D01*
X131957401Y-85178218D01*
X131946621Y-85144381D01*
X131919480Y-85110940D01*
X131883777Y-85085272D01*
X131848060Y-85074772D01*
X131799548Y-85084086D01*
X131757553Y-85111013D01*
X131728436Y-85149827D01*
X131718490Y-85191413D01*
X131597921Y-85191413D01*
X131600099Y-85160236D01*
X131621555Y-85080949D01*
X131657970Y-85021263D01*
X131709797Y-84980549D01*
X131777490Y-84958179D01*
X131814162Y-84953871D01*
X131890081Y-84954970D01*
X131890081Y-84954970D01*
G37*
X131890081Y-84954970D02*
X131950185Y-84970597D01*
X132000521Y-85002848D01*
X132024893Y-85026940D01*
X132064845Y-85083895D01*
X132087742Y-85149965D01*
X132095608Y-85231182D01*
X132095648Y-85237748D01*
X132095718Y-85303763D01*
X131715764Y-85303763D01*
X131723863Y-85338342D01*
X131738487Y-85369659D01*
X131764081Y-85402291D01*
X131769435Y-85407500D01*
X131815443Y-85435694D01*
X131867910Y-85440475D01*
X131928303Y-85421926D01*
X131938540Y-85416931D01*
X131969939Y-85401745D01*
X131990970Y-85393094D01*
X131994639Y-85392293D01*
X132007448Y-85400063D01*
X132031878Y-85419072D01*
X132044279Y-85429460D01*
X132069976Y-85453321D01*
X132078415Y-85469077D01*
X132072558Y-85483571D01*
X132069428Y-85487534D01*
X132048225Y-85504879D01*
X132013238Y-85525959D01*
X131988837Y-85538265D01*
X131919572Y-85559946D01*
X131842888Y-85566971D01*
X131770265Y-85558647D01*
X131749926Y-85552686D01*
X131686976Y-85518952D01*
X131640315Y-85467045D01*
X131609673Y-85396459D01*
X131594782Y-85306692D01*
X131593147Y-85259753D01*
X131597921Y-85191413D01*
X131718490Y-85191413D01*
X131730152Y-85196465D01*
X131761498Y-85200429D01*
X131807071Y-85202768D01*
X131837946Y-85203169D01*
X131893481Y-85202783D01*
X131928533Y-85200975D01*
X131947762Y-85196773D01*
X131955830Y-85189203D01*
X131957401Y-85178218D01*
X131946621Y-85144381D01*
X131919480Y-85110940D01*
X131883777Y-85085272D01*
X131848060Y-85074772D01*
X131799548Y-85084086D01*
X131757553Y-85111013D01*
X131728436Y-85149827D01*
X131718490Y-85191413D01*
X131597921Y-85191413D01*
X131600099Y-85160236D01*
X131621555Y-85080949D01*
X131657970Y-85021263D01*
X131709797Y-84980549D01*
X131777490Y-84958179D01*
X131814162Y-84953871D01*
X131890081Y-84954970D01*
G36*
X131492755Y-84951486D02*
X131541095Y-84961015D01*
X131568614Y-84975125D01*
X131597564Y-84998568D01*
X131556376Y-85050571D01*
X131530982Y-85082064D01*
X131513738Y-85097428D01*
X131496602Y-85099776D01*
X131471527Y-85092217D01*
X131459757Y-85087941D01*
X131411770Y-85081631D01*
X131367824Y-85095156D01*
X131335560Y-85125710D01*
X131330319Y-85135452D01*
X131324612Y-85161258D01*
X131320206Y-85208817D01*
X131317311Y-85274758D01*
X131316131Y-85355710D01*
X131316114Y-85367226D01*
X131316114Y-85567822D01*
X131177797Y-85567822D01*
X131177797Y-84951683D01*
X131246956Y-84951683D01*
X131286833Y-84952725D01*
X131307607Y-84957358D01*
X131315289Y-84967849D01*
X131316114Y-84977745D01*
X131316114Y-85003806D01*
X131349245Y-84977745D01*
X131387235Y-84959965D01*
X131438270Y-84951174D01*
X131492755Y-84951486D01*
X131492755Y-84951486D01*
G37*
X131492755Y-84951486D02*
X131541095Y-84961015D01*
X131568614Y-84975125D01*
X131597564Y-84998568D01*
X131556376Y-85050571D01*
X131530982Y-85082064D01*
X131513738Y-85097428D01*
X131496602Y-85099776D01*
X131471527Y-85092217D01*
X131459757Y-85087941D01*
X131411770Y-85081631D01*
X131367824Y-85095156D01*
X131335560Y-85125710D01*
X131330319Y-85135452D01*
X131324612Y-85161258D01*
X131320206Y-85208817D01*
X131317311Y-85274758D01*
X131316131Y-85355710D01*
X131316114Y-85367226D01*
X131316114Y-85567822D01*
X131177797Y-85567822D01*
X131177797Y-84951683D01*
X131246956Y-84951683D01*
X131286833Y-84952725D01*
X131307607Y-84957358D01*
X131315289Y-84967849D01*
X131316114Y-84977745D01*
X131316114Y-85003806D01*
X131349245Y-84977745D01*
X131387235Y-84959965D01*
X131438270Y-84951174D01*
X131492755Y-84951486D01*
G36*
X130895911Y-84955417D02*
X130948911Y-84968290D01*
X130964231Y-84975110D01*
X130993928Y-84992974D01*
X131016720Y-85013093D01*
X131033583Y-85038962D01*
X131045498Y-85074073D01*
X131053442Y-85121920D01*
X131058394Y-85185996D01*
X131061331Y-85269794D01*
X131062447Y-85325768D01*
X131066552Y-85567822D01*
X130996432Y-85567822D01*
X130953893Y-85566038D01*
X130931976Y-85559942D01*
X130926312Y-85549706D01*
X130923321Y-85538637D01*
X130909951Y-85540754D01*
X130891733Y-85549629D01*
X130846124Y-85563233D01*
X130787507Y-85566899D01*
X130725854Y-85560903D01*
X130671138Y-85545521D01*
X130666230Y-85543386D01*
X130616223Y-85508255D01*
X130583256Y-85459419D01*
X130568087Y-85402333D01*
X130569246Y-85381824D01*
X130693008Y-85381824D01*
X130703913Y-85409425D01*
X130736245Y-85429204D01*
X130788410Y-85439819D01*
X130816287Y-85441228D01*
X130862747Y-85437620D01*
X130893629Y-85423597D01*
X130901164Y-85416931D01*
X130921576Y-85380666D01*
X130926312Y-85347773D01*
X130926312Y-85303763D01*
X130865013Y-85303763D01*
X130793756Y-85307395D01*
X130743776Y-85318818D01*
X130712196Y-85338824D01*
X130705126Y-85347743D01*
X130693008Y-85381824D01*
X130569246Y-85381824D01*
X130571471Y-85342456D01*
X130594163Y-85285244D01*
X130625124Y-85246580D01*
X130643876Y-85229864D01*
X130662233Y-85218878D01*
X130686119Y-85212180D01*
X130721457Y-85208326D01*
X130774169Y-85205873D01*
X130795077Y-85205168D01*
X130926312Y-85200879D01*
X130926120Y-85161158D01*
X130921037Y-85119405D01*
X130902662Y-85094158D01*
X130865539Y-85078030D01*
X130864543Y-85077742D01*
X130811910Y-85071400D01*
X130760406Y-85079684D01*
X130722130Y-85099827D01*
X130706772Y-85109773D01*
X130690230Y-85108397D01*
X130664775Y-85093987D01*
X130649828Y-85083817D01*
X130620591Y-85062088D01*
X130602480Y-85045800D01*
X130599574Y-85041137D01*
X130611540Y-85017005D01*
X130646896Y-84988185D01*
X130662253Y-84978461D01*
X130706401Y-84961714D01*
X130765898Y-84952227D01*
X130831987Y-84950095D01*
X130895911Y-84955417D01*
X130895911Y-84955417D01*
G37*
X130895911Y-84955417D02*
X130948911Y-84968290D01*
X130964231Y-84975110D01*
X130993928Y-84992974D01*
X131016720Y-85013093D01*
X131033583Y-85038962D01*
X131045498Y-85074073D01*
X131053442Y-85121920D01*
X131058394Y-85185996D01*
X131061331Y-85269794D01*
X131062447Y-85325768D01*
X131066552Y-85567822D01*
X130996432Y-85567822D01*
X130953893Y-85566038D01*
X130931976Y-85559942D01*
X130926312Y-85549706D01*
X130923321Y-85538637D01*
X130909951Y-85540754D01*
X130891733Y-85549629D01*
X130846124Y-85563233D01*
X130787507Y-85566899D01*
X130725854Y-85560903D01*
X130671138Y-85545521D01*
X130666230Y-85543386D01*
X130616223Y-85508255D01*
X130583256Y-85459419D01*
X130568087Y-85402333D01*
X130569246Y-85381824D01*
X130693008Y-85381824D01*
X130703913Y-85409425D01*
X130736245Y-85429204D01*
X130788410Y-85439819D01*
X130816287Y-85441228D01*
X130862747Y-85437620D01*
X130893629Y-85423597D01*
X130901164Y-85416931D01*
X130921576Y-85380666D01*
X130926312Y-85347773D01*
X130926312Y-85303763D01*
X130865013Y-85303763D01*
X130793756Y-85307395D01*
X130743776Y-85318818D01*
X130712196Y-85338824D01*
X130705126Y-85347743D01*
X130693008Y-85381824D01*
X130569246Y-85381824D01*
X130571471Y-85342456D01*
X130594163Y-85285244D01*
X130625124Y-85246580D01*
X130643876Y-85229864D01*
X130662233Y-85218878D01*
X130686119Y-85212180D01*
X130721457Y-85208326D01*
X130774169Y-85205873D01*
X130795077Y-85205168D01*
X130926312Y-85200879D01*
X130926120Y-85161158D01*
X130921037Y-85119405D01*
X130902662Y-85094158D01*
X130865539Y-85078030D01*
X130864543Y-85077742D01*
X130811910Y-85071400D01*
X130760406Y-85079684D01*
X130722130Y-85099827D01*
X130706772Y-85109773D01*
X130690230Y-85108397D01*
X130664775Y-85093987D01*
X130649828Y-85083817D01*
X130620591Y-85062088D01*
X130602480Y-85045800D01*
X130599574Y-85041137D01*
X130611540Y-85017005D01*
X130646896Y-84988185D01*
X130662253Y-84978461D01*
X130706401Y-84961714D01*
X130765898Y-84952227D01*
X130831987Y-84950095D01*
X130895911Y-84955417D01*
G36*
X130139024Y-84954237D02*
X130188755Y-84957971D01*
X130318791Y-85347773D01*
X130339178Y-85278614D01*
X130351446Y-85235874D01*
X130367585Y-85178115D01*
X130385012Y-85114625D01*
X130394226Y-85080570D01*
X130428888Y-84951683D01*
X130571891Y-84951683D01*
X130529146Y-85086857D01*
X130508096Y-85153342D01*
X130482667Y-85233539D01*
X130456110Y-85317193D01*
X130432402Y-85391782D01*
X130378402Y-85561535D01*
X130320098Y-85565328D01*
X130261795Y-85569122D01*
X130230179Y-85464734D01*
X130210682Y-85399889D01*
X130189404Y-85328400D01*
X130170808Y-85265263D01*
X130170074Y-85262750D01*
X130156184Y-85219969D01*
X130143929Y-85190779D01*
X130135346Y-85179741D01*
X130133582Y-85181018D01*
X130127391Y-85198130D01*
X130115628Y-85234787D01*
X130099725Y-85286378D01*
X130081114Y-85348294D01*
X130071043Y-85382352D01*
X130016507Y-85567822D01*
X129900764Y-85567822D01*
X129808237Y-85275471D01*
X129782244Y-85193462D01*
X129758566Y-85118987D01*
X129738320Y-85055544D01*
X129722626Y-85006632D01*
X129712602Y-84975749D01*
X129709555Y-84966726D01*
X129711967Y-84957487D01*
X129730908Y-84953441D01*
X129770323Y-84953846D01*
X129776493Y-84954152D01*
X129849586Y-84957971D01*
X129897457Y-85134010D01*
X129915053Y-85198211D01*
X129930777Y-85254649D01*
X129943246Y-85298422D01*
X129951074Y-85324630D01*
X129952520Y-85328903D01*
X129958514Y-85323990D01*
X129970601Y-85298532D01*
X129987393Y-85255997D01*
X130007503Y-85199850D01*
X130024503Y-85149130D01*
X130089294Y-84950504D01*
X130139024Y-84954237D01*
X130139024Y-84954237D01*
G37*
X130139024Y-84954237D02*
X130188755Y-84957971D01*
X130318791Y-85347773D01*
X130339178Y-85278614D01*
X130351446Y-85235874D01*
X130367585Y-85178115D01*
X130385012Y-85114625D01*
X130394226Y-85080570D01*
X130428888Y-84951683D01*
X130571891Y-84951683D01*
X130529146Y-85086857D01*
X130508096Y-85153342D01*
X130482667Y-85233539D01*
X130456110Y-85317193D01*
X130432402Y-85391782D01*
X130378402Y-85561535D01*
X130320098Y-85565328D01*
X130261795Y-85569122D01*
X130230179Y-85464734D01*
X130210682Y-85399889D01*
X130189404Y-85328400D01*
X130170808Y-85265263D01*
X130170074Y-85262750D01*
X130156184Y-85219969D01*
X130143929Y-85190779D01*
X130135346Y-85179741D01*
X130133582Y-85181018D01*
X130127391Y-85198130D01*
X130115628Y-85234787D01*
X130099725Y-85286378D01*
X130081114Y-85348294D01*
X130071043Y-85382352D01*
X130016507Y-85567822D01*
X129900764Y-85567822D01*
X129808237Y-85275471D01*
X129782244Y-85193462D01*
X129758566Y-85118987D01*
X129738320Y-85055544D01*
X129722626Y-85006632D01*
X129712602Y-84975749D01*
X129709555Y-84966726D01*
X129711967Y-84957487D01*
X129730908Y-84953441D01*
X129770323Y-84953846D01*
X129776493Y-84954152D01*
X129849586Y-84957971D01*
X129897457Y-85134010D01*
X129915053Y-85198211D01*
X129930777Y-85254649D01*
X129943246Y-85298422D01*
X129951074Y-85324630D01*
X129952520Y-85328903D01*
X129958514Y-85323990D01*
X129970601Y-85298532D01*
X129987393Y-85255997D01*
X130007503Y-85199850D01*
X130024503Y-85149130D01*
X130089294Y-84950504D01*
X130139024Y-84954237D01*
G36*
X129656312Y-85567822D02*
X129587154Y-85567822D01*
X129547012Y-85566645D01*
X129526106Y-85561772D01*
X129518578Y-85551186D01*
X129517995Y-85544029D01*
X129516726Y-85529676D01*
X129508721Y-85526923D01*
X129487685Y-85535771D01*
X129471327Y-85544029D01*
X129408523Y-85563597D01*
X129340252Y-85564729D01*
X129284748Y-85550135D01*
X129233062Y-85514877D01*
X129193662Y-85462835D01*
X129172087Y-85401450D01*
X129171538Y-85398018D01*
X129168333Y-85360571D01*
X129166739Y-85306813D01*
X129166867Y-85266155D01*
X129304221Y-85266155D01*
X129307403Y-85320194D01*
X129314641Y-85364735D01*
X129324440Y-85389888D01*
X129361511Y-85424260D01*
X129405526Y-85436582D01*
X129450916Y-85426618D01*
X129489703Y-85396895D01*
X129504392Y-85376905D01*
X129512981Y-85353050D01*
X129517004Y-85318230D01*
X129517995Y-85265930D01*
X129516222Y-85214139D01*
X129511537Y-85168634D01*
X129504897Y-85138181D01*
X129503790Y-85135452D01*
X129477009Y-85103000D01*
X129437921Y-85085183D01*
X129394185Y-85082306D01*
X129353462Y-85094674D01*
X129323413Y-85122593D01*
X129320296Y-85128148D01*
X129310539Y-85162022D01*
X129305223Y-85210728D01*
X129304221Y-85266155D01*
X129166867Y-85266155D01*
X129166932Y-85245540D01*
X129167836Y-85212563D01*
X129173986Y-85130981D01*
X129186767Y-85069730D01*
X129208029Y-85024449D01*
X129239622Y-84990779D01*
X129270293Y-84971014D01*
X129313146Y-84957120D01*
X129366444Y-84952354D01*
X129421020Y-84956236D01*
X129467708Y-84968282D01*
X129492376Y-84982693D01*
X129517995Y-85005878D01*
X129517995Y-84712773D01*
X129656312Y-84712773D01*
X129656312Y-85567822D01*
X129656312Y-85567822D01*
G37*
X129656312Y-85567822D02*
X129587154Y-85567822D01*
X129547012Y-85566645D01*
X129526106Y-85561772D01*
X129518578Y-85551186D01*
X129517995Y-85544029D01*
X129516726Y-85529676D01*
X129508721Y-85526923D01*
X129487685Y-85535771D01*
X129471327Y-85544029D01*
X129408523Y-85563597D01*
X129340252Y-85564729D01*
X129284748Y-85550135D01*
X129233062Y-85514877D01*
X129193662Y-85462835D01*
X129172087Y-85401450D01*
X129171538Y-85398018D01*
X129168333Y-85360571D01*
X129166739Y-85306813D01*
X129166867Y-85266155D01*
X129304221Y-85266155D01*
X129307403Y-85320194D01*
X129314641Y-85364735D01*
X129324440Y-85389888D01*
X129361511Y-85424260D01*
X129405526Y-85436582D01*
X129450916Y-85426618D01*
X129489703Y-85396895D01*
X129504392Y-85376905D01*
X129512981Y-85353050D01*
X129517004Y-85318230D01*
X129517995Y-85265930D01*
X129516222Y-85214139D01*
X129511537Y-85168634D01*
X129504897Y-85138181D01*
X129503790Y-85135452D01*
X129477009Y-85103000D01*
X129437921Y-85085183D01*
X129394185Y-85082306D01*
X129353462Y-85094674D01*
X129323413Y-85122593D01*
X129320296Y-85128148D01*
X129310539Y-85162022D01*
X129305223Y-85210728D01*
X129304221Y-85266155D01*
X129166867Y-85266155D01*
X129166932Y-85245540D01*
X129167836Y-85212563D01*
X129173986Y-85130981D01*
X129186767Y-85069730D01*
X129208029Y-85024449D01*
X129239622Y-84990779D01*
X129270293Y-84971014D01*
X129313146Y-84957120D01*
X129366444Y-84952354D01*
X129421020Y-84956236D01*
X129467708Y-84968282D01*
X129492376Y-84982693D01*
X129517995Y-85005878D01*
X129517995Y-84712773D01*
X129656312Y-84712773D01*
X129656312Y-85567822D01*
G36*
X128864144Y-84953020D02*
X128882961Y-84958660D01*
X128889027Y-84971053D01*
X128889282Y-84976647D01*
X128890371Y-84992230D01*
X128897868Y-84994676D01*
X128918119Y-84983993D01*
X128930149Y-84976694D01*
X128968100Y-84961063D01*
X129013428Y-84953334D01*
X129060956Y-84952740D01*
X129105505Y-84958513D01*
X129141898Y-84969884D01*
X129164957Y-84986088D01*
X129169504Y-85006355D01*
X129167209Y-85011843D01*
X129150480Y-85034626D01*
X129124537Y-85062647D01*
X129119845Y-85067177D01*
X129095117Y-85088005D01*
X129073782Y-85094735D01*
X129043945Y-85090038D01*
X129031992Y-85086917D01*
X128994795Y-85079421D01*
X128968641Y-85082792D01*
X128946554Y-85094681D01*
X128926322Y-85110635D01*
X128911421Y-85130700D01*
X128901066Y-85158702D01*
X128894471Y-85198467D01*
X128890851Y-85253823D01*
X128889422Y-85328594D01*
X128889282Y-85373740D01*
X128889282Y-85567822D01*
X128763540Y-85567822D01*
X128763540Y-84951683D01*
X128826411Y-84951683D01*
X128864144Y-84953020D01*
X128864144Y-84953020D01*
G37*
X128864144Y-84953020D02*
X128882961Y-84958660D01*
X128889027Y-84971053D01*
X128889282Y-84976647D01*
X128890371Y-84992230D01*
X128897868Y-84994676D01*
X128918119Y-84983993D01*
X128930149Y-84976694D01*
X128968100Y-84961063D01*
X129013428Y-84953334D01*
X129060956Y-84952740D01*
X129105505Y-84958513D01*
X129141898Y-84969884D01*
X129164957Y-84986088D01*
X129169504Y-85006355D01*
X129167209Y-85011843D01*
X129150480Y-85034626D01*
X129124537Y-85062647D01*
X129119845Y-85067177D01*
X129095117Y-85088005D01*
X129073782Y-85094735D01*
X129043945Y-85090038D01*
X129031992Y-85086917D01*
X128994795Y-85079421D01*
X128968641Y-85082792D01*
X128946554Y-85094681D01*
X128926322Y-85110635D01*
X128911421Y-85130700D01*
X128901066Y-85158702D01*
X128894471Y-85198467D01*
X128890851Y-85253823D01*
X128889422Y-85328594D01*
X128889282Y-85373740D01*
X128889282Y-85567822D01*
X128763540Y-85567822D01*
X128763540Y-84951683D01*
X128826411Y-84951683D01*
X128864144Y-84953020D01*
G36*
X128473290Y-84956555D02*
X128532445Y-84972339D01*
X128577477Y-85000948D01*
X128609254Y-85038419D01*
X128619134Y-85054411D01*
X128626427Y-85071163D01*
X128631526Y-85092592D01*
X128634821Y-85122616D01*
X128636703Y-85165154D01*
X128637563Y-85224122D01*
X128637793Y-85303440D01*
X128637797Y-85324484D01*
X128637797Y-85567822D01*
X128577441Y-85567822D01*
X128538943Y-85565126D01*
X128510477Y-85558295D01*
X128503345Y-85554083D01*
X128483848Y-85546813D01*
X128463934Y-85554083D01*
X128431147Y-85563160D01*
X128383522Y-85566813D01*
X128330736Y-85565228D01*
X128282464Y-85558589D01*
X128254282Y-85550072D01*
X128199747Y-85515063D01*
X128165665Y-85466479D01*
X128150343Y-85401882D01*
X128150201Y-85400223D01*
X128151545Y-85371566D01*
X128273144Y-85371566D01*
X128283774Y-85404161D01*
X128301090Y-85422505D01*
X128335848Y-85436379D01*
X128381727Y-85441917D01*
X128428512Y-85439191D01*
X128465986Y-85428274D01*
X128476485Y-85421269D01*
X128494832Y-85388904D01*
X128499480Y-85352111D01*
X128499480Y-85303763D01*
X128429918Y-85303763D01*
X128363833Y-85308850D01*
X128313736Y-85323263D01*
X128282571Y-85345729D01*
X128273144Y-85371566D01*
X128151545Y-85371566D01*
X128153513Y-85329647D01*
X128176790Y-85273845D01*
X128220552Y-85231647D01*
X128226601Y-85227808D01*
X128252593Y-85215309D01*
X128284765Y-85207740D01*
X128329740Y-85204061D01*
X128383169Y-85203216D01*
X128499480Y-85203169D01*
X128499480Y-85154411D01*
X128494547Y-85116581D01*
X128481957Y-85091236D01*
X128480483Y-85089887D01*
X128452466Y-85078800D01*
X128410174Y-85074503D01*
X128363436Y-85076615D01*
X128322082Y-85084756D01*
X128297543Y-85096965D01*
X128284247Y-85106746D01*
X128270206Y-85108613D01*
X128250829Y-85100600D01*
X128221524Y-85080739D01*
X128177697Y-85047063D01*
X128173675Y-85043909D01*
X128175736Y-85032236D01*
X128192932Y-85012822D01*
X128219067Y-84991248D01*
X128247948Y-84973096D01*
X128257022Y-84968809D01*
X128290120Y-84960256D01*
X128338620Y-84954155D01*
X128392805Y-84951708D01*
X128395339Y-84951703D01*
X128473290Y-84956555D01*
X128473290Y-84956555D01*
G37*
X128473290Y-84956555D02*
X128532445Y-84972339D01*
X128577477Y-85000948D01*
X128609254Y-85038419D01*
X128619134Y-85054411D01*
X128626427Y-85071163D01*
X128631526Y-85092592D01*
X128634821Y-85122616D01*
X128636703Y-85165154D01*
X128637563Y-85224122D01*
X128637793Y-85303440D01*
X128637797Y-85324484D01*
X128637797Y-85567822D01*
X128577441Y-85567822D01*
X128538943Y-85565126D01*
X128510477Y-85558295D01*
X128503345Y-85554083D01*
X128483848Y-85546813D01*
X128463934Y-85554083D01*
X128431147Y-85563160D01*
X128383522Y-85566813D01*
X128330736Y-85565228D01*
X128282464Y-85558589D01*
X128254282Y-85550072D01*
X128199747Y-85515063D01*
X128165665Y-85466479D01*
X128150343Y-85401882D01*
X128150201Y-85400223D01*
X128151545Y-85371566D01*
X128273144Y-85371566D01*
X128283774Y-85404161D01*
X128301090Y-85422505D01*
X128335848Y-85436379D01*
X128381727Y-85441917D01*
X128428512Y-85439191D01*
X128465986Y-85428274D01*
X128476485Y-85421269D01*
X128494832Y-85388904D01*
X128499480Y-85352111D01*
X128499480Y-85303763D01*
X128429918Y-85303763D01*
X128363833Y-85308850D01*
X128313736Y-85323263D01*
X128282571Y-85345729D01*
X128273144Y-85371566D01*
X128151545Y-85371566D01*
X128153513Y-85329647D01*
X128176790Y-85273845D01*
X128220552Y-85231647D01*
X128226601Y-85227808D01*
X128252593Y-85215309D01*
X128284765Y-85207740D01*
X128329740Y-85204061D01*
X128383169Y-85203216D01*
X128499480Y-85203169D01*
X128499480Y-85154411D01*
X128494547Y-85116581D01*
X128481957Y-85091236D01*
X128480483Y-85089887D01*
X128452466Y-85078800D01*
X128410174Y-85074503D01*
X128363436Y-85076615D01*
X128322082Y-85084756D01*
X128297543Y-85096965D01*
X128284247Y-85106746D01*
X128270206Y-85108613D01*
X128250829Y-85100600D01*
X128221524Y-85080739D01*
X128177697Y-85047063D01*
X128173675Y-85043909D01*
X128175736Y-85032236D01*
X128192932Y-85012822D01*
X128219067Y-84991248D01*
X128247948Y-84973096D01*
X128257022Y-84968809D01*
X128290120Y-84960256D01*
X128338620Y-84954155D01*
X128392805Y-84951708D01*
X128395339Y-84951703D01*
X128473290Y-84956555D01*
G36*
X127948741Y-84019184D02*
X127975253Y-84032282D01*
X128007947Y-84055106D01*
X128031775Y-84079996D01*
X128048094Y-84111249D01*
X128058260Y-84153166D01*
X128063628Y-84210044D01*
X128065556Y-84286184D01*
X128065669Y-84318917D01*
X128065339Y-84390656D01*
X128063973Y-84441927D01*
X128061000Y-84477404D01*
X128055851Y-84501763D01*
X128047957Y-84519680D01*
X128039743Y-84531902D01*
X127987313Y-84583905D01*
X127925570Y-84615184D01*
X127858964Y-84624592D01*
X127791942Y-84610980D01*
X127770708Y-84601354D01*
X127719876Y-84574859D01*
X127719876Y-84990052D01*
X127756975Y-84970868D01*
X127805857Y-84956025D01*
X127865939Y-84952222D01*
X127925936Y-84959243D01*
X127971244Y-84975013D01*
X128008825Y-85005047D01*
X128040936Y-85048024D01*
X128043350Y-85052436D01*
X128053533Y-85073221D01*
X128060970Y-85094170D01*
X128066089Y-85119548D01*
X128069319Y-85153618D01*
X128071087Y-85200641D01*
X128071823Y-85264882D01*
X128071956Y-85337176D01*
X128071956Y-85567822D01*
X127933639Y-85567822D01*
X127933639Y-85142533D01*
X127894951Y-85109979D01*
X127854762Y-85083940D01*
X127816703Y-85079205D01*
X127778434Y-85091389D01*
X127758038Y-85103320D01*
X127742858Y-85120313D01*
X127732062Y-85145995D01*
X127724817Y-85183991D01*
X127720292Y-85237926D01*
X127717656Y-85311425D01*
X127716728Y-85360347D01*
X127713589Y-85561535D01*
X127647574Y-85565336D01*
X127581560Y-85569136D01*
X127581560Y-84320650D01*
X127719876Y-84320650D01*
X127723403Y-84390254D01*
X127735285Y-84438569D01*
X127757480Y-84468631D01*
X127791941Y-84483471D01*
X127826758Y-84486436D01*
X127866171Y-84483028D01*
X127892329Y-84469617D01*
X127908686Y-84451896D01*
X127921563Y-84432835D01*
X127929228Y-84411601D01*
X127932639Y-84381849D01*
X127932751Y-84337236D01*
X127931603Y-84299880D01*
X127928968Y-84243604D01*
X127925044Y-84206658D01*
X127918437Y-84183223D01*
X127907751Y-84167480D01*
X127897667Y-84158380D01*
X127855530Y-84138537D01*
X127805660Y-84135332D01*
X127777024Y-84142168D01*
X127748672Y-84166464D01*
X127729891Y-84213728D01*
X127720788Y-84283624D01*
X127719876Y-84320650D01*
X127581560Y-84320650D01*
X127581560Y-84008614D01*
X127650718Y-84008614D01*
X127692240Y-84010256D01*
X127713662Y-84016087D01*
X127719874Y-84027461D01*
X127719876Y-84027798D01*
X127722758Y-84038938D01*
X127735470Y-84037673D01*
X127760743Y-84025433D01*
X127819631Y-84006707D01*
X127885885Y-84004739D01*
X127948741Y-84019184D01*
X127948741Y-84019184D01*
G37*
X127948741Y-84019184D02*
X127975253Y-84032282D01*
X128007947Y-84055106D01*
X128031775Y-84079996D01*
X128048094Y-84111249D01*
X128058260Y-84153166D01*
X128063628Y-84210044D01*
X128065556Y-84286184D01*
X128065669Y-84318917D01*
X128065339Y-84390656D01*
X128063973Y-84441927D01*
X128061000Y-84477404D01*
X128055851Y-84501763D01*
X128047957Y-84519680D01*
X128039743Y-84531902D01*
X127987313Y-84583905D01*
X127925570Y-84615184D01*
X127858964Y-84624592D01*
X127791942Y-84610980D01*
X127770708Y-84601354D01*
X127719876Y-84574859D01*
X127719876Y-84990052D01*
X127756975Y-84970868D01*
X127805857Y-84956025D01*
X127865939Y-84952222D01*
X127925936Y-84959243D01*
X127971244Y-84975013D01*
X128008825Y-85005047D01*
X128040936Y-85048024D01*
X128043350Y-85052436D01*
X128053533Y-85073221D01*
X128060970Y-85094170D01*
X128066089Y-85119548D01*
X128069319Y-85153618D01*
X128071087Y-85200641D01*
X128071823Y-85264882D01*
X128071956Y-85337176D01*
X128071956Y-85567822D01*
X127933639Y-85567822D01*
X127933639Y-85142533D01*
X127894951Y-85109979D01*
X127854762Y-85083940D01*
X127816703Y-85079205D01*
X127778434Y-85091389D01*
X127758038Y-85103320D01*
X127742858Y-85120313D01*
X127732062Y-85145995D01*
X127724817Y-85183991D01*
X127720292Y-85237926D01*
X127717656Y-85311425D01*
X127716728Y-85360347D01*
X127713589Y-85561535D01*
X127647574Y-85565336D01*
X127581560Y-85569136D01*
X127581560Y-84320650D01*
X127719876Y-84320650D01*
X127723403Y-84390254D01*
X127735285Y-84438569D01*
X127757480Y-84468631D01*
X127791941Y-84483471D01*
X127826758Y-84486436D01*
X127866171Y-84483028D01*
X127892329Y-84469617D01*
X127908686Y-84451896D01*
X127921563Y-84432835D01*
X127929228Y-84411601D01*
X127932639Y-84381849D01*
X127932751Y-84337236D01*
X127931603Y-84299880D01*
X127928968Y-84243604D01*
X127925044Y-84206658D01*
X127918437Y-84183223D01*
X127907751Y-84167480D01*
X127897667Y-84158380D01*
X127855530Y-84138537D01*
X127805660Y-84135332D01*
X127777024Y-84142168D01*
X127748672Y-84166464D01*
X127729891Y-84213728D01*
X127720788Y-84283624D01*
X127719876Y-84320650D01*
X127581560Y-84320650D01*
X127581560Y-84008614D01*
X127650718Y-84008614D01*
X127692240Y-84010256D01*
X127713662Y-84016087D01*
X127719874Y-84027461D01*
X127719876Y-84027798D01*
X127722758Y-84038938D01*
X127735470Y-84037673D01*
X127760743Y-84025433D01*
X127819631Y-84006707D01*
X127885885Y-84004739D01*
X127948741Y-84019184D01*
G04 #@! TO.C,C5*
D13*
X129373333Y-75224642D02*
X129325714Y-75272261D01*
X129182857Y-75319880D01*
X129087619Y-75319880D01*
X128944761Y-75272261D01*
X128849523Y-75177023D01*
X128801904Y-75081785D01*
X128754285Y-74891309D01*
X128754285Y-74748452D01*
X128801904Y-74557976D01*
X128849523Y-74462738D01*
X128944761Y-74367500D01*
X129087619Y-74319880D01*
X129182857Y-74319880D01*
X129325714Y-74367500D01*
X129373333Y-74415119D01*
X130278095Y-74319880D02*
X129801904Y-74319880D01*
X129754285Y-74796071D01*
X129801904Y-74748452D01*
X129897142Y-74700833D01*
X130135238Y-74700833D01*
X130230476Y-74748452D01*
X130278095Y-74796071D01*
X130325714Y-74891309D01*
X130325714Y-75129404D01*
X130278095Y-75224642D01*
X130230476Y-75272261D01*
X130135238Y-75319880D01*
X129897142Y-75319880D01*
X129801904Y-75272261D01*
X129754285Y-75224642D01*
G04 #@! TO.C,Q1*
X138334761Y-71985119D02*
X138239523Y-71937500D01*
X138144285Y-71842261D01*
X138001428Y-71699404D01*
X137906190Y-71651785D01*
X137810952Y-71651785D01*
X137858571Y-71889880D02*
X137763333Y-71842261D01*
X137668095Y-71747023D01*
X137620476Y-71556547D01*
X137620476Y-71223214D01*
X137668095Y-71032738D01*
X137763333Y-70937500D01*
X137858571Y-70889880D01*
X138049047Y-70889880D01*
X138144285Y-70937500D01*
X138239523Y-71032738D01*
X138287142Y-71223214D01*
X138287142Y-71556547D01*
X138239523Y-71747023D01*
X138144285Y-71842261D01*
X138049047Y-71889880D01*
X137858571Y-71889880D01*
X139239523Y-71889880D02*
X138668095Y-71889880D01*
X138953809Y-71889880D02*
X138953809Y-70889880D01*
X138858571Y-71032738D01*
X138763333Y-71127976D01*
X138668095Y-71175595D01*
G04 #@! TO.C,C1*
X137945833Y-62269642D02*
X137898214Y-62317261D01*
X137755357Y-62364880D01*
X137660119Y-62364880D01*
X137517261Y-62317261D01*
X137422023Y-62222023D01*
X137374404Y-62126785D01*
X137326785Y-61936309D01*
X137326785Y-61793452D01*
X137374404Y-61602976D01*
X137422023Y-61507738D01*
X137517261Y-61412500D01*
X137660119Y-61364880D01*
X137755357Y-61364880D01*
X137898214Y-61412500D01*
X137945833Y-61460119D01*
X138898214Y-62364880D02*
X138326785Y-62364880D01*
X138612500Y-62364880D02*
X138612500Y-61364880D01*
X138517261Y-61507738D01*
X138422023Y-61602976D01*
X138326785Y-61650595D01*
G04 #@! TO.C,C4*
X136040833Y-83542142D02*
X135993214Y-83589761D01*
X135850357Y-83637380D01*
X135755119Y-83637380D01*
X135612261Y-83589761D01*
X135517023Y-83494523D01*
X135469404Y-83399285D01*
X135421785Y-83208809D01*
X135421785Y-83065952D01*
X135469404Y-82875476D01*
X135517023Y-82780238D01*
X135612261Y-82685000D01*
X135755119Y-82637380D01*
X135850357Y-82637380D01*
X135993214Y-82685000D01*
X136040833Y-82732619D01*
X136897976Y-82970714D02*
X136897976Y-83637380D01*
X136659880Y-82589761D02*
X136421785Y-83304047D01*
X137040833Y-83304047D01*
G04 #@! TO.C,J1*
X127932380Y-89233333D02*
X128646666Y-89233333D01*
X128789523Y-89280952D01*
X128884761Y-89376190D01*
X128932380Y-89519047D01*
X128932380Y-89614285D01*
X128932380Y-88233333D02*
X128932380Y-88804761D01*
X128932380Y-88519047D02*
X127932380Y-88519047D01*
X128075238Y-88614285D01*
X128170476Y-88709523D01*
X128218095Y-88804761D01*
G04 #@! TO.C,R1*
X128738333Y-69667380D02*
X128405000Y-69191190D01*
X128166904Y-69667380D02*
X128166904Y-68667380D01*
X128547857Y-68667380D01*
X128643095Y-68715000D01*
X128690714Y-68762619D01*
X128738333Y-68857857D01*
X128738333Y-69000714D01*
X128690714Y-69095952D01*
X128643095Y-69143571D01*
X128547857Y-69191190D01*
X128166904Y-69191190D01*
X129690714Y-69667380D02*
X129119285Y-69667380D01*
X129405000Y-69667380D02*
X129405000Y-68667380D01*
X129309761Y-68810238D01*
X129214523Y-68905476D01*
X129119285Y-68953095D01*
G04 #@! TO.C,R2*
X128738333Y-63572380D02*
X128405000Y-63096190D01*
X128166904Y-63572380D02*
X128166904Y-62572380D01*
X128547857Y-62572380D01*
X128643095Y-62620000D01*
X128690714Y-62667619D01*
X128738333Y-62762857D01*
X128738333Y-62905714D01*
X128690714Y-63000952D01*
X128643095Y-63048571D01*
X128547857Y-63096190D01*
X128166904Y-63096190D01*
X129119285Y-62667619D02*
X129166904Y-62620000D01*
X129262142Y-62572380D01*
X129500238Y-62572380D01*
X129595476Y-62620000D01*
X129643095Y-62667619D01*
X129690714Y-62762857D01*
X129690714Y-62858095D01*
X129643095Y-63000952D01*
X129071666Y-63572380D01*
X129690714Y-63572380D01*
G04 #@! TD*
M02*
