G04 #@! TF.GenerationSoftware,KiCad,Pcbnew,7.0.9*
G04 #@! TF.CreationDate,2023-11-23T02:36:07+01:00*
G04 #@! TF.ProjectId,bosch_kf4_pll,626f7363-685f-46b6-9634-5f706c6c2e6b,2*
G04 #@! TF.SameCoordinates,Original*
G04 #@! TF.FileFunction,Copper,L1,Top*
G04 #@! TF.FilePolarity,Positive*
%FSLAX46Y46*%
G04 Gerber Fmt 4.6, Leading zero omitted, Abs format (unit mm)*
G04 Created by KiCad (PCBNEW 7.0.9) date 2023-11-23 02:36:07*
%MOMM*%
%LPD*%
G01*
G04 APERTURE LIST*
G04 Aperture macros list*
%AMRoundRect*
0 Rectangle with rounded corners*
0 $1 Rounding radius*
0 $2 $3 $4 $5 $6 $7 $8 $9 X,Y pos of 4 corners*
0 Add a 4 corners polygon primitive as box body*
4,1,4,$2,$3,$4,$5,$6,$7,$8,$9,$2,$3,0*
0 Add four circle primitives for the rounded corners*
1,1,$1+$1,$2,$3*
1,1,$1+$1,$4,$5*
1,1,$1+$1,$6,$7*
1,1,$1+$1,$8,$9*
0 Add four rect primitives between the rounded corners*
20,1,$1+$1,$2,$3,$4,$5,0*
20,1,$1+$1,$4,$5,$6,$7,0*
20,1,$1+$1,$6,$7,$8,$9,0*
20,1,$1+$1,$8,$9,$2,$3,0*%
%AMRotRect*
0 Rectangle, with rotation*
0 The origin of the aperture is its center*
0 $1 length*
0 $2 width*
0 $3 Rotation angle, in degrees counterclockwise*
0 Add horizontal line*
21,1,$1,$2,0,0,$3*%
G04 Aperture macros list end*
G04 #@! TA.AperFunction,ComponentPad*
%ADD10O,1.750000X2.250000*%
G04 #@! TD*
G04 #@! TA.AperFunction,SMDPad,CuDef*
%ADD11RoundRect,0.200000X0.200000X0.275000X-0.200000X0.275000X-0.200000X-0.275000X0.200000X-0.275000X0*%
G04 #@! TD*
G04 #@! TA.AperFunction,SMDPad,CuDef*
%ADD12RoundRect,0.200000X0.275000X-0.200000X0.275000X0.200000X-0.275000X0.200000X-0.275000X-0.200000X0*%
G04 #@! TD*
G04 #@! TA.AperFunction,SMDPad,CuDef*
%ADD13RoundRect,0.225000X-0.225000X-0.250000X0.225000X-0.250000X0.225000X0.250000X-0.225000X0.250000X0*%
G04 #@! TD*
G04 #@! TA.AperFunction,SMDPad,CuDef*
%ADD14RoundRect,0.200000X-0.275000X0.200000X-0.275000X-0.200000X0.275000X-0.200000X0.275000X0.200000X0*%
G04 #@! TD*
G04 #@! TA.AperFunction,ConnectorPad*
%ADD15C,0.787400*%
G04 #@! TD*
G04 #@! TA.AperFunction,SMDPad,CuDef*
%ADD16RoundRect,0.050000X0.220971X0.291682X-0.291682X-0.220971X-0.220971X-0.291682X0.291682X0.220971X0*%
G04 #@! TD*
G04 #@! TA.AperFunction,SMDPad,CuDef*
%ADD17RoundRect,0.050000X-0.220971X0.291682X-0.291682X0.220971X0.220971X-0.291682X0.291682X-0.220971X0*%
G04 #@! TD*
G04 #@! TA.AperFunction,SMDPad,CuDef*
%ADD18RotRect,1.700000X1.700000X225.000000*%
G04 #@! TD*
G04 #@! TA.AperFunction,SMDPad,CuDef*
%ADD19RoundRect,0.200000X-0.200000X-0.275000X0.200000X-0.275000X0.200000X0.275000X-0.200000X0.275000X0*%
G04 #@! TD*
G04 #@! TA.AperFunction,ComponentPad*
%ADD20R,1.600000X1.600000*%
G04 #@! TD*
G04 #@! TA.AperFunction,ComponentPad*
%ADD21O,1.600000X1.600000*%
G04 #@! TD*
G04 #@! TA.AperFunction,SMDPad,CuDef*
%ADD22RoundRect,0.150000X0.150000X-0.587500X0.150000X0.587500X-0.150000X0.587500X-0.150000X-0.587500X0*%
G04 #@! TD*
G04 #@! TA.AperFunction,SMDPad,CuDef*
%ADD23RoundRect,0.225000X0.250000X-0.225000X0.250000X0.225000X-0.250000X0.225000X-0.250000X-0.225000X0*%
G04 #@! TD*
G04 #@! TA.AperFunction,SMDPad,CuDef*
%ADD24RoundRect,0.225000X-0.250000X0.225000X-0.250000X-0.225000X0.250000X-0.225000X0.250000X0.225000X0*%
G04 #@! TD*
G04 #@! TA.AperFunction,ViaPad*
%ADD25C,0.600000*%
G04 #@! TD*
G04 #@! TA.AperFunction,Conductor*
%ADD26C,0.150000*%
G04 #@! TD*
G04 APERTURE END LIST*
D10*
X144282500Y-77530000D03*
X146822500Y-77530000D03*
X149362500Y-77530000D03*
D11*
X146142500Y-97730000D03*
X144492500Y-97730000D03*
D12*
X144987500Y-84925000D03*
X144987500Y-83275000D03*
D13*
X142712500Y-90200000D03*
X144262500Y-90200000D03*
D14*
X146487500Y-83275000D03*
X146487500Y-84925000D03*
D15*
X146202500Y-101760000D03*
X147472500Y-101760000D03*
X146202500Y-103030000D03*
X147472500Y-103030000D03*
X146202500Y-104300000D03*
X147472500Y-104300000D03*
D16*
X145187329Y-93531542D03*
X144904486Y-93248699D03*
X144621644Y-92965856D03*
X144338801Y-92683014D03*
X144055958Y-92400171D03*
D17*
X143119042Y-92400171D03*
X142836199Y-92683014D03*
X142553356Y-92965856D03*
X142270514Y-93248699D03*
X141987671Y-93531542D03*
D16*
X141987671Y-94468458D03*
X142270514Y-94751301D03*
X142553356Y-95034144D03*
X142836199Y-95316986D03*
X143119042Y-95599829D03*
D17*
X144055958Y-95599829D03*
X144338801Y-95316986D03*
X144621644Y-95034144D03*
X144904486Y-94751301D03*
X145187329Y-94468458D03*
D18*
X143587500Y-94000000D03*
D19*
X149462500Y-96000000D03*
X151112500Y-96000000D03*
D14*
X141987500Y-80275000D03*
X141987500Y-81925000D03*
D20*
X139217500Y-77530000D03*
D21*
X139217500Y-80070000D03*
X139217500Y-82610000D03*
X139217500Y-85150000D03*
X139217500Y-87690000D03*
X139217500Y-90230000D03*
X139217500Y-92770000D03*
X139217500Y-95310000D03*
X139217500Y-97850000D03*
X139217500Y-100390000D03*
X139217500Y-102930000D03*
X139217500Y-105470000D03*
X154457500Y-105470000D03*
X154457500Y-102930000D03*
X154457500Y-100390000D03*
X154457500Y-97850000D03*
X154457500Y-95310000D03*
X154457500Y-92770000D03*
X154457500Y-90230000D03*
X154457500Y-87690000D03*
X154457500Y-85150000D03*
X154457500Y-82610000D03*
X154457500Y-80070000D03*
X154457500Y-77530000D03*
D14*
X141987500Y-83275000D03*
X141987500Y-84925000D03*
D22*
X149537500Y-92737500D03*
X151437500Y-92737500D03*
X150487500Y-90862500D03*
D23*
X147987500Y-84875000D03*
X147987500Y-83325000D03*
D24*
X143487500Y-86325000D03*
X143487500Y-87875000D03*
D23*
X151987500Y-79575000D03*
X151987500Y-78025000D03*
D14*
X146487500Y-86275000D03*
X146487500Y-87925000D03*
D13*
X149512500Y-89100000D03*
X151062500Y-89100000D03*
D24*
X146487500Y-89325000D03*
X146487500Y-90875000D03*
D23*
X147987500Y-87875000D03*
X147987500Y-86325000D03*
D24*
X143487500Y-83325000D03*
X143487500Y-84875000D03*
D14*
X147987500Y-89275000D03*
X147987500Y-90925000D03*
X147987500Y-92275000D03*
X147987500Y-93925000D03*
D19*
X149462500Y-94500000D03*
X151112500Y-94500000D03*
X141492500Y-97730000D03*
X143142500Y-97730000D03*
D12*
X144987500Y-87925000D03*
X144987500Y-86275000D03*
D25*
X149587500Y-88100000D03*
X142487500Y-89300000D03*
X145937500Y-99580000D03*
X147000000Y-97730000D03*
X142787500Y-84200000D03*
X141087500Y-81900000D03*
X151487500Y-91500000D03*
X145400000Y-99000000D03*
X150387500Y-88400000D03*
X144087500Y-87200000D03*
X148787500Y-84100000D03*
X147001193Y-98498750D03*
X146687500Y-94500000D03*
X147990075Y-94902575D03*
X143117500Y-96630000D03*
X146837500Y-104930000D03*
X151987500Y-94500000D03*
X140587500Y-98100000D03*
X142687500Y-85600000D03*
X148787500Y-87100000D03*
X144287500Y-89300000D03*
X144787500Y-91800000D03*
X145617500Y-93930000D03*
X143987500Y-96800000D03*
X140587500Y-97300000D03*
X145919176Y-91831676D03*
X141087500Y-80300000D03*
X141114400Y-83300000D03*
X145387500Y-91300000D03*
X146187500Y-95100000D03*
X146487500Y-93700000D03*
D26*
X144987500Y-80100000D02*
X144282500Y-79395000D01*
X144282500Y-79395000D02*
X144282500Y-77530000D01*
X146822500Y-79865000D02*
X146822500Y-77530000D01*
X146487500Y-80200000D02*
X146822500Y-79865000D01*
X142487500Y-89300000D02*
X142487500Y-89975000D01*
X142712500Y-91993629D02*
X142712500Y-90200000D01*
X149512500Y-88175000D02*
X149587500Y-88100000D01*
X145937500Y-100980000D02*
X145937500Y-99580000D01*
X146202500Y-101760000D02*
X146202500Y-101245000D01*
X147987500Y-89275000D02*
X149337500Y-89275000D01*
X149512500Y-89100000D02*
X149512500Y-88175000D01*
X142487500Y-89975000D02*
X142712500Y-90200000D01*
X147000000Y-97730000D02*
X146142500Y-97730000D01*
X146202500Y-101245000D02*
X145937500Y-100980000D01*
X149337500Y-89275000D02*
X149512500Y-89100000D01*
X153270000Y-80070000D02*
X152775000Y-79575000D01*
X152775000Y-79575000D02*
X151987500Y-79575000D01*
X142712500Y-91993629D02*
X143119042Y-92400171D01*
X154457500Y-80070000D02*
X153270000Y-80070000D01*
X144262500Y-90200000D02*
X144262500Y-89325000D01*
X142012500Y-84925000D02*
X141987500Y-84925000D01*
X151062500Y-89075000D02*
X150387500Y-88400000D01*
X142687500Y-85600000D02*
X142012500Y-84925000D01*
X151062500Y-89100000D02*
X151062500Y-89075000D01*
X151437500Y-91550000D02*
X151487500Y-91500000D01*
X144787500Y-92234315D02*
X144338801Y-92683014D01*
X144338801Y-92683014D02*
X143587500Y-93434315D01*
X143142500Y-96655000D02*
X143117500Y-96630000D01*
X146202500Y-104300000D02*
X146207500Y-104300000D01*
X151437500Y-92737500D02*
X151437500Y-91550000D01*
X144262500Y-91275000D02*
X144262500Y-90200000D01*
X146207500Y-104300000D02*
X146837500Y-104930000D01*
X143462500Y-84875000D02*
X142787500Y-84200000D01*
X151112500Y-93925000D02*
X151437500Y-93600000D01*
X141087500Y-81900000D02*
X141112500Y-81925000D01*
X144087500Y-87200000D02*
X144087500Y-87275000D01*
X141112500Y-81925000D02*
X141987500Y-81925000D01*
X148012500Y-86325000D02*
X148787500Y-87100000D01*
X148012500Y-83325000D02*
X148787500Y-84100000D01*
X153270000Y-77530000D02*
X152775000Y-78025000D01*
X151112500Y-94500000D02*
X151987500Y-94500000D01*
X144087500Y-87275000D02*
X143487500Y-87875000D01*
X147987500Y-93925000D02*
X147987500Y-94900000D01*
X144787500Y-91800000D02*
X144787500Y-92234315D01*
X151437500Y-93600000D02*
X151437500Y-92737500D01*
X151112500Y-94500000D02*
X151112500Y-93925000D01*
X143487500Y-84875000D02*
X143462500Y-84875000D01*
X147987500Y-83325000D02*
X148012500Y-83325000D01*
X147987500Y-86325000D02*
X148012500Y-86325000D01*
X144787500Y-91800000D02*
X144262500Y-91275000D01*
X144262500Y-89325000D02*
X144287500Y-89300000D01*
X152775000Y-78025000D02*
X151987500Y-78025000D01*
X143587500Y-93434315D02*
X143587500Y-94000000D01*
X154457500Y-77530000D02*
X153270000Y-77530000D01*
X143142500Y-97730000D02*
X143142500Y-96655000D01*
X147987500Y-94900000D02*
X147990075Y-94902575D01*
X147787500Y-100930000D02*
X147787500Y-100030000D01*
X147472500Y-101245000D02*
X147787500Y-100930000D01*
X147472500Y-101760000D02*
X147472500Y-101245000D01*
X143791813Y-96272600D02*
X143119042Y-95599829D01*
X146080000Y-98880000D02*
X145337500Y-98137500D01*
X146637500Y-98880000D02*
X146080000Y-98880000D01*
X145337500Y-98137500D02*
X145337500Y-97330000D01*
X147787500Y-100030000D02*
X146637500Y-98880000D01*
X144280100Y-96272600D02*
X143791813Y-96272600D01*
X145337500Y-97330000D02*
X144280100Y-96272600D01*
X143987500Y-97200000D02*
X144492500Y-97705000D01*
X145219042Y-93531542D02*
X145187329Y-93531542D01*
X143187500Y-102080000D02*
X145252500Y-102080000D01*
X145617500Y-93930000D02*
X145219042Y-93531542D01*
X142437500Y-101330000D02*
X143187500Y-102080000D01*
X144492500Y-97705000D02*
X144492500Y-97730000D01*
X145252500Y-102080000D02*
X146202500Y-103030000D01*
X144492500Y-97730000D02*
X142437500Y-99785000D01*
X143987500Y-96800000D02*
X143987500Y-97200000D01*
X142437500Y-99785000D02*
X142437500Y-101330000D01*
X141492500Y-96955000D02*
X141492500Y-97730000D01*
X141790600Y-96230000D02*
X141790600Y-96656900D01*
X141790600Y-95796900D02*
X142553356Y-95034144D01*
X141492500Y-97730000D02*
X141017500Y-97730000D01*
X141017500Y-97730000D02*
X140587500Y-97300000D01*
X141790600Y-96656900D02*
X141492500Y-96955000D01*
X141790600Y-96230000D02*
X141790600Y-95796900D01*
X145919176Y-92234009D02*
X144904486Y-93248699D01*
X141962500Y-80300000D02*
X141987500Y-80275000D01*
X141087500Y-80300000D02*
X141962500Y-80300000D01*
X141087500Y-80300000D02*
X140537500Y-80300000D01*
X140307500Y-80070000D02*
X139217500Y-80070000D01*
X140537500Y-80300000D02*
X140307500Y-80070000D01*
X145919176Y-91831676D02*
X145919176Y-92234009D01*
X141114400Y-83300000D02*
X141962500Y-83300000D01*
X145387500Y-92200000D02*
X144621644Y-92965856D01*
X144622851Y-92965856D02*
X144621644Y-92965856D01*
X139217500Y-82610000D02*
X140424400Y-82610000D01*
X140424400Y-82610000D02*
X141114400Y-83300000D01*
X145387500Y-91300000D02*
X145387500Y-92200000D01*
X141962500Y-83300000D02*
X141987500Y-83275000D01*
X140687500Y-90534315D02*
X140687500Y-86620000D01*
X142836199Y-92683014D02*
X140687500Y-90534315D01*
X140687500Y-86620000D02*
X139217500Y-85150000D01*
X142553356Y-92965856D02*
X140337500Y-90750000D01*
X140337500Y-88810000D02*
X139217500Y-87690000D01*
X140337500Y-90750000D02*
X140337500Y-88810000D01*
X139217500Y-90230000D02*
X139251815Y-90230000D01*
X139251815Y-90230000D02*
X142270514Y-93248699D01*
X141987671Y-93531542D02*
X141226129Y-92770000D01*
X141226129Y-92770000D02*
X139217500Y-92770000D01*
X139217500Y-95310000D02*
X141146129Y-95310000D01*
X141146129Y-95310000D02*
X141987671Y-94468458D01*
X139217500Y-97804315D02*
X142270514Y-94751301D01*
X139217500Y-97850000D02*
X139217500Y-97804315D01*
X142317500Y-95835685D02*
X142836199Y-95316986D01*
X140417500Y-100030000D02*
X142317500Y-98130000D01*
X142317500Y-98130000D02*
X142317500Y-95835685D01*
X139217500Y-102930000D02*
X140417500Y-101730000D01*
X140417500Y-101730000D02*
X140417500Y-100030000D01*
X145256129Y-96800000D02*
X144055958Y-95599829D01*
X152967500Y-96800000D02*
X145256129Y-96800000D01*
X154457500Y-95310000D02*
X152967500Y-96800000D01*
X153257500Y-90230000D02*
X154457500Y-90230000D01*
X150487500Y-90862500D02*
X152625000Y-90862500D01*
X152625000Y-90862500D02*
X153257500Y-90230000D01*
X144904486Y-94751301D02*
X145255585Y-95102400D01*
X146185100Y-95102400D02*
X146187500Y-95100000D01*
X145255585Y-95102400D02*
X146185100Y-95102400D01*
X145518871Y-94800000D02*
X145187329Y-94468458D01*
X145687500Y-94800000D02*
X145518871Y-94800000D01*
X146160100Y-94027400D02*
X146160100Y-94327400D01*
X146487500Y-93700000D02*
X146160100Y-94027400D01*
X146160100Y-94327400D02*
X145687500Y-94800000D01*
X144987500Y-87925000D02*
X144987500Y-88500000D01*
X144987500Y-88500000D02*
X144787500Y-88700000D01*
X144141643Y-88700000D02*
X143487500Y-89354143D01*
X143487500Y-89354143D02*
X143487500Y-91831713D01*
X144787500Y-88700000D02*
X144141643Y-88700000D01*
X143487500Y-91831713D02*
X144055958Y-92400171D01*
X147987500Y-92275000D02*
X147987500Y-90925000D01*
X145214900Y-95627400D02*
X144621644Y-95034144D01*
X146537500Y-90925000D02*
X146487500Y-90875000D01*
X147285100Y-95102400D02*
X146760100Y-95627400D01*
X147987500Y-90925000D02*
X146537500Y-90925000D01*
X147987500Y-92275000D02*
X147987500Y-92800000D01*
X147987500Y-92800000D02*
X147285100Y-93502400D01*
X146760100Y-95627400D02*
X145214900Y-95627400D01*
X147285100Y-93502400D02*
X147285100Y-95102400D01*
X150962500Y-96000000D02*
X149462500Y-94500000D01*
X151112500Y-96000000D02*
X150962500Y-96000000D01*
X149537500Y-92737500D02*
X149537500Y-94425000D01*
X149537500Y-94425000D02*
X149462500Y-94500000D01*
X144338801Y-95316986D02*
X145021815Y-96000000D01*
X145021815Y-96000000D02*
X149462500Y-96000000D01*
X146487500Y-87925000D02*
X147937500Y-87925000D01*
X147937500Y-87925000D02*
X147987500Y-87875000D01*
X146487500Y-87925000D02*
X146487500Y-89325000D01*
X146487500Y-86275000D02*
X146487500Y-84925000D01*
X146487500Y-84925000D02*
X147937500Y-84925000D01*
X147937500Y-84925000D02*
X147987500Y-84875000D01*
X144987500Y-86275000D02*
X143537500Y-86275000D01*
X143537500Y-86275000D02*
X143487500Y-86325000D01*
X144987500Y-86275000D02*
X144987500Y-84925000D01*
X143537500Y-83275000D02*
X143487500Y-83325000D01*
X144987500Y-83275000D02*
X144987500Y-80100000D01*
X144987500Y-83275000D02*
X143537500Y-83275000D01*
X146487500Y-83275000D02*
X146487500Y-80200000D01*
M02*
