G04 #@! TF.GenerationSoftware,KiCad,Pcbnew,7.0.9*
G04 #@! TF.CreationDate,2023-11-23T02:36:07+01:00*
G04 #@! TF.ProjectId,bosch_kf4_pll,626f7363-685f-46b6-9634-5f706c6c2e6b,2*
G04 #@! TF.SameCoordinates,Original*
G04 #@! TF.FileFunction,Copper,L4,Bot*
G04 #@! TF.FilePolarity,Positive*
%FSLAX46Y46*%
G04 Gerber Fmt 4.6, Leading zero omitted, Abs format (unit mm)*
G04 Created by KiCad (PCBNEW 7.0.9) date 2023-11-23 02:36:07*
%MOMM*%
%LPD*%
G01*
G04 APERTURE LIST*
G04 #@! TA.AperFunction,ComponentPad*
%ADD10O,1.750000X2.250000*%
G04 #@! TD*
G04 #@! TA.AperFunction,ComponentPad*
%ADD11R,1.600000X1.600000*%
G04 #@! TD*
G04 #@! TA.AperFunction,ComponentPad*
%ADD12O,1.600000X1.600000*%
G04 #@! TD*
G04 #@! TA.AperFunction,ViaPad*
%ADD13C,0.600000*%
G04 #@! TD*
G04 APERTURE END LIST*
D10*
X144282500Y-77530000D03*
X146822500Y-77530000D03*
X149362500Y-77530000D03*
D11*
X139217500Y-77530000D03*
D12*
X139217500Y-80070000D03*
X139217500Y-82610000D03*
X139217500Y-85150000D03*
X139217500Y-87690000D03*
X139217500Y-90230000D03*
X139217500Y-92770000D03*
X139217500Y-95310000D03*
X139217500Y-97850000D03*
X139217500Y-100390000D03*
X139217500Y-102930000D03*
X139217500Y-105470000D03*
X154457500Y-105470000D03*
X154457500Y-102930000D03*
X154457500Y-100390000D03*
X154457500Y-97850000D03*
X154457500Y-95310000D03*
X154457500Y-92770000D03*
X154457500Y-90230000D03*
X154457500Y-87690000D03*
X154457500Y-85150000D03*
X154457500Y-82610000D03*
X154457500Y-80070000D03*
X154457500Y-77530000D03*
D13*
X149587500Y-88100000D03*
X142487500Y-89300000D03*
X145937500Y-99580000D03*
X147000000Y-97730000D03*
X142787500Y-84200000D03*
X141087500Y-81900000D03*
X151487500Y-91500000D03*
X145400000Y-99000000D03*
X150387500Y-88400000D03*
X144087500Y-87200000D03*
X148787500Y-84100000D03*
X147001193Y-98498750D03*
X146687500Y-94500000D03*
X147990075Y-94902575D03*
X143117500Y-96630000D03*
X146837500Y-104930000D03*
X151987500Y-94500000D03*
X140587500Y-98100000D03*
X142687500Y-85600000D03*
X148787500Y-87100000D03*
X144287500Y-89300000D03*
X144787500Y-91800000D03*
X145617500Y-93930000D03*
X143987500Y-96800000D03*
X140587500Y-97300000D03*
X145919176Y-91831676D03*
X141087500Y-80300000D03*
X141114400Y-83300000D03*
X145387500Y-91300000D03*
X146187500Y-95100000D03*
X146487500Y-93700000D03*
G04 #@! TA.AperFunction,Conductor*
G36*
X143349785Y-76420185D02*
G01*
X143395540Y-76472989D01*
X143405484Y-76542147D01*
X143387062Y-76591539D01*
X143277565Y-76761919D01*
X143197677Y-76961469D01*
X143162337Y-77144835D01*
X143157000Y-77172528D01*
X143157000Y-77833618D01*
X143172312Y-77993971D01*
X143232869Y-78200209D01*
X143283325Y-78298080D01*
X143331364Y-78391263D01*
X143464229Y-78560214D01*
X143464230Y-78560215D01*
X143464232Y-78560217D01*
X143549920Y-78634466D01*
X143626678Y-78700978D01*
X143812819Y-78808446D01*
X143812820Y-78808446D01*
X143812823Y-78808448D01*
X144015946Y-78878750D01*
X144228701Y-78909338D01*
X144228702Y-78909339D01*
X144228702Y-78909338D01*
X144228703Y-78909339D01*
X144443404Y-78899112D01*
X144652290Y-78848437D01*
X144847810Y-78759146D01*
X145022899Y-78634466D01*
X145100816Y-78552749D01*
X145171225Y-78478905D01*
X145171224Y-78478905D01*
X145171227Y-78478903D01*
X145287435Y-78298080D01*
X145367322Y-78098532D01*
X145408000Y-77887472D01*
X145408000Y-77226382D01*
X145392688Y-77066029D01*
X145332131Y-76859791D01*
X145233638Y-76668741D01*
X145180484Y-76601150D01*
X145154517Y-76536287D01*
X145167740Y-76467680D01*
X145215956Y-76417113D01*
X145277956Y-76400500D01*
X145822746Y-76400500D01*
X145889785Y-76420185D01*
X145935540Y-76472989D01*
X145945484Y-76542147D01*
X145927062Y-76591539D01*
X145817565Y-76761919D01*
X145737677Y-76961469D01*
X145702337Y-77144835D01*
X145697000Y-77172528D01*
X145697000Y-77833618D01*
X145712312Y-77993971D01*
X145772869Y-78200209D01*
X145823325Y-78298080D01*
X145871364Y-78391263D01*
X146004229Y-78560214D01*
X146004230Y-78560215D01*
X146004232Y-78560217D01*
X146089920Y-78634466D01*
X146166678Y-78700978D01*
X146352819Y-78808446D01*
X146352820Y-78808446D01*
X146352823Y-78808448D01*
X146555946Y-78878750D01*
X146768701Y-78909338D01*
X146768702Y-78909339D01*
X146768702Y-78909338D01*
X146768703Y-78909339D01*
X146983404Y-78899112D01*
X147192290Y-78848437D01*
X147387810Y-78759146D01*
X147562899Y-78634466D01*
X147640816Y-78552749D01*
X147711225Y-78478905D01*
X147711224Y-78478905D01*
X147711227Y-78478903D01*
X147827435Y-78298080D01*
X147841495Y-78262959D01*
X147884684Y-78208039D01*
X147950711Y-78185186D01*
X148018611Y-78201658D01*
X148066827Y-78252225D01*
X148069604Y-78257970D01*
X148157762Y-78452999D01*
X148157767Y-78453007D01*
X148288831Y-78646923D01*
X148450788Y-78815906D01*
X148450789Y-78815907D01*
X148638966Y-78955083D01*
X148847967Y-79060459D01*
X149071772Y-79128998D01*
X149112499Y-79134212D01*
X149112500Y-79134212D01*
X149112500Y-77965501D01*
X149220185Y-78014680D01*
X149326737Y-78030000D01*
X149398263Y-78030000D01*
X149504815Y-78014680D01*
X149612500Y-77965501D01*
X149612500Y-79132689D01*
X149766587Y-79099481D01*
X149766588Y-79099481D01*
X149983764Y-79012213D01*
X150183078Y-78889491D01*
X150358773Y-78734859D01*
X150358775Y-78734857D01*
X150505818Y-78552749D01*
X150505819Y-78552749D01*
X150619968Y-78348414D01*
X150697940Y-78127729D01*
X150697943Y-78127717D01*
X150737499Y-77897038D01*
X150737500Y-77897029D01*
X150737500Y-77780000D01*
X149796186Y-77780000D01*
X149821993Y-77739844D01*
X149862500Y-77601889D01*
X149862500Y-77458111D01*
X149821993Y-77320156D01*
X149796186Y-77280000D01*
X150737500Y-77280000D01*
X150737500Y-77221591D01*
X150722622Y-77046788D01*
X150663644Y-76820277D01*
X150567237Y-76607000D01*
X150567234Y-76606994D01*
X150558408Y-76593936D01*
X150537177Y-76527370D01*
X150555305Y-76459893D01*
X150607036Y-76412928D01*
X150661144Y-76400500D01*
X153449160Y-76400500D01*
X153516199Y-76420185D01*
X153561954Y-76472989D01*
X153571898Y-76542147D01*
X153542873Y-76605703D01*
X153536841Y-76612181D01*
X153457842Y-76691179D01*
X153327365Y-76877517D01*
X153231234Y-77083673D01*
X153231230Y-77083682D01*
X153178627Y-77279999D01*
X153178628Y-77280000D01*
X154141814Y-77280000D01*
X154129859Y-77291955D01*
X154072335Y-77404852D01*
X154052514Y-77530000D01*
X154072335Y-77655148D01*
X154129859Y-77768045D01*
X154141814Y-77780000D01*
X153178628Y-77780000D01*
X153231230Y-77976317D01*
X153231234Y-77976326D01*
X153327365Y-78182482D01*
X153457842Y-78368820D01*
X153618679Y-78529657D01*
X153805017Y-78660134D01*
X154011173Y-78756265D01*
X154011182Y-78756269D01*
X154206756Y-78808673D01*
X154266417Y-78845038D01*
X154296946Y-78907885D01*
X154288651Y-78977261D01*
X154244166Y-79031138D01*
X154210658Y-79047109D01*
X154053543Y-79094769D01*
X153982601Y-79132689D01*
X153871050Y-79192315D01*
X153871048Y-79192316D01*
X153871047Y-79192317D01*
X153711089Y-79323589D01*
X153579817Y-79483547D01*
X153482269Y-79666043D01*
X153422199Y-79864067D01*
X153401917Y-80070000D01*
X153422199Y-80275932D01*
X153422200Y-80275934D01*
X153482268Y-80473954D01*
X153579815Y-80656450D01*
X153579817Y-80656452D01*
X153711089Y-80816410D01*
X153807709Y-80895702D01*
X153871050Y-80947685D01*
X154053546Y-81045232D01*
X154251566Y-81105300D01*
X154251565Y-81105300D01*
X154270029Y-81107118D01*
X154457500Y-81125583D01*
X154663434Y-81105300D01*
X154861454Y-81045232D01*
X155043950Y-80947685D01*
X155203910Y-80816410D01*
X155335185Y-80656450D01*
X155432732Y-80473954D01*
X155444339Y-80435687D01*
X155482636Y-80377250D01*
X155546448Y-80348793D01*
X155615515Y-80359352D01*
X155667909Y-80405576D01*
X155687000Y-80471683D01*
X155687000Y-82208316D01*
X155667315Y-82275355D01*
X155614511Y-82321110D01*
X155545353Y-82331054D01*
X155481797Y-82302029D01*
X155444339Y-82244311D01*
X155432732Y-82206046D01*
X155335185Y-82023550D01*
X155283202Y-81960209D01*
X155203910Y-81863589D01*
X155043952Y-81732317D01*
X155043953Y-81732317D01*
X155043950Y-81732315D01*
X154861454Y-81634768D01*
X154663434Y-81574700D01*
X154663432Y-81574699D01*
X154663434Y-81574699D01*
X154457500Y-81554417D01*
X154251567Y-81574699D01*
X154053543Y-81634769D01*
X153943398Y-81693643D01*
X153871050Y-81732315D01*
X153871048Y-81732316D01*
X153871047Y-81732317D01*
X153711089Y-81863589D01*
X153579817Y-82023547D01*
X153482269Y-82206043D01*
X153422199Y-82404067D01*
X153401917Y-82610000D01*
X153422199Y-82815932D01*
X153423172Y-82819139D01*
X153482268Y-83013954D01*
X153579815Y-83196450D01*
X153579817Y-83196452D01*
X153711089Y-83356410D01*
X153807709Y-83435702D01*
X153871050Y-83487685D01*
X154053546Y-83585232D01*
X154251566Y-83645300D01*
X154251565Y-83645300D01*
X154270029Y-83647118D01*
X154457500Y-83665583D01*
X154663434Y-83645300D01*
X154861454Y-83585232D01*
X155043950Y-83487685D01*
X155203910Y-83356410D01*
X155335185Y-83196450D01*
X155432732Y-83013954D01*
X155444339Y-82975687D01*
X155482636Y-82917250D01*
X155546448Y-82888793D01*
X155615515Y-82899352D01*
X155667909Y-82945576D01*
X155687000Y-83011683D01*
X155687000Y-84748316D01*
X155667315Y-84815355D01*
X155614511Y-84861110D01*
X155545353Y-84871054D01*
X155481797Y-84842029D01*
X155444339Y-84784311D01*
X155432732Y-84746046D01*
X155335185Y-84563550D01*
X155283202Y-84500209D01*
X155203910Y-84403589D01*
X155043952Y-84272317D01*
X155043953Y-84272317D01*
X155043950Y-84272315D01*
X154861454Y-84174768D01*
X154663434Y-84114700D01*
X154663432Y-84114699D01*
X154663434Y-84114699D01*
X154457500Y-84094417D01*
X154251567Y-84114699D01*
X154053543Y-84174769D01*
X153943398Y-84233643D01*
X153871050Y-84272315D01*
X153871048Y-84272316D01*
X153871047Y-84272317D01*
X153711089Y-84403589D01*
X153579817Y-84563547D01*
X153482269Y-84746043D01*
X153422199Y-84944067D01*
X153401917Y-85150000D01*
X153422199Y-85355932D01*
X153422200Y-85355934D01*
X153482268Y-85553954D01*
X153579815Y-85736450D01*
X153579817Y-85736452D01*
X153711089Y-85896410D01*
X153807709Y-85975702D01*
X153871050Y-86027685D01*
X154053546Y-86125232D01*
X154251566Y-86185300D01*
X154251565Y-86185300D01*
X154270029Y-86187118D01*
X154457500Y-86205583D01*
X154663434Y-86185300D01*
X154861454Y-86125232D01*
X155043950Y-86027685D01*
X155203910Y-85896410D01*
X155335185Y-85736450D01*
X155432732Y-85553954D01*
X155444339Y-85515687D01*
X155482636Y-85457250D01*
X155546448Y-85428793D01*
X155615515Y-85439352D01*
X155667909Y-85485576D01*
X155687000Y-85551683D01*
X155687000Y-87288316D01*
X155667315Y-87355355D01*
X155614511Y-87401110D01*
X155545353Y-87411054D01*
X155481797Y-87382029D01*
X155444339Y-87324311D01*
X155432732Y-87286046D01*
X155335185Y-87103550D01*
X155283202Y-87040209D01*
X155203910Y-86943589D01*
X155043952Y-86812317D01*
X155043953Y-86812317D01*
X155043950Y-86812315D01*
X154861454Y-86714768D01*
X154663434Y-86654700D01*
X154663432Y-86654699D01*
X154663434Y-86654699D01*
X154457500Y-86634417D01*
X154251567Y-86654699D01*
X154053543Y-86714769D01*
X153943398Y-86773643D01*
X153871050Y-86812315D01*
X153871048Y-86812316D01*
X153871047Y-86812317D01*
X153711089Y-86943589D01*
X153579817Y-87103547D01*
X153482269Y-87286043D01*
X153422199Y-87484067D01*
X153401917Y-87690000D01*
X153422199Y-87895932D01*
X153422200Y-87895934D01*
X153482268Y-88093954D01*
X153579815Y-88276450D01*
X153579817Y-88276452D01*
X153711089Y-88436410D01*
X153807709Y-88515702D01*
X153871050Y-88567685D01*
X154053546Y-88665232D01*
X154251566Y-88725300D01*
X154251565Y-88725300D01*
X154270029Y-88727118D01*
X154457500Y-88745583D01*
X154663434Y-88725300D01*
X154861454Y-88665232D01*
X155043950Y-88567685D01*
X155203910Y-88436410D01*
X155335185Y-88276450D01*
X155432732Y-88093954D01*
X155444339Y-88055687D01*
X155482636Y-87997250D01*
X155546448Y-87968793D01*
X155615515Y-87979352D01*
X155667909Y-88025576D01*
X155687000Y-88091683D01*
X155687000Y-89828316D01*
X155667315Y-89895355D01*
X155614511Y-89941110D01*
X155545353Y-89951054D01*
X155481797Y-89922029D01*
X155444339Y-89864311D01*
X155432732Y-89826046D01*
X155335185Y-89643550D01*
X155281080Y-89577622D01*
X155203910Y-89483589D01*
X155043952Y-89352317D01*
X155043953Y-89352317D01*
X155043950Y-89352315D01*
X154861454Y-89254768D01*
X154663434Y-89194700D01*
X154663432Y-89194699D01*
X154663434Y-89194699D01*
X154457500Y-89174417D01*
X154251567Y-89194699D01*
X154053543Y-89254769D01*
X153943398Y-89313643D01*
X153871050Y-89352315D01*
X153871048Y-89352316D01*
X153871047Y-89352317D01*
X153711089Y-89483589D01*
X153579817Y-89643547D01*
X153482269Y-89826043D01*
X153422199Y-90024067D01*
X153401917Y-90230000D01*
X153422199Y-90435932D01*
X153422200Y-90435934D01*
X153482268Y-90633954D01*
X153579815Y-90816450D01*
X153579817Y-90816452D01*
X153711089Y-90976410D01*
X153767101Y-91022377D01*
X153871050Y-91107685D01*
X154053546Y-91205232D01*
X154251566Y-91265300D01*
X154251565Y-91265300D01*
X154270029Y-91267118D01*
X154457500Y-91285583D01*
X154663434Y-91265300D01*
X154861454Y-91205232D01*
X155043950Y-91107685D01*
X155203910Y-90976410D01*
X155335185Y-90816450D01*
X155432732Y-90633954D01*
X155444339Y-90595687D01*
X155482636Y-90537250D01*
X155546448Y-90508793D01*
X155615515Y-90519352D01*
X155667909Y-90565576D01*
X155687000Y-90631683D01*
X155687000Y-92368316D01*
X155667315Y-92435355D01*
X155614511Y-92481110D01*
X155545353Y-92491054D01*
X155481797Y-92462029D01*
X155444339Y-92404311D01*
X155432732Y-92366046D01*
X155335185Y-92183550D01*
X155274248Y-92109298D01*
X155203910Y-92023589D01*
X155043952Y-91892317D01*
X155043953Y-91892317D01*
X155043950Y-91892315D01*
X154861454Y-91794768D01*
X154663434Y-91734700D01*
X154663432Y-91734699D01*
X154663434Y-91734699D01*
X154457500Y-91714417D01*
X154251567Y-91734699D01*
X154053543Y-91794769D01*
X153968761Y-91840087D01*
X153871050Y-91892315D01*
X153871048Y-91892316D01*
X153871047Y-91892317D01*
X153711089Y-92023589D01*
X153579817Y-92183547D01*
X153482269Y-92366043D01*
X153482268Y-92366045D01*
X153482268Y-92366046D01*
X153481579Y-92368316D01*
X153422199Y-92564067D01*
X153401917Y-92770000D01*
X153422199Y-92975932D01*
X153422200Y-92975934D01*
X153482268Y-93173954D01*
X153579815Y-93356450D01*
X153610361Y-93393671D01*
X153711089Y-93516410D01*
X153759685Y-93556291D01*
X153871050Y-93647685D01*
X154053546Y-93745232D01*
X154251566Y-93805300D01*
X154251565Y-93805300D01*
X154270029Y-93807118D01*
X154457500Y-93825583D01*
X154663434Y-93805300D01*
X154861454Y-93745232D01*
X155043950Y-93647685D01*
X155203910Y-93516410D01*
X155335185Y-93356450D01*
X155432732Y-93173954D01*
X155444339Y-93135687D01*
X155482636Y-93077250D01*
X155546448Y-93048793D01*
X155615515Y-93059352D01*
X155667909Y-93105576D01*
X155687000Y-93171683D01*
X155687000Y-94908316D01*
X155667315Y-94975355D01*
X155614511Y-95021110D01*
X155545353Y-95031054D01*
X155481797Y-95002029D01*
X155444339Y-94944311D01*
X155432732Y-94906046D01*
X155335185Y-94723550D01*
X155230404Y-94595873D01*
X155203910Y-94563589D01*
X155043952Y-94432317D01*
X155043953Y-94432317D01*
X155043950Y-94432315D01*
X154861454Y-94334768D01*
X154663434Y-94274700D01*
X154663432Y-94274699D01*
X154663434Y-94274699D01*
X154457500Y-94254417D01*
X154251567Y-94274699D01*
X154053543Y-94334769D01*
X153943398Y-94393643D01*
X153871050Y-94432315D01*
X153871048Y-94432316D01*
X153871047Y-94432317D01*
X153711089Y-94563589D01*
X153579817Y-94723547D01*
X153482269Y-94906043D01*
X153422199Y-95104067D01*
X153401917Y-95310000D01*
X153422199Y-95515932D01*
X153422200Y-95515934D01*
X153482268Y-95713954D01*
X153579815Y-95896450D01*
X153579817Y-95896452D01*
X153711089Y-96056410D01*
X153807709Y-96135702D01*
X153871050Y-96187685D01*
X154053546Y-96285232D01*
X154210660Y-96332891D01*
X154269097Y-96371187D01*
X154297553Y-96434999D01*
X154286993Y-96504067D01*
X154240769Y-96556460D01*
X154206757Y-96571326D01*
X154011180Y-96623731D01*
X154011173Y-96623734D01*
X153805017Y-96719865D01*
X153618679Y-96850342D01*
X153457842Y-97011179D01*
X153327365Y-97197517D01*
X153231234Y-97403673D01*
X153231230Y-97403682D01*
X153178627Y-97599999D01*
X153178628Y-97600000D01*
X154141814Y-97600000D01*
X154129859Y-97611955D01*
X154072335Y-97724852D01*
X154052514Y-97850000D01*
X154072335Y-97975148D01*
X154129859Y-98088045D01*
X154141814Y-98100000D01*
X153178628Y-98100000D01*
X153231230Y-98296317D01*
X153231234Y-98296326D01*
X153327365Y-98502482D01*
X153457842Y-98688820D01*
X153618679Y-98849657D01*
X153805017Y-98980134D01*
X154011173Y-99076265D01*
X154011182Y-99076269D01*
X154206756Y-99128673D01*
X154266417Y-99165038D01*
X154296946Y-99227885D01*
X154288651Y-99297261D01*
X154244166Y-99351138D01*
X154210658Y-99367109D01*
X154053543Y-99414769D01*
X153943398Y-99473643D01*
X153871050Y-99512315D01*
X153871048Y-99512316D01*
X153871047Y-99512317D01*
X153711089Y-99643589D01*
X153579817Y-99803547D01*
X153482269Y-99986043D01*
X153422199Y-100184067D01*
X153401917Y-100390000D01*
X153422199Y-100595932D01*
X153429616Y-100620383D01*
X153482268Y-100793954D01*
X153579815Y-100976450D01*
X153614469Y-101018677D01*
X153711089Y-101136410D01*
X153783204Y-101195592D01*
X153871050Y-101267685D01*
X154053546Y-101365232D01*
X154210660Y-101412891D01*
X154269097Y-101451187D01*
X154297553Y-101514999D01*
X154286993Y-101584067D01*
X154240769Y-101636460D01*
X154206757Y-101651326D01*
X154011180Y-101703731D01*
X154011173Y-101703734D01*
X153805017Y-101799865D01*
X153618679Y-101930342D01*
X153457842Y-102091179D01*
X153327365Y-102277517D01*
X153231234Y-102483673D01*
X153231230Y-102483682D01*
X153178627Y-102679999D01*
X153178628Y-102680000D01*
X154141814Y-102680000D01*
X154129859Y-102691955D01*
X154072335Y-102804852D01*
X154052514Y-102930000D01*
X154072335Y-103055148D01*
X154129859Y-103168045D01*
X154141814Y-103180000D01*
X153178628Y-103180000D01*
X153231230Y-103376317D01*
X153231234Y-103376326D01*
X153327365Y-103582482D01*
X153457842Y-103768820D01*
X153618679Y-103929657D01*
X153805017Y-104060134D01*
X154011173Y-104156265D01*
X154011182Y-104156269D01*
X154206756Y-104208673D01*
X154266417Y-104245038D01*
X154296946Y-104307885D01*
X154288651Y-104377261D01*
X154244166Y-104431138D01*
X154210658Y-104447109D01*
X154053543Y-104494769D01*
X153943398Y-104553643D01*
X153871050Y-104592315D01*
X153871048Y-104592316D01*
X153871047Y-104592317D01*
X153711089Y-104723589D01*
X153595525Y-104864407D01*
X153579815Y-104883550D01*
X153552863Y-104933973D01*
X153482269Y-105066043D01*
X153422199Y-105264067D01*
X153401917Y-105470000D01*
X153422199Y-105675932D01*
X153422200Y-105675934D01*
X153482268Y-105873954D01*
X153579815Y-106056450D01*
X153614469Y-106098677D01*
X153711089Y-106216410D01*
X153783204Y-106275592D01*
X153871050Y-106347685D01*
X153905581Y-106366142D01*
X153955425Y-106415105D01*
X153970885Y-106483243D01*
X153947053Y-106548922D01*
X153891495Y-106591291D01*
X153847127Y-106599500D01*
X139827873Y-106599500D01*
X139760834Y-106579815D01*
X139715079Y-106527011D01*
X139705135Y-106457853D01*
X139734160Y-106394297D01*
X139769417Y-106366143D01*
X139803950Y-106347685D01*
X139963910Y-106216410D01*
X140095185Y-106056450D01*
X140192732Y-105873954D01*
X140252800Y-105675934D01*
X140258934Y-105613660D01*
X145071893Y-105613660D01*
X145102168Y-105785354D01*
X145171221Y-105945438D01*
X145171222Y-105945440D01*
X145171224Y-105945443D01*
X145253868Y-106056452D01*
X145275332Y-106085283D01*
X145408886Y-106197349D01*
X145564685Y-106275594D01*
X145734329Y-106315800D01*
X145734331Y-106315800D01*
X145864929Y-106315800D01*
X145864936Y-106315800D01*
X145994664Y-106300637D01*
X146158493Y-106241008D01*
X146304154Y-106145205D01*
X146423796Y-106018393D01*
X146510967Y-105867407D01*
X146560969Y-105700388D01*
X146566021Y-105613660D01*
X147103893Y-105613660D01*
X147134168Y-105785354D01*
X147203221Y-105945438D01*
X147203222Y-105945440D01*
X147203224Y-105945443D01*
X147285868Y-106056452D01*
X147307332Y-106085283D01*
X147440886Y-106197349D01*
X147596685Y-106275594D01*
X147766329Y-106315800D01*
X147766331Y-106315800D01*
X147896929Y-106315800D01*
X147896936Y-106315800D01*
X148026664Y-106300637D01*
X148190493Y-106241008D01*
X148336154Y-106145205D01*
X148455796Y-106018393D01*
X148542967Y-105867407D01*
X148592969Y-105700388D01*
X148603107Y-105526340D01*
X148572832Y-105354646D01*
X148503779Y-105194562D01*
X148501167Y-105191054D01*
X148399667Y-105054716D01*
X148266114Y-104942651D01*
X148266112Y-104942650D01*
X148110318Y-104864407D01*
X148110316Y-104864406D01*
X148110315Y-104864406D01*
X147940671Y-104824200D01*
X147810064Y-104824200D01*
X147696552Y-104837467D01*
X147680335Y-104839363D01*
X147680332Y-104839364D01*
X147516508Y-104898991D01*
X147516504Y-104898993D01*
X147370848Y-104994792D01*
X147370847Y-104994793D01*
X147251206Y-105121603D01*
X147251203Y-105121609D01*
X147164034Y-105272590D01*
X147114031Y-105439610D01*
X147114030Y-105439616D01*
X147108979Y-105526340D01*
X147103893Y-105613660D01*
X146566021Y-105613660D01*
X146571107Y-105526340D01*
X146540832Y-105354646D01*
X146471779Y-105194562D01*
X146469167Y-105191054D01*
X146367667Y-105054716D01*
X146234114Y-104942651D01*
X146234112Y-104942650D01*
X146078318Y-104864407D01*
X146078316Y-104864406D01*
X146078315Y-104864406D01*
X145908671Y-104824200D01*
X145778064Y-104824200D01*
X145664552Y-104837467D01*
X145648335Y-104839363D01*
X145648332Y-104839364D01*
X145484509Y-104898990D01*
X145342327Y-104992505D01*
X145340422Y-104993086D01*
X145339736Y-104993851D01*
X145219207Y-105121603D01*
X145219203Y-105121609D01*
X145132034Y-105272590D01*
X145082031Y-105439610D01*
X145082030Y-105439616D01*
X145076979Y-105526340D01*
X145071893Y-105613660D01*
X140258934Y-105613660D01*
X140273083Y-105470000D01*
X140252800Y-105264066D01*
X140192732Y-105066046D01*
X140095185Y-104883550D01*
X140043202Y-104820209D01*
X139963910Y-104723589D01*
X139803952Y-104592317D01*
X139803953Y-104592317D01*
X139803950Y-104592315D01*
X139621454Y-104494768D01*
X139423434Y-104434700D01*
X139423432Y-104434699D01*
X139423434Y-104434699D01*
X139217500Y-104414417D01*
X139011567Y-104434699D01*
X138813543Y-104494769D01*
X138703398Y-104553643D01*
X138631050Y-104592315D01*
X138631048Y-104592316D01*
X138631047Y-104592317D01*
X138471089Y-104723589D01*
X138355525Y-104864407D01*
X138339815Y-104883550D01*
X138312863Y-104933973D01*
X138242269Y-105066043D01*
X138242268Y-105066045D01*
X138242268Y-105066046D01*
X138231074Y-105102950D01*
X138230661Y-105104311D01*
X138192363Y-105162750D01*
X138128551Y-105191206D01*
X138059484Y-105180646D01*
X138007090Y-105134422D01*
X137988000Y-105068316D01*
X137988000Y-103331683D01*
X138007685Y-103264644D01*
X138060489Y-103218889D01*
X138129647Y-103208945D01*
X138193203Y-103237970D01*
X138230660Y-103295687D01*
X138237424Y-103317986D01*
X138242268Y-103333955D01*
X138277847Y-103400518D01*
X138339815Y-103516450D01*
X138339817Y-103516452D01*
X138471089Y-103676410D01*
X138552756Y-103743431D01*
X138631050Y-103807685D01*
X138813546Y-103905232D01*
X139011566Y-103965300D01*
X139011565Y-103965300D01*
X139030029Y-103967118D01*
X139217500Y-103985583D01*
X139423434Y-103965300D01*
X139621454Y-103905232D01*
X139803950Y-103807685D01*
X139832628Y-103784150D01*
X142859550Y-103784150D01*
X142898774Y-104019208D01*
X142976148Y-104244589D01*
X142976154Y-104244603D01*
X143089569Y-104454176D01*
X143089576Y-104454187D01*
X143235933Y-104642227D01*
X143235936Y-104642230D01*
X143235940Y-104642235D01*
X143411266Y-104803633D01*
X143610766Y-104933973D01*
X143828998Y-105029699D01*
X144060010Y-105088199D01*
X144238028Y-105102950D01*
X144238030Y-105102950D01*
X144356970Y-105102950D01*
X144356972Y-105102950D01*
X144534990Y-105088199D01*
X144766002Y-105029699D01*
X144984234Y-104933973D01*
X145181722Y-104804947D01*
X145183834Y-104804309D01*
X145190196Y-104797683D01*
X145359060Y-104642235D01*
X145473837Y-104494769D01*
X145505423Y-104454187D01*
X145505424Y-104454185D01*
X145505429Y-104454179D01*
X145618849Y-104244597D01*
X145696226Y-104019206D01*
X145735450Y-103784152D01*
X145735450Y-103784150D01*
X147939550Y-103784150D01*
X147978774Y-104019208D01*
X148056148Y-104244589D01*
X148056154Y-104244603D01*
X148169569Y-104454176D01*
X148169576Y-104454187D01*
X148315933Y-104642227D01*
X148315936Y-104642230D01*
X148315940Y-104642235D01*
X148491266Y-104803633D01*
X148690766Y-104933973D01*
X148908998Y-105029699D01*
X149140010Y-105088199D01*
X149318028Y-105102950D01*
X149318030Y-105102950D01*
X149436970Y-105102950D01*
X149436972Y-105102950D01*
X149614990Y-105088199D01*
X149846002Y-105029699D01*
X150064234Y-104933973D01*
X150263734Y-104803633D01*
X150439060Y-104642235D01*
X150553837Y-104494769D01*
X150585423Y-104454187D01*
X150585424Y-104454185D01*
X150585429Y-104454179D01*
X150698849Y-104244597D01*
X150776226Y-104019206D01*
X150815450Y-103784152D01*
X150815450Y-103545848D01*
X150776226Y-103310794D01*
X150698849Y-103085403D01*
X150585429Y-102875821D01*
X150585427Y-102875819D01*
X150585423Y-102875812D01*
X150439066Y-102687772D01*
X150439063Y-102687769D01*
X150439060Y-102687765D01*
X150263734Y-102526367D01*
X150263731Y-102526365D01*
X150263730Y-102526364D01*
X150186590Y-102475966D01*
X150064234Y-102396027D01*
X150064231Y-102396025D01*
X150064230Y-102396025D01*
X149846002Y-102300301D01*
X149614986Y-102241800D01*
X149472332Y-102229980D01*
X149436972Y-102227050D01*
X149318028Y-102227050D01*
X149285862Y-102229715D01*
X149140013Y-102241800D01*
X148908997Y-102300301D01*
X148690769Y-102396025D01*
X148491269Y-102526364D01*
X148315943Y-102687762D01*
X148315933Y-102687772D01*
X148169576Y-102875812D01*
X148169569Y-102875823D01*
X148056154Y-103085396D01*
X148056148Y-103085410D01*
X147978774Y-103310791D01*
X147939550Y-103545849D01*
X147939550Y-103784150D01*
X145735450Y-103784150D01*
X145735450Y-103545848D01*
X145696226Y-103310794D01*
X145618849Y-103085403D01*
X145505429Y-102875821D01*
X145505427Y-102875819D01*
X145505423Y-102875812D01*
X145359066Y-102687772D01*
X145359063Y-102687769D01*
X145359060Y-102687765D01*
X145183734Y-102526367D01*
X145183731Y-102526365D01*
X145183730Y-102526364D01*
X145106590Y-102475966D01*
X144984234Y-102396027D01*
X144984231Y-102396025D01*
X144984230Y-102396025D01*
X144766002Y-102300301D01*
X144534986Y-102241800D01*
X144392332Y-102229980D01*
X144356972Y-102227050D01*
X144238028Y-102227050D01*
X144205862Y-102229715D01*
X144060013Y-102241800D01*
X143828997Y-102300301D01*
X143610769Y-102396025D01*
X143411269Y-102526364D01*
X143235943Y-102687762D01*
X143235933Y-102687772D01*
X143089576Y-102875812D01*
X143089569Y-102875823D01*
X142976154Y-103085396D01*
X142976148Y-103085410D01*
X142898774Y-103310791D01*
X142859550Y-103545849D01*
X142859550Y-103784150D01*
X139832628Y-103784150D01*
X139963910Y-103676410D01*
X140095185Y-103516450D01*
X140192732Y-103333954D01*
X140252800Y-103135934D01*
X140273083Y-102930000D01*
X140252800Y-102724066D01*
X140192732Y-102526046D01*
X140095185Y-102343550D01*
X140040993Y-102277517D01*
X139963910Y-102183589D01*
X139803952Y-102052317D01*
X139803953Y-102052317D01*
X139803950Y-102052315D01*
X139621454Y-101954768D01*
X139423434Y-101894700D01*
X139423432Y-101894699D01*
X139423434Y-101894699D01*
X139217500Y-101874417D01*
X139011567Y-101894699D01*
X138813543Y-101954769D01*
X138703398Y-102013643D01*
X138631050Y-102052315D01*
X138631048Y-102052316D01*
X138631047Y-102052317D01*
X138471089Y-102183589D01*
X138339817Y-102343547D01*
X138242269Y-102526043D01*
X138242268Y-102526045D01*
X138242268Y-102526046D01*
X138236569Y-102544835D01*
X138230661Y-102564311D01*
X138192363Y-102622750D01*
X138128551Y-102651206D01*
X138059484Y-102640646D01*
X138007090Y-102594422D01*
X137988000Y-102528316D01*
X137988000Y-100791683D01*
X138007685Y-100724644D01*
X138060489Y-100678889D01*
X138129647Y-100668945D01*
X138193203Y-100697970D01*
X138230661Y-100755689D01*
X138242268Y-100793955D01*
X138277847Y-100860518D01*
X138339815Y-100976450D01*
X138374469Y-101018677D01*
X138471089Y-101136410D01*
X138543204Y-101195592D01*
X138631050Y-101267685D01*
X138813546Y-101365232D01*
X139011566Y-101425300D01*
X139011565Y-101425300D01*
X139030029Y-101427118D01*
X139217500Y-101445583D01*
X139423434Y-101425300D01*
X139621454Y-101365232D01*
X139803950Y-101267685D01*
X139963910Y-101136410D01*
X140095185Y-100976450D01*
X140192732Y-100793954D01*
X140248790Y-100609152D01*
X142859550Y-100609152D01*
X142878822Y-100724644D01*
X142898774Y-100844208D01*
X142976148Y-101069589D01*
X142976154Y-101069603D01*
X143089569Y-101279176D01*
X143089576Y-101279187D01*
X143235933Y-101467227D01*
X143235936Y-101467230D01*
X143235940Y-101467235D01*
X143411266Y-101628633D01*
X143610766Y-101758973D01*
X143828998Y-101854699D01*
X144060010Y-101913199D01*
X144238028Y-101927950D01*
X144238030Y-101927950D01*
X144356970Y-101927950D01*
X144356972Y-101927950D01*
X144534990Y-101913199D01*
X144766002Y-101854699D01*
X144984234Y-101758973D01*
X145183734Y-101628633D01*
X145359060Y-101467235D01*
X145505429Y-101279179D01*
X145618849Y-101069597D01*
X145696226Y-100844206D01*
X145735450Y-100609152D01*
X145735450Y-100370848D01*
X145718282Y-100267968D01*
X145726664Y-100198606D01*
X145771216Y-100144784D01*
X145837795Y-100123593D01*
X145856771Y-100124621D01*
X145918169Y-100132705D01*
X145937499Y-100135250D01*
X145937500Y-100135250D01*
X145937501Y-100135250D01*
X145954457Y-100133017D01*
X145984629Y-100129045D01*
X146053664Y-100139810D01*
X146105920Y-100186190D01*
X146124806Y-100253458D01*
X146119606Y-100287544D01*
X146109339Y-100321840D01*
X146098031Y-100359610D01*
X146098030Y-100359616D01*
X146092979Y-100446340D01*
X146087893Y-100533660D01*
X146118168Y-100705354D01*
X146187221Y-100865438D01*
X146187222Y-100865440D01*
X146187224Y-100865443D01*
X146269868Y-100976452D01*
X146291332Y-101005283D01*
X146424886Y-101117349D01*
X146580685Y-101195594D01*
X146750329Y-101235800D01*
X146750331Y-101235800D01*
X146880929Y-101235800D01*
X146880936Y-101235800D01*
X147010664Y-101220637D01*
X147174493Y-101161008D01*
X147320154Y-101065205D01*
X147439796Y-100938393D01*
X147526967Y-100787407D01*
X147576969Y-100620388D01*
X147577623Y-100609152D01*
X147939550Y-100609152D01*
X147958822Y-100724644D01*
X147978774Y-100844208D01*
X148056148Y-101069589D01*
X148056154Y-101069603D01*
X148169569Y-101279176D01*
X148169576Y-101279187D01*
X148315933Y-101467227D01*
X148315936Y-101467230D01*
X148315940Y-101467235D01*
X148491266Y-101628633D01*
X148690766Y-101758973D01*
X148908998Y-101854699D01*
X149140010Y-101913199D01*
X149318028Y-101927950D01*
X149318030Y-101927950D01*
X149436970Y-101927950D01*
X149436972Y-101927950D01*
X149614990Y-101913199D01*
X149846002Y-101854699D01*
X150064234Y-101758973D01*
X150263734Y-101628633D01*
X150439060Y-101467235D01*
X150585429Y-101279179D01*
X150698849Y-101069597D01*
X150776226Y-100844206D01*
X150815450Y-100609152D01*
X150815450Y-100370848D01*
X150776226Y-100135794D01*
X150698849Y-99910403D01*
X150585429Y-99700821D01*
X150585427Y-99700819D01*
X150585423Y-99700812D01*
X150439066Y-99512772D01*
X150439063Y-99512769D01*
X150439060Y-99512765D01*
X150263734Y-99351367D01*
X150263731Y-99351365D01*
X150263730Y-99351364D01*
X150131538Y-99264999D01*
X150064234Y-99221027D01*
X150064231Y-99221025D01*
X150064230Y-99221025D01*
X149846002Y-99125301D01*
X149614986Y-99066800D01*
X149472332Y-99054980D01*
X149436972Y-99052050D01*
X149318028Y-99052050D01*
X149285862Y-99054715D01*
X149140013Y-99066800D01*
X148908997Y-99125301D01*
X148690769Y-99221025D01*
X148491269Y-99351364D01*
X148315943Y-99512762D01*
X148315933Y-99512772D01*
X148169576Y-99700812D01*
X148169569Y-99700823D01*
X148056154Y-99910396D01*
X148056148Y-99910410D01*
X147978774Y-100135791D01*
X147968292Y-100198606D01*
X147939550Y-100370848D01*
X147939550Y-100609152D01*
X147577623Y-100609152D01*
X147587107Y-100446340D01*
X147556832Y-100274646D01*
X147487779Y-100114562D01*
X147485167Y-100111054D01*
X147383667Y-99974716D01*
X147250114Y-99862651D01*
X147250112Y-99862650D01*
X147094318Y-99784407D01*
X147094316Y-99784406D01*
X147094315Y-99784406D01*
X146924671Y-99744200D01*
X146794064Y-99744200D01*
X146680552Y-99757467D01*
X146664335Y-99759363D01*
X146664329Y-99759364D01*
X146651330Y-99764096D01*
X146581601Y-99768526D01*
X146520547Y-99734553D01*
X146487551Y-99672966D01*
X146485984Y-99631390D01*
X146492750Y-99580000D01*
X146473830Y-99436291D01*
X146418361Y-99302375D01*
X146330121Y-99187379D01*
X146215125Y-99099139D01*
X146215124Y-99099138D01*
X146215122Y-99099137D01*
X146081212Y-99043671D01*
X146081210Y-99043670D01*
X146081209Y-99043670D01*
X146009354Y-99034210D01*
X145937501Y-99024750D01*
X145937499Y-99024750D01*
X145793791Y-99043670D01*
X145793787Y-99043671D01*
X145659877Y-99099137D01*
X145544879Y-99187379D01*
X145456638Y-99302376D01*
X145434547Y-99355709D01*
X145390705Y-99410112D01*
X145324410Y-99432176D01*
X145256711Y-99414896D01*
X145236010Y-99399490D01*
X145183734Y-99351367D01*
X145183731Y-99351365D01*
X145183730Y-99351364D01*
X145051538Y-99264999D01*
X144984234Y-99221027D01*
X144984231Y-99221025D01*
X144984230Y-99221025D01*
X144766002Y-99125301D01*
X144534986Y-99066800D01*
X144392332Y-99054980D01*
X144356972Y-99052050D01*
X144238028Y-99052050D01*
X144205862Y-99054715D01*
X144060013Y-99066800D01*
X143828997Y-99125301D01*
X143610769Y-99221025D01*
X143411269Y-99351364D01*
X143235943Y-99512762D01*
X143235933Y-99512772D01*
X143089576Y-99700812D01*
X143089569Y-99700823D01*
X142976154Y-99910396D01*
X142976148Y-99910410D01*
X142898774Y-100135791D01*
X142888292Y-100198606D01*
X142859550Y-100370848D01*
X142859550Y-100609152D01*
X140248790Y-100609152D01*
X140252800Y-100595934D01*
X140273083Y-100390000D01*
X140252800Y-100184066D01*
X140192732Y-99986046D01*
X140095185Y-99803550D01*
X140010871Y-99700812D01*
X139963910Y-99643589D01*
X139846177Y-99546969D01*
X139803950Y-99512315D01*
X139634054Y-99421502D01*
X139621456Y-99414769D01*
X139621455Y-99414768D01*
X139621454Y-99414768D01*
X139423434Y-99354700D01*
X139423432Y-99354699D01*
X139423434Y-99354699D01*
X139217500Y-99334417D01*
X139011567Y-99354699D01*
X138813543Y-99414769D01*
X138703398Y-99473643D01*
X138631050Y-99512315D01*
X138631048Y-99512316D01*
X138631047Y-99512317D01*
X138471089Y-99643589D01*
X138339817Y-99803547D01*
X138242269Y-99986043D01*
X138242268Y-99986045D01*
X138242268Y-99986046D01*
X138241580Y-99988316D01*
X138230661Y-100024311D01*
X138192363Y-100082750D01*
X138128551Y-100111206D01*
X138059484Y-100100646D01*
X138007090Y-100054422D01*
X137988000Y-99988316D01*
X137988000Y-98251683D01*
X138007685Y-98184644D01*
X138060489Y-98138889D01*
X138129647Y-98128945D01*
X138193203Y-98157970D01*
X138230660Y-98215687D01*
X138237424Y-98237986D01*
X138242268Y-98253955D01*
X138277847Y-98320518D01*
X138339815Y-98436450D01*
X138339817Y-98436452D01*
X138471089Y-98596410D01*
X138552756Y-98663431D01*
X138631050Y-98727685D01*
X138813546Y-98825232D01*
X139011566Y-98885300D01*
X139011565Y-98885300D01*
X139030029Y-98887118D01*
X139217500Y-98905583D01*
X139423434Y-98885300D01*
X139621454Y-98825232D01*
X139803950Y-98727685D01*
X139963910Y-98596410D01*
X140095185Y-98436450D01*
X140192732Y-98253954D01*
X140252800Y-98055934D01*
X140264680Y-97935315D01*
X140290839Y-97870530D01*
X140347874Y-97830171D01*
X140417674Y-97827054D01*
X140435535Y-97832910D01*
X140443791Y-97836330D01*
X140570780Y-97853048D01*
X140587499Y-97855250D01*
X140587500Y-97855250D01*
X140587501Y-97855250D01*
X140602477Y-97853278D01*
X140731209Y-97836330D01*
X140865125Y-97780861D01*
X140931408Y-97730000D01*
X146444750Y-97730000D01*
X146463251Y-97870530D01*
X146463670Y-97873708D01*
X146463671Y-97873712D01*
X146519137Y-98007622D01*
X146519138Y-98007624D01*
X146519139Y-98007625D01*
X146607379Y-98122621D01*
X146722375Y-98210861D01*
X146856291Y-98266330D01*
X146983280Y-98283048D01*
X146999999Y-98285250D01*
X147000000Y-98285250D01*
X147000001Y-98285250D01*
X147014977Y-98283278D01*
X147143709Y-98266330D01*
X147277625Y-98210861D01*
X147392621Y-98122621D01*
X147480861Y-98007625D01*
X147536330Y-97873709D01*
X147555250Y-97730000D01*
X147536330Y-97586291D01*
X147480861Y-97452375D01*
X147392621Y-97337379D01*
X147277625Y-97249139D01*
X147277624Y-97249138D01*
X147277622Y-97249137D01*
X147143712Y-97193671D01*
X147143710Y-97193670D01*
X147143709Y-97193670D01*
X147071854Y-97184210D01*
X147000001Y-97174750D01*
X146999999Y-97174750D01*
X146856291Y-97193670D01*
X146856287Y-97193671D01*
X146722377Y-97249137D01*
X146607379Y-97337379D01*
X146519137Y-97452377D01*
X146463671Y-97586287D01*
X146463670Y-97586291D01*
X146459274Y-97619685D01*
X146444750Y-97730000D01*
X140931408Y-97730000D01*
X140980121Y-97692621D01*
X141068361Y-97577625D01*
X141123830Y-97443709D01*
X141142750Y-97300000D01*
X141123830Y-97156291D01*
X141068361Y-97022375D01*
X140980121Y-96907379D01*
X140865125Y-96819139D01*
X140865124Y-96819138D01*
X140865122Y-96819137D01*
X140818920Y-96800000D01*
X143432250Y-96800000D01*
X143451170Y-96943708D01*
X143451171Y-96943712D01*
X143506637Y-97077622D01*
X143506638Y-97077624D01*
X143506639Y-97077625D01*
X143594879Y-97192621D01*
X143709875Y-97280861D01*
X143843791Y-97336330D01*
X143970780Y-97353048D01*
X143987499Y-97355250D01*
X143987500Y-97355250D01*
X143987501Y-97355250D01*
X144002477Y-97353278D01*
X144131209Y-97336330D01*
X144265125Y-97280861D01*
X144380121Y-97192621D01*
X144468361Y-97077625D01*
X144523830Y-96943709D01*
X144542750Y-96800000D01*
X144523830Y-96656291D01*
X144468361Y-96522375D01*
X144380121Y-96407379D01*
X144265125Y-96319139D01*
X144265124Y-96319138D01*
X144265122Y-96319137D01*
X144131212Y-96263671D01*
X144131210Y-96263670D01*
X144131209Y-96263670D01*
X144059354Y-96254210D01*
X143987501Y-96244750D01*
X143987499Y-96244750D01*
X143843791Y-96263670D01*
X143843787Y-96263671D01*
X143709877Y-96319137D01*
X143594879Y-96407379D01*
X143506637Y-96522377D01*
X143451171Y-96656287D01*
X143451170Y-96656291D01*
X143432250Y-96799999D01*
X143432250Y-96800000D01*
X140818920Y-96800000D01*
X140731212Y-96763671D01*
X140731210Y-96763670D01*
X140731209Y-96763670D01*
X140659354Y-96754210D01*
X140587501Y-96744750D01*
X140587499Y-96744750D01*
X140443791Y-96763670D01*
X140443787Y-96763671D01*
X140309877Y-96819137D01*
X140237378Y-96874768D01*
X140194879Y-96907379D01*
X140113689Y-97013188D01*
X140106636Y-97022379D01*
X140102575Y-97029414D01*
X140099771Y-97027795D01*
X140065366Y-97070407D01*
X139999051Y-97092408D01*
X139931368Y-97075064D01*
X139916079Y-97064336D01*
X139803953Y-96972317D01*
X139803951Y-96972316D01*
X139803950Y-96972315D01*
X139621454Y-96874768D01*
X139423434Y-96814700D01*
X139423432Y-96814699D01*
X139423434Y-96814699D01*
X139217500Y-96794417D01*
X139011567Y-96814699D01*
X138813543Y-96874769D01*
X138703398Y-96933643D01*
X138631050Y-96972315D01*
X138631048Y-96972316D01*
X138631047Y-96972317D01*
X138471089Y-97103589D01*
X138339817Y-97263547D01*
X138339815Y-97263550D01*
X138320332Y-97300000D01*
X138242269Y-97446043D01*
X138242268Y-97446045D01*
X138242268Y-97446046D01*
X138236569Y-97464835D01*
X138230661Y-97484311D01*
X138192363Y-97542750D01*
X138128551Y-97571206D01*
X138059484Y-97560646D01*
X138007090Y-97514422D01*
X137988000Y-97448316D01*
X137988000Y-95711683D01*
X138007685Y-95644644D01*
X138060489Y-95598889D01*
X138129647Y-95588945D01*
X138193203Y-95617970D01*
X138230661Y-95675689D01*
X138242268Y-95713955D01*
X138242269Y-95713956D01*
X138339815Y-95896450D01*
X138339817Y-95896452D01*
X138471089Y-96056410D01*
X138567709Y-96135702D01*
X138631050Y-96187685D01*
X138813546Y-96285232D01*
X139011566Y-96345300D01*
X139011565Y-96345300D01*
X139030029Y-96347118D01*
X139217500Y-96365583D01*
X139423434Y-96345300D01*
X139621454Y-96285232D01*
X139803950Y-96187685D01*
X139963910Y-96056410D01*
X140095185Y-95896450D01*
X140192732Y-95713954D01*
X140252800Y-95515934D01*
X140273083Y-95310000D01*
X140252800Y-95104066D01*
X140192732Y-94906046D01*
X140095185Y-94723550D01*
X139990404Y-94595873D01*
X139963910Y-94563589D01*
X139803952Y-94432317D01*
X139803953Y-94432317D01*
X139803950Y-94432315D01*
X139621454Y-94334768D01*
X139423434Y-94274700D01*
X139423432Y-94274699D01*
X139423434Y-94274699D01*
X139217500Y-94254417D01*
X139011567Y-94274699D01*
X138813543Y-94334769D01*
X138703398Y-94393643D01*
X138631050Y-94432315D01*
X138631048Y-94432316D01*
X138631047Y-94432317D01*
X138471089Y-94563589D01*
X138339817Y-94723547D01*
X138242269Y-94906043D01*
X138242268Y-94906045D01*
X138242268Y-94906046D01*
X138241580Y-94908316D01*
X138230661Y-94944311D01*
X138192363Y-95002750D01*
X138128551Y-95031206D01*
X138059484Y-95020646D01*
X138007090Y-94974422D01*
X137988000Y-94908316D01*
X137988000Y-93930000D01*
X145062250Y-93930000D01*
X145081170Y-94073708D01*
X145081171Y-94073712D01*
X145136637Y-94207622D01*
X145136638Y-94207624D01*
X145136639Y-94207625D01*
X145224879Y-94322621D01*
X145339875Y-94410861D01*
X145473791Y-94466330D01*
X145600780Y-94483048D01*
X145617499Y-94485250D01*
X145617500Y-94485250D01*
X145722240Y-94471460D01*
X145791273Y-94482225D01*
X145843529Y-94528605D01*
X145862415Y-94595873D01*
X145841935Y-94662674D01*
X145813914Y-94692772D01*
X145794881Y-94707377D01*
X145794880Y-94707378D01*
X145794879Y-94707379D01*
X145750759Y-94764877D01*
X145706637Y-94822377D01*
X145651171Y-94956287D01*
X145651170Y-94956291D01*
X145632250Y-95099999D01*
X145632250Y-95100000D01*
X145651170Y-95243708D01*
X145651171Y-95243712D01*
X145706637Y-95377622D01*
X145706638Y-95377624D01*
X145706639Y-95377625D01*
X145794879Y-95492621D01*
X145909875Y-95580861D01*
X146043791Y-95636330D01*
X146170780Y-95653048D01*
X146187499Y-95655250D01*
X146187500Y-95655250D01*
X146187501Y-95655250D01*
X146202477Y-95653278D01*
X146331209Y-95636330D01*
X146465125Y-95580861D01*
X146580121Y-95492621D01*
X146668361Y-95377625D01*
X146723830Y-95243709D01*
X146742750Y-95100000D01*
X146723830Y-94956291D01*
X146668361Y-94822375D01*
X146580121Y-94707379D01*
X146465125Y-94619139D01*
X146465124Y-94619138D01*
X146465122Y-94619137D01*
X146331212Y-94563671D01*
X146331210Y-94563670D01*
X146331209Y-94563670D01*
X146210462Y-94547773D01*
X146187501Y-94544750D01*
X146187498Y-94544750D01*
X146082760Y-94558539D01*
X146013725Y-94547773D01*
X145961469Y-94501393D01*
X145942584Y-94434124D01*
X145963065Y-94367324D01*
X145991086Y-94337226D01*
X146010121Y-94322621D01*
X146082918Y-94227750D01*
X146139344Y-94186549D01*
X146209090Y-94182394D01*
X146228744Y-94188677D01*
X146274483Y-94207622D01*
X146343791Y-94236330D01*
X146470780Y-94253048D01*
X146487499Y-94255250D01*
X146487500Y-94255250D01*
X146487501Y-94255250D01*
X146502477Y-94253278D01*
X146631209Y-94236330D01*
X146765125Y-94180861D01*
X146880121Y-94092621D01*
X146968361Y-93977625D01*
X147023830Y-93843709D01*
X147042750Y-93700000D01*
X147023830Y-93556291D01*
X146979446Y-93449137D01*
X146968362Y-93422377D01*
X146968361Y-93422376D01*
X146968361Y-93422375D01*
X146880121Y-93307379D01*
X146765125Y-93219139D01*
X146765124Y-93219138D01*
X146765122Y-93219137D01*
X146631212Y-93163671D01*
X146631210Y-93163670D01*
X146631209Y-93163670D01*
X146559354Y-93154210D01*
X146487501Y-93144750D01*
X146487499Y-93144750D01*
X146343791Y-93163670D01*
X146343787Y-93163671D01*
X146209877Y-93219137D01*
X146094876Y-93307381D01*
X146022082Y-93402248D01*
X145965654Y-93443451D01*
X145895908Y-93447605D01*
X145876255Y-93441323D01*
X145761209Y-93393670D01*
X145761208Y-93393669D01*
X145761206Y-93393669D01*
X145617501Y-93374750D01*
X145617499Y-93374750D01*
X145473791Y-93393670D01*
X145473787Y-93393671D01*
X145339877Y-93449137D01*
X145224879Y-93537379D01*
X145136637Y-93652377D01*
X145081171Y-93786287D01*
X145081170Y-93786291D01*
X145062250Y-93929999D01*
X145062250Y-93930000D01*
X137988000Y-93930000D01*
X137988000Y-93171683D01*
X138007685Y-93104644D01*
X138060489Y-93058889D01*
X138129647Y-93048945D01*
X138193203Y-93077970D01*
X138230661Y-93135689D01*
X138242268Y-93173955D01*
X138242269Y-93173956D01*
X138339815Y-93356450D01*
X138370361Y-93393671D01*
X138471089Y-93516410D01*
X138519685Y-93556291D01*
X138631050Y-93647685D01*
X138813546Y-93745232D01*
X139011566Y-93805300D01*
X139011565Y-93805300D01*
X139030029Y-93807118D01*
X139217500Y-93825583D01*
X139423434Y-93805300D01*
X139621454Y-93745232D01*
X139803950Y-93647685D01*
X139963910Y-93516410D01*
X140095185Y-93356450D01*
X140192732Y-93173954D01*
X140252800Y-92975934D01*
X140273083Y-92770000D01*
X140252800Y-92564066D01*
X140192732Y-92366046D01*
X140095185Y-92183550D01*
X140034248Y-92109298D01*
X139963910Y-92023589D01*
X139803952Y-91892317D01*
X139803953Y-91892317D01*
X139803950Y-91892315D01*
X139621454Y-91794768D01*
X139423434Y-91734700D01*
X139423432Y-91734699D01*
X139423434Y-91734699D01*
X139217500Y-91714417D01*
X139011567Y-91734699D01*
X138813543Y-91794769D01*
X138728761Y-91840087D01*
X138631050Y-91892315D01*
X138631048Y-91892316D01*
X138631047Y-91892317D01*
X138471089Y-92023589D01*
X138339817Y-92183547D01*
X138242269Y-92366043D01*
X138242268Y-92366045D01*
X138242268Y-92366046D01*
X138241580Y-92368316D01*
X138230661Y-92404311D01*
X138192363Y-92462750D01*
X138128551Y-92491206D01*
X138059484Y-92480646D01*
X138007090Y-92434422D01*
X137988000Y-92368316D01*
X137988000Y-91300000D01*
X144832250Y-91300000D01*
X144851170Y-91443708D01*
X144851171Y-91443712D01*
X144906637Y-91577622D01*
X144906638Y-91577624D01*
X144906639Y-91577625D01*
X144994879Y-91692621D01*
X145109875Y-91780861D01*
X145243791Y-91836330D01*
X145272333Y-91840087D01*
X145336229Y-91868352D01*
X145374701Y-91926676D01*
X145379087Y-91946837D01*
X145382846Y-91975386D01*
X145438313Y-92109298D01*
X145438314Y-92109300D01*
X145438315Y-92109301D01*
X145526555Y-92224297D01*
X145641551Y-92312537D01*
X145775467Y-92368006D01*
X145902456Y-92384724D01*
X145919175Y-92386926D01*
X145919176Y-92386926D01*
X145919177Y-92386926D01*
X145934153Y-92384954D01*
X146062885Y-92368006D01*
X146196801Y-92312537D01*
X146311797Y-92224297D01*
X146400037Y-92109301D01*
X146455506Y-91975385D01*
X146474426Y-91831676D01*
X146455506Y-91687967D01*
X146400037Y-91554051D01*
X146311797Y-91439055D01*
X146196801Y-91350815D01*
X146196800Y-91350814D01*
X146196798Y-91350813D01*
X146062886Y-91295346D01*
X146034337Y-91291587D01*
X145970441Y-91263318D01*
X145931972Y-91204993D01*
X145927587Y-91184832D01*
X145923830Y-91156292D01*
X145923828Y-91156287D01*
X145868362Y-91022377D01*
X145868361Y-91022376D01*
X145868361Y-91022375D01*
X145780121Y-90907379D01*
X145665125Y-90819139D01*
X145665124Y-90819138D01*
X145665122Y-90819137D01*
X145531212Y-90763671D01*
X145531210Y-90763670D01*
X145531209Y-90763670D01*
X145459354Y-90754210D01*
X145387501Y-90744750D01*
X145387499Y-90744750D01*
X145243791Y-90763670D01*
X145243787Y-90763671D01*
X145109877Y-90819137D01*
X144994879Y-90907379D01*
X144906637Y-91022377D01*
X144851171Y-91156287D01*
X144851170Y-91156291D01*
X144832250Y-91299999D01*
X144832250Y-91300000D01*
X137988000Y-91300000D01*
X137988000Y-90631683D01*
X138007685Y-90564644D01*
X138060489Y-90518889D01*
X138129647Y-90508945D01*
X138193203Y-90537970D01*
X138230661Y-90595689D01*
X138242268Y-90633955D01*
X138242269Y-90633956D01*
X138339815Y-90816450D01*
X138339817Y-90816452D01*
X138471089Y-90976410D01*
X138527101Y-91022377D01*
X138631050Y-91107685D01*
X138813546Y-91205232D01*
X139011566Y-91265300D01*
X139011565Y-91265300D01*
X139030029Y-91267118D01*
X139217500Y-91285583D01*
X139423434Y-91265300D01*
X139621454Y-91205232D01*
X139803950Y-91107685D01*
X139963910Y-90976410D01*
X140095185Y-90816450D01*
X140192732Y-90633954D01*
X140252800Y-90435934D01*
X140273083Y-90230000D01*
X140252800Y-90024066D01*
X140192732Y-89826046D01*
X140095185Y-89643550D01*
X140041080Y-89577622D01*
X139963910Y-89483589D01*
X139803952Y-89352317D01*
X139803953Y-89352317D01*
X139803950Y-89352315D01*
X139706076Y-89300000D01*
X141932250Y-89300000D01*
X141951170Y-89443708D01*
X141951171Y-89443712D01*
X142006637Y-89577622D01*
X142006638Y-89577624D01*
X142006639Y-89577625D01*
X142094879Y-89692621D01*
X142209875Y-89780861D01*
X142343791Y-89836330D01*
X142470780Y-89853048D01*
X142487499Y-89855250D01*
X142487500Y-89855250D01*
X142487501Y-89855250D01*
X142502477Y-89853278D01*
X142631209Y-89836330D01*
X142765125Y-89780861D01*
X142880121Y-89692621D01*
X142968361Y-89577625D01*
X143023830Y-89443709D01*
X143042750Y-89300000D01*
X143023830Y-89156291D01*
X142968361Y-89022375D01*
X142880121Y-88907379D01*
X142765125Y-88819139D01*
X142765124Y-88819138D01*
X142765122Y-88819137D01*
X142631212Y-88763671D01*
X142631210Y-88763670D01*
X142631209Y-88763670D01*
X142559354Y-88754210D01*
X142487501Y-88744750D01*
X142487499Y-88744750D01*
X142343791Y-88763670D01*
X142343787Y-88763671D01*
X142209877Y-88819137D01*
X142094879Y-88907379D01*
X142006637Y-89022377D01*
X141951171Y-89156287D01*
X141951170Y-89156291D01*
X141932250Y-89299999D01*
X141932250Y-89300000D01*
X139706076Y-89300000D01*
X139621454Y-89254768D01*
X139423434Y-89194700D01*
X139423432Y-89194699D01*
X139423434Y-89194699D01*
X139217500Y-89174417D01*
X139011567Y-89194699D01*
X138813543Y-89254769D01*
X138703398Y-89313643D01*
X138631050Y-89352315D01*
X138631048Y-89352316D01*
X138631047Y-89352317D01*
X138471089Y-89483589D01*
X138339817Y-89643547D01*
X138242269Y-89826043D01*
X138242268Y-89826045D01*
X138242268Y-89826046D01*
X138233410Y-89855250D01*
X138230661Y-89864311D01*
X138192363Y-89922750D01*
X138128551Y-89951206D01*
X138059484Y-89940646D01*
X138007090Y-89894422D01*
X137988000Y-89828316D01*
X137988000Y-88091683D01*
X138007685Y-88024644D01*
X138060489Y-87978889D01*
X138129647Y-87968945D01*
X138193203Y-87997970D01*
X138230661Y-88055689D01*
X138242268Y-88093955D01*
X138277847Y-88160518D01*
X138339815Y-88276450D01*
X138339817Y-88276452D01*
X138471089Y-88436410D01*
X138567709Y-88515702D01*
X138631050Y-88567685D01*
X138813546Y-88665232D01*
X139011566Y-88725300D01*
X139011565Y-88725300D01*
X139030029Y-88727118D01*
X139217500Y-88745583D01*
X139423434Y-88725300D01*
X139621454Y-88665232D01*
X139803950Y-88567685D01*
X139963910Y-88436410D01*
X140095185Y-88276450D01*
X140189500Y-88100000D01*
X149032250Y-88100000D01*
X149051170Y-88243708D01*
X149051171Y-88243712D01*
X149106637Y-88377622D01*
X149106638Y-88377624D01*
X149106639Y-88377625D01*
X149194879Y-88492621D01*
X149309875Y-88580861D01*
X149443791Y-88636330D01*
X149570780Y-88653048D01*
X149587499Y-88655250D01*
X149587500Y-88655250D01*
X149587501Y-88655250D01*
X149602477Y-88653278D01*
X149731209Y-88636330D01*
X149865125Y-88580861D01*
X149980121Y-88492621D01*
X150068361Y-88377625D01*
X150123830Y-88243709D01*
X150142750Y-88100000D01*
X150123830Y-87956291D01*
X150068361Y-87822375D01*
X149980121Y-87707379D01*
X149865125Y-87619139D01*
X149865124Y-87619138D01*
X149865122Y-87619137D01*
X149731212Y-87563671D01*
X149731210Y-87563670D01*
X149731209Y-87563670D01*
X149659354Y-87554210D01*
X149587501Y-87544750D01*
X149587499Y-87544750D01*
X149443791Y-87563670D01*
X149443787Y-87563671D01*
X149309877Y-87619137D01*
X149194879Y-87707379D01*
X149106637Y-87822377D01*
X149051171Y-87956287D01*
X149051170Y-87956291D01*
X149032250Y-88099999D01*
X149032250Y-88100000D01*
X140189500Y-88100000D01*
X140192732Y-88093954D01*
X140252800Y-87895934D01*
X140273083Y-87690000D01*
X140252800Y-87484066D01*
X140192732Y-87286046D01*
X140095185Y-87103550D01*
X140043202Y-87040209D01*
X139963910Y-86943589D01*
X139803952Y-86812317D01*
X139803953Y-86812317D01*
X139803950Y-86812315D01*
X139621454Y-86714768D01*
X139423434Y-86654700D01*
X139423432Y-86654699D01*
X139423434Y-86654699D01*
X139217500Y-86634417D01*
X139011567Y-86654699D01*
X138813543Y-86714769D01*
X138703398Y-86773643D01*
X138631050Y-86812315D01*
X138631048Y-86812316D01*
X138631047Y-86812317D01*
X138471089Y-86943589D01*
X138339817Y-87103547D01*
X138242269Y-87286043D01*
X138242268Y-87286045D01*
X138242268Y-87286046D01*
X138241580Y-87288316D01*
X138230661Y-87324311D01*
X138192363Y-87382750D01*
X138128551Y-87411206D01*
X138059484Y-87400646D01*
X138007090Y-87354422D01*
X137988000Y-87288316D01*
X137988000Y-85551683D01*
X138007685Y-85484644D01*
X138060489Y-85438889D01*
X138129647Y-85428945D01*
X138193203Y-85457970D01*
X138230661Y-85515689D01*
X138242268Y-85553955D01*
X138242269Y-85553956D01*
X138339815Y-85736450D01*
X138339817Y-85736452D01*
X138471089Y-85896410D01*
X138567709Y-85975702D01*
X138631050Y-86027685D01*
X138813546Y-86125232D01*
X139011566Y-86185300D01*
X139011565Y-86185300D01*
X139030029Y-86187118D01*
X139217500Y-86205583D01*
X139423434Y-86185300D01*
X139621454Y-86125232D01*
X139803950Y-86027685D01*
X139963910Y-85896410D01*
X140095185Y-85736450D01*
X140192732Y-85553954D01*
X140252800Y-85355934D01*
X140273083Y-85150000D01*
X140252800Y-84944066D01*
X140192732Y-84746046D01*
X140095185Y-84563550D01*
X140043202Y-84500209D01*
X139963910Y-84403589D01*
X139803952Y-84272317D01*
X139803953Y-84272317D01*
X139803950Y-84272315D01*
X139621454Y-84174768D01*
X139423434Y-84114700D01*
X139423432Y-84114699D01*
X139423434Y-84114699D01*
X139217500Y-84094417D01*
X139011567Y-84114699D01*
X138813543Y-84174769D01*
X138703398Y-84233643D01*
X138631050Y-84272315D01*
X138631048Y-84272316D01*
X138631047Y-84272317D01*
X138471089Y-84403589D01*
X138339817Y-84563547D01*
X138242269Y-84746043D01*
X138242268Y-84746045D01*
X138242268Y-84746046D01*
X138241580Y-84748316D01*
X138230661Y-84784311D01*
X138192363Y-84842750D01*
X138128551Y-84871206D01*
X138059484Y-84860646D01*
X138007090Y-84814422D01*
X137988000Y-84748316D01*
X137988000Y-83011683D01*
X138007685Y-82944644D01*
X138060489Y-82898889D01*
X138129647Y-82888945D01*
X138193203Y-82917970D01*
X138230661Y-82975689D01*
X138242268Y-83013955D01*
X138242269Y-83013956D01*
X138339815Y-83196450D01*
X138339817Y-83196452D01*
X138471089Y-83356410D01*
X138567709Y-83435702D01*
X138631050Y-83487685D01*
X138813546Y-83585232D01*
X139011566Y-83645300D01*
X139011565Y-83645300D01*
X139030029Y-83647118D01*
X139217500Y-83665583D01*
X139423434Y-83645300D01*
X139621454Y-83585232D01*
X139803950Y-83487685D01*
X139963910Y-83356410D01*
X140010204Y-83300000D01*
X140559150Y-83300000D01*
X140578070Y-83443708D01*
X140578071Y-83443712D01*
X140633537Y-83577622D01*
X140633538Y-83577624D01*
X140633539Y-83577625D01*
X140721779Y-83692621D01*
X140836775Y-83780861D01*
X140970691Y-83836330D01*
X141097680Y-83853048D01*
X141114399Y-83855250D01*
X141114400Y-83855250D01*
X141114401Y-83855250D01*
X141129377Y-83853278D01*
X141258109Y-83836330D01*
X141392025Y-83780861D01*
X141507021Y-83692621D01*
X141595261Y-83577625D01*
X141650730Y-83443709D01*
X141669650Y-83300000D01*
X141650730Y-83156291D01*
X141595261Y-83022375D01*
X141507021Y-82907379D01*
X141392025Y-82819139D01*
X141392024Y-82819138D01*
X141392022Y-82819137D01*
X141258112Y-82763671D01*
X141258110Y-82763670D01*
X141258109Y-82763670D01*
X141186254Y-82754210D01*
X141114401Y-82744750D01*
X141114399Y-82744750D01*
X140970691Y-82763670D01*
X140970687Y-82763671D01*
X140836777Y-82819137D01*
X140721779Y-82907379D01*
X140633537Y-83022377D01*
X140578071Y-83156287D01*
X140578070Y-83156291D01*
X140559150Y-83299999D01*
X140559150Y-83300000D01*
X140010204Y-83300000D01*
X140095185Y-83196450D01*
X140192732Y-83013954D01*
X140252800Y-82815934D01*
X140273083Y-82610000D01*
X140252800Y-82404066D01*
X140192732Y-82206046D01*
X140095185Y-82023550D01*
X140043202Y-81960209D01*
X139963910Y-81863589D01*
X139803952Y-81732317D01*
X139803953Y-81732317D01*
X139803950Y-81732315D01*
X139621454Y-81634768D01*
X139423434Y-81574700D01*
X139423432Y-81574699D01*
X139423434Y-81574699D01*
X139217500Y-81554417D01*
X139011567Y-81574699D01*
X138813543Y-81634769D01*
X138703398Y-81693643D01*
X138631050Y-81732315D01*
X138631048Y-81732316D01*
X138631047Y-81732317D01*
X138471089Y-81863589D01*
X138339817Y-82023547D01*
X138242269Y-82206043D01*
X138242268Y-82206045D01*
X138242268Y-82206046D01*
X138241580Y-82208316D01*
X138230661Y-82244311D01*
X138192363Y-82302750D01*
X138128551Y-82331206D01*
X138059484Y-82320646D01*
X138007090Y-82274422D01*
X137988000Y-82208316D01*
X137988000Y-80471683D01*
X138007685Y-80404644D01*
X138060489Y-80358889D01*
X138129647Y-80348945D01*
X138193203Y-80377970D01*
X138230660Y-80435687D01*
X138237424Y-80457986D01*
X138242268Y-80473955D01*
X138242269Y-80473956D01*
X138339815Y-80656450D01*
X138339817Y-80656452D01*
X138471089Y-80816410D01*
X138567709Y-80895702D01*
X138631050Y-80947685D01*
X138813546Y-81045232D01*
X139011566Y-81105300D01*
X139011565Y-81105300D01*
X139030029Y-81107118D01*
X139217500Y-81125583D01*
X139423434Y-81105300D01*
X139621454Y-81045232D01*
X139803950Y-80947685D01*
X139963910Y-80816410D01*
X140095185Y-80656450D01*
X140192732Y-80473954D01*
X140245500Y-80300000D01*
X140532250Y-80300000D01*
X140551170Y-80443708D01*
X140551171Y-80443712D01*
X140606637Y-80577622D01*
X140606638Y-80577624D01*
X140606639Y-80577625D01*
X140694879Y-80692621D01*
X140809875Y-80780861D01*
X140943791Y-80836330D01*
X141070780Y-80853048D01*
X141087499Y-80855250D01*
X141087500Y-80855250D01*
X141087501Y-80855250D01*
X141102477Y-80853278D01*
X141231209Y-80836330D01*
X141365125Y-80780861D01*
X141480121Y-80692621D01*
X141568361Y-80577625D01*
X141623830Y-80443709D01*
X141642750Y-80300000D01*
X141623830Y-80156291D01*
X141568361Y-80022375D01*
X141480121Y-79907379D01*
X141365125Y-79819139D01*
X141365124Y-79819138D01*
X141365122Y-79819137D01*
X141231212Y-79763671D01*
X141231210Y-79763670D01*
X141231209Y-79763670D01*
X141159354Y-79754210D01*
X141087501Y-79744750D01*
X141087499Y-79744750D01*
X140943791Y-79763670D01*
X140943787Y-79763671D01*
X140809877Y-79819137D01*
X140694879Y-79907379D01*
X140606637Y-80022377D01*
X140551171Y-80156287D01*
X140551170Y-80156291D01*
X140532250Y-80299999D01*
X140532250Y-80300000D01*
X140245500Y-80300000D01*
X140252800Y-80275934D01*
X140273083Y-80070000D01*
X140252800Y-79864066D01*
X140192732Y-79666046D01*
X140095185Y-79483550D01*
X140043202Y-79420209D01*
X139963910Y-79323589D01*
X139803952Y-79192317D01*
X139803953Y-79192317D01*
X139803950Y-79192315D01*
X139621454Y-79094768D01*
X139423434Y-79034700D01*
X139423432Y-79034699D01*
X139423434Y-79034699D01*
X139217500Y-79014417D01*
X139011567Y-79034699D01*
X138813543Y-79094769D01*
X138742601Y-79132689D01*
X138631050Y-79192315D01*
X138631048Y-79192316D01*
X138631047Y-79192317D01*
X138471089Y-79323589D01*
X138339817Y-79483547D01*
X138242269Y-79666043D01*
X138242268Y-79666045D01*
X138242268Y-79666046D01*
X138241580Y-79668316D01*
X138230661Y-79704311D01*
X138192363Y-79762750D01*
X138128551Y-79791206D01*
X138059484Y-79780646D01*
X138007090Y-79734422D01*
X137988000Y-79668316D01*
X137988000Y-78546869D01*
X138007685Y-78479830D01*
X138060489Y-78434075D01*
X138129647Y-78424131D01*
X138193203Y-78453156D01*
X138215099Y-78477974D01*
X138236899Y-78510601D01*
X138311156Y-78560217D01*
X138319760Y-78565966D01*
X138319764Y-78565967D01*
X138392821Y-78580499D01*
X138392824Y-78580500D01*
X138392826Y-78580500D01*
X140042176Y-78580500D01*
X140042177Y-78580499D01*
X140115240Y-78565966D01*
X140198101Y-78510601D01*
X140253466Y-78427740D01*
X140268000Y-78354674D01*
X140268000Y-76705326D01*
X140268000Y-76705323D01*
X140267999Y-76705321D01*
X140253467Y-76632264D01*
X140253466Y-76632260D01*
X140235721Y-76605703D01*
X140227493Y-76593389D01*
X140206617Y-76526712D01*
X140225102Y-76459332D01*
X140277081Y-76412643D01*
X140330597Y-76400500D01*
X143282746Y-76400500D01*
X143349785Y-76420185D01*
G37*
G04 #@! TD.AperFunction*
M02*
