G04 #@! TF.GenerationSoftware,KiCad,Pcbnew,(5.0.0)*
G04 #@! TF.CreationDate,2018-10-07T23:11:39+02:00*
G04 #@! TF.ProjectId,bosch_kf4_pll,626F7363685F6B66345F706C6C2E6B69,rev?*
G04 #@! TF.SameCoordinates,Original*
G04 #@! TF.FileFunction,Soldermask,Bot*
G04 #@! TF.FilePolarity,Negative*
%FSLAX46Y46*%
G04 Gerber Fmt 4.6, Leading zero omitted, Abs format (unit mm)*
G04 Created by KiCad (PCBNEW (5.0.0)) date 10/07/18 23:11:39*
%MOMM*%
%LPD*%
G01*
G04 APERTURE LIST*
%ADD10R,1.801600X1.801600*%
%ADD11O,1.801600X1.801600*%
%ADD12C,0.100000*%
%ADD13C,1.076600*%
%ADD14R,2.001600X1.201600*%
%ADD15R,1.001600X0.901600*%
%ADD16O,1.701600X1.701600*%
%ADD17R,1.701600X1.701600*%
G04 APERTURE END LIST*
D10*
G04 #@! TO.C,J3*
X132080000Y-62230000D03*
D11*
X132080000Y-64770000D03*
X134620000Y-62230000D03*
X134620000Y-64770000D03*
X137160000Y-62230000D03*
X137160000Y-64770000D03*
G04 #@! TD*
D12*
G04 #@! TO.C,R3*
G36*
X131755531Y-78625496D02*
X131781659Y-78629372D01*
X131807280Y-78635790D01*
X131832149Y-78644688D01*
X131856026Y-78655981D01*
X131878682Y-78669560D01*
X131899897Y-78685294D01*
X131919468Y-78703032D01*
X131937206Y-78722603D01*
X131952940Y-78743818D01*
X131966519Y-78766474D01*
X131977812Y-78790351D01*
X131986710Y-78815220D01*
X131993128Y-78840841D01*
X131997004Y-78866969D01*
X131998300Y-78893350D01*
X131998300Y-79856650D01*
X131997004Y-79883031D01*
X131993128Y-79909159D01*
X131986710Y-79934780D01*
X131977812Y-79959649D01*
X131966519Y-79983526D01*
X131952940Y-80006182D01*
X131937206Y-80027397D01*
X131919468Y-80046968D01*
X131899897Y-80064706D01*
X131878682Y-80080440D01*
X131856026Y-80094019D01*
X131832149Y-80105312D01*
X131807280Y-80114210D01*
X131781659Y-80120628D01*
X131755531Y-80124504D01*
X131729150Y-80125800D01*
X131190850Y-80125800D01*
X131164469Y-80124504D01*
X131138341Y-80120628D01*
X131112720Y-80114210D01*
X131087851Y-80105312D01*
X131063974Y-80094019D01*
X131041318Y-80080440D01*
X131020103Y-80064706D01*
X131000532Y-80046968D01*
X130982794Y-80027397D01*
X130967060Y-80006182D01*
X130953481Y-79983526D01*
X130942188Y-79959649D01*
X130933290Y-79934780D01*
X130926872Y-79909159D01*
X130922996Y-79883031D01*
X130921700Y-79856650D01*
X130921700Y-78893350D01*
X130922996Y-78866969D01*
X130926872Y-78840841D01*
X130933290Y-78815220D01*
X130942188Y-78790351D01*
X130953481Y-78766474D01*
X130967060Y-78743818D01*
X130982794Y-78722603D01*
X131000532Y-78703032D01*
X131020103Y-78685294D01*
X131041318Y-78669560D01*
X131063974Y-78655981D01*
X131087851Y-78644688D01*
X131112720Y-78635790D01*
X131138341Y-78629372D01*
X131164469Y-78625496D01*
X131190850Y-78624200D01*
X131729150Y-78624200D01*
X131755531Y-78625496D01*
X131755531Y-78625496D01*
G37*
D13*
X131460000Y-79375000D03*
D12*
G36*
X133630531Y-78625496D02*
X133656659Y-78629372D01*
X133682280Y-78635790D01*
X133707149Y-78644688D01*
X133731026Y-78655981D01*
X133753682Y-78669560D01*
X133774897Y-78685294D01*
X133794468Y-78703032D01*
X133812206Y-78722603D01*
X133827940Y-78743818D01*
X133841519Y-78766474D01*
X133852812Y-78790351D01*
X133861710Y-78815220D01*
X133868128Y-78840841D01*
X133872004Y-78866969D01*
X133873300Y-78893350D01*
X133873300Y-79856650D01*
X133872004Y-79883031D01*
X133868128Y-79909159D01*
X133861710Y-79934780D01*
X133852812Y-79959649D01*
X133841519Y-79983526D01*
X133827940Y-80006182D01*
X133812206Y-80027397D01*
X133794468Y-80046968D01*
X133774897Y-80064706D01*
X133753682Y-80080440D01*
X133731026Y-80094019D01*
X133707149Y-80105312D01*
X133682280Y-80114210D01*
X133656659Y-80120628D01*
X133630531Y-80124504D01*
X133604150Y-80125800D01*
X133065850Y-80125800D01*
X133039469Y-80124504D01*
X133013341Y-80120628D01*
X132987720Y-80114210D01*
X132962851Y-80105312D01*
X132938974Y-80094019D01*
X132916318Y-80080440D01*
X132895103Y-80064706D01*
X132875532Y-80046968D01*
X132857794Y-80027397D01*
X132842060Y-80006182D01*
X132828481Y-79983526D01*
X132817188Y-79959649D01*
X132808290Y-79934780D01*
X132801872Y-79909159D01*
X132797996Y-79883031D01*
X132796700Y-79856650D01*
X132796700Y-78893350D01*
X132797996Y-78866969D01*
X132801872Y-78840841D01*
X132808290Y-78815220D01*
X132817188Y-78790351D01*
X132828481Y-78766474D01*
X132842060Y-78743818D01*
X132857794Y-78722603D01*
X132875532Y-78703032D01*
X132895103Y-78685294D01*
X132916318Y-78669560D01*
X132938974Y-78655981D01*
X132962851Y-78644688D01*
X132987720Y-78635790D01*
X133013341Y-78629372D01*
X133039469Y-78625496D01*
X133065850Y-78624200D01*
X133604150Y-78624200D01*
X133630531Y-78625496D01*
X133630531Y-78625496D01*
G37*
D13*
X133335000Y-79375000D03*
G04 #@! TD*
D14*
G04 #@! TO.C,Y1*
X132922500Y-74055000D03*
X129222500Y-74055000D03*
X129222500Y-71755000D03*
X132922500Y-71755000D03*
G04 #@! TD*
D12*
G04 #@! TO.C,R2*
G36*
X135565531Y-82117996D02*
X135591659Y-82121872D01*
X135617280Y-82128290D01*
X135642149Y-82137188D01*
X135666026Y-82148481D01*
X135688682Y-82162060D01*
X135709897Y-82177794D01*
X135729468Y-82195532D01*
X135747206Y-82215103D01*
X135762940Y-82236318D01*
X135776519Y-82258974D01*
X135787812Y-82282851D01*
X135796710Y-82307720D01*
X135803128Y-82333341D01*
X135807004Y-82359469D01*
X135808300Y-82385850D01*
X135808300Y-83349150D01*
X135807004Y-83375531D01*
X135803128Y-83401659D01*
X135796710Y-83427280D01*
X135787812Y-83452149D01*
X135776519Y-83476026D01*
X135762940Y-83498682D01*
X135747206Y-83519897D01*
X135729468Y-83539468D01*
X135709897Y-83557206D01*
X135688682Y-83572940D01*
X135666026Y-83586519D01*
X135642149Y-83597812D01*
X135617280Y-83606710D01*
X135591659Y-83613128D01*
X135565531Y-83617004D01*
X135539150Y-83618300D01*
X135000850Y-83618300D01*
X134974469Y-83617004D01*
X134948341Y-83613128D01*
X134922720Y-83606710D01*
X134897851Y-83597812D01*
X134873974Y-83586519D01*
X134851318Y-83572940D01*
X134830103Y-83557206D01*
X134810532Y-83539468D01*
X134792794Y-83519897D01*
X134777060Y-83498682D01*
X134763481Y-83476026D01*
X134752188Y-83452149D01*
X134743290Y-83427280D01*
X134736872Y-83401659D01*
X134732996Y-83375531D01*
X134731700Y-83349150D01*
X134731700Y-82385850D01*
X134732996Y-82359469D01*
X134736872Y-82333341D01*
X134743290Y-82307720D01*
X134752188Y-82282851D01*
X134763481Y-82258974D01*
X134777060Y-82236318D01*
X134792794Y-82215103D01*
X134810532Y-82195532D01*
X134830103Y-82177794D01*
X134851318Y-82162060D01*
X134873974Y-82148481D01*
X134897851Y-82137188D01*
X134922720Y-82128290D01*
X134948341Y-82121872D01*
X134974469Y-82117996D01*
X135000850Y-82116700D01*
X135539150Y-82116700D01*
X135565531Y-82117996D01*
X135565531Y-82117996D01*
G37*
D13*
X135270000Y-82867500D03*
D12*
G36*
X137440531Y-82117996D02*
X137466659Y-82121872D01*
X137492280Y-82128290D01*
X137517149Y-82137188D01*
X137541026Y-82148481D01*
X137563682Y-82162060D01*
X137584897Y-82177794D01*
X137604468Y-82195532D01*
X137622206Y-82215103D01*
X137637940Y-82236318D01*
X137651519Y-82258974D01*
X137662812Y-82282851D01*
X137671710Y-82307720D01*
X137678128Y-82333341D01*
X137682004Y-82359469D01*
X137683300Y-82385850D01*
X137683300Y-83349150D01*
X137682004Y-83375531D01*
X137678128Y-83401659D01*
X137671710Y-83427280D01*
X137662812Y-83452149D01*
X137651519Y-83476026D01*
X137637940Y-83498682D01*
X137622206Y-83519897D01*
X137604468Y-83539468D01*
X137584897Y-83557206D01*
X137563682Y-83572940D01*
X137541026Y-83586519D01*
X137517149Y-83597812D01*
X137492280Y-83606710D01*
X137466659Y-83613128D01*
X137440531Y-83617004D01*
X137414150Y-83618300D01*
X136875850Y-83618300D01*
X136849469Y-83617004D01*
X136823341Y-83613128D01*
X136797720Y-83606710D01*
X136772851Y-83597812D01*
X136748974Y-83586519D01*
X136726318Y-83572940D01*
X136705103Y-83557206D01*
X136685532Y-83539468D01*
X136667794Y-83519897D01*
X136652060Y-83498682D01*
X136638481Y-83476026D01*
X136627188Y-83452149D01*
X136618290Y-83427280D01*
X136611872Y-83401659D01*
X136607996Y-83375531D01*
X136606700Y-83349150D01*
X136606700Y-82385850D01*
X136607996Y-82359469D01*
X136611872Y-82333341D01*
X136618290Y-82307720D01*
X136627188Y-82282851D01*
X136638481Y-82258974D01*
X136652060Y-82236318D01*
X136667794Y-82215103D01*
X136685532Y-82195532D01*
X136705103Y-82177794D01*
X136726318Y-82162060D01*
X136748974Y-82148481D01*
X136772851Y-82137188D01*
X136797720Y-82128290D01*
X136823341Y-82121872D01*
X136849469Y-82117996D01*
X136875850Y-82116700D01*
X137414150Y-82116700D01*
X137440531Y-82117996D01*
X137440531Y-82117996D01*
G37*
D13*
X137145000Y-82867500D03*
G04 #@! TD*
D12*
G04 #@! TO.C,C4*
G36*
X130485531Y-69100496D02*
X130511659Y-69104372D01*
X130537280Y-69110790D01*
X130562149Y-69119688D01*
X130586026Y-69130981D01*
X130608682Y-69144560D01*
X130629897Y-69160294D01*
X130649468Y-69178032D01*
X130667206Y-69197603D01*
X130682940Y-69218818D01*
X130696519Y-69241474D01*
X130707812Y-69265351D01*
X130716710Y-69290220D01*
X130723128Y-69315841D01*
X130727004Y-69341969D01*
X130728300Y-69368350D01*
X130728300Y-70331650D01*
X130727004Y-70358031D01*
X130723128Y-70384159D01*
X130716710Y-70409780D01*
X130707812Y-70434649D01*
X130696519Y-70458526D01*
X130682940Y-70481182D01*
X130667206Y-70502397D01*
X130649468Y-70521968D01*
X130629897Y-70539706D01*
X130608682Y-70555440D01*
X130586026Y-70569019D01*
X130562149Y-70580312D01*
X130537280Y-70589210D01*
X130511659Y-70595628D01*
X130485531Y-70599504D01*
X130459150Y-70600800D01*
X129920850Y-70600800D01*
X129894469Y-70599504D01*
X129868341Y-70595628D01*
X129842720Y-70589210D01*
X129817851Y-70580312D01*
X129793974Y-70569019D01*
X129771318Y-70555440D01*
X129750103Y-70539706D01*
X129730532Y-70521968D01*
X129712794Y-70502397D01*
X129697060Y-70481182D01*
X129683481Y-70458526D01*
X129672188Y-70434649D01*
X129663290Y-70409780D01*
X129656872Y-70384159D01*
X129652996Y-70358031D01*
X129651700Y-70331650D01*
X129651700Y-69368350D01*
X129652996Y-69341969D01*
X129656872Y-69315841D01*
X129663290Y-69290220D01*
X129672188Y-69265351D01*
X129683481Y-69241474D01*
X129697060Y-69218818D01*
X129712794Y-69197603D01*
X129730532Y-69178032D01*
X129750103Y-69160294D01*
X129771318Y-69144560D01*
X129793974Y-69130981D01*
X129817851Y-69119688D01*
X129842720Y-69110790D01*
X129868341Y-69104372D01*
X129894469Y-69100496D01*
X129920850Y-69099200D01*
X130459150Y-69099200D01*
X130485531Y-69100496D01*
X130485531Y-69100496D01*
G37*
D13*
X130190000Y-69850000D03*
D12*
G36*
X132360531Y-69100496D02*
X132386659Y-69104372D01*
X132412280Y-69110790D01*
X132437149Y-69119688D01*
X132461026Y-69130981D01*
X132483682Y-69144560D01*
X132504897Y-69160294D01*
X132524468Y-69178032D01*
X132542206Y-69197603D01*
X132557940Y-69218818D01*
X132571519Y-69241474D01*
X132582812Y-69265351D01*
X132591710Y-69290220D01*
X132598128Y-69315841D01*
X132602004Y-69341969D01*
X132603300Y-69368350D01*
X132603300Y-70331650D01*
X132602004Y-70358031D01*
X132598128Y-70384159D01*
X132591710Y-70409780D01*
X132582812Y-70434649D01*
X132571519Y-70458526D01*
X132557940Y-70481182D01*
X132542206Y-70502397D01*
X132524468Y-70521968D01*
X132504897Y-70539706D01*
X132483682Y-70555440D01*
X132461026Y-70569019D01*
X132437149Y-70580312D01*
X132412280Y-70589210D01*
X132386659Y-70595628D01*
X132360531Y-70599504D01*
X132334150Y-70600800D01*
X131795850Y-70600800D01*
X131769469Y-70599504D01*
X131743341Y-70595628D01*
X131717720Y-70589210D01*
X131692851Y-70580312D01*
X131668974Y-70569019D01*
X131646318Y-70555440D01*
X131625103Y-70539706D01*
X131605532Y-70521968D01*
X131587794Y-70502397D01*
X131572060Y-70481182D01*
X131558481Y-70458526D01*
X131547188Y-70434649D01*
X131538290Y-70409780D01*
X131531872Y-70384159D01*
X131527996Y-70358031D01*
X131526700Y-70331650D01*
X131526700Y-69368350D01*
X131527996Y-69341969D01*
X131531872Y-69315841D01*
X131538290Y-69290220D01*
X131547188Y-69265351D01*
X131558481Y-69241474D01*
X131572060Y-69218818D01*
X131587794Y-69197603D01*
X131605532Y-69178032D01*
X131625103Y-69160294D01*
X131646318Y-69144560D01*
X131668974Y-69130981D01*
X131692851Y-69119688D01*
X131717720Y-69110790D01*
X131743341Y-69104372D01*
X131769469Y-69100496D01*
X131795850Y-69099200D01*
X132334150Y-69099200D01*
X132360531Y-69100496D01*
X132360531Y-69100496D01*
G37*
D13*
X132065000Y-69850000D03*
G04 #@! TD*
D11*
G04 #@! TO.C,J1*
X135890000Y-87630000D03*
X135890000Y-90170000D03*
X133350000Y-87630000D03*
X133350000Y-90170000D03*
X130810000Y-87630000D03*
D10*
X130810000Y-90170000D03*
G04 #@! TD*
D12*
G04 #@! TO.C,R5*
G36*
X137668031Y-76947996D02*
X137694159Y-76951872D01*
X137719780Y-76958290D01*
X137744649Y-76967188D01*
X137768526Y-76978481D01*
X137791182Y-76992060D01*
X137812397Y-77007794D01*
X137831968Y-77025532D01*
X137849706Y-77045103D01*
X137865440Y-77066318D01*
X137879019Y-77088974D01*
X137890312Y-77112851D01*
X137899210Y-77137720D01*
X137905628Y-77163341D01*
X137909504Y-77189469D01*
X137910800Y-77215850D01*
X137910800Y-77754150D01*
X137909504Y-77780531D01*
X137905628Y-77806659D01*
X137899210Y-77832280D01*
X137890312Y-77857149D01*
X137879019Y-77881026D01*
X137865440Y-77903682D01*
X137849706Y-77924897D01*
X137831968Y-77944468D01*
X137812397Y-77962206D01*
X137791182Y-77977940D01*
X137768526Y-77991519D01*
X137744649Y-78002812D01*
X137719780Y-78011710D01*
X137694159Y-78018128D01*
X137668031Y-78022004D01*
X137641650Y-78023300D01*
X136678350Y-78023300D01*
X136651969Y-78022004D01*
X136625841Y-78018128D01*
X136600220Y-78011710D01*
X136575351Y-78002812D01*
X136551474Y-77991519D01*
X136528818Y-77977940D01*
X136507603Y-77962206D01*
X136488032Y-77944468D01*
X136470294Y-77924897D01*
X136454560Y-77903682D01*
X136440981Y-77881026D01*
X136429688Y-77857149D01*
X136420790Y-77832280D01*
X136414372Y-77806659D01*
X136410496Y-77780531D01*
X136409200Y-77754150D01*
X136409200Y-77215850D01*
X136410496Y-77189469D01*
X136414372Y-77163341D01*
X136420790Y-77137720D01*
X136429688Y-77112851D01*
X136440981Y-77088974D01*
X136454560Y-77066318D01*
X136470294Y-77045103D01*
X136488032Y-77025532D01*
X136507603Y-77007794D01*
X136528818Y-76992060D01*
X136551474Y-76978481D01*
X136575351Y-76967188D01*
X136600220Y-76958290D01*
X136625841Y-76951872D01*
X136651969Y-76947996D01*
X136678350Y-76946700D01*
X137641650Y-76946700D01*
X137668031Y-76947996D01*
X137668031Y-76947996D01*
G37*
D13*
X137160000Y-77485000D03*
D12*
G36*
X137668031Y-78822996D02*
X137694159Y-78826872D01*
X137719780Y-78833290D01*
X137744649Y-78842188D01*
X137768526Y-78853481D01*
X137791182Y-78867060D01*
X137812397Y-78882794D01*
X137831968Y-78900532D01*
X137849706Y-78920103D01*
X137865440Y-78941318D01*
X137879019Y-78963974D01*
X137890312Y-78987851D01*
X137899210Y-79012720D01*
X137905628Y-79038341D01*
X137909504Y-79064469D01*
X137910800Y-79090850D01*
X137910800Y-79629150D01*
X137909504Y-79655531D01*
X137905628Y-79681659D01*
X137899210Y-79707280D01*
X137890312Y-79732149D01*
X137879019Y-79756026D01*
X137865440Y-79778682D01*
X137849706Y-79799897D01*
X137831968Y-79819468D01*
X137812397Y-79837206D01*
X137791182Y-79852940D01*
X137768526Y-79866519D01*
X137744649Y-79877812D01*
X137719780Y-79886710D01*
X137694159Y-79893128D01*
X137668031Y-79897004D01*
X137641650Y-79898300D01*
X136678350Y-79898300D01*
X136651969Y-79897004D01*
X136625841Y-79893128D01*
X136600220Y-79886710D01*
X136575351Y-79877812D01*
X136551474Y-79866519D01*
X136528818Y-79852940D01*
X136507603Y-79837206D01*
X136488032Y-79819468D01*
X136470294Y-79799897D01*
X136454560Y-79778682D01*
X136440981Y-79756026D01*
X136429688Y-79732149D01*
X136420790Y-79707280D01*
X136414372Y-79681659D01*
X136410496Y-79655531D01*
X136409200Y-79629150D01*
X136409200Y-79090850D01*
X136410496Y-79064469D01*
X136414372Y-79038341D01*
X136420790Y-79012720D01*
X136429688Y-78987851D01*
X136440981Y-78963974D01*
X136454560Y-78941318D01*
X136470294Y-78920103D01*
X136488032Y-78900532D01*
X136507603Y-78882794D01*
X136528818Y-78867060D01*
X136551474Y-78853481D01*
X136575351Y-78842188D01*
X136600220Y-78833290D01*
X136625841Y-78826872D01*
X136651969Y-78822996D01*
X136678350Y-78821700D01*
X137641650Y-78821700D01*
X137668031Y-78822996D01*
X137668031Y-78822996D01*
G37*
D13*
X137160000Y-79360000D03*
G04 #@! TD*
D15*
G04 #@! TO.C,Q1*
X136795000Y-75880000D03*
X136795000Y-73980000D03*
X138795000Y-74930000D03*
G04 #@! TD*
D16*
G04 #@! TO.C,J2*
X140970000Y-62230000D03*
X125730000Y-90170000D03*
X140970000Y-64770000D03*
X125730000Y-87630000D03*
X140970000Y-67310000D03*
X125730000Y-85090000D03*
X140970000Y-69850000D03*
X125730000Y-82550000D03*
X140970000Y-72390000D03*
X125730000Y-80010000D03*
X140970000Y-74930000D03*
X125730000Y-77470000D03*
X140970000Y-77470000D03*
X125730000Y-74930000D03*
X140970000Y-80010000D03*
X125730000Y-72390000D03*
X140970000Y-82550000D03*
X125730000Y-69850000D03*
X140970000Y-85090000D03*
X125730000Y-67310000D03*
X140970000Y-87630000D03*
X125730000Y-64770000D03*
X140970000Y-90170000D03*
D17*
X125730000Y-62230000D03*
G04 #@! TD*
D12*
G04 #@! TO.C,C2*
G36*
X130048031Y-79487996D02*
X130074159Y-79491872D01*
X130099780Y-79498290D01*
X130124649Y-79507188D01*
X130148526Y-79518481D01*
X130171182Y-79532060D01*
X130192397Y-79547794D01*
X130211968Y-79565532D01*
X130229706Y-79585103D01*
X130245440Y-79606318D01*
X130259019Y-79628974D01*
X130270312Y-79652851D01*
X130279210Y-79677720D01*
X130285628Y-79703341D01*
X130289504Y-79729469D01*
X130290800Y-79755850D01*
X130290800Y-80294150D01*
X130289504Y-80320531D01*
X130285628Y-80346659D01*
X130279210Y-80372280D01*
X130270312Y-80397149D01*
X130259019Y-80421026D01*
X130245440Y-80443682D01*
X130229706Y-80464897D01*
X130211968Y-80484468D01*
X130192397Y-80502206D01*
X130171182Y-80517940D01*
X130148526Y-80531519D01*
X130124649Y-80542812D01*
X130099780Y-80551710D01*
X130074159Y-80558128D01*
X130048031Y-80562004D01*
X130021650Y-80563300D01*
X129058350Y-80563300D01*
X129031969Y-80562004D01*
X129005841Y-80558128D01*
X128980220Y-80551710D01*
X128955351Y-80542812D01*
X128931474Y-80531519D01*
X128908818Y-80517940D01*
X128887603Y-80502206D01*
X128868032Y-80484468D01*
X128850294Y-80464897D01*
X128834560Y-80443682D01*
X128820981Y-80421026D01*
X128809688Y-80397149D01*
X128800790Y-80372280D01*
X128794372Y-80346659D01*
X128790496Y-80320531D01*
X128789200Y-80294150D01*
X128789200Y-79755850D01*
X128790496Y-79729469D01*
X128794372Y-79703341D01*
X128800790Y-79677720D01*
X128809688Y-79652851D01*
X128820981Y-79628974D01*
X128834560Y-79606318D01*
X128850294Y-79585103D01*
X128868032Y-79565532D01*
X128887603Y-79547794D01*
X128908818Y-79532060D01*
X128931474Y-79518481D01*
X128955351Y-79507188D01*
X128980220Y-79498290D01*
X129005841Y-79491872D01*
X129031969Y-79487996D01*
X129058350Y-79486700D01*
X130021650Y-79486700D01*
X130048031Y-79487996D01*
X130048031Y-79487996D01*
G37*
D13*
X129540000Y-80025000D03*
D12*
G36*
X130048031Y-81362996D02*
X130074159Y-81366872D01*
X130099780Y-81373290D01*
X130124649Y-81382188D01*
X130148526Y-81393481D01*
X130171182Y-81407060D01*
X130192397Y-81422794D01*
X130211968Y-81440532D01*
X130229706Y-81460103D01*
X130245440Y-81481318D01*
X130259019Y-81503974D01*
X130270312Y-81527851D01*
X130279210Y-81552720D01*
X130285628Y-81578341D01*
X130289504Y-81604469D01*
X130290800Y-81630850D01*
X130290800Y-82169150D01*
X130289504Y-82195531D01*
X130285628Y-82221659D01*
X130279210Y-82247280D01*
X130270312Y-82272149D01*
X130259019Y-82296026D01*
X130245440Y-82318682D01*
X130229706Y-82339897D01*
X130211968Y-82359468D01*
X130192397Y-82377206D01*
X130171182Y-82392940D01*
X130148526Y-82406519D01*
X130124649Y-82417812D01*
X130099780Y-82426710D01*
X130074159Y-82433128D01*
X130048031Y-82437004D01*
X130021650Y-82438300D01*
X129058350Y-82438300D01*
X129031969Y-82437004D01*
X129005841Y-82433128D01*
X128980220Y-82426710D01*
X128955351Y-82417812D01*
X128931474Y-82406519D01*
X128908818Y-82392940D01*
X128887603Y-82377206D01*
X128868032Y-82359468D01*
X128850294Y-82339897D01*
X128834560Y-82318682D01*
X128820981Y-82296026D01*
X128809688Y-82272149D01*
X128800790Y-82247280D01*
X128794372Y-82221659D01*
X128790496Y-82195531D01*
X128789200Y-82169150D01*
X128789200Y-81630850D01*
X128790496Y-81604469D01*
X128794372Y-81578341D01*
X128800790Y-81552720D01*
X128809688Y-81527851D01*
X128820981Y-81503974D01*
X128834560Y-81481318D01*
X128850294Y-81460103D01*
X128868032Y-81440532D01*
X128887603Y-81422794D01*
X128908818Y-81407060D01*
X128931474Y-81393481D01*
X128955351Y-81382188D01*
X128980220Y-81373290D01*
X129005841Y-81366872D01*
X129031969Y-81362996D01*
X129058350Y-81361700D01*
X130021650Y-81361700D01*
X130048031Y-81362996D01*
X130048031Y-81362996D01*
G37*
D13*
X129540000Y-81900000D03*
G04 #@! TD*
D12*
G04 #@! TO.C,C3*
G36*
X130500531Y-75450496D02*
X130526659Y-75454372D01*
X130552280Y-75460790D01*
X130577149Y-75469688D01*
X130601026Y-75480981D01*
X130623682Y-75494560D01*
X130644897Y-75510294D01*
X130664468Y-75528032D01*
X130682206Y-75547603D01*
X130697940Y-75568818D01*
X130711519Y-75591474D01*
X130722812Y-75615351D01*
X130731710Y-75640220D01*
X130738128Y-75665841D01*
X130742004Y-75691969D01*
X130743300Y-75718350D01*
X130743300Y-76681650D01*
X130742004Y-76708031D01*
X130738128Y-76734159D01*
X130731710Y-76759780D01*
X130722812Y-76784649D01*
X130711519Y-76808526D01*
X130697940Y-76831182D01*
X130682206Y-76852397D01*
X130664468Y-76871968D01*
X130644897Y-76889706D01*
X130623682Y-76905440D01*
X130601026Y-76919019D01*
X130577149Y-76930312D01*
X130552280Y-76939210D01*
X130526659Y-76945628D01*
X130500531Y-76949504D01*
X130474150Y-76950800D01*
X129935850Y-76950800D01*
X129909469Y-76949504D01*
X129883341Y-76945628D01*
X129857720Y-76939210D01*
X129832851Y-76930312D01*
X129808974Y-76919019D01*
X129786318Y-76905440D01*
X129765103Y-76889706D01*
X129745532Y-76871968D01*
X129727794Y-76852397D01*
X129712060Y-76831182D01*
X129698481Y-76808526D01*
X129687188Y-76784649D01*
X129678290Y-76759780D01*
X129671872Y-76734159D01*
X129667996Y-76708031D01*
X129666700Y-76681650D01*
X129666700Y-75718350D01*
X129667996Y-75691969D01*
X129671872Y-75665841D01*
X129678290Y-75640220D01*
X129687188Y-75615351D01*
X129698481Y-75591474D01*
X129712060Y-75568818D01*
X129727794Y-75547603D01*
X129745532Y-75528032D01*
X129765103Y-75510294D01*
X129786318Y-75494560D01*
X129808974Y-75480981D01*
X129832851Y-75469688D01*
X129857720Y-75460790D01*
X129883341Y-75454372D01*
X129909469Y-75450496D01*
X129935850Y-75449200D01*
X130474150Y-75449200D01*
X130500531Y-75450496D01*
X130500531Y-75450496D01*
G37*
D13*
X130205000Y-76200000D03*
D12*
G36*
X132375531Y-75450496D02*
X132401659Y-75454372D01*
X132427280Y-75460790D01*
X132452149Y-75469688D01*
X132476026Y-75480981D01*
X132498682Y-75494560D01*
X132519897Y-75510294D01*
X132539468Y-75528032D01*
X132557206Y-75547603D01*
X132572940Y-75568818D01*
X132586519Y-75591474D01*
X132597812Y-75615351D01*
X132606710Y-75640220D01*
X132613128Y-75665841D01*
X132617004Y-75691969D01*
X132618300Y-75718350D01*
X132618300Y-76681650D01*
X132617004Y-76708031D01*
X132613128Y-76734159D01*
X132606710Y-76759780D01*
X132597812Y-76784649D01*
X132586519Y-76808526D01*
X132572940Y-76831182D01*
X132557206Y-76852397D01*
X132539468Y-76871968D01*
X132519897Y-76889706D01*
X132498682Y-76905440D01*
X132476026Y-76919019D01*
X132452149Y-76930312D01*
X132427280Y-76939210D01*
X132401659Y-76945628D01*
X132375531Y-76949504D01*
X132349150Y-76950800D01*
X131810850Y-76950800D01*
X131784469Y-76949504D01*
X131758341Y-76945628D01*
X131732720Y-76939210D01*
X131707851Y-76930312D01*
X131683974Y-76919019D01*
X131661318Y-76905440D01*
X131640103Y-76889706D01*
X131620532Y-76871968D01*
X131602794Y-76852397D01*
X131587060Y-76831182D01*
X131573481Y-76808526D01*
X131562188Y-76784649D01*
X131553290Y-76759780D01*
X131546872Y-76734159D01*
X131542996Y-76708031D01*
X131541700Y-76681650D01*
X131541700Y-75718350D01*
X131542996Y-75691969D01*
X131546872Y-75665841D01*
X131553290Y-75640220D01*
X131562188Y-75615351D01*
X131573481Y-75591474D01*
X131587060Y-75568818D01*
X131602794Y-75547603D01*
X131620532Y-75528032D01*
X131640103Y-75510294D01*
X131661318Y-75494560D01*
X131683974Y-75480981D01*
X131707851Y-75469688D01*
X131732720Y-75460790D01*
X131758341Y-75454372D01*
X131784469Y-75450496D01*
X131810850Y-75449200D01*
X132349150Y-75449200D01*
X132375531Y-75450496D01*
X132375531Y-75450496D01*
G37*
D13*
X132080000Y-76200000D03*
G04 #@! TD*
D12*
G04 #@! TO.C,R1*
G36*
X139255531Y-88060496D02*
X139281659Y-88064372D01*
X139307280Y-88070790D01*
X139332149Y-88079688D01*
X139356026Y-88090981D01*
X139378682Y-88104560D01*
X139399897Y-88120294D01*
X139419468Y-88138032D01*
X139437206Y-88157603D01*
X139452940Y-88178818D01*
X139466519Y-88201474D01*
X139477812Y-88225351D01*
X139486710Y-88250220D01*
X139493128Y-88275841D01*
X139497004Y-88301969D01*
X139498300Y-88328350D01*
X139498300Y-88866650D01*
X139497004Y-88893031D01*
X139493128Y-88919159D01*
X139486710Y-88944780D01*
X139477812Y-88969649D01*
X139466519Y-88993526D01*
X139452940Y-89016182D01*
X139437206Y-89037397D01*
X139419468Y-89056968D01*
X139399897Y-89074706D01*
X139378682Y-89090440D01*
X139356026Y-89104019D01*
X139332149Y-89115312D01*
X139307280Y-89124210D01*
X139281659Y-89130628D01*
X139255531Y-89134504D01*
X139229150Y-89135800D01*
X138265850Y-89135800D01*
X138239469Y-89134504D01*
X138213341Y-89130628D01*
X138187720Y-89124210D01*
X138162851Y-89115312D01*
X138138974Y-89104019D01*
X138116318Y-89090440D01*
X138095103Y-89074706D01*
X138075532Y-89056968D01*
X138057794Y-89037397D01*
X138042060Y-89016182D01*
X138028481Y-88993526D01*
X138017188Y-88969649D01*
X138008290Y-88944780D01*
X138001872Y-88919159D01*
X137997996Y-88893031D01*
X137996700Y-88866650D01*
X137996700Y-88328350D01*
X137997996Y-88301969D01*
X138001872Y-88275841D01*
X138008290Y-88250220D01*
X138017188Y-88225351D01*
X138028481Y-88201474D01*
X138042060Y-88178818D01*
X138057794Y-88157603D01*
X138075532Y-88138032D01*
X138095103Y-88120294D01*
X138116318Y-88104560D01*
X138138974Y-88090981D01*
X138162851Y-88079688D01*
X138187720Y-88070790D01*
X138213341Y-88064372D01*
X138239469Y-88060496D01*
X138265850Y-88059200D01*
X139229150Y-88059200D01*
X139255531Y-88060496D01*
X139255531Y-88060496D01*
G37*
D13*
X138747500Y-88597500D03*
D12*
G36*
X139255531Y-89935496D02*
X139281659Y-89939372D01*
X139307280Y-89945790D01*
X139332149Y-89954688D01*
X139356026Y-89965981D01*
X139378682Y-89979560D01*
X139399897Y-89995294D01*
X139419468Y-90013032D01*
X139437206Y-90032603D01*
X139452940Y-90053818D01*
X139466519Y-90076474D01*
X139477812Y-90100351D01*
X139486710Y-90125220D01*
X139493128Y-90150841D01*
X139497004Y-90176969D01*
X139498300Y-90203350D01*
X139498300Y-90741650D01*
X139497004Y-90768031D01*
X139493128Y-90794159D01*
X139486710Y-90819780D01*
X139477812Y-90844649D01*
X139466519Y-90868526D01*
X139452940Y-90891182D01*
X139437206Y-90912397D01*
X139419468Y-90931968D01*
X139399897Y-90949706D01*
X139378682Y-90965440D01*
X139356026Y-90979019D01*
X139332149Y-90990312D01*
X139307280Y-90999210D01*
X139281659Y-91005628D01*
X139255531Y-91009504D01*
X139229150Y-91010800D01*
X138265850Y-91010800D01*
X138239469Y-91009504D01*
X138213341Y-91005628D01*
X138187720Y-90999210D01*
X138162851Y-90990312D01*
X138138974Y-90979019D01*
X138116318Y-90965440D01*
X138095103Y-90949706D01*
X138075532Y-90931968D01*
X138057794Y-90912397D01*
X138042060Y-90891182D01*
X138028481Y-90868526D01*
X138017188Y-90844649D01*
X138008290Y-90819780D01*
X138001872Y-90794159D01*
X137997996Y-90768031D01*
X137996700Y-90741650D01*
X137996700Y-90203350D01*
X137997996Y-90176969D01*
X138001872Y-90150841D01*
X138008290Y-90125220D01*
X138017188Y-90100351D01*
X138028481Y-90076474D01*
X138042060Y-90053818D01*
X138057794Y-90032603D01*
X138075532Y-90013032D01*
X138095103Y-89995294D01*
X138116318Y-89979560D01*
X138138974Y-89965981D01*
X138162851Y-89954688D01*
X138187720Y-89945790D01*
X138213341Y-89939372D01*
X138239469Y-89935496D01*
X138265850Y-89934200D01*
X139229150Y-89934200D01*
X139255531Y-89935496D01*
X139255531Y-89935496D01*
G37*
D13*
X138747500Y-90472500D03*
G04 #@! TD*
M02*
