G04 #@! TF.GenerationSoftware,KiCad,Pcbnew,(5.0.0)*
G04 #@! TF.CreationDate,2018-10-07T23:11:39+02:00*
G04 #@! TF.ProjectId,bosch_kf4_pll,626F7363685F6B66345F706C6C2E6B69,rev?*
G04 #@! TF.SameCoordinates,Original*
G04 #@! TF.FileFunction,Copper,L1,Top,Signal*
G04 #@! TF.FilePolarity,Positive*
%FSLAX46Y46*%
G04 Gerber Fmt 4.6, Leading zero omitted, Abs format (unit mm)*
G04 Created by KiCad (PCBNEW (5.0.0)) date 10/07/18 23:11:39*
%MOMM*%
%LPD*%
G01*
G04 APERTURE LIST*
G04 #@! TA.AperFunction,ComponentPad*
%ADD10R,1.700000X1.700000*%
G04 #@! TD*
G04 #@! TA.AperFunction,ComponentPad*
%ADD11O,1.700000X1.700000*%
G04 #@! TD*
G04 #@! TA.AperFunction,Conductor*
%ADD12C,0.100000*%
G04 #@! TD*
G04 #@! TA.AperFunction,SMDPad,CuDef*
%ADD13C,0.975000*%
G04 #@! TD*
G04 #@! TA.AperFunction,SMDPad,CuDef*
%ADD14C,0.550000*%
G04 #@! TD*
G04 #@! TA.AperFunction,ComponentPad*
%ADD15O,1.600000X1.600000*%
G04 #@! TD*
G04 #@! TA.AperFunction,ComponentPad*
%ADD16R,1.600000X1.600000*%
G04 #@! TD*
G04 #@! TA.AperFunction,ViaPad*
%ADD17C,0.762000*%
G04 #@! TD*
G04 #@! TA.AperFunction,ViaPad*
%ADD18C,0.685800*%
G04 #@! TD*
G04 #@! TA.AperFunction,Conductor*
%ADD19C,0.508000*%
G04 #@! TD*
G04 #@! TA.AperFunction,Conductor*
%ADD20C,0.254000*%
G04 #@! TD*
G04 APERTURE END LIST*
D10*
G04 #@! TO.P,J3,1*
G04 #@! TO.N,PWM_A*
X132080000Y-62230000D03*
D11*
G04 #@! TO.P,J3,2*
G04 #@! TO.N,PWM_B*
X132080000Y-64770000D03*
G04 #@! TO.P,J3,3*
G04 #@! TO.N,ADC_A*
X134620000Y-62230000D03*
G04 #@! TO.P,J3,4*
G04 #@! TO.N,ADC_B*
X134620000Y-64770000D03*
G04 #@! TO.P,J3,5*
G04 #@! TO.N,GPIO_A*
X137160000Y-62230000D03*
G04 #@! TO.P,J3,6*
G04 #@! TO.N,GPIO_B*
X137160000Y-64770000D03*
G04 #@! TD*
D12*
G04 #@! TO.N,+5V*
G04 #@! TO.C,C1*
G36*
X136460142Y-69151174D02*
X136483803Y-69154684D01*
X136507007Y-69160496D01*
X136529529Y-69168554D01*
X136551153Y-69178782D01*
X136571670Y-69191079D01*
X136590883Y-69205329D01*
X136608607Y-69221393D01*
X136624671Y-69239117D01*
X136638921Y-69258330D01*
X136651218Y-69278847D01*
X136661446Y-69300471D01*
X136669504Y-69322993D01*
X136675316Y-69346197D01*
X136678826Y-69369858D01*
X136680000Y-69393750D01*
X136680000Y-70306250D01*
X136678826Y-70330142D01*
X136675316Y-70353803D01*
X136669504Y-70377007D01*
X136661446Y-70399529D01*
X136651218Y-70421153D01*
X136638921Y-70441670D01*
X136624671Y-70460883D01*
X136608607Y-70478607D01*
X136590883Y-70494671D01*
X136571670Y-70508921D01*
X136551153Y-70521218D01*
X136529529Y-70531446D01*
X136507007Y-70539504D01*
X136483803Y-70545316D01*
X136460142Y-70548826D01*
X136436250Y-70550000D01*
X135948750Y-70550000D01*
X135924858Y-70548826D01*
X135901197Y-70545316D01*
X135877993Y-70539504D01*
X135855471Y-70531446D01*
X135833847Y-70521218D01*
X135813330Y-70508921D01*
X135794117Y-70494671D01*
X135776393Y-70478607D01*
X135760329Y-70460883D01*
X135746079Y-70441670D01*
X135733782Y-70421153D01*
X135723554Y-70399529D01*
X135715496Y-70377007D01*
X135709684Y-70353803D01*
X135706174Y-70330142D01*
X135705000Y-70306250D01*
X135705000Y-69393750D01*
X135706174Y-69369858D01*
X135709684Y-69346197D01*
X135715496Y-69322993D01*
X135723554Y-69300471D01*
X135733782Y-69278847D01*
X135746079Y-69258330D01*
X135760329Y-69239117D01*
X135776393Y-69221393D01*
X135794117Y-69205329D01*
X135813330Y-69191079D01*
X135833847Y-69178782D01*
X135855471Y-69168554D01*
X135877993Y-69160496D01*
X135901197Y-69154684D01*
X135924858Y-69151174D01*
X135948750Y-69150000D01*
X136436250Y-69150000D01*
X136460142Y-69151174D01*
X136460142Y-69151174D01*
G37*
D13*
G04 #@! TD*
G04 #@! TO.P,C1,1*
G04 #@! TO.N,+5V*
X136192500Y-69850000D03*
D12*
G04 #@! TO.N,GND*
G04 #@! TO.C,C1*
G36*
X134585142Y-69151174D02*
X134608803Y-69154684D01*
X134632007Y-69160496D01*
X134654529Y-69168554D01*
X134676153Y-69178782D01*
X134696670Y-69191079D01*
X134715883Y-69205329D01*
X134733607Y-69221393D01*
X134749671Y-69239117D01*
X134763921Y-69258330D01*
X134776218Y-69278847D01*
X134786446Y-69300471D01*
X134794504Y-69322993D01*
X134800316Y-69346197D01*
X134803826Y-69369858D01*
X134805000Y-69393750D01*
X134805000Y-70306250D01*
X134803826Y-70330142D01*
X134800316Y-70353803D01*
X134794504Y-70377007D01*
X134786446Y-70399529D01*
X134776218Y-70421153D01*
X134763921Y-70441670D01*
X134749671Y-70460883D01*
X134733607Y-70478607D01*
X134715883Y-70494671D01*
X134696670Y-70508921D01*
X134676153Y-70521218D01*
X134654529Y-70531446D01*
X134632007Y-70539504D01*
X134608803Y-70545316D01*
X134585142Y-70548826D01*
X134561250Y-70550000D01*
X134073750Y-70550000D01*
X134049858Y-70548826D01*
X134026197Y-70545316D01*
X134002993Y-70539504D01*
X133980471Y-70531446D01*
X133958847Y-70521218D01*
X133938330Y-70508921D01*
X133919117Y-70494671D01*
X133901393Y-70478607D01*
X133885329Y-70460883D01*
X133871079Y-70441670D01*
X133858782Y-70421153D01*
X133848554Y-70399529D01*
X133840496Y-70377007D01*
X133834684Y-70353803D01*
X133831174Y-70330142D01*
X133830000Y-70306250D01*
X133830000Y-69393750D01*
X133831174Y-69369858D01*
X133834684Y-69346197D01*
X133840496Y-69322993D01*
X133848554Y-69300471D01*
X133858782Y-69278847D01*
X133871079Y-69258330D01*
X133885329Y-69239117D01*
X133901393Y-69221393D01*
X133919117Y-69205329D01*
X133938330Y-69191079D01*
X133958847Y-69178782D01*
X133980471Y-69168554D01*
X134002993Y-69160496D01*
X134026197Y-69154684D01*
X134049858Y-69151174D01*
X134073750Y-69150000D01*
X134561250Y-69150000D01*
X134585142Y-69151174D01*
X134585142Y-69151174D01*
G37*
D13*
G04 #@! TD*
G04 #@! TO.P,C1,2*
G04 #@! TO.N,GND*
X134317500Y-69850000D03*
D14*
G04 #@! TO.P,U1,32*
G04 #@! TO.N,PTT*
X138335103Y-79765305D03*
D12*
G04 #@! TD*
G04 #@! TO.N,PTT*
G04 #@! TO.C,U1*
G36*
X137574963Y-79394074D02*
X137963872Y-79005165D01*
X139095243Y-80136536D01*
X138706334Y-80525445D01*
X137574963Y-79394074D01*
X137574963Y-79394074D01*
G37*
D14*
G04 #@! TO.P,U1,31*
G04 #@! TO.N,TXD*
X137769417Y-80330990D03*
D12*
G04 #@! TD*
G04 #@! TO.N,TXD*
G04 #@! TO.C,U1*
G36*
X137009277Y-79959759D02*
X137398186Y-79570850D01*
X138529557Y-80702221D01*
X138140648Y-81091130D01*
X137009277Y-79959759D01*
X137009277Y-79959759D01*
G37*
D14*
G04 #@! TO.P,U1,30*
G04 #@! TO.N,RXD*
X137203732Y-80896676D03*
D12*
G04 #@! TD*
G04 #@! TO.N,RXD*
G04 #@! TO.C,U1*
G36*
X136443592Y-80525445D02*
X136832501Y-80136536D01*
X137963872Y-81267907D01*
X137574963Y-81656816D01*
X136443592Y-80525445D01*
X136443592Y-80525445D01*
G37*
D14*
G04 #@! TO.P,U1,29*
G04 #@! TO.N,RST*
X136638047Y-81462361D03*
D12*
G04 #@! TD*
G04 #@! TO.N,RST*
G04 #@! TO.C,U1*
G36*
X135877907Y-81091130D02*
X136266816Y-80702221D01*
X137398187Y-81833592D01*
X137009278Y-82222501D01*
X135877907Y-81091130D01*
X135877907Y-81091130D01*
G37*
D14*
G04 #@! TO.P,U1,28*
G04 #@! TO.N,A*
X136072361Y-82028047D03*
D12*
G04 #@! TD*
G04 #@! TO.N,A*
G04 #@! TO.C,U1*
G36*
X135312221Y-81656816D02*
X135701130Y-81267907D01*
X136832501Y-82399278D01*
X136443592Y-82788187D01*
X135312221Y-81656816D01*
X135312221Y-81656816D01*
G37*
D14*
G04 #@! TO.P,U1,27*
G04 #@! TO.N,PTT_SENSE*
X135506676Y-82593732D03*
D12*
G04 #@! TD*
G04 #@! TO.N,PTT_SENSE*
G04 #@! TO.C,U1*
G36*
X134746536Y-82222501D02*
X135135445Y-81833592D01*
X136266816Y-82964963D01*
X135877907Y-83353872D01*
X134746536Y-82222501D01*
X134746536Y-82222501D01*
G37*
D14*
G04 #@! TO.P,U1,26*
G04 #@! TO.N,A1*
X134940990Y-83159417D03*
D12*
G04 #@! TD*
G04 #@! TO.N,A1*
G04 #@! TO.C,U1*
G36*
X134180850Y-82788186D02*
X134569759Y-82399277D01*
X135701130Y-83530648D01*
X135312221Y-83919557D01*
X134180850Y-82788186D01*
X134180850Y-82788186D01*
G37*
D14*
G04 #@! TO.P,U1,25*
G04 #@! TO.N,A0*
X134375305Y-83725103D03*
D12*
G04 #@! TD*
G04 #@! TO.N,A0*
G04 #@! TO.C,U1*
G36*
X133615165Y-83353872D02*
X134004074Y-82964963D01*
X135135445Y-84096334D01*
X134746536Y-84485243D01*
X133615165Y-83353872D01*
X133615165Y-83353872D01*
G37*
D14*
G04 #@! TO.P,U1,24*
G04 #@! TO.N,D7*
X132324695Y-83725103D03*
D12*
G04 #@! TD*
G04 #@! TO.N,D7*
G04 #@! TO.C,U1*
G36*
X132695926Y-82964963D02*
X133084835Y-83353872D01*
X131953464Y-84485243D01*
X131564555Y-84096334D01*
X132695926Y-82964963D01*
X132695926Y-82964963D01*
G37*
D14*
G04 #@! TO.P,U1,23*
G04 #@! TO.N,D6*
X131759010Y-83159417D03*
D12*
G04 #@! TD*
G04 #@! TO.N,D6*
G04 #@! TO.C,U1*
G36*
X132130241Y-82399277D02*
X132519150Y-82788186D01*
X131387779Y-83919557D01*
X130998870Y-83530648D01*
X132130241Y-82399277D01*
X132130241Y-82399277D01*
G37*
D14*
G04 #@! TO.P,U1,22*
G04 #@! TO.N,ADC_B*
X131193324Y-82593732D03*
D12*
G04 #@! TD*
G04 #@! TO.N,ADC_B*
G04 #@! TO.C,U1*
G36*
X131564555Y-81833592D02*
X131953464Y-82222501D01*
X130822093Y-83353872D01*
X130433184Y-82964963D01*
X131564555Y-81833592D01*
X131564555Y-81833592D01*
G37*
D14*
G04 #@! TO.P,U1,21*
G04 #@! TO.N,GND*
X130627639Y-82028047D03*
D12*
G04 #@! TD*
G04 #@! TO.N,GND*
G04 #@! TO.C,U1*
G36*
X130998870Y-81267907D02*
X131387779Y-81656816D01*
X130256408Y-82788187D01*
X129867499Y-82399278D01*
X130998870Y-81267907D01*
X130998870Y-81267907D01*
G37*
D14*
G04 #@! TO.P,U1,20*
G04 #@! TO.N,Net-(U1-Pad20)*
X130061953Y-81462361D03*
D12*
G04 #@! TD*
G04 #@! TO.N,Net-(U1-Pad20)*
G04 #@! TO.C,U1*
G36*
X130433184Y-80702221D02*
X130822093Y-81091130D01*
X129690722Y-82222501D01*
X129301813Y-81833592D01*
X130433184Y-80702221D01*
X130433184Y-80702221D01*
G37*
D14*
G04 #@! TO.P,U1,19*
G04 #@! TO.N,ADC_A*
X129496268Y-80896676D03*
D12*
G04 #@! TD*
G04 #@! TO.N,ADC_A*
G04 #@! TO.C,U1*
G36*
X129867499Y-80136536D02*
X130256408Y-80525445D01*
X129125037Y-81656816D01*
X128736128Y-81267907D01*
X129867499Y-80136536D01*
X129867499Y-80136536D01*
G37*
D14*
G04 #@! TO.P,U1,18*
G04 #@! TO.N,+5V*
X128930583Y-80330990D03*
D12*
G04 #@! TD*
G04 #@! TO.N,+5V*
G04 #@! TO.C,U1*
G36*
X129301814Y-79570850D02*
X129690723Y-79959759D01*
X128559352Y-81091130D01*
X128170443Y-80702221D01*
X129301814Y-79570850D01*
X129301814Y-79570850D01*
G37*
D14*
G04 #@! TO.P,U1,17*
G04 #@! TO.N,D5*
X128364897Y-79765305D03*
D12*
G04 #@! TD*
G04 #@! TO.N,D5*
G04 #@! TO.C,U1*
G36*
X128736128Y-79005165D02*
X129125037Y-79394074D01*
X127993666Y-80525445D01*
X127604757Y-80136536D01*
X128736128Y-79005165D01*
X128736128Y-79005165D01*
G37*
D14*
G04 #@! TO.P,U1,16*
G04 #@! TO.N,D4*
X128364897Y-77714695D03*
D12*
G04 #@! TD*
G04 #@! TO.N,D4*
G04 #@! TO.C,U1*
G36*
X127604757Y-77343464D02*
X127993666Y-76954555D01*
X129125037Y-78085926D01*
X128736128Y-78474835D01*
X127604757Y-77343464D01*
X127604757Y-77343464D01*
G37*
D14*
G04 #@! TO.P,U1,15*
G04 #@! TO.N,D3*
X128930583Y-77149010D03*
D12*
G04 #@! TD*
G04 #@! TO.N,D3*
G04 #@! TO.C,U1*
G36*
X128170443Y-76777779D02*
X128559352Y-76388870D01*
X129690723Y-77520241D01*
X129301814Y-77909150D01*
X128170443Y-76777779D01*
X128170443Y-76777779D01*
G37*
D14*
G04 #@! TO.P,U1,14*
G04 #@! TO.N,D2*
X129496268Y-76583324D03*
D12*
G04 #@! TD*
G04 #@! TO.N,D2*
G04 #@! TO.C,U1*
G36*
X128736128Y-76212093D02*
X129125037Y-75823184D01*
X130256408Y-76954555D01*
X129867499Y-77343464D01*
X128736128Y-76212093D01*
X128736128Y-76212093D01*
G37*
D14*
G04 #@! TO.P,U1,13*
G04 #@! TO.N,D1*
X130061953Y-76017639D03*
D12*
G04 #@! TD*
G04 #@! TO.N,D1*
G04 #@! TO.C,U1*
G36*
X129301813Y-75646408D02*
X129690722Y-75257499D01*
X130822093Y-76388870D01*
X130433184Y-76777779D01*
X129301813Y-75646408D01*
X129301813Y-75646408D01*
G37*
D14*
G04 #@! TO.P,U1,12*
G04 #@! TO.N,D0*
X130627639Y-75451953D03*
D12*
G04 #@! TD*
G04 #@! TO.N,D0*
G04 #@! TO.C,U1*
G36*
X129867499Y-75080722D02*
X130256408Y-74691813D01*
X131387779Y-75823184D01*
X130998870Y-76212093D01*
X129867499Y-75080722D01*
X129867499Y-75080722D01*
G37*
D14*
G04 #@! TO.P,U1,11*
G04 #@! TO.N,PWM_B*
X131193324Y-74886268D03*
D12*
G04 #@! TD*
G04 #@! TO.N,PWM_B*
G04 #@! TO.C,U1*
G36*
X130433184Y-74515037D02*
X130822093Y-74126128D01*
X131953464Y-75257499D01*
X131564555Y-75646408D01*
X130433184Y-74515037D01*
X130433184Y-74515037D01*
G37*
D14*
G04 #@! TO.P,U1,10*
G04 #@! TO.N,PWM_A*
X131759010Y-74320583D03*
D12*
G04 #@! TD*
G04 #@! TO.N,PWM_A*
G04 #@! TO.C,U1*
G36*
X130998870Y-73949352D02*
X131387779Y-73560443D01*
X132519150Y-74691814D01*
X132130241Y-75080723D01*
X130998870Y-73949352D01*
X130998870Y-73949352D01*
G37*
D14*
G04 #@! TO.P,U1,9*
G04 #@! TO.N,SQL*
X132324695Y-73754897D03*
D12*
G04 #@! TD*
G04 #@! TO.N,SQL*
G04 #@! TO.C,U1*
G36*
X131564555Y-73383666D02*
X131953464Y-72994757D01*
X133084835Y-74126128D01*
X132695926Y-74515037D01*
X131564555Y-73383666D01*
X131564555Y-73383666D01*
G37*
D14*
G04 #@! TO.P,U1,8*
G04 #@! TO.N,Net-(C4-Pad2)*
X134375305Y-73754897D03*
D12*
G04 #@! TD*
G04 #@! TO.N,Net-(C4-Pad2)*
G04 #@! TO.C,U1*
G36*
X134746536Y-72994757D02*
X135135445Y-73383666D01*
X134004074Y-74515037D01*
X133615165Y-74126128D01*
X134746536Y-72994757D01*
X134746536Y-72994757D01*
G37*
D14*
G04 #@! TO.P,U1,7*
G04 #@! TO.N,Net-(C3-Pad2)*
X134940990Y-74320583D03*
D12*
G04 #@! TD*
G04 #@! TO.N,Net-(C3-Pad2)*
G04 #@! TO.C,U1*
G36*
X135312221Y-73560443D02*
X135701130Y-73949352D01*
X134569759Y-75080723D01*
X134180850Y-74691814D01*
X135312221Y-73560443D01*
X135312221Y-73560443D01*
G37*
D14*
G04 #@! TO.P,U1,6*
G04 #@! TO.N,+5V*
X135506676Y-74886268D03*
D12*
G04 #@! TD*
G04 #@! TO.N,+5V*
G04 #@! TO.C,U1*
G36*
X135877907Y-74126128D02*
X136266816Y-74515037D01*
X135135445Y-75646408D01*
X134746536Y-75257499D01*
X135877907Y-74126128D01*
X135877907Y-74126128D01*
G37*
D14*
G04 #@! TO.P,U1,5*
G04 #@! TO.N,GND*
X136072361Y-75451953D03*
D12*
G04 #@! TD*
G04 #@! TO.N,GND*
G04 #@! TO.C,U1*
G36*
X136443592Y-74691813D02*
X136832501Y-75080722D01*
X135701130Y-76212093D01*
X135312221Y-75823184D01*
X136443592Y-74691813D01*
X136443592Y-74691813D01*
G37*
D14*
G04 #@! TO.P,U1,4*
G04 #@! TO.N,+5V*
X136638047Y-76017639D03*
D12*
G04 #@! TD*
G04 #@! TO.N,+5V*
G04 #@! TO.C,U1*
G36*
X137009278Y-75257499D02*
X137398187Y-75646408D01*
X136266816Y-76777779D01*
X135877907Y-76388870D01*
X137009278Y-75257499D01*
X137009278Y-75257499D01*
G37*
D14*
G04 #@! TO.P,U1,3*
G04 #@! TO.N,GND*
X137203732Y-76583324D03*
D12*
G04 #@! TD*
G04 #@! TO.N,GND*
G04 #@! TO.C,U1*
G36*
X137574963Y-75823184D02*
X137963872Y-76212093D01*
X136832501Y-77343464D01*
X136443592Y-76954555D01*
X137574963Y-75823184D01*
X137574963Y-75823184D01*
G37*
D14*
G04 #@! TO.P,U1,2*
G04 #@! TO.N,GPIO_B*
X137769417Y-77149010D03*
D12*
G04 #@! TD*
G04 #@! TO.N,GPIO_B*
G04 #@! TO.C,U1*
G36*
X138140648Y-76388870D02*
X138529557Y-76777779D01*
X137398186Y-77909150D01*
X137009277Y-77520241D01*
X138140648Y-76388870D01*
X138140648Y-76388870D01*
G37*
D14*
G04 #@! TO.P,U1,1*
G04 #@! TO.N,GPIO_A*
X138335103Y-77714695D03*
D12*
G04 #@! TD*
G04 #@! TO.N,GPIO_A*
G04 #@! TO.C,U1*
G36*
X138706334Y-76954555D02*
X139095243Y-77343464D01*
X137963872Y-78474835D01*
X137574963Y-78085926D01*
X138706334Y-76954555D01*
X138706334Y-76954555D01*
G37*
D11*
G04 #@! TO.P,J1,6*
G04 #@! TO.N,GND*
X135890000Y-87630000D03*
G04 #@! TO.P,J1,5*
G04 #@! TO.N,RST*
X135890000Y-90170000D03*
G04 #@! TO.P,J1,4*
G04 #@! TO.N,D3*
X133350000Y-87630000D03*
G04 #@! TO.P,J1,3*
G04 #@! TO.N,D5*
X133350000Y-90170000D03*
G04 #@! TO.P,J1,2*
G04 #@! TO.N,+5V*
X130810000Y-87630000D03*
D10*
G04 #@! TO.P,J1,1*
G04 #@! TO.N,D4*
X130810000Y-90170000D03*
G04 #@! TD*
D15*
G04 #@! TO.P,J2,24*
G04 #@! TO.N,GND*
X140970000Y-62230000D03*
G04 #@! TO.P,J2,12*
G04 #@! TO.N,+5V*
X125730000Y-90170000D03*
G04 #@! TO.P,J2,23*
X140970000Y-64770000D03*
G04 #@! TO.P,J2,11*
G04 #@! TO.N,D7*
X125730000Y-87630000D03*
G04 #@! TO.P,J2,22*
G04 #@! TO.N,+5V*
X140970000Y-67310000D03*
G04 #@! TO.P,J2,10*
G04 #@! TO.N,D6*
X125730000Y-85090000D03*
G04 #@! TO.P,J2,21*
G04 #@! TO.N,RXD*
X140970000Y-69850000D03*
G04 #@! TO.P,J2,9*
G04 #@! TO.N,D5*
X125730000Y-82550000D03*
G04 #@! TO.P,J2,20*
G04 #@! TO.N,TXD*
X140970000Y-72390000D03*
G04 #@! TO.P,J2,8*
G04 #@! TO.N,D4*
X125730000Y-80010000D03*
G04 #@! TO.P,J2,19*
G04 #@! TO.N,PTT_OUT*
X140970000Y-74930000D03*
G04 #@! TO.P,J2,7*
G04 #@! TO.N,D3*
X125730000Y-77470000D03*
G04 #@! TO.P,J2,18*
G04 #@! TO.N,A*
X140970000Y-77470000D03*
G04 #@! TO.P,J2,6*
G04 #@! TO.N,D2*
X125730000Y-74930000D03*
G04 #@! TO.P,J2,17*
G04 #@! TO.N,PTT_SENSE*
X140970000Y-80010000D03*
G04 #@! TO.P,J2,5*
G04 #@! TO.N,D1*
X125730000Y-72390000D03*
G04 #@! TO.P,J2,16*
G04 #@! TO.N,GND*
X140970000Y-82550000D03*
G04 #@! TO.P,J2,4*
G04 #@! TO.N,D0*
X125730000Y-69850000D03*
G04 #@! TO.P,J2,15*
G04 #@! TO.N,+5V*
X140970000Y-85090000D03*
G04 #@! TO.P,J2,3*
G04 #@! TO.N,A0*
X125730000Y-67310000D03*
G04 #@! TO.P,J2,14*
G04 #@! TO.N,GND*
X140970000Y-87630000D03*
G04 #@! TO.P,J2,2*
G04 #@! TO.N,A1*
X125730000Y-64770000D03*
G04 #@! TO.P,J2,13*
G04 #@! TO.N,+5V*
X140970000Y-90170000D03*
D16*
G04 #@! TO.P,J2,1*
G04 #@! TO.N,SQL*
X125730000Y-62230000D03*
G04 #@! TD*
D12*
G04 #@! TO.N,SQL*
G04 #@! TO.C,R4*
G36*
X128750142Y-62076174D02*
X128773803Y-62079684D01*
X128797007Y-62085496D01*
X128819529Y-62093554D01*
X128841153Y-62103782D01*
X128861670Y-62116079D01*
X128880883Y-62130329D01*
X128898607Y-62146393D01*
X128914671Y-62164117D01*
X128928921Y-62183330D01*
X128941218Y-62203847D01*
X128951446Y-62225471D01*
X128959504Y-62247993D01*
X128965316Y-62271197D01*
X128968826Y-62294858D01*
X128970000Y-62318750D01*
X128970000Y-62806250D01*
X128968826Y-62830142D01*
X128965316Y-62853803D01*
X128959504Y-62877007D01*
X128951446Y-62899529D01*
X128941218Y-62921153D01*
X128928921Y-62941670D01*
X128914671Y-62960883D01*
X128898607Y-62978607D01*
X128880883Y-62994671D01*
X128861670Y-63008921D01*
X128841153Y-63021218D01*
X128819529Y-63031446D01*
X128797007Y-63039504D01*
X128773803Y-63045316D01*
X128750142Y-63048826D01*
X128726250Y-63050000D01*
X127813750Y-63050000D01*
X127789858Y-63048826D01*
X127766197Y-63045316D01*
X127742993Y-63039504D01*
X127720471Y-63031446D01*
X127698847Y-63021218D01*
X127678330Y-63008921D01*
X127659117Y-62994671D01*
X127641393Y-62978607D01*
X127625329Y-62960883D01*
X127611079Y-62941670D01*
X127598782Y-62921153D01*
X127588554Y-62899529D01*
X127580496Y-62877007D01*
X127574684Y-62853803D01*
X127571174Y-62830142D01*
X127570000Y-62806250D01*
X127570000Y-62318750D01*
X127571174Y-62294858D01*
X127574684Y-62271197D01*
X127580496Y-62247993D01*
X127588554Y-62225471D01*
X127598782Y-62203847D01*
X127611079Y-62183330D01*
X127625329Y-62164117D01*
X127641393Y-62146393D01*
X127659117Y-62130329D01*
X127678330Y-62116079D01*
X127698847Y-62103782D01*
X127720471Y-62093554D01*
X127742993Y-62085496D01*
X127766197Y-62079684D01*
X127789858Y-62076174D01*
X127813750Y-62075000D01*
X128726250Y-62075000D01*
X128750142Y-62076174D01*
X128750142Y-62076174D01*
G37*
D13*
G04 #@! TD*
G04 #@! TO.P,R4,1*
G04 #@! TO.N,SQL*
X128270000Y-62562500D03*
D12*
G04 #@! TO.N,GND*
G04 #@! TO.C,R4*
G36*
X128750142Y-63951174D02*
X128773803Y-63954684D01*
X128797007Y-63960496D01*
X128819529Y-63968554D01*
X128841153Y-63978782D01*
X128861670Y-63991079D01*
X128880883Y-64005329D01*
X128898607Y-64021393D01*
X128914671Y-64039117D01*
X128928921Y-64058330D01*
X128941218Y-64078847D01*
X128951446Y-64100471D01*
X128959504Y-64122993D01*
X128965316Y-64146197D01*
X128968826Y-64169858D01*
X128970000Y-64193750D01*
X128970000Y-64681250D01*
X128968826Y-64705142D01*
X128965316Y-64728803D01*
X128959504Y-64752007D01*
X128951446Y-64774529D01*
X128941218Y-64796153D01*
X128928921Y-64816670D01*
X128914671Y-64835883D01*
X128898607Y-64853607D01*
X128880883Y-64869671D01*
X128861670Y-64883921D01*
X128841153Y-64896218D01*
X128819529Y-64906446D01*
X128797007Y-64914504D01*
X128773803Y-64920316D01*
X128750142Y-64923826D01*
X128726250Y-64925000D01*
X127813750Y-64925000D01*
X127789858Y-64923826D01*
X127766197Y-64920316D01*
X127742993Y-64914504D01*
X127720471Y-64906446D01*
X127698847Y-64896218D01*
X127678330Y-64883921D01*
X127659117Y-64869671D01*
X127641393Y-64853607D01*
X127625329Y-64835883D01*
X127611079Y-64816670D01*
X127598782Y-64796153D01*
X127588554Y-64774529D01*
X127580496Y-64752007D01*
X127574684Y-64728803D01*
X127571174Y-64705142D01*
X127570000Y-64681250D01*
X127570000Y-64193750D01*
X127571174Y-64169858D01*
X127574684Y-64146197D01*
X127580496Y-64122993D01*
X127588554Y-64100471D01*
X127598782Y-64078847D01*
X127611079Y-64058330D01*
X127625329Y-64039117D01*
X127641393Y-64021393D01*
X127659117Y-64005329D01*
X127678330Y-63991079D01*
X127698847Y-63978782D01*
X127720471Y-63968554D01*
X127742993Y-63960496D01*
X127766197Y-63954684D01*
X127789858Y-63951174D01*
X127813750Y-63950000D01*
X128726250Y-63950000D01*
X128750142Y-63951174D01*
X128750142Y-63951174D01*
G37*
D13*
G04 #@! TD*
G04 #@! TO.P,R4,2*
G04 #@! TO.N,GND*
X128270000Y-64437500D03*
D17*
G04 #@! TO.N,GND*
X137795000Y-74930000D03*
X131693186Y-80962500D03*
X137160000Y-70802500D03*
X132080000Y-68580000D03*
X135890000Y-66357500D03*
X129222500Y-66040000D03*
X137477500Y-68580000D03*
X135255000Y-71437500D03*
X130175000Y-61912500D03*
X132080000Y-86360000D03*
X133350000Y-84137500D03*
X138430000Y-83820000D03*
X137795000Y-86360000D03*
X137795000Y-73342500D03*
X129540000Y-86042500D03*
X128905000Y-83502500D03*
X139700000Y-80962500D03*
X139573000Y-77724012D03*
X127317500Y-88582500D03*
X128270000Y-90805000D03*
D18*
X133032500Y-70485000D03*
D17*
G04 #@! TO.N,+5V*
X130175000Y-83502500D03*
D18*
X129857500Y-79057498D03*
D17*
G04 #@! TO.N,A1*
X133985000Y-81915000D03*
G04 #@! TO.N,A0*
X133032500Y-82232500D03*
G04 #@! TO.N,PTT_SENSE*
X134302500Y-80962500D03*
G04 #@! TO.N,PTT*
X138747500Y-78740000D03*
G04 #@! TO.N,A*
X135255000Y-80645000D03*
G04 #@! TO.N,TXD*
X135890000Y-78422500D03*
G04 #@! TO.N,RXD*
X135572500Y-79692500D03*
D18*
G04 #@! TO.N,SQL*
X128905000Y-70167540D03*
D17*
G04 #@! TO.N,Net-(C4-Pad2)*
X131127500Y-71119992D03*
D18*
G04 #@! TO.N,Net-(C3-Pad2)*
X133350000Y-75247500D03*
D17*
G04 #@! TO.N,ADC_B*
X134302500Y-78422500D03*
D18*
G04 #@! TO.N,ADC_A*
X133418122Y-76903122D03*
D17*
G04 #@! TO.N,GPIO_B*
X138430000Y-71094600D03*
G04 #@! TO.N,GPIO_A*
X139382500Y-70485000D03*
G04 #@! TD*
D19*
G04 #@! TO.N,GND*
X138112500Y-75674556D02*
X137203732Y-76583324D01*
X136072361Y-75451953D02*
X136911814Y-74612500D01*
X136911814Y-74612500D02*
X137477500Y-74612500D01*
X138112500Y-75247500D02*
X138112500Y-75674556D01*
X137477500Y-74612500D02*
X137795000Y-74930000D01*
X137795000Y-74930000D02*
X138112500Y-75247500D01*
X130627639Y-82028047D02*
X131693186Y-80962500D01*
X135890000Y-86360000D02*
X135890000Y-87630000D01*
X140970000Y-82550000D02*
X139700000Y-82550000D01*
X139700000Y-82550000D02*
X135890000Y-86360000D01*
D20*
X139700000Y-77851012D02*
X139573000Y-77724012D01*
X139700000Y-80962500D02*
X139700000Y-77851012D01*
D19*
X131693186Y-80423685D02*
X131693186Y-80962500D01*
X131693186Y-79761814D02*
X131693186Y-80423685D01*
X134140556Y-77314444D02*
X131693186Y-79761814D01*
X137203732Y-76583324D02*
X136472612Y-77314444D01*
X136472612Y-77314444D02*
X134140556Y-77314444D01*
G04 #@! TO.N,+5V*
X140970000Y-90170000D02*
X139065000Y-88265000D01*
X139065000Y-88265000D02*
X139065000Y-86995000D01*
X139065000Y-86995000D02*
X140970000Y-85090000D01*
X140970000Y-67310000D02*
X140970000Y-64770000D01*
X136143071Y-69899429D02*
X136192500Y-69850000D01*
X128930583Y-80330990D02*
X128294188Y-80967385D01*
X129794001Y-83097313D02*
X128294188Y-81597500D01*
X129794001Y-83121501D02*
X129794001Y-83097313D01*
X130175000Y-83502500D02*
X129794001Y-83121501D01*
X128294188Y-80967385D02*
X128294188Y-81597500D01*
X136192500Y-69850000D02*
X138430000Y-69850000D01*
X138430000Y-69850000D02*
X140970000Y-67310000D01*
X136192500Y-74200444D02*
X136192500Y-69850000D01*
X135506676Y-74886268D02*
X136192500Y-74200444D01*
X135506676Y-74886268D02*
X134396143Y-75996801D01*
X135053376Y-76654034D02*
X134396143Y-75996801D01*
X136638047Y-76017639D02*
X136001652Y-76654034D01*
X136001652Y-76654034D02*
X135053376Y-76654034D01*
X127067919Y-90170000D02*
X125730000Y-90170000D01*
X130810000Y-87630000D02*
X129607919Y-87630000D01*
X129607919Y-87630000D02*
X127067919Y-90170000D01*
X129857500Y-79404073D02*
X129857500Y-79057498D01*
X128930583Y-80330990D02*
X129857500Y-79404073D01*
X129857502Y-79057498D02*
X129857500Y-79057498D01*
X134396143Y-75996801D02*
X132918199Y-75996801D01*
X132918199Y-75996801D02*
X129857502Y-79057498D01*
D20*
G04 #@! TO.N,RST*
X137477500Y-82301814D02*
X136638047Y-81462361D01*
X137477500Y-83502500D02*
X137477500Y-82301814D01*
X134620000Y-86360000D02*
X137477500Y-83502500D01*
X135890000Y-90170000D02*
X134620000Y-88900000D01*
X134620000Y-88900000D02*
X134620000Y-86360000D01*
G04 #@! TO.N,A1*
X133985000Y-81915000D02*
X133985000Y-82203427D01*
X133985000Y-82203427D02*
X134940990Y-83159417D01*
G04 #@! TO.N,A0*
X133032500Y-82232500D02*
X133032500Y-82382298D01*
X133604000Y-82953798D02*
X134375305Y-83725103D01*
X133604000Y-82804000D02*
X133604000Y-82953798D01*
X133032500Y-82232500D02*
X133604000Y-82804000D01*
G04 #@! TO.N,D0*
X125730000Y-69850000D02*
X127000000Y-71120000D01*
X127000000Y-71824314D02*
X130627639Y-75451953D01*
X127000000Y-71120000D02*
X127000000Y-71824314D01*
G04 #@! TO.N,D1*
X127635000Y-74295000D02*
X125730000Y-72390000D01*
X130061953Y-76017639D02*
X128339314Y-74295000D01*
X128339314Y-74295000D02*
X127635000Y-74295000D01*
G04 #@! TO.N,PTT_SENSE*
X134683499Y-81343499D02*
X134302500Y-80962500D01*
X134870281Y-81530281D02*
X134683499Y-81343499D01*
X134870281Y-81957337D02*
X134870281Y-81530281D01*
X135506676Y-82593732D02*
X134870281Y-81957337D01*
G04 #@! TO.N,D2*
X127842944Y-74930000D02*
X125730000Y-74930000D01*
X129496268Y-76583324D02*
X127842944Y-74930000D01*
G04 #@! TO.N,D3*
X128930583Y-77149010D02*
X127981573Y-76200000D01*
X127000000Y-76200000D02*
X125730000Y-77470000D01*
X127981573Y-76200000D02*
X127000000Y-76200000D01*
G04 #@! TO.N,D4*
X125730000Y-80010000D02*
X127000000Y-78740000D01*
X127339592Y-78740000D02*
X127000000Y-78740000D01*
X128364897Y-77714695D02*
X127339592Y-78740000D01*
G04 #@! TO.N,D5*
X125730000Y-82400202D02*
X125730000Y-82550000D01*
X128364897Y-79765305D02*
X125730000Y-82400202D01*
G04 #@! TO.N,D6*
X126365000Y-84455000D02*
X125730000Y-85090000D01*
X131759010Y-83159417D02*
X130463427Y-84455000D01*
X130463427Y-84455000D02*
X126365000Y-84455000D01*
G04 #@! TO.N,D7*
X128270000Y-85090000D02*
X125730000Y-87630000D01*
X132324695Y-83725103D02*
X130959798Y-85090000D01*
X130959798Y-85090000D02*
X128270000Y-85090000D01*
G04 #@! TO.N,PTT*
X138335103Y-79765305D02*
X138747500Y-79352908D01*
X138747500Y-79352908D02*
X138747500Y-78740000D01*
G04 #@! TO.N,A*
X135255000Y-81210686D02*
X135255000Y-80645000D01*
X136072361Y-82028047D02*
X135255000Y-81210686D01*
G04 #@! TO.N,TXD*
X135890000Y-78451573D02*
X135890000Y-78422500D01*
X137769417Y-80330990D02*
X135890000Y-78451573D01*
G04 #@! TO.N,RXD*
X135572500Y-79692500D02*
X135953499Y-80073499D01*
X136380555Y-80073499D02*
X137203732Y-80896676D01*
X135953499Y-80073499D02*
X136380555Y-80073499D01*
G04 #@! TO.N,SQL*
X126062500Y-62562500D02*
X125730000Y-62230000D01*
X128270000Y-62562500D02*
X126062500Y-62562500D01*
X132324695Y-73754897D02*
X128905000Y-70335202D01*
X128905000Y-70335202D02*
X128905000Y-70167540D01*
G04 #@! TO.N,PWM_B*
X127635000Y-69215000D02*
X132080000Y-64770000D01*
X131193324Y-74886268D02*
X127635000Y-71327944D01*
X127635000Y-71327944D02*
X127635000Y-69215000D01*
G04 #@! TO.N,PWM_A*
X133350000Y-63500000D02*
X133350000Y-65722500D01*
X132080000Y-62230000D02*
X133350000Y-63500000D01*
X133350000Y-65722500D02*
X132715000Y-66357500D01*
X132715000Y-66357500D02*
X131476510Y-66357500D01*
X128270000Y-70831573D02*
X131759010Y-74320583D01*
X131476510Y-66357500D02*
X128270000Y-69564010D01*
X128270000Y-69564010D02*
X128270000Y-70831573D01*
G04 #@! TO.N,Net-(C4-Pad2)*
X131508499Y-71500991D02*
X131127500Y-71119992D01*
X134375305Y-73754897D02*
X133962908Y-73342500D01*
X133350008Y-73342500D02*
X131508499Y-71500991D01*
X133962908Y-73342500D02*
X133350008Y-73342500D01*
G04 #@! TO.N,Net-(C3-Pad2)*
X134014073Y-75247500D02*
X134940990Y-74320583D01*
X133350000Y-75247500D02*
X134014073Y-75247500D01*
G04 #@! TO.N,ADC_B*
X134302500Y-79484556D02*
X134302500Y-78422500D01*
X131193324Y-82593732D02*
X134302500Y-79484556D01*
G04 #@! TO.N,ADC_A*
X129496268Y-80896676D02*
X130492500Y-79900444D01*
X130492500Y-79900444D02*
X130492500Y-79692500D01*
X130492500Y-79692500D02*
X130810000Y-79375000D01*
X130810000Y-79375000D02*
X133418122Y-76903122D01*
X133418122Y-76903122D02*
X133350000Y-76835000D01*
G04 #@! TO.N,GPIO_B*
X137769417Y-77149010D02*
X138747500Y-76170927D01*
X138747500Y-76170927D02*
X138747500Y-73660000D01*
X138747500Y-73660000D02*
X138747500Y-71437500D01*
X138430000Y-71120000D02*
X138430000Y-71094600D01*
X138747500Y-71437500D02*
X138430000Y-71094600D01*
G04 #@! TO.N,GPIO_A*
X139382500Y-76667298D02*
X138335103Y-77714695D01*
X139382500Y-73342500D02*
X139382500Y-76667298D01*
X139382500Y-73342500D02*
X139382500Y-71755000D01*
X139382500Y-71755000D02*
X139382500Y-70485000D01*
G04 #@! TD*
G04 #@! TO.N,GND*
G36*
X129334188Y-89195518D02*
X129321928Y-89320000D01*
X129321928Y-91020000D01*
X129324636Y-91047500D01*
X127228344Y-91047500D01*
X127242193Y-91046136D01*
X127409770Y-90995303D01*
X127564210Y-90912753D01*
X127699578Y-90801659D01*
X127727418Y-90767736D01*
X129349233Y-89145922D01*
X129334188Y-89195518D01*
X129334188Y-89195518D01*
G37*
X129334188Y-89195518D02*
X129321928Y-89320000D01*
X129321928Y-91020000D01*
X129324636Y-91047500D01*
X127228344Y-91047500D01*
X127242193Y-91046136D01*
X127409770Y-90995303D01*
X127564210Y-90912753D01*
X127699578Y-90801659D01*
X127727418Y-90767736D01*
X129349233Y-89145922D01*
X129334188Y-89195518D01*
G36*
X139637818Y-80561808D02*
X139771068Y-80811101D01*
X139950392Y-81029608D01*
X140168899Y-81208932D01*
X140306682Y-81282579D01*
X140114869Y-81397615D01*
X139906481Y-81586586D01*
X139738963Y-81812580D01*
X139618754Y-82066913D01*
X139578096Y-82200961D01*
X139700085Y-82423000D01*
X140843000Y-82423000D01*
X140843000Y-82403000D01*
X141097000Y-82403000D01*
X141097000Y-82423000D01*
X141117000Y-82423000D01*
X141117000Y-82677000D01*
X141097000Y-82677000D01*
X141097000Y-82697000D01*
X140843000Y-82697000D01*
X140843000Y-82677000D01*
X139700085Y-82677000D01*
X139578096Y-82899039D01*
X139618754Y-83033087D01*
X139738963Y-83287420D01*
X139906481Y-83513414D01*
X140114869Y-83702385D01*
X140306682Y-83817421D01*
X140168899Y-83891068D01*
X139950392Y-84070392D01*
X139771068Y-84288899D01*
X139637818Y-84538192D01*
X139555764Y-84808691D01*
X139528057Y-85090000D01*
X139544618Y-85258146D01*
X138467259Y-86335506D01*
X138433342Y-86363341D01*
X138405507Y-86397258D01*
X138405505Y-86397260D01*
X138322248Y-86498709D01*
X138239698Y-86653148D01*
X138188864Y-86820726D01*
X138171700Y-86995000D01*
X138176001Y-87038669D01*
X138176000Y-88221339D01*
X138171700Y-88265000D01*
X138176000Y-88308660D01*
X138176000Y-88308666D01*
X138180916Y-88358579D01*
X138188864Y-88439274D01*
X138209146Y-88506136D01*
X138239697Y-88606850D01*
X138322247Y-88761290D01*
X138433341Y-88896659D01*
X138467264Y-88924499D01*
X139544618Y-90001854D01*
X139528057Y-90170000D01*
X139555764Y-90451309D01*
X139637818Y-90721808D01*
X139771068Y-90971101D01*
X139833767Y-91047500D01*
X137090915Y-91047500D01*
X137130706Y-90999014D01*
X137268599Y-90741034D01*
X137353513Y-90461111D01*
X137382185Y-90170000D01*
X137353513Y-89878889D01*
X137268599Y-89598966D01*
X137130706Y-89340986D01*
X136945134Y-89114866D01*
X136719014Y-88929294D01*
X136661244Y-88898416D01*
X136890269Y-88727588D01*
X137085178Y-88511355D01*
X137234157Y-88261252D01*
X137331481Y-87986891D01*
X137210814Y-87757000D01*
X136017000Y-87757000D01*
X136017000Y-87777000D01*
X135763000Y-87777000D01*
X135763000Y-87757000D01*
X135743000Y-87757000D01*
X135743000Y-87503000D01*
X135763000Y-87503000D01*
X135763000Y-87483000D01*
X136017000Y-87483000D01*
X136017000Y-87503000D01*
X137210814Y-87503000D01*
X137331481Y-87273109D01*
X137234157Y-86998748D01*
X137085178Y-86748645D01*
X136890269Y-86532412D01*
X136656920Y-86358359D01*
X136394099Y-86233175D01*
X136246890Y-86188524D01*
X136017002Y-86309844D01*
X136017002Y-86145000D01*
X135912630Y-86145000D01*
X137989853Y-84067778D01*
X138018922Y-84043922D01*
X138114145Y-83927892D01*
X138184902Y-83795515D01*
X138228474Y-83651878D01*
X138239500Y-83539926D01*
X138239500Y-83539924D01*
X138243186Y-83502501D01*
X138239500Y-83465078D01*
X138239500Y-82339237D01*
X138243186Y-82301814D01*
X138239500Y-82264388D01*
X138228474Y-82152436D01*
X138184902Y-82008799D01*
X138164158Y-81969991D01*
X138415057Y-81719092D01*
X138494409Y-81622401D01*
X138494665Y-81621922D01*
X138495142Y-81621667D01*
X138591833Y-81542315D01*
X138980742Y-81153406D01*
X139060094Y-81056715D01*
X139060349Y-81056238D01*
X139060828Y-81055982D01*
X139157519Y-80976630D01*
X139546428Y-80587721D01*
X139618893Y-80499421D01*
X139637818Y-80561808D01*
X139637818Y-80561808D01*
G37*
X139637818Y-80561808D02*
X139771068Y-80811101D01*
X139950392Y-81029608D01*
X140168899Y-81208932D01*
X140306682Y-81282579D01*
X140114869Y-81397615D01*
X139906481Y-81586586D01*
X139738963Y-81812580D01*
X139618754Y-82066913D01*
X139578096Y-82200961D01*
X139700085Y-82423000D01*
X140843000Y-82423000D01*
X140843000Y-82403000D01*
X141097000Y-82403000D01*
X141097000Y-82423000D01*
X141117000Y-82423000D01*
X141117000Y-82677000D01*
X141097000Y-82677000D01*
X141097000Y-82697000D01*
X140843000Y-82697000D01*
X140843000Y-82677000D01*
X139700085Y-82677000D01*
X139578096Y-82899039D01*
X139618754Y-83033087D01*
X139738963Y-83287420D01*
X139906481Y-83513414D01*
X140114869Y-83702385D01*
X140306682Y-83817421D01*
X140168899Y-83891068D01*
X139950392Y-84070392D01*
X139771068Y-84288899D01*
X139637818Y-84538192D01*
X139555764Y-84808691D01*
X139528057Y-85090000D01*
X139544618Y-85258146D01*
X138467259Y-86335506D01*
X138433342Y-86363341D01*
X138405507Y-86397258D01*
X138405505Y-86397260D01*
X138322248Y-86498709D01*
X138239698Y-86653148D01*
X138188864Y-86820726D01*
X138171700Y-86995000D01*
X138176001Y-87038669D01*
X138176000Y-88221339D01*
X138171700Y-88265000D01*
X138176000Y-88308660D01*
X138176000Y-88308666D01*
X138180916Y-88358579D01*
X138188864Y-88439274D01*
X138209146Y-88506136D01*
X138239697Y-88606850D01*
X138322247Y-88761290D01*
X138433341Y-88896659D01*
X138467264Y-88924499D01*
X139544618Y-90001854D01*
X139528057Y-90170000D01*
X139555764Y-90451309D01*
X139637818Y-90721808D01*
X139771068Y-90971101D01*
X139833767Y-91047500D01*
X137090915Y-91047500D01*
X137130706Y-90999014D01*
X137268599Y-90741034D01*
X137353513Y-90461111D01*
X137382185Y-90170000D01*
X137353513Y-89878889D01*
X137268599Y-89598966D01*
X137130706Y-89340986D01*
X136945134Y-89114866D01*
X136719014Y-88929294D01*
X136661244Y-88898416D01*
X136890269Y-88727588D01*
X137085178Y-88511355D01*
X137234157Y-88261252D01*
X137331481Y-87986891D01*
X137210814Y-87757000D01*
X136017000Y-87757000D01*
X136017000Y-87777000D01*
X135763000Y-87777000D01*
X135763000Y-87757000D01*
X135743000Y-87757000D01*
X135743000Y-87503000D01*
X135763000Y-87503000D01*
X135763000Y-87483000D01*
X136017000Y-87483000D01*
X136017000Y-87503000D01*
X137210814Y-87503000D01*
X137331481Y-87273109D01*
X137234157Y-86998748D01*
X137085178Y-86748645D01*
X136890269Y-86532412D01*
X136656920Y-86358359D01*
X136394099Y-86233175D01*
X136246890Y-86188524D01*
X136017002Y-86309844D01*
X136017002Y-86145000D01*
X135912630Y-86145000D01*
X137989853Y-84067778D01*
X138018922Y-84043922D01*
X138114145Y-83927892D01*
X138184902Y-83795515D01*
X138228474Y-83651878D01*
X138239500Y-83539926D01*
X138239500Y-83539924D01*
X138243186Y-83502501D01*
X138239500Y-83465078D01*
X138239500Y-82339237D01*
X138243186Y-82301814D01*
X138239500Y-82264388D01*
X138228474Y-82152436D01*
X138184902Y-82008799D01*
X138164158Y-81969991D01*
X138415057Y-81719092D01*
X138494409Y-81622401D01*
X138494665Y-81621922D01*
X138495142Y-81621667D01*
X138591833Y-81542315D01*
X138980742Y-81153406D01*
X139060094Y-81056715D01*
X139060349Y-81056238D01*
X139060828Y-81055982D01*
X139157519Y-80976630D01*
X139546428Y-80587721D01*
X139618893Y-80499421D01*
X139637818Y-80561808D01*
G36*
X134295351Y-84936428D02*
X134392042Y-85015780D01*
X134502356Y-85074745D01*
X134622054Y-85111055D01*
X134746536Y-85123315D01*
X134782607Y-85119762D01*
X134107649Y-85794721D01*
X134078579Y-85818578D01*
X134054722Y-85847648D01*
X134054721Y-85847649D01*
X133983355Y-85934608D01*
X133912599Y-86066985D01*
X133869027Y-86210622D01*
X133866636Y-86234899D01*
X133641111Y-86166487D01*
X133422950Y-86145000D01*
X133277050Y-86145000D01*
X133058889Y-86166487D01*
X132778966Y-86251401D01*
X132520986Y-86389294D01*
X132294866Y-86574866D01*
X132109294Y-86800986D01*
X132080000Y-86855791D01*
X132050706Y-86800986D01*
X131865134Y-86574866D01*
X131639014Y-86389294D01*
X131381034Y-86251401D01*
X131101111Y-86166487D01*
X130882950Y-86145000D01*
X130737050Y-86145000D01*
X130518889Y-86166487D01*
X130238966Y-86251401D01*
X129980986Y-86389294D01*
X129754866Y-86574866D01*
X129620995Y-86737988D01*
X129607918Y-86736700D01*
X129564258Y-86741000D01*
X129564252Y-86741000D01*
X129466843Y-86750594D01*
X129433643Y-86753864D01*
X129331977Y-86784704D01*
X129266068Y-86804697D01*
X129111628Y-86887247D01*
X128976260Y-86998341D01*
X128948425Y-87032258D01*
X126785977Y-89194707D01*
X126749608Y-89150392D01*
X126531101Y-88971068D01*
X126398142Y-88900000D01*
X126531101Y-88828932D01*
X126749608Y-88649608D01*
X126928932Y-88431101D01*
X127062182Y-88181808D01*
X127144236Y-87911309D01*
X127171943Y-87630000D01*
X127144236Y-87348691D01*
X127131366Y-87306264D01*
X128585631Y-85852000D01*
X130922375Y-85852000D01*
X130959798Y-85855686D01*
X130997221Y-85852000D01*
X130997224Y-85852000D01*
X131109176Y-85840974D01*
X131252813Y-85797402D01*
X131385190Y-85726645D01*
X131501220Y-85631422D01*
X131525082Y-85602346D01*
X132009647Y-85117782D01*
X132077946Y-85111055D01*
X132197644Y-85074745D01*
X132307958Y-85015780D01*
X132404649Y-84936428D01*
X133350000Y-83991077D01*
X134295351Y-84936428D01*
X134295351Y-84936428D01*
G37*
X134295351Y-84936428D02*
X134392042Y-85015780D01*
X134502356Y-85074745D01*
X134622054Y-85111055D01*
X134746536Y-85123315D01*
X134782607Y-85119762D01*
X134107649Y-85794721D01*
X134078579Y-85818578D01*
X134054722Y-85847648D01*
X134054721Y-85847649D01*
X133983355Y-85934608D01*
X133912599Y-86066985D01*
X133869027Y-86210622D01*
X133866636Y-86234899D01*
X133641111Y-86166487D01*
X133422950Y-86145000D01*
X133277050Y-86145000D01*
X133058889Y-86166487D01*
X132778966Y-86251401D01*
X132520986Y-86389294D01*
X132294866Y-86574866D01*
X132109294Y-86800986D01*
X132080000Y-86855791D01*
X132050706Y-86800986D01*
X131865134Y-86574866D01*
X131639014Y-86389294D01*
X131381034Y-86251401D01*
X131101111Y-86166487D01*
X130882950Y-86145000D01*
X130737050Y-86145000D01*
X130518889Y-86166487D01*
X130238966Y-86251401D01*
X129980986Y-86389294D01*
X129754866Y-86574866D01*
X129620995Y-86737988D01*
X129607918Y-86736700D01*
X129564258Y-86741000D01*
X129564252Y-86741000D01*
X129466843Y-86750594D01*
X129433643Y-86753864D01*
X129331977Y-86784704D01*
X129266068Y-86804697D01*
X129111628Y-86887247D01*
X128976260Y-86998341D01*
X128948425Y-87032258D01*
X126785977Y-89194707D01*
X126749608Y-89150392D01*
X126531101Y-88971068D01*
X126398142Y-88900000D01*
X126531101Y-88828932D01*
X126749608Y-88649608D01*
X126928932Y-88431101D01*
X127062182Y-88181808D01*
X127144236Y-87911309D01*
X127171943Y-87630000D01*
X127144236Y-87348691D01*
X127131366Y-87306264D01*
X128585631Y-85852000D01*
X130922375Y-85852000D01*
X130959798Y-85855686D01*
X130997221Y-85852000D01*
X130997224Y-85852000D01*
X131109176Y-85840974D01*
X131252813Y-85797402D01*
X131385190Y-85726645D01*
X131501220Y-85631422D01*
X131525082Y-85602346D01*
X132009647Y-85117782D01*
X132077946Y-85111055D01*
X132197644Y-85074745D01*
X132307958Y-85015780D01*
X132404649Y-84936428D01*
X133350000Y-83991077D01*
X134295351Y-84936428D01*
G36*
X141097000Y-87503000D02*
X141117000Y-87503000D01*
X141117000Y-87757000D01*
X141097000Y-87757000D01*
X141097000Y-87777000D01*
X140843000Y-87777000D01*
X140843000Y-87757000D01*
X140823000Y-87757000D01*
X140823000Y-87503000D01*
X140843000Y-87503000D01*
X140843000Y-87483000D01*
X141097000Y-87483000D01*
X141097000Y-87503000D01*
X141097000Y-87503000D01*
G37*
X141097000Y-87503000D02*
X141117000Y-87503000D01*
X141117000Y-87757000D01*
X141097000Y-87757000D01*
X141097000Y-87777000D01*
X140843000Y-87777000D01*
X140843000Y-87757000D01*
X140823000Y-87757000D01*
X140823000Y-87503000D01*
X140843000Y-87503000D01*
X140843000Y-87483000D01*
X141097000Y-87483000D01*
X141097000Y-87503000D01*
G36*
X135762998Y-86309844D02*
X135753041Y-86304589D01*
X135762998Y-86294632D01*
X135762998Y-86309844D01*
X135762998Y-86309844D01*
G37*
X135762998Y-86309844D02*
X135753041Y-86304589D01*
X135762998Y-86294632D01*
X135762998Y-86309844D01*
G36*
X127468886Y-81939352D02*
X127551436Y-82093791D01*
X127628221Y-82187353D01*
X127662530Y-82229159D01*
X127696447Y-82256994D01*
X129044364Y-83604912D01*
X129051248Y-83617791D01*
X129112970Y-83693000D01*
X126599254Y-83693000D01*
X126749608Y-83569608D01*
X126928932Y-83351101D01*
X127062182Y-83101808D01*
X127144236Y-82831309D01*
X127171943Y-82550000D01*
X127144236Y-82268691D01*
X127096502Y-82111331D01*
X127422243Y-81785590D01*
X127468886Y-81939352D01*
X127468886Y-81939352D01*
G37*
X127468886Y-81939352D02*
X127551436Y-82093791D01*
X127628221Y-82187353D01*
X127662530Y-82229159D01*
X127696447Y-82256994D01*
X129044364Y-83604912D01*
X129051248Y-83617791D01*
X129112970Y-83693000D01*
X126599254Y-83693000D01*
X126749608Y-83569608D01*
X126928932Y-83351101D01*
X127062182Y-83101808D01*
X127144236Y-82831309D01*
X127171943Y-82550000D01*
X127144236Y-82268691D01*
X127096502Y-82111331D01*
X127422243Y-81785590D01*
X127468886Y-81939352D01*
G36*
X133325544Y-78126144D02*
X133286500Y-78322433D01*
X133286500Y-78522567D01*
X133325544Y-78718856D01*
X133402132Y-78903756D01*
X133513321Y-79070162D01*
X133540500Y-79097341D01*
X133540500Y-79168925D01*
X131508372Y-81201053D01*
X131448761Y-81206924D01*
X131460165Y-81091130D01*
X131447905Y-80966648D01*
X131440281Y-80941515D01*
X131440281Y-80811293D01*
X131492107Y-80863118D01*
X131403659Y-80774671D01*
X131355905Y-80742762D01*
X131352630Y-80736636D01*
X131273278Y-80639945D01*
X131052528Y-80419195D01*
X131070561Y-80397221D01*
X131129145Y-80325837D01*
X131169551Y-80250242D01*
X131199902Y-80193459D01*
X131243474Y-80049822D01*
X131246824Y-80015806D01*
X131341602Y-79921028D01*
X133383792Y-77985520D01*
X133325544Y-78126144D01*
X133325544Y-78126144D01*
G37*
X133325544Y-78126144D02*
X133286500Y-78322433D01*
X133286500Y-78522567D01*
X133325544Y-78718856D01*
X133402132Y-78903756D01*
X133513321Y-79070162D01*
X133540500Y-79097341D01*
X133540500Y-79168925D01*
X131508372Y-81201053D01*
X131448761Y-81206924D01*
X131460165Y-81091130D01*
X131447905Y-80966648D01*
X131440281Y-80941515D01*
X131440281Y-80811293D01*
X131492107Y-80863118D01*
X131403659Y-80774671D01*
X131355905Y-80742762D01*
X131352630Y-80736636D01*
X131273278Y-80639945D01*
X131052528Y-80419195D01*
X131070561Y-80397221D01*
X131129145Y-80325837D01*
X131169551Y-80250242D01*
X131199902Y-80193459D01*
X131243474Y-80049822D01*
X131246824Y-80015806D01*
X131341602Y-79921028D01*
X133383792Y-77985520D01*
X133325544Y-78126144D01*
G36*
X139637818Y-78021808D02*
X139771068Y-78271101D01*
X139950392Y-78489608D01*
X140168899Y-78668932D01*
X140301858Y-78740000D01*
X140168899Y-78811068D01*
X139950392Y-78990392D01*
X139771068Y-79208899D01*
X139637818Y-79458192D01*
X139562843Y-79705353D01*
X139546428Y-79685351D01*
X139467028Y-79605951D01*
X139498474Y-79502286D01*
X139506823Y-79417518D01*
X139536679Y-79387662D01*
X139647868Y-79221256D01*
X139724456Y-79036356D01*
X139763500Y-78840067D01*
X139763500Y-78639933D01*
X139724456Y-78443644D01*
X139647868Y-78258744D01*
X139536679Y-78092338D01*
X139395162Y-77950821D01*
X139392221Y-77948856D01*
X139546428Y-77794649D01*
X139562843Y-77774647D01*
X139637818Y-78021808D01*
X139637818Y-78021808D01*
G37*
X139637818Y-78021808D02*
X139771068Y-78271101D01*
X139950392Y-78489608D01*
X140168899Y-78668932D01*
X140301858Y-78740000D01*
X140168899Y-78811068D01*
X139950392Y-78990392D01*
X139771068Y-79208899D01*
X139637818Y-79458192D01*
X139562843Y-79705353D01*
X139546428Y-79685351D01*
X139467028Y-79605951D01*
X139498474Y-79502286D01*
X139506823Y-79417518D01*
X139536679Y-79387662D01*
X139647868Y-79221256D01*
X139724456Y-79036356D01*
X139763500Y-78840067D01*
X139763500Y-78639933D01*
X139724456Y-78443644D01*
X139647868Y-78258744D01*
X139536679Y-78092338D01*
X139395162Y-77950821D01*
X139392221Y-77948856D01*
X139546428Y-77794649D01*
X139562843Y-77774647D01*
X139637818Y-78021808D01*
G36*
X134393881Y-77251775D02*
X134421717Y-77285693D01*
X134557085Y-77396787D01*
X134711525Y-77479337D01*
X134806134Y-77508036D01*
X134879101Y-77530170D01*
X134895701Y-77531805D01*
X135009709Y-77543034D01*
X135009716Y-77543034D01*
X135053376Y-77547334D01*
X135097036Y-77543034D01*
X135377462Y-77543034D01*
X135242338Y-77633321D01*
X135100821Y-77774838D01*
X135096250Y-77781679D01*
X135091679Y-77774838D01*
X134950162Y-77633321D01*
X134783756Y-77522132D01*
X134598856Y-77445544D01*
X134402567Y-77406500D01*
X134257887Y-77406500D01*
X134284726Y-77366332D01*
X134350250Y-77208143D01*
X134393881Y-77251775D01*
X134393881Y-77251775D01*
G37*
X134393881Y-77251775D02*
X134421717Y-77285693D01*
X134557085Y-77396787D01*
X134711525Y-77479337D01*
X134806134Y-77508036D01*
X134879101Y-77530170D01*
X134895701Y-77531805D01*
X135009709Y-77543034D01*
X135009716Y-77543034D01*
X135053376Y-77547334D01*
X135097036Y-77543034D01*
X135377462Y-77543034D01*
X135242338Y-77633321D01*
X135100821Y-77774838D01*
X135096250Y-77781679D01*
X135091679Y-77774838D01*
X134950162Y-77633321D01*
X134783756Y-77522132D01*
X134598856Y-77445544D01*
X134402567Y-77406500D01*
X134257887Y-77406500D01*
X134284726Y-77366332D01*
X134350250Y-77208143D01*
X134393881Y-77251775D01*
G36*
X137453044Y-70798244D02*
X137414000Y-70994533D01*
X137414000Y-71194667D01*
X137453044Y-71390956D01*
X137529632Y-71575856D01*
X137640821Y-71742262D01*
X137782338Y-71883779D01*
X137948744Y-71994968D01*
X137985501Y-72010193D01*
X137985500Y-73697425D01*
X137985501Y-73697435D01*
X137985500Y-75335696D01*
X137979752Y-75329948D01*
X137931998Y-75298040D01*
X137928724Y-75291914D01*
X137849372Y-75195223D01*
X137460463Y-74806314D01*
X137363772Y-74726962D01*
X137357646Y-74723687D01*
X137325737Y-74675933D01*
X137289115Y-74639311D01*
X137158893Y-74639311D01*
X137133760Y-74631687D01*
X137009278Y-74619427D01*
X136974758Y-74622827D01*
X137017803Y-74542295D01*
X137063832Y-74390555D01*
X137068636Y-74374719D01*
X137085801Y-74200444D01*
X137081500Y-74156776D01*
X137081500Y-70903341D01*
X137169458Y-70796164D01*
X137200013Y-70739000D01*
X137477584Y-70739000D01*
X137453044Y-70798244D01*
X137453044Y-70798244D01*
G37*
X137453044Y-70798244D02*
X137414000Y-70994533D01*
X137414000Y-71194667D01*
X137453044Y-71390956D01*
X137529632Y-71575856D01*
X137640821Y-71742262D01*
X137782338Y-71883779D01*
X137948744Y-71994968D01*
X137985501Y-72010193D01*
X137985500Y-73697425D01*
X137985501Y-73697435D01*
X137985500Y-75335696D01*
X137979752Y-75329948D01*
X137931998Y-75298040D01*
X137928724Y-75291914D01*
X137849372Y-75195223D01*
X137460463Y-74806314D01*
X137363772Y-74726962D01*
X137357646Y-74723687D01*
X137325737Y-74675933D01*
X137289115Y-74639311D01*
X137158893Y-74639311D01*
X137133760Y-74631687D01*
X137009278Y-74619427D01*
X136974758Y-74622827D01*
X137017803Y-74542295D01*
X137063832Y-74390555D01*
X137068636Y-74374719D01*
X137085801Y-74200444D01*
X137081500Y-74156776D01*
X137081500Y-70903341D01*
X137169458Y-70796164D01*
X137200013Y-70739000D01*
X137477584Y-70739000D01*
X137453044Y-70798244D01*
G36*
X139738963Y-61492580D02*
X139618754Y-61746913D01*
X139578096Y-61880961D01*
X139700085Y-62103000D01*
X140843000Y-62103000D01*
X140843000Y-62083000D01*
X141097000Y-62083000D01*
X141097000Y-62103000D01*
X141117000Y-62103000D01*
X141117000Y-62357000D01*
X141097000Y-62357000D01*
X141097000Y-62377000D01*
X140843000Y-62377000D01*
X140843000Y-62357000D01*
X139700085Y-62357000D01*
X139578096Y-62579039D01*
X139618754Y-62713087D01*
X139738963Y-62967420D01*
X139906481Y-63193414D01*
X140114869Y-63382385D01*
X140306682Y-63497421D01*
X140168899Y-63571068D01*
X139950392Y-63750392D01*
X139771068Y-63968899D01*
X139637818Y-64218192D01*
X139555764Y-64488691D01*
X139528057Y-64770000D01*
X139555764Y-65051309D01*
X139637818Y-65321808D01*
X139771068Y-65571101D01*
X139950392Y-65789608D01*
X140081001Y-65896796D01*
X140081000Y-66183204D01*
X139950392Y-66290392D01*
X139771068Y-66508899D01*
X139637818Y-66758192D01*
X139555764Y-67028691D01*
X139528057Y-67310000D01*
X139544618Y-67478146D01*
X138061765Y-68961000D01*
X137200013Y-68961000D01*
X137169458Y-68903836D01*
X137059792Y-68770208D01*
X136926164Y-68660542D01*
X136773709Y-68579053D01*
X136608285Y-68528872D01*
X136436250Y-68511928D01*
X135948750Y-68511928D01*
X135776715Y-68528872D01*
X135611291Y-68579053D01*
X135458836Y-68660542D01*
X135325208Y-68770208D01*
X135319548Y-68777105D01*
X135298237Y-68745211D01*
X135209789Y-68656763D01*
X135105785Y-68587270D01*
X134990223Y-68539403D01*
X134867542Y-68515000D01*
X134603250Y-68515000D01*
X134444500Y-68673750D01*
X134444500Y-69723000D01*
X134464500Y-69723000D01*
X134464500Y-69977000D01*
X134444500Y-69977000D01*
X134444500Y-71026250D01*
X134603250Y-71185000D01*
X134867542Y-71185000D01*
X134990223Y-71160597D01*
X135105785Y-71112730D01*
X135209789Y-71043237D01*
X135298237Y-70954789D01*
X135303501Y-70946911D01*
X135303500Y-72649351D01*
X135197721Y-72543572D01*
X135101030Y-72464220D01*
X134990716Y-72405255D01*
X134871018Y-72368945D01*
X134746536Y-72356685D01*
X134622054Y-72368945D01*
X134502356Y-72405255D01*
X134392042Y-72464220D01*
X134295351Y-72543572D01*
X134215951Y-72622972D01*
X134112286Y-72591526D01*
X134000334Y-72580500D01*
X134000331Y-72580500D01*
X133962908Y-72576814D01*
X133925485Y-72580500D01*
X133665639Y-72580500D01*
X132143500Y-71058362D01*
X132143500Y-71019925D01*
X132104456Y-70823636D01*
X132027868Y-70638736D01*
X131916679Y-70472330D01*
X131775162Y-70330813D01*
X131608756Y-70219624D01*
X131423856Y-70143036D01*
X131387227Y-70135750D01*
X133195000Y-70135750D01*
X133195000Y-70612542D01*
X133219403Y-70735223D01*
X133267270Y-70850785D01*
X133336763Y-70954789D01*
X133425211Y-71043237D01*
X133529215Y-71112730D01*
X133644777Y-71160597D01*
X133767458Y-71185000D01*
X134031750Y-71185000D01*
X134190500Y-71026250D01*
X134190500Y-69977000D01*
X133353750Y-69977000D01*
X133195000Y-70135750D01*
X131387227Y-70135750D01*
X131227567Y-70103992D01*
X131027433Y-70103992D01*
X130831144Y-70143036D01*
X130646244Y-70219624D01*
X130479838Y-70330813D01*
X130338321Y-70472330D01*
X130250777Y-70603349D01*
X129882900Y-70235472D01*
X129882900Y-70071225D01*
X129845320Y-69882297D01*
X129771604Y-69704330D01*
X129664585Y-69544165D01*
X129528375Y-69407955D01*
X129513575Y-69398066D01*
X129824183Y-69087458D01*
X133195000Y-69087458D01*
X133195000Y-69564250D01*
X133353750Y-69723000D01*
X134190500Y-69723000D01*
X134190500Y-68673750D01*
X134031750Y-68515000D01*
X133767458Y-68515000D01*
X133644777Y-68539403D01*
X133529215Y-68587270D01*
X133425211Y-68656763D01*
X133336763Y-68745211D01*
X133267270Y-68849215D01*
X133219403Y-68964777D01*
X133195000Y-69087458D01*
X129824183Y-69087458D01*
X131792141Y-67119500D01*
X132677577Y-67119500D01*
X132715000Y-67123186D01*
X132752423Y-67119500D01*
X132752426Y-67119500D01*
X132864378Y-67108474D01*
X133008015Y-67064902D01*
X133140392Y-66994145D01*
X133256422Y-66898922D01*
X133280284Y-66869846D01*
X133862346Y-66287784D01*
X133891422Y-66263922D01*
X133956818Y-66184236D01*
X133986645Y-66147893D01*
X134000200Y-66122533D01*
X134048966Y-66148599D01*
X134328889Y-66233513D01*
X134547050Y-66255000D01*
X134692950Y-66255000D01*
X134911111Y-66233513D01*
X135191034Y-66148599D01*
X135449014Y-66010706D01*
X135675134Y-65825134D01*
X135860706Y-65599014D01*
X135890000Y-65544209D01*
X135919294Y-65599014D01*
X136104866Y-65825134D01*
X136330986Y-66010706D01*
X136588966Y-66148599D01*
X136868889Y-66233513D01*
X137087050Y-66255000D01*
X137232950Y-66255000D01*
X137451111Y-66233513D01*
X137731034Y-66148599D01*
X137989014Y-66010706D01*
X138215134Y-65825134D01*
X138400706Y-65599014D01*
X138538599Y-65341034D01*
X138623513Y-65061111D01*
X138652185Y-64770000D01*
X138623513Y-64478889D01*
X138538599Y-64198966D01*
X138400706Y-63940986D01*
X138215134Y-63714866D01*
X137989014Y-63529294D01*
X137934209Y-63500000D01*
X137989014Y-63470706D01*
X138215134Y-63285134D01*
X138400706Y-63059014D01*
X138538599Y-62801034D01*
X138623513Y-62521111D01*
X138652185Y-62230000D01*
X138623513Y-61938889D01*
X138538599Y-61658966D01*
X138400706Y-61400986D01*
X138360915Y-61352500D01*
X139842797Y-61352500D01*
X139738963Y-61492580D01*
X139738963Y-61492580D01*
G37*
X139738963Y-61492580D02*
X139618754Y-61746913D01*
X139578096Y-61880961D01*
X139700085Y-62103000D01*
X140843000Y-62103000D01*
X140843000Y-62083000D01*
X141097000Y-62083000D01*
X141097000Y-62103000D01*
X141117000Y-62103000D01*
X141117000Y-62357000D01*
X141097000Y-62357000D01*
X141097000Y-62377000D01*
X140843000Y-62377000D01*
X140843000Y-62357000D01*
X139700085Y-62357000D01*
X139578096Y-62579039D01*
X139618754Y-62713087D01*
X139738963Y-62967420D01*
X139906481Y-63193414D01*
X140114869Y-63382385D01*
X140306682Y-63497421D01*
X140168899Y-63571068D01*
X139950392Y-63750392D01*
X139771068Y-63968899D01*
X139637818Y-64218192D01*
X139555764Y-64488691D01*
X139528057Y-64770000D01*
X139555764Y-65051309D01*
X139637818Y-65321808D01*
X139771068Y-65571101D01*
X139950392Y-65789608D01*
X140081001Y-65896796D01*
X140081000Y-66183204D01*
X139950392Y-66290392D01*
X139771068Y-66508899D01*
X139637818Y-66758192D01*
X139555764Y-67028691D01*
X139528057Y-67310000D01*
X139544618Y-67478146D01*
X138061765Y-68961000D01*
X137200013Y-68961000D01*
X137169458Y-68903836D01*
X137059792Y-68770208D01*
X136926164Y-68660542D01*
X136773709Y-68579053D01*
X136608285Y-68528872D01*
X136436250Y-68511928D01*
X135948750Y-68511928D01*
X135776715Y-68528872D01*
X135611291Y-68579053D01*
X135458836Y-68660542D01*
X135325208Y-68770208D01*
X135319548Y-68777105D01*
X135298237Y-68745211D01*
X135209789Y-68656763D01*
X135105785Y-68587270D01*
X134990223Y-68539403D01*
X134867542Y-68515000D01*
X134603250Y-68515000D01*
X134444500Y-68673750D01*
X134444500Y-69723000D01*
X134464500Y-69723000D01*
X134464500Y-69977000D01*
X134444500Y-69977000D01*
X134444500Y-71026250D01*
X134603250Y-71185000D01*
X134867542Y-71185000D01*
X134990223Y-71160597D01*
X135105785Y-71112730D01*
X135209789Y-71043237D01*
X135298237Y-70954789D01*
X135303501Y-70946911D01*
X135303500Y-72649351D01*
X135197721Y-72543572D01*
X135101030Y-72464220D01*
X134990716Y-72405255D01*
X134871018Y-72368945D01*
X134746536Y-72356685D01*
X134622054Y-72368945D01*
X134502356Y-72405255D01*
X134392042Y-72464220D01*
X134295351Y-72543572D01*
X134215951Y-72622972D01*
X134112286Y-72591526D01*
X134000334Y-72580500D01*
X134000331Y-72580500D01*
X133962908Y-72576814D01*
X133925485Y-72580500D01*
X133665639Y-72580500D01*
X132143500Y-71058362D01*
X132143500Y-71019925D01*
X132104456Y-70823636D01*
X132027868Y-70638736D01*
X131916679Y-70472330D01*
X131775162Y-70330813D01*
X131608756Y-70219624D01*
X131423856Y-70143036D01*
X131387227Y-70135750D01*
X133195000Y-70135750D01*
X133195000Y-70612542D01*
X133219403Y-70735223D01*
X133267270Y-70850785D01*
X133336763Y-70954789D01*
X133425211Y-71043237D01*
X133529215Y-71112730D01*
X133644777Y-71160597D01*
X133767458Y-71185000D01*
X134031750Y-71185000D01*
X134190500Y-71026250D01*
X134190500Y-69977000D01*
X133353750Y-69977000D01*
X133195000Y-70135750D01*
X131387227Y-70135750D01*
X131227567Y-70103992D01*
X131027433Y-70103992D01*
X130831144Y-70143036D01*
X130646244Y-70219624D01*
X130479838Y-70330813D01*
X130338321Y-70472330D01*
X130250777Y-70603349D01*
X129882900Y-70235472D01*
X129882900Y-70071225D01*
X129845320Y-69882297D01*
X129771604Y-69704330D01*
X129664585Y-69544165D01*
X129528375Y-69407955D01*
X129513575Y-69398066D01*
X129824183Y-69087458D01*
X133195000Y-69087458D01*
X133195000Y-69564250D01*
X133353750Y-69723000D01*
X134190500Y-69723000D01*
X134190500Y-68673750D01*
X134031750Y-68515000D01*
X133767458Y-68515000D01*
X133644777Y-68539403D01*
X133529215Y-68587270D01*
X133425211Y-68656763D01*
X133336763Y-68745211D01*
X133267270Y-68849215D01*
X133219403Y-68964777D01*
X133195000Y-69087458D01*
X129824183Y-69087458D01*
X131792141Y-67119500D01*
X132677577Y-67119500D01*
X132715000Y-67123186D01*
X132752423Y-67119500D01*
X132752426Y-67119500D01*
X132864378Y-67108474D01*
X133008015Y-67064902D01*
X133140392Y-66994145D01*
X133256422Y-66898922D01*
X133280284Y-66869846D01*
X133862346Y-66287784D01*
X133891422Y-66263922D01*
X133956818Y-66184236D01*
X133986645Y-66147893D01*
X134000200Y-66122533D01*
X134048966Y-66148599D01*
X134328889Y-66233513D01*
X134547050Y-66255000D01*
X134692950Y-66255000D01*
X134911111Y-66233513D01*
X135191034Y-66148599D01*
X135449014Y-66010706D01*
X135675134Y-65825134D01*
X135860706Y-65599014D01*
X135890000Y-65544209D01*
X135919294Y-65599014D01*
X136104866Y-65825134D01*
X136330986Y-66010706D01*
X136588966Y-66148599D01*
X136868889Y-66233513D01*
X137087050Y-66255000D01*
X137232950Y-66255000D01*
X137451111Y-66233513D01*
X137731034Y-66148599D01*
X137989014Y-66010706D01*
X138215134Y-65825134D01*
X138400706Y-65599014D01*
X138538599Y-65341034D01*
X138623513Y-65061111D01*
X138652185Y-64770000D01*
X138623513Y-64478889D01*
X138538599Y-64198966D01*
X138400706Y-63940986D01*
X138215134Y-63714866D01*
X137989014Y-63529294D01*
X137934209Y-63500000D01*
X137989014Y-63470706D01*
X138215134Y-63285134D01*
X138400706Y-63059014D01*
X138538599Y-62801034D01*
X138623513Y-62521111D01*
X138652185Y-62230000D01*
X138623513Y-61938889D01*
X138538599Y-61658966D01*
X138400706Y-61400986D01*
X138360915Y-61352500D01*
X139842797Y-61352500D01*
X139738963Y-61492580D01*
G36*
X130591928Y-61380000D02*
X130591928Y-63080000D01*
X130604188Y-63204482D01*
X130640498Y-63324180D01*
X130699463Y-63434494D01*
X130778815Y-63531185D01*
X130875506Y-63610537D01*
X130985820Y-63669502D01*
X131054687Y-63690393D01*
X131024866Y-63714866D01*
X130839294Y-63940986D01*
X130701401Y-64198966D01*
X130616487Y-64478889D01*
X130587815Y-64770000D01*
X130616487Y-65061111D01*
X130638545Y-65133825D01*
X127122649Y-68649721D01*
X127093579Y-68673578D01*
X127069722Y-68702648D01*
X127069721Y-68702649D01*
X126998355Y-68789608D01*
X126927599Y-68921985D01*
X126899850Y-69013462D01*
X126749608Y-68830392D01*
X126531101Y-68651068D01*
X126398142Y-68580000D01*
X126531101Y-68508932D01*
X126749608Y-68329608D01*
X126928932Y-68111101D01*
X127062182Y-67861808D01*
X127144236Y-67591309D01*
X127171943Y-67310000D01*
X127144236Y-67028691D01*
X127062182Y-66758192D01*
X126928932Y-66508899D01*
X126749608Y-66290392D01*
X126531101Y-66111068D01*
X126398142Y-66040000D01*
X126531101Y-65968932D01*
X126749608Y-65789608D01*
X126928932Y-65571101D01*
X127062182Y-65321808D01*
X127065070Y-65312289D01*
X127076763Y-65329789D01*
X127165211Y-65418237D01*
X127269215Y-65487730D01*
X127384777Y-65535597D01*
X127507458Y-65560000D01*
X127984250Y-65560000D01*
X128143000Y-65401250D01*
X128143000Y-64564500D01*
X128397000Y-64564500D01*
X128397000Y-65401250D01*
X128555750Y-65560000D01*
X129032542Y-65560000D01*
X129155223Y-65535597D01*
X129270785Y-65487730D01*
X129374789Y-65418237D01*
X129463237Y-65329789D01*
X129532730Y-65225785D01*
X129580597Y-65110223D01*
X129605000Y-64987542D01*
X129605000Y-64723250D01*
X129446250Y-64564500D01*
X128397000Y-64564500D01*
X128143000Y-64564500D01*
X128123000Y-64564500D01*
X128123000Y-64310500D01*
X128143000Y-64310500D01*
X128143000Y-64290500D01*
X128397000Y-64290500D01*
X128397000Y-64310500D01*
X129446250Y-64310500D01*
X129605000Y-64151750D01*
X129605000Y-63887458D01*
X129580597Y-63764777D01*
X129532730Y-63649215D01*
X129463237Y-63545211D01*
X129374789Y-63456763D01*
X129342895Y-63435452D01*
X129349792Y-63429792D01*
X129459458Y-63296164D01*
X129540947Y-63143709D01*
X129591128Y-62978285D01*
X129608072Y-62806250D01*
X129608072Y-62318750D01*
X129591128Y-62146715D01*
X129540947Y-61981291D01*
X129459458Y-61828836D01*
X129349792Y-61695208D01*
X129216164Y-61585542D01*
X129063709Y-61504053D01*
X128898285Y-61453872D01*
X128726250Y-61436928D01*
X127813750Y-61436928D01*
X127641715Y-61453872D01*
X127476291Y-61504053D01*
X127323836Y-61585542D01*
X127190208Y-61695208D01*
X127168072Y-61722181D01*
X127168072Y-61430000D01*
X127160439Y-61352500D01*
X130594636Y-61352500D01*
X130591928Y-61380000D01*
X130591928Y-61380000D01*
G37*
X130591928Y-61380000D02*
X130591928Y-63080000D01*
X130604188Y-63204482D01*
X130640498Y-63324180D01*
X130699463Y-63434494D01*
X130778815Y-63531185D01*
X130875506Y-63610537D01*
X130985820Y-63669502D01*
X131054687Y-63690393D01*
X131024866Y-63714866D01*
X130839294Y-63940986D01*
X130701401Y-64198966D01*
X130616487Y-64478889D01*
X130587815Y-64770000D01*
X130616487Y-65061111D01*
X130638545Y-65133825D01*
X127122649Y-68649721D01*
X127093579Y-68673578D01*
X127069722Y-68702648D01*
X127069721Y-68702649D01*
X126998355Y-68789608D01*
X126927599Y-68921985D01*
X126899850Y-69013462D01*
X126749608Y-68830392D01*
X126531101Y-68651068D01*
X126398142Y-68580000D01*
X126531101Y-68508932D01*
X126749608Y-68329608D01*
X126928932Y-68111101D01*
X127062182Y-67861808D01*
X127144236Y-67591309D01*
X127171943Y-67310000D01*
X127144236Y-67028691D01*
X127062182Y-66758192D01*
X126928932Y-66508899D01*
X126749608Y-66290392D01*
X126531101Y-66111068D01*
X126398142Y-66040000D01*
X126531101Y-65968932D01*
X126749608Y-65789608D01*
X126928932Y-65571101D01*
X127062182Y-65321808D01*
X127065070Y-65312289D01*
X127076763Y-65329789D01*
X127165211Y-65418237D01*
X127269215Y-65487730D01*
X127384777Y-65535597D01*
X127507458Y-65560000D01*
X127984250Y-65560000D01*
X128143000Y-65401250D01*
X128143000Y-64564500D01*
X128397000Y-64564500D01*
X128397000Y-65401250D01*
X128555750Y-65560000D01*
X129032542Y-65560000D01*
X129155223Y-65535597D01*
X129270785Y-65487730D01*
X129374789Y-65418237D01*
X129463237Y-65329789D01*
X129532730Y-65225785D01*
X129580597Y-65110223D01*
X129605000Y-64987542D01*
X129605000Y-64723250D01*
X129446250Y-64564500D01*
X128397000Y-64564500D01*
X128143000Y-64564500D01*
X128123000Y-64564500D01*
X128123000Y-64310500D01*
X128143000Y-64310500D01*
X128143000Y-64290500D01*
X128397000Y-64290500D01*
X128397000Y-64310500D01*
X129446250Y-64310500D01*
X129605000Y-64151750D01*
X129605000Y-63887458D01*
X129580597Y-63764777D01*
X129532730Y-63649215D01*
X129463237Y-63545211D01*
X129374789Y-63456763D01*
X129342895Y-63435452D01*
X129349792Y-63429792D01*
X129459458Y-63296164D01*
X129540947Y-63143709D01*
X129591128Y-62978285D01*
X129608072Y-62806250D01*
X129608072Y-62318750D01*
X129591128Y-62146715D01*
X129540947Y-61981291D01*
X129459458Y-61828836D01*
X129349792Y-61695208D01*
X129216164Y-61585542D01*
X129063709Y-61504053D01*
X128898285Y-61453872D01*
X128726250Y-61436928D01*
X127813750Y-61436928D01*
X127641715Y-61453872D01*
X127476291Y-61504053D01*
X127323836Y-61585542D01*
X127190208Y-61695208D01*
X127168072Y-61722181D01*
X127168072Y-61430000D01*
X127160439Y-61352500D01*
X130594636Y-61352500D01*
X130591928Y-61380000D01*
G04 #@! TD*
M02*
