G04 #@! TF.GenerationSoftware,KiCad,Pcbnew,(5.0.0)*
G04 #@! TF.CreationDate,2018-07-26T01:08:59+02:00*
G04 #@! TF.ProjectId,bosch_kf4_pll,626F7363685F6B66345F706C6C2E6B69,rev?*
G04 #@! TF.SameCoordinates,Original*
G04 #@! TF.FileFunction,Legend,Bot*
G04 #@! TF.FilePolarity,Positive*
%FSLAX46Y46*%
G04 Gerber Fmt 4.6, Leading zero omitted, Abs format (unit mm)*
G04 Created by KiCad (PCBNEW (5.0.0)) date 07/26/18 01:08:59*
%MOMM*%
%LPD*%
G01*
G04 APERTURE LIST*
%ADD10C,0.150000*%
%ADD11C,0.120000*%
G04 APERTURE END LIST*
D10*
G04 #@! TO.C,U1*
X138317425Y-78899099D02*
X139325052Y-79906726D01*
X133350000Y-73613476D02*
X133579810Y-73843286D01*
X128223476Y-78740000D02*
X128453286Y-78969810D01*
X133350000Y-83866524D02*
X133120190Y-83636714D01*
X138476524Y-78740000D02*
X138246714Y-78510190D01*
X133350000Y-83866524D02*
X133579810Y-83636714D01*
X128223476Y-78740000D02*
X128453286Y-78510190D01*
X133350000Y-73613476D02*
X133120190Y-73843286D01*
X138476524Y-78740000D02*
X138317425Y-78899099D01*
G04 #@! TO.C,J2*
X124460000Y-60960000D02*
X124460000Y-91440000D01*
X127000000Y-60960000D02*
X124460000Y-60960000D01*
X127000000Y-91440000D02*
X127000000Y-60960000D01*
X124460000Y-91440000D02*
X127000000Y-91440000D01*
X142240000Y-91440000D02*
X139700000Y-91440000D01*
X142240000Y-60960000D02*
X142240000Y-91440000D01*
X139700000Y-60960000D02*
X142240000Y-60960000D01*
X139700000Y-91440000D02*
X139700000Y-60960000D01*
D11*
G04 #@! TO.C,U2*
X139300000Y-68585000D02*
X138040000Y-68585000D01*
X132480000Y-68585000D02*
X133740000Y-68585000D01*
X139300000Y-64825000D02*
X139300000Y-68585000D01*
X132480000Y-62575000D02*
X132480000Y-68585000D01*
G04 #@! TO.C,R4*
X137085000Y-72766422D02*
X137085000Y-73283578D01*
X138505000Y-72766422D02*
X138505000Y-73283578D01*
G04 #@! TO.C,R3*
X139457500Y-88973922D02*
X139457500Y-89491078D01*
X138037500Y-88973922D02*
X138037500Y-89491078D01*
G04 #@! TO.C,C2*
X131837500Y-64711078D02*
X131837500Y-64193922D01*
X130417500Y-64711078D02*
X130417500Y-64193922D01*
G04 #@! TO.C,C3*
X128195000Y-64711078D02*
X128195000Y-64193922D01*
X129615000Y-64711078D02*
X129615000Y-64193922D01*
G04 #@! TO.C,U1*
D10*
X129830973Y-83336522D02*
X129258553Y-83908942D01*
X129157538Y-83942614D01*
X129090194Y-83942614D01*
X128989179Y-83908942D01*
X128854492Y-83774255D01*
X128820820Y-83673240D01*
X128820820Y-83605896D01*
X128854492Y-83504881D01*
X129426912Y-82932461D01*
X128012698Y-82932461D02*
X128416759Y-83336522D01*
X128214729Y-83134492D02*
X128921835Y-82427385D01*
X128888164Y-82595744D01*
X128888164Y-82730431D01*
X128921835Y-82831446D01*
G04 #@! TO.C,U2*
X138199880Y-69088095D02*
X139009404Y-69088095D01*
X139104642Y-69135714D01*
X139152261Y-69183333D01*
X139199880Y-69278571D01*
X139199880Y-69469047D01*
X139152261Y-69564285D01*
X139104642Y-69611904D01*
X139009404Y-69659523D01*
X138199880Y-69659523D01*
X138295119Y-70088095D02*
X138247500Y-70135714D01*
X138199880Y-70230952D01*
X138199880Y-70469047D01*
X138247500Y-70564285D01*
X138295119Y-70611904D01*
X138390357Y-70659523D01*
X138485595Y-70659523D01*
X138628452Y-70611904D01*
X139199880Y-70040476D01*
X139199880Y-70659523D01*
G04 #@! TO.C,R4*
X136024880Y-71905833D02*
X135548690Y-71572500D01*
X136024880Y-71334404D02*
X135024880Y-71334404D01*
X135024880Y-71715357D01*
X135072500Y-71810595D01*
X135120119Y-71858214D01*
X135215357Y-71905833D01*
X135358214Y-71905833D01*
X135453452Y-71858214D01*
X135501071Y-71810595D01*
X135548690Y-71715357D01*
X135548690Y-71334404D01*
X135358214Y-72762976D02*
X136024880Y-72762976D01*
X134977261Y-72524880D02*
X135691547Y-72286785D01*
X135691547Y-72905833D01*
G04 #@! TO.C,R3*
X139199880Y-86193333D02*
X138723690Y-85860000D01*
X139199880Y-85621904D02*
X138199880Y-85621904D01*
X138199880Y-86002857D01*
X138247500Y-86098095D01*
X138295119Y-86145714D01*
X138390357Y-86193333D01*
X138533214Y-86193333D01*
X138628452Y-86145714D01*
X138676071Y-86098095D01*
X138723690Y-86002857D01*
X138723690Y-85621904D01*
X138199880Y-86526666D02*
X138199880Y-87145714D01*
X138580833Y-86812380D01*
X138580833Y-86955238D01*
X138628452Y-87050476D01*
X138676071Y-87098095D01*
X138771309Y-87145714D01*
X139009404Y-87145714D01*
X139104642Y-87098095D01*
X139152261Y-87050476D01*
X139199880Y-86955238D01*
X139199880Y-86669523D01*
X139152261Y-86574285D01*
X139104642Y-86526666D01*
G04 #@! TO.C,C2*
X130214642Y-67143333D02*
X130262261Y-67095714D01*
X130309880Y-66952857D01*
X130309880Y-66857619D01*
X130262261Y-66714761D01*
X130167023Y-66619523D01*
X130071785Y-66571904D01*
X129881309Y-66524285D01*
X129738452Y-66524285D01*
X129547976Y-66571904D01*
X129452738Y-66619523D01*
X129357500Y-66714761D01*
X129309880Y-66857619D01*
X129309880Y-66952857D01*
X129357500Y-67095714D01*
X129405119Y-67143333D01*
X129405119Y-67524285D02*
X129357500Y-67571904D01*
X129309880Y-67667142D01*
X129309880Y-67905238D01*
X129357500Y-68000476D01*
X129405119Y-68048095D01*
X129500357Y-68095714D01*
X129595595Y-68095714D01*
X129738452Y-68048095D01*
X130309880Y-67476666D01*
X130309880Y-68095714D01*
G04 #@! TO.C,C3*
X128627142Y-67143333D02*
X128674761Y-67095714D01*
X128722380Y-66952857D01*
X128722380Y-66857619D01*
X128674761Y-66714761D01*
X128579523Y-66619523D01*
X128484285Y-66571904D01*
X128293809Y-66524285D01*
X128150952Y-66524285D01*
X127960476Y-66571904D01*
X127865238Y-66619523D01*
X127770000Y-66714761D01*
X127722380Y-66857619D01*
X127722380Y-66952857D01*
X127770000Y-67095714D01*
X127817619Y-67143333D01*
X127722380Y-67476666D02*
X127722380Y-68095714D01*
X128103333Y-67762380D01*
X128103333Y-67905238D01*
X128150952Y-68000476D01*
X128198571Y-68048095D01*
X128293809Y-68095714D01*
X128531904Y-68095714D01*
X128627142Y-68048095D01*
X128674761Y-68000476D01*
X128722380Y-67905238D01*
X128722380Y-67619523D01*
X128674761Y-67524285D01*
X128627142Y-67476666D01*
G04 #@! TD*
M02*
