G04 #@! TF.GenerationSoftware,KiCad,Pcbnew,(5.0.0)*
G04 #@! TF.CreationDate,2018-07-26T01:09:00+02:00*
G04 #@! TF.ProjectId,bosch_kf4_pll,626F7363685F6B66345F706C6C2E6B69,rev?*
G04 #@! TF.SameCoordinates,Original*
G04 #@! TF.FileFunction,Soldermask,Bot*
G04 #@! TF.FilePolarity,Negative*
%FSLAX46Y46*%
G04 Gerber Fmt 4.6, Leading zero omitted, Abs format (unit mm)*
G04 Created by KiCad (PCBNEW (5.0.0)) date 07/26/18 01:09:00*
%MOMM*%
%LPD*%
G01*
G04 APERTURE LIST*
%ADD10C,0.651600*%
%ADD11C,0.100000*%
%ADD12O,1.701600X1.701600*%
%ADD13R,1.701600X1.701600*%
%ADD14R,3.901600X2.101600*%
%ADD15R,1.601600X2.101600*%
%ADD16C,1.076600*%
%ADD17O,1.801600X1.801600*%
%ADD18R,1.801600X1.801600*%
G04 APERTURE END LIST*
D10*
G04 #@! TO.C,U1*
X138335103Y-77714695D03*
D11*
G36*
X137963872Y-78546677D02*
X137503121Y-78085926D01*
X138706334Y-76882713D01*
X139167085Y-77343464D01*
X137963872Y-78546677D01*
X137963872Y-78546677D01*
G37*
D10*
X137769417Y-77149010D03*
D11*
G36*
X137398186Y-77980992D02*
X136937435Y-77520241D01*
X138140648Y-76317028D01*
X138601399Y-76777779D01*
X137398186Y-77980992D01*
X137398186Y-77980992D01*
G37*
D10*
X137203732Y-76583324D03*
D11*
G36*
X136832501Y-77415306D02*
X136371750Y-76954555D01*
X137574963Y-75751342D01*
X138035714Y-76212093D01*
X136832501Y-77415306D01*
X136832501Y-77415306D01*
G37*
D10*
X136638047Y-76017639D03*
D11*
G36*
X136266816Y-76849621D02*
X135806065Y-76388870D01*
X137009278Y-75185657D01*
X137470029Y-75646408D01*
X136266816Y-76849621D01*
X136266816Y-76849621D01*
G37*
D10*
X136072361Y-75451953D03*
D11*
G36*
X135701130Y-76283935D02*
X135240379Y-75823184D01*
X136443592Y-74619971D01*
X136904343Y-75080722D01*
X135701130Y-76283935D01*
X135701130Y-76283935D01*
G37*
D10*
X135506676Y-74886268D03*
D11*
G36*
X135135445Y-75718250D02*
X134674694Y-75257499D01*
X135877907Y-74054286D01*
X136338658Y-74515037D01*
X135135445Y-75718250D01*
X135135445Y-75718250D01*
G37*
D10*
X134940990Y-74320583D03*
D11*
G36*
X134569759Y-75152565D02*
X134109008Y-74691814D01*
X135312221Y-73488601D01*
X135772972Y-73949352D01*
X134569759Y-75152565D01*
X134569759Y-75152565D01*
G37*
D10*
X134375305Y-73754897D03*
D11*
G36*
X134004074Y-74586879D02*
X133543323Y-74126128D01*
X134746536Y-72922915D01*
X135207287Y-73383666D01*
X134004074Y-74586879D01*
X134004074Y-74586879D01*
G37*
D10*
X132324695Y-73754897D03*
D11*
G36*
X133156677Y-74126128D02*
X132695926Y-74586879D01*
X131492713Y-73383666D01*
X131953464Y-72922915D01*
X133156677Y-74126128D01*
X133156677Y-74126128D01*
G37*
D10*
X131759010Y-74320583D03*
D11*
G36*
X132590992Y-74691814D02*
X132130241Y-75152565D01*
X130927028Y-73949352D01*
X131387779Y-73488601D01*
X132590992Y-74691814D01*
X132590992Y-74691814D01*
G37*
D10*
X131193324Y-74886268D03*
D11*
G36*
X132025306Y-75257499D02*
X131564555Y-75718250D01*
X130361342Y-74515037D01*
X130822093Y-74054286D01*
X132025306Y-75257499D01*
X132025306Y-75257499D01*
G37*
D10*
X130627639Y-75451953D03*
D11*
G36*
X131459621Y-75823184D02*
X130998870Y-76283935D01*
X129795657Y-75080722D01*
X130256408Y-74619971D01*
X131459621Y-75823184D01*
X131459621Y-75823184D01*
G37*
D10*
X130061953Y-76017639D03*
D11*
G36*
X130893935Y-76388870D02*
X130433184Y-76849621D01*
X129229971Y-75646408D01*
X129690722Y-75185657D01*
X130893935Y-76388870D01*
X130893935Y-76388870D01*
G37*
D10*
X129496268Y-76583324D03*
D11*
G36*
X130328250Y-76954555D02*
X129867499Y-77415306D01*
X128664286Y-76212093D01*
X129125037Y-75751342D01*
X130328250Y-76954555D01*
X130328250Y-76954555D01*
G37*
D10*
X128930583Y-77149010D03*
D11*
G36*
X129762565Y-77520241D02*
X129301814Y-77980992D01*
X128098601Y-76777779D01*
X128559352Y-76317028D01*
X129762565Y-77520241D01*
X129762565Y-77520241D01*
G37*
D10*
X128364897Y-77714695D03*
D11*
G36*
X129196879Y-78085926D02*
X128736128Y-78546677D01*
X127532915Y-77343464D01*
X127993666Y-76882713D01*
X129196879Y-78085926D01*
X129196879Y-78085926D01*
G37*
D10*
X128364897Y-79765305D03*
D11*
G36*
X127993666Y-80597287D02*
X127532915Y-80136536D01*
X128736128Y-78933323D01*
X129196879Y-79394074D01*
X127993666Y-80597287D01*
X127993666Y-80597287D01*
G37*
D10*
X128930583Y-80330990D03*
D11*
G36*
X128559352Y-81162972D02*
X128098601Y-80702221D01*
X129301814Y-79499008D01*
X129762565Y-79959759D01*
X128559352Y-81162972D01*
X128559352Y-81162972D01*
G37*
D10*
X129496268Y-80896676D03*
D11*
G36*
X129125037Y-81728658D02*
X128664286Y-81267907D01*
X129867499Y-80064694D01*
X130328250Y-80525445D01*
X129125037Y-81728658D01*
X129125037Y-81728658D01*
G37*
D10*
X130061953Y-81462361D03*
D11*
G36*
X129690722Y-82294343D02*
X129229971Y-81833592D01*
X130433184Y-80630379D01*
X130893935Y-81091130D01*
X129690722Y-82294343D01*
X129690722Y-82294343D01*
G37*
D10*
X130627639Y-82028047D03*
D11*
G36*
X130256408Y-82860029D02*
X129795657Y-82399278D01*
X130998870Y-81196065D01*
X131459621Y-81656816D01*
X130256408Y-82860029D01*
X130256408Y-82860029D01*
G37*
D10*
X131193324Y-82593732D03*
D11*
G36*
X130822093Y-83425714D02*
X130361342Y-82964963D01*
X131564555Y-81761750D01*
X132025306Y-82222501D01*
X130822093Y-83425714D01*
X130822093Y-83425714D01*
G37*
D10*
X131759010Y-83159417D03*
D11*
G36*
X131387779Y-83991399D02*
X130927028Y-83530648D01*
X132130241Y-82327435D01*
X132590992Y-82788186D01*
X131387779Y-83991399D01*
X131387779Y-83991399D01*
G37*
D10*
X132324695Y-83725103D03*
D11*
G36*
X131953464Y-84557085D02*
X131492713Y-84096334D01*
X132695926Y-82893121D01*
X133156677Y-83353872D01*
X131953464Y-84557085D01*
X131953464Y-84557085D01*
G37*
D10*
X134375305Y-83725103D03*
D11*
G36*
X135207287Y-84096334D02*
X134746536Y-84557085D01*
X133543323Y-83353872D01*
X134004074Y-82893121D01*
X135207287Y-84096334D01*
X135207287Y-84096334D01*
G37*
D10*
X134940990Y-83159417D03*
D11*
G36*
X135772972Y-83530648D02*
X135312221Y-83991399D01*
X134109008Y-82788186D01*
X134569759Y-82327435D01*
X135772972Y-83530648D01*
X135772972Y-83530648D01*
G37*
D10*
X135506676Y-82593732D03*
D11*
G36*
X136338658Y-82964963D02*
X135877907Y-83425714D01*
X134674694Y-82222501D01*
X135135445Y-81761750D01*
X136338658Y-82964963D01*
X136338658Y-82964963D01*
G37*
D10*
X136072361Y-82028047D03*
D11*
G36*
X136904343Y-82399278D02*
X136443592Y-82860029D01*
X135240379Y-81656816D01*
X135701130Y-81196065D01*
X136904343Y-82399278D01*
X136904343Y-82399278D01*
G37*
D10*
X136638047Y-81462361D03*
D11*
G36*
X137470029Y-81833592D02*
X137009278Y-82294343D01*
X135806065Y-81091130D01*
X136266816Y-80630379D01*
X137470029Y-81833592D01*
X137470029Y-81833592D01*
G37*
D10*
X137203732Y-80896676D03*
D11*
G36*
X138035714Y-81267907D02*
X137574963Y-81728658D01*
X136371750Y-80525445D01*
X136832501Y-80064694D01*
X138035714Y-81267907D01*
X138035714Y-81267907D01*
G37*
D10*
X137769417Y-80330990D03*
D11*
G36*
X138601399Y-80702221D02*
X138140648Y-81162972D01*
X136937435Y-79959759D01*
X137398186Y-79499008D01*
X138601399Y-80702221D01*
X138601399Y-80702221D01*
G37*
D10*
X138335103Y-79765305D03*
D11*
G36*
X139167085Y-80136536D02*
X138706334Y-80597287D01*
X137503121Y-79394074D01*
X137963872Y-78933323D01*
X139167085Y-80136536D01*
X139167085Y-80136536D01*
G37*
G04 #@! TD*
D12*
G04 #@! TO.C,J2*
X140970000Y-62230000D03*
X125730000Y-90170000D03*
X140970000Y-64770000D03*
X125730000Y-87630000D03*
X140970000Y-67310000D03*
X125730000Y-85090000D03*
X140970000Y-69850000D03*
X125730000Y-82550000D03*
X140970000Y-72390000D03*
X125730000Y-80010000D03*
X140970000Y-74930000D03*
X125730000Y-77470000D03*
X140970000Y-77470000D03*
X125730000Y-74930000D03*
X140970000Y-80010000D03*
X125730000Y-72390000D03*
X140970000Y-82550000D03*
X125730000Y-69850000D03*
X140970000Y-85090000D03*
X125730000Y-67310000D03*
X140970000Y-87630000D03*
X125730000Y-64770000D03*
X140970000Y-90170000D03*
D13*
X125730000Y-62230000D03*
G04 #@! TD*
D14*
G04 #@! TO.C,U2*
X135890000Y-69825000D03*
D15*
X135890000Y-63525000D03*
X138190000Y-63525000D03*
X133590000Y-63525000D03*
G04 #@! TD*
D11*
G04 #@! TO.C,R4*
G36*
X138303031Y-71550496D02*
X138329159Y-71554372D01*
X138354780Y-71560790D01*
X138379649Y-71569688D01*
X138403526Y-71580981D01*
X138426182Y-71594560D01*
X138447397Y-71610294D01*
X138466968Y-71628032D01*
X138484706Y-71647603D01*
X138500440Y-71668818D01*
X138514019Y-71691474D01*
X138525312Y-71715351D01*
X138534210Y-71740220D01*
X138540628Y-71765841D01*
X138544504Y-71791969D01*
X138545800Y-71818350D01*
X138545800Y-72356650D01*
X138544504Y-72383031D01*
X138540628Y-72409159D01*
X138534210Y-72434780D01*
X138525312Y-72459649D01*
X138514019Y-72483526D01*
X138500440Y-72506182D01*
X138484706Y-72527397D01*
X138466968Y-72546968D01*
X138447397Y-72564706D01*
X138426182Y-72580440D01*
X138403526Y-72594019D01*
X138379649Y-72605312D01*
X138354780Y-72614210D01*
X138329159Y-72620628D01*
X138303031Y-72624504D01*
X138276650Y-72625800D01*
X137313350Y-72625800D01*
X137286969Y-72624504D01*
X137260841Y-72620628D01*
X137235220Y-72614210D01*
X137210351Y-72605312D01*
X137186474Y-72594019D01*
X137163818Y-72580440D01*
X137142603Y-72564706D01*
X137123032Y-72546968D01*
X137105294Y-72527397D01*
X137089560Y-72506182D01*
X137075981Y-72483526D01*
X137064688Y-72459649D01*
X137055790Y-72434780D01*
X137049372Y-72409159D01*
X137045496Y-72383031D01*
X137044200Y-72356650D01*
X137044200Y-71818350D01*
X137045496Y-71791969D01*
X137049372Y-71765841D01*
X137055790Y-71740220D01*
X137064688Y-71715351D01*
X137075981Y-71691474D01*
X137089560Y-71668818D01*
X137105294Y-71647603D01*
X137123032Y-71628032D01*
X137142603Y-71610294D01*
X137163818Y-71594560D01*
X137186474Y-71580981D01*
X137210351Y-71569688D01*
X137235220Y-71560790D01*
X137260841Y-71554372D01*
X137286969Y-71550496D01*
X137313350Y-71549200D01*
X138276650Y-71549200D01*
X138303031Y-71550496D01*
X138303031Y-71550496D01*
G37*
D16*
X137795000Y-72087500D03*
D11*
G36*
X138303031Y-73425496D02*
X138329159Y-73429372D01*
X138354780Y-73435790D01*
X138379649Y-73444688D01*
X138403526Y-73455981D01*
X138426182Y-73469560D01*
X138447397Y-73485294D01*
X138466968Y-73503032D01*
X138484706Y-73522603D01*
X138500440Y-73543818D01*
X138514019Y-73566474D01*
X138525312Y-73590351D01*
X138534210Y-73615220D01*
X138540628Y-73640841D01*
X138544504Y-73666969D01*
X138545800Y-73693350D01*
X138545800Y-74231650D01*
X138544504Y-74258031D01*
X138540628Y-74284159D01*
X138534210Y-74309780D01*
X138525312Y-74334649D01*
X138514019Y-74358526D01*
X138500440Y-74381182D01*
X138484706Y-74402397D01*
X138466968Y-74421968D01*
X138447397Y-74439706D01*
X138426182Y-74455440D01*
X138403526Y-74469019D01*
X138379649Y-74480312D01*
X138354780Y-74489210D01*
X138329159Y-74495628D01*
X138303031Y-74499504D01*
X138276650Y-74500800D01*
X137313350Y-74500800D01*
X137286969Y-74499504D01*
X137260841Y-74495628D01*
X137235220Y-74489210D01*
X137210351Y-74480312D01*
X137186474Y-74469019D01*
X137163818Y-74455440D01*
X137142603Y-74439706D01*
X137123032Y-74421968D01*
X137105294Y-74402397D01*
X137089560Y-74381182D01*
X137075981Y-74358526D01*
X137064688Y-74334649D01*
X137055790Y-74309780D01*
X137049372Y-74284159D01*
X137045496Y-74258031D01*
X137044200Y-74231650D01*
X137044200Y-73693350D01*
X137045496Y-73666969D01*
X137049372Y-73640841D01*
X137055790Y-73615220D01*
X137064688Y-73590351D01*
X137075981Y-73566474D01*
X137089560Y-73543818D01*
X137105294Y-73522603D01*
X137123032Y-73503032D01*
X137142603Y-73485294D01*
X137163818Y-73469560D01*
X137186474Y-73455981D01*
X137210351Y-73444688D01*
X137235220Y-73435790D01*
X137260841Y-73429372D01*
X137286969Y-73425496D01*
X137313350Y-73424200D01*
X138276650Y-73424200D01*
X138303031Y-73425496D01*
X138303031Y-73425496D01*
G37*
D16*
X137795000Y-73962500D03*
G04 #@! TD*
D11*
G04 #@! TO.C,R3*
G36*
X139255531Y-89632996D02*
X139281659Y-89636872D01*
X139307280Y-89643290D01*
X139332149Y-89652188D01*
X139356026Y-89663481D01*
X139378682Y-89677060D01*
X139399897Y-89692794D01*
X139419468Y-89710532D01*
X139437206Y-89730103D01*
X139452940Y-89751318D01*
X139466519Y-89773974D01*
X139477812Y-89797851D01*
X139486710Y-89822720D01*
X139493128Y-89848341D01*
X139497004Y-89874469D01*
X139498300Y-89900850D01*
X139498300Y-90439150D01*
X139497004Y-90465531D01*
X139493128Y-90491659D01*
X139486710Y-90517280D01*
X139477812Y-90542149D01*
X139466519Y-90566026D01*
X139452940Y-90588682D01*
X139437206Y-90609897D01*
X139419468Y-90629468D01*
X139399897Y-90647206D01*
X139378682Y-90662940D01*
X139356026Y-90676519D01*
X139332149Y-90687812D01*
X139307280Y-90696710D01*
X139281659Y-90703128D01*
X139255531Y-90707004D01*
X139229150Y-90708300D01*
X138265850Y-90708300D01*
X138239469Y-90707004D01*
X138213341Y-90703128D01*
X138187720Y-90696710D01*
X138162851Y-90687812D01*
X138138974Y-90676519D01*
X138116318Y-90662940D01*
X138095103Y-90647206D01*
X138075532Y-90629468D01*
X138057794Y-90609897D01*
X138042060Y-90588682D01*
X138028481Y-90566026D01*
X138017188Y-90542149D01*
X138008290Y-90517280D01*
X138001872Y-90491659D01*
X137997996Y-90465531D01*
X137996700Y-90439150D01*
X137996700Y-89900850D01*
X137997996Y-89874469D01*
X138001872Y-89848341D01*
X138008290Y-89822720D01*
X138017188Y-89797851D01*
X138028481Y-89773974D01*
X138042060Y-89751318D01*
X138057794Y-89730103D01*
X138075532Y-89710532D01*
X138095103Y-89692794D01*
X138116318Y-89677060D01*
X138138974Y-89663481D01*
X138162851Y-89652188D01*
X138187720Y-89643290D01*
X138213341Y-89636872D01*
X138239469Y-89632996D01*
X138265850Y-89631700D01*
X139229150Y-89631700D01*
X139255531Y-89632996D01*
X139255531Y-89632996D01*
G37*
D16*
X138747500Y-90170000D03*
D11*
G36*
X139255531Y-87757996D02*
X139281659Y-87761872D01*
X139307280Y-87768290D01*
X139332149Y-87777188D01*
X139356026Y-87788481D01*
X139378682Y-87802060D01*
X139399897Y-87817794D01*
X139419468Y-87835532D01*
X139437206Y-87855103D01*
X139452940Y-87876318D01*
X139466519Y-87898974D01*
X139477812Y-87922851D01*
X139486710Y-87947720D01*
X139493128Y-87973341D01*
X139497004Y-87999469D01*
X139498300Y-88025850D01*
X139498300Y-88564150D01*
X139497004Y-88590531D01*
X139493128Y-88616659D01*
X139486710Y-88642280D01*
X139477812Y-88667149D01*
X139466519Y-88691026D01*
X139452940Y-88713682D01*
X139437206Y-88734897D01*
X139419468Y-88754468D01*
X139399897Y-88772206D01*
X139378682Y-88787940D01*
X139356026Y-88801519D01*
X139332149Y-88812812D01*
X139307280Y-88821710D01*
X139281659Y-88828128D01*
X139255531Y-88832004D01*
X139229150Y-88833300D01*
X138265850Y-88833300D01*
X138239469Y-88832004D01*
X138213341Y-88828128D01*
X138187720Y-88821710D01*
X138162851Y-88812812D01*
X138138974Y-88801519D01*
X138116318Y-88787940D01*
X138095103Y-88772206D01*
X138075532Y-88754468D01*
X138057794Y-88734897D01*
X138042060Y-88713682D01*
X138028481Y-88691026D01*
X138017188Y-88667149D01*
X138008290Y-88642280D01*
X138001872Y-88616659D01*
X137997996Y-88590531D01*
X137996700Y-88564150D01*
X137996700Y-88025850D01*
X137997996Y-87999469D01*
X138001872Y-87973341D01*
X138008290Y-87947720D01*
X138017188Y-87922851D01*
X138028481Y-87898974D01*
X138042060Y-87876318D01*
X138057794Y-87855103D01*
X138075532Y-87835532D01*
X138095103Y-87817794D01*
X138116318Y-87802060D01*
X138138974Y-87788481D01*
X138162851Y-87777188D01*
X138187720Y-87768290D01*
X138213341Y-87761872D01*
X138239469Y-87757996D01*
X138265850Y-87756700D01*
X139229150Y-87756700D01*
X139255531Y-87757996D01*
X139255531Y-87757996D01*
G37*
D16*
X138747500Y-88295000D03*
G04 #@! TD*
D11*
G04 #@! TO.C,C2*
G36*
X131635531Y-64852996D02*
X131661659Y-64856872D01*
X131687280Y-64863290D01*
X131712149Y-64872188D01*
X131736026Y-64883481D01*
X131758682Y-64897060D01*
X131779897Y-64912794D01*
X131799468Y-64930532D01*
X131817206Y-64950103D01*
X131832940Y-64971318D01*
X131846519Y-64993974D01*
X131857812Y-65017851D01*
X131866710Y-65042720D01*
X131873128Y-65068341D01*
X131877004Y-65094469D01*
X131878300Y-65120850D01*
X131878300Y-65659150D01*
X131877004Y-65685531D01*
X131873128Y-65711659D01*
X131866710Y-65737280D01*
X131857812Y-65762149D01*
X131846519Y-65786026D01*
X131832940Y-65808682D01*
X131817206Y-65829897D01*
X131799468Y-65849468D01*
X131779897Y-65867206D01*
X131758682Y-65882940D01*
X131736026Y-65896519D01*
X131712149Y-65907812D01*
X131687280Y-65916710D01*
X131661659Y-65923128D01*
X131635531Y-65927004D01*
X131609150Y-65928300D01*
X130645850Y-65928300D01*
X130619469Y-65927004D01*
X130593341Y-65923128D01*
X130567720Y-65916710D01*
X130542851Y-65907812D01*
X130518974Y-65896519D01*
X130496318Y-65882940D01*
X130475103Y-65867206D01*
X130455532Y-65849468D01*
X130437794Y-65829897D01*
X130422060Y-65808682D01*
X130408481Y-65786026D01*
X130397188Y-65762149D01*
X130388290Y-65737280D01*
X130381872Y-65711659D01*
X130377996Y-65685531D01*
X130376700Y-65659150D01*
X130376700Y-65120850D01*
X130377996Y-65094469D01*
X130381872Y-65068341D01*
X130388290Y-65042720D01*
X130397188Y-65017851D01*
X130408481Y-64993974D01*
X130422060Y-64971318D01*
X130437794Y-64950103D01*
X130455532Y-64930532D01*
X130475103Y-64912794D01*
X130496318Y-64897060D01*
X130518974Y-64883481D01*
X130542851Y-64872188D01*
X130567720Y-64863290D01*
X130593341Y-64856872D01*
X130619469Y-64852996D01*
X130645850Y-64851700D01*
X131609150Y-64851700D01*
X131635531Y-64852996D01*
X131635531Y-64852996D01*
G37*
D16*
X131127500Y-65390000D03*
D11*
G36*
X131635531Y-62977996D02*
X131661659Y-62981872D01*
X131687280Y-62988290D01*
X131712149Y-62997188D01*
X131736026Y-63008481D01*
X131758682Y-63022060D01*
X131779897Y-63037794D01*
X131799468Y-63055532D01*
X131817206Y-63075103D01*
X131832940Y-63096318D01*
X131846519Y-63118974D01*
X131857812Y-63142851D01*
X131866710Y-63167720D01*
X131873128Y-63193341D01*
X131877004Y-63219469D01*
X131878300Y-63245850D01*
X131878300Y-63784150D01*
X131877004Y-63810531D01*
X131873128Y-63836659D01*
X131866710Y-63862280D01*
X131857812Y-63887149D01*
X131846519Y-63911026D01*
X131832940Y-63933682D01*
X131817206Y-63954897D01*
X131799468Y-63974468D01*
X131779897Y-63992206D01*
X131758682Y-64007940D01*
X131736026Y-64021519D01*
X131712149Y-64032812D01*
X131687280Y-64041710D01*
X131661659Y-64048128D01*
X131635531Y-64052004D01*
X131609150Y-64053300D01*
X130645850Y-64053300D01*
X130619469Y-64052004D01*
X130593341Y-64048128D01*
X130567720Y-64041710D01*
X130542851Y-64032812D01*
X130518974Y-64021519D01*
X130496318Y-64007940D01*
X130475103Y-63992206D01*
X130455532Y-63974468D01*
X130437794Y-63954897D01*
X130422060Y-63933682D01*
X130408481Y-63911026D01*
X130397188Y-63887149D01*
X130388290Y-63862280D01*
X130381872Y-63836659D01*
X130377996Y-63810531D01*
X130376700Y-63784150D01*
X130376700Y-63245850D01*
X130377996Y-63219469D01*
X130381872Y-63193341D01*
X130388290Y-63167720D01*
X130397188Y-63142851D01*
X130408481Y-63118974D01*
X130422060Y-63096318D01*
X130437794Y-63075103D01*
X130455532Y-63055532D01*
X130475103Y-63037794D01*
X130496318Y-63022060D01*
X130518974Y-63008481D01*
X130542851Y-62997188D01*
X130567720Y-62988290D01*
X130593341Y-62981872D01*
X130619469Y-62977996D01*
X130645850Y-62976700D01*
X131609150Y-62976700D01*
X131635531Y-62977996D01*
X131635531Y-62977996D01*
G37*
D16*
X131127500Y-63515000D03*
G04 #@! TD*
D11*
G04 #@! TO.C,C3*
G36*
X129413031Y-62977996D02*
X129439159Y-62981872D01*
X129464780Y-62988290D01*
X129489649Y-62997188D01*
X129513526Y-63008481D01*
X129536182Y-63022060D01*
X129557397Y-63037794D01*
X129576968Y-63055532D01*
X129594706Y-63075103D01*
X129610440Y-63096318D01*
X129624019Y-63118974D01*
X129635312Y-63142851D01*
X129644210Y-63167720D01*
X129650628Y-63193341D01*
X129654504Y-63219469D01*
X129655800Y-63245850D01*
X129655800Y-63784150D01*
X129654504Y-63810531D01*
X129650628Y-63836659D01*
X129644210Y-63862280D01*
X129635312Y-63887149D01*
X129624019Y-63911026D01*
X129610440Y-63933682D01*
X129594706Y-63954897D01*
X129576968Y-63974468D01*
X129557397Y-63992206D01*
X129536182Y-64007940D01*
X129513526Y-64021519D01*
X129489649Y-64032812D01*
X129464780Y-64041710D01*
X129439159Y-64048128D01*
X129413031Y-64052004D01*
X129386650Y-64053300D01*
X128423350Y-64053300D01*
X128396969Y-64052004D01*
X128370841Y-64048128D01*
X128345220Y-64041710D01*
X128320351Y-64032812D01*
X128296474Y-64021519D01*
X128273818Y-64007940D01*
X128252603Y-63992206D01*
X128233032Y-63974468D01*
X128215294Y-63954897D01*
X128199560Y-63933682D01*
X128185981Y-63911026D01*
X128174688Y-63887149D01*
X128165790Y-63862280D01*
X128159372Y-63836659D01*
X128155496Y-63810531D01*
X128154200Y-63784150D01*
X128154200Y-63245850D01*
X128155496Y-63219469D01*
X128159372Y-63193341D01*
X128165790Y-63167720D01*
X128174688Y-63142851D01*
X128185981Y-63118974D01*
X128199560Y-63096318D01*
X128215294Y-63075103D01*
X128233032Y-63055532D01*
X128252603Y-63037794D01*
X128273818Y-63022060D01*
X128296474Y-63008481D01*
X128320351Y-62997188D01*
X128345220Y-62988290D01*
X128370841Y-62981872D01*
X128396969Y-62977996D01*
X128423350Y-62976700D01*
X129386650Y-62976700D01*
X129413031Y-62977996D01*
X129413031Y-62977996D01*
G37*
D16*
X128905000Y-63515000D03*
D11*
G36*
X129413031Y-64852996D02*
X129439159Y-64856872D01*
X129464780Y-64863290D01*
X129489649Y-64872188D01*
X129513526Y-64883481D01*
X129536182Y-64897060D01*
X129557397Y-64912794D01*
X129576968Y-64930532D01*
X129594706Y-64950103D01*
X129610440Y-64971318D01*
X129624019Y-64993974D01*
X129635312Y-65017851D01*
X129644210Y-65042720D01*
X129650628Y-65068341D01*
X129654504Y-65094469D01*
X129655800Y-65120850D01*
X129655800Y-65659150D01*
X129654504Y-65685531D01*
X129650628Y-65711659D01*
X129644210Y-65737280D01*
X129635312Y-65762149D01*
X129624019Y-65786026D01*
X129610440Y-65808682D01*
X129594706Y-65829897D01*
X129576968Y-65849468D01*
X129557397Y-65867206D01*
X129536182Y-65882940D01*
X129513526Y-65896519D01*
X129489649Y-65907812D01*
X129464780Y-65916710D01*
X129439159Y-65923128D01*
X129413031Y-65927004D01*
X129386650Y-65928300D01*
X128423350Y-65928300D01*
X128396969Y-65927004D01*
X128370841Y-65923128D01*
X128345220Y-65916710D01*
X128320351Y-65907812D01*
X128296474Y-65896519D01*
X128273818Y-65882940D01*
X128252603Y-65867206D01*
X128233032Y-65849468D01*
X128215294Y-65829897D01*
X128199560Y-65808682D01*
X128185981Y-65786026D01*
X128174688Y-65762149D01*
X128165790Y-65737280D01*
X128159372Y-65711659D01*
X128155496Y-65685531D01*
X128154200Y-65659150D01*
X128154200Y-65120850D01*
X128155496Y-65094469D01*
X128159372Y-65068341D01*
X128165790Y-65042720D01*
X128174688Y-65017851D01*
X128185981Y-64993974D01*
X128199560Y-64971318D01*
X128215294Y-64950103D01*
X128233032Y-64930532D01*
X128252603Y-64912794D01*
X128273818Y-64897060D01*
X128296474Y-64883481D01*
X128320351Y-64872188D01*
X128345220Y-64863290D01*
X128370841Y-64856872D01*
X128396969Y-64852996D01*
X128423350Y-64851700D01*
X129386650Y-64851700D01*
X129413031Y-64852996D01*
X129413031Y-64852996D01*
G37*
D16*
X128905000Y-65390000D03*
G04 #@! TD*
D17*
G04 #@! TO.C,J1*
X135890000Y-87630000D03*
X135890000Y-90170000D03*
X133350000Y-87630000D03*
X133350000Y-90170000D03*
X130810000Y-87630000D03*
D18*
X130810000Y-90170000D03*
G04 #@! TD*
M02*
