G04 #@! TF.GenerationSoftware,KiCad,Pcbnew,7.0.9*
G04 #@! TF.CreationDate,2023-11-23T02:36:07+01:00*
G04 #@! TF.ProjectId,bosch_kf4_pll,626f7363-685f-46b6-9634-5f706c6c2e6b,2*
G04 #@! TF.SameCoordinates,Original*
G04 #@! TF.FileFunction,Legend,Top*
G04 #@! TF.FilePolarity,Positive*
%FSLAX46Y46*%
G04 Gerber Fmt 4.6, Leading zero omitted, Abs format (unit mm)*
G04 Created by KiCad (PCBNEW 7.0.9) date 2023-11-23 02:36:07*
%MOMM*%
%LPD*%
G01*
G04 APERTURE LIST*
G04 Aperture macros list*
%AMRoundRect*
0 Rectangle with rounded corners*
0 $1 Rounding radius*
0 $2 $3 $4 $5 $6 $7 $8 $9 X,Y pos of 4 corners*
0 Add a 4 corners polygon primitive as box body*
4,1,4,$2,$3,$4,$5,$6,$7,$8,$9,$2,$3,0*
0 Add four circle primitives for the rounded corners*
1,1,$1+$1,$2,$3*
1,1,$1+$1,$4,$5*
1,1,$1+$1,$6,$7*
1,1,$1+$1,$8,$9*
0 Add four rect primitives between the rounded corners*
20,1,$1+$1,$2,$3,$4,$5,0*
20,1,$1+$1,$4,$5,$6,$7,0*
20,1,$1+$1,$6,$7,$8,$9,0*
20,1,$1+$1,$8,$9,$2,$3,0*%
%AMRotRect*
0 Rectangle, with rotation*
0 The origin of the aperture is its center*
0 $1 length*
0 $2 width*
0 $3 Rotation angle, in degrees counterclockwise*
0 Add horizontal line*
21,1,$1,$2,0,0,$3*%
G04 Aperture macros list end*
%ADD10C,0.120000*%
%ADD11O,1.750000X2.250000*%
%ADD12RoundRect,0.200000X0.200000X0.275000X-0.200000X0.275000X-0.200000X-0.275000X0.200000X-0.275000X0*%
%ADD13RoundRect,0.200000X0.275000X-0.200000X0.275000X0.200000X-0.275000X0.200000X-0.275000X-0.200000X0*%
%ADD14RoundRect,0.225000X-0.225000X-0.250000X0.225000X-0.250000X0.225000X0.250000X-0.225000X0.250000X0*%
%ADD15RoundRect,0.200000X-0.275000X0.200000X-0.275000X-0.200000X0.275000X-0.200000X0.275000X0.200000X0*%
%ADD16C,2.374900*%
%ADD17C,0.990600*%
%ADD18C,0.787400*%
%ADD19RoundRect,0.050000X0.220971X0.291682X-0.291682X-0.220971X-0.220971X-0.291682X0.291682X0.220971X0*%
%ADD20RoundRect,0.050000X-0.220971X0.291682X-0.291682X0.220971X0.220971X-0.291682X0.291682X-0.220971X0*%
%ADD21RotRect,1.700000X1.700000X225.000000*%
%ADD22RoundRect,0.200000X-0.200000X-0.275000X0.200000X-0.275000X0.200000X0.275000X-0.200000X0.275000X0*%
%ADD23R,1.600000X1.600000*%
%ADD24O,1.600000X1.600000*%
%ADD25RoundRect,0.150000X0.150000X-0.587500X0.150000X0.587500X-0.150000X0.587500X-0.150000X-0.587500X0*%
%ADD26RoundRect,0.225000X0.250000X-0.225000X0.250000X0.225000X-0.250000X0.225000X-0.250000X-0.225000X0*%
%ADD27RoundRect,0.225000X-0.250000X0.225000X-0.250000X-0.225000X0.250000X-0.225000X0.250000X0.225000X0*%
G04 APERTURE END LIST*
G36*
X144949566Y-79422912D02*
G01*
X144949566Y-79621349D01*
X144949566Y-82223361D01*
X144949566Y-82421799D01*
X143645434Y-82421799D01*
X143645434Y-82223361D01*
X143645434Y-81657566D01*
X143843872Y-81657566D01*
X143885544Y-81734957D01*
X143958172Y-81780796D01*
X144034372Y-81740315D01*
X144297500Y-81500999D01*
X144560628Y-81740315D01*
X144635637Y-81780796D01*
X144709456Y-81734361D01*
X144751128Y-81657566D01*
X144703503Y-81584343D01*
X144443947Y-81358124D01*
X144703503Y-81131905D01*
X144751128Y-81058682D01*
X144708861Y-80980696D01*
X144635637Y-80934261D01*
X144560628Y-80975933D01*
X144297500Y-81215249D01*
X144034372Y-80975933D01*
X143958172Y-80934261D01*
X143886139Y-80981291D01*
X143843872Y-81058682D01*
X143891497Y-81131905D01*
X144151053Y-81358124D01*
X143891497Y-81584343D01*
X143843872Y-81657566D01*
X143645434Y-81657566D01*
X143645434Y-80480633D01*
X143855778Y-80480633D01*
X143862922Y-80540165D01*
X143887330Y-80571716D01*
X143917691Y-80582432D01*
X143958172Y-80584218D01*
X144557056Y-80584218D01*
X144557056Y-80811627D01*
X144567772Y-80872349D01*
X144593370Y-80892590D01*
X144642781Y-80898543D01*
X144692787Y-80892590D01*
X144720767Y-80868777D01*
X144729697Y-80812818D01*
X144729697Y-80150830D01*
X144718981Y-80090108D01*
X144693383Y-80069868D01*
X144643972Y-80063915D01*
X144593966Y-80069868D01*
X144565986Y-80093680D01*
X144557056Y-80149640D01*
X144557056Y-80378240D01*
X143959362Y-80378240D01*
X143918286Y-80380026D01*
X143887330Y-80390741D01*
X143862922Y-80421697D01*
X143855778Y-80480633D01*
X143645434Y-80480633D01*
X143645434Y-79621349D01*
X143645434Y-79422912D01*
X144297500Y-78988201D01*
X144949566Y-79422912D01*
G37*
G36*
X147057766Y-80499088D02*
G01*
X147030977Y-80570526D01*
X146951800Y-80605054D01*
X146873219Y-80570526D01*
X146847025Y-80501469D01*
X146847025Y-80349069D01*
X147057766Y-80349069D01*
X147057766Y-80499088D01*
G37*
G36*
X147489566Y-79422912D02*
G01*
X147489566Y-79621349D01*
X147489566Y-82223361D01*
X147489566Y-82421799D01*
X146185434Y-82421799D01*
X146185434Y-82223361D01*
X146185434Y-81583152D01*
X146383872Y-81583152D01*
X146425544Y-81660543D01*
X146498172Y-81706382D01*
X146574372Y-81665901D01*
X146837500Y-81426585D01*
X147100628Y-81665901D01*
X147175637Y-81706382D01*
X147249456Y-81659947D01*
X147291128Y-81583152D01*
X147243503Y-81509929D01*
X146983947Y-81283710D01*
X147243503Y-81057491D01*
X147291128Y-80984268D01*
X147248861Y-80906282D01*
X147175637Y-80859847D01*
X147100628Y-80901519D01*
X146837500Y-81140835D01*
X146574372Y-80901519D01*
X146498172Y-80859847D01*
X146426139Y-80906877D01*
X146383872Y-80984268D01*
X146431497Y-81057491D01*
X146691053Y-81283710D01*
X146431497Y-81509929D01*
X146383872Y-81583152D01*
X146185434Y-81583152D01*
X146185434Y-80688993D01*
X146388634Y-80688993D01*
X146405303Y-80750310D01*
X146439831Y-80805674D01*
X146481503Y-80824129D01*
X146543416Y-80806269D01*
X146619219Y-80772932D01*
X146681528Y-80745944D01*
X146730344Y-80725307D01*
X146793579Y-80774916D01*
X146867398Y-80804682D01*
X146951800Y-80814604D01*
X147025619Y-80806865D01*
X147092294Y-80783647D01*
X147148848Y-80748524D01*
X147192306Y-80705066D01*
X147234640Y-80638523D01*
X147260040Y-80570658D01*
X147268506Y-80501469D01*
X147268506Y-80244294D01*
X147260470Y-80182977D01*
X147236359Y-80151426D01*
X147204808Y-80140115D01*
X147163731Y-80138329D01*
X146502934Y-80138329D01*
X146441022Y-80145472D01*
X146407982Y-80177024D01*
X146396969Y-80243104D01*
X146405005Y-80304421D01*
X146429116Y-80335972D01*
X146460667Y-80347283D01*
X146501744Y-80349069D01*
X146636284Y-80349069D01*
X146636284Y-80499088D01*
X146638666Y-80535997D01*
X146528996Y-80582299D01*
X146457161Y-80613256D01*
X146423162Y-80628866D01*
X146399945Y-80650893D01*
X146388634Y-80688993D01*
X146185434Y-80688993D01*
X146185434Y-79621349D01*
X146185434Y-79422912D01*
X146837500Y-78988201D01*
X147489566Y-79422912D01*
G37*
G36*
X150025994Y-79421721D02*
G01*
X150025994Y-79620159D01*
X150025994Y-82222170D01*
X150025994Y-82420608D01*
X148729006Y-82420608D01*
X148729006Y-82222170D01*
X148729006Y-81726027D01*
X148940541Y-81726027D01*
X148948652Y-81813724D01*
X148972985Y-81894649D01*
X149013541Y-81968803D01*
X149070319Y-82036185D01*
X149138445Y-82092181D01*
X149213045Y-82132179D01*
X149294119Y-82156178D01*
X149381667Y-82164177D01*
X149468880Y-82155992D01*
X149548950Y-82131435D01*
X149621876Y-82090507D01*
X149687658Y-82033208D01*
X149742092Y-81965119D01*
X149780973Y-81891822D01*
X149804302Y-81813315D01*
X149812078Y-81729599D01*
X149813269Y-81509333D01*
X149805232Y-81448016D01*
X149781122Y-81416465D01*
X149750166Y-81405154D01*
X149708494Y-81403368D01*
X149046506Y-81403368D01*
X148970306Y-81417655D01*
X148947982Y-81449207D01*
X148940541Y-81508143D01*
X148940541Y-81726027D01*
X148729006Y-81726027D01*
X148729006Y-81202152D01*
X148939350Y-81202152D01*
X148947387Y-81263469D01*
X148971497Y-81295021D01*
X149002453Y-81306332D01*
X149044125Y-81308118D01*
X149704922Y-81308118D01*
X149765644Y-81300974D01*
X149790647Y-81286091D01*
X149804934Y-81255135D01*
X149810888Y-81200366D01*
X149803744Y-81143811D01*
X149775764Y-81109879D01*
X149709684Y-81098568D01*
X149307253Y-81098568D01*
X149350215Y-81065759D01*
X149406075Y-81023691D01*
X149474834Y-80972361D01*
X149556491Y-80911772D01*
X149651046Y-80841922D01*
X149758500Y-80762811D01*
X149789456Y-80735427D01*
X149804339Y-80706257D01*
X149810888Y-80649702D01*
X149803744Y-80591361D01*
X149775764Y-80557429D01*
X149709684Y-80546118D01*
X149045316Y-80546118D01*
X149003644Y-80547904D01*
X148971497Y-80559215D01*
X148947387Y-80590171D01*
X148939350Y-80649702D01*
X148947387Y-80711019D01*
X148971497Y-80742571D01*
X149002453Y-80753882D01*
X149044125Y-80755668D01*
X149435841Y-80755668D01*
X149392449Y-80788939D01*
X149335299Y-80832397D01*
X149264391Y-80886041D01*
X149179724Y-80949872D01*
X149081299Y-81023889D01*
X148969116Y-81108093D01*
X148946494Y-81137858D01*
X148939350Y-81202152D01*
X148729006Y-81202152D01*
X148729006Y-80117493D01*
X148927444Y-80117493D01*
X148933918Y-80211254D01*
X148953340Y-80292515D01*
X148985710Y-80361273D01*
X149031028Y-80417530D01*
X149103656Y-80450868D01*
X149365594Y-80450868D01*
X149432269Y-80438961D01*
X149465606Y-80360380D01*
X149465606Y-80150830D01*
X149454891Y-80093680D01*
X149428697Y-80074035D01*
X149378095Y-80068677D01*
X149328089Y-80073440D01*
X149300109Y-80093680D01*
X149290584Y-80146068D01*
X149290584Y-80240127D01*
X149160806Y-80240127D01*
X149144733Y-80184465D01*
X149139375Y-80122255D01*
X149157383Y-80036530D01*
X149211408Y-79960330D01*
X149262869Y-79920643D01*
X149321210Y-79896830D01*
X149386430Y-79888893D01*
X149479596Y-79906454D01*
X149553117Y-79959140D01*
X149600891Y-80034447D01*
X149616816Y-80119874D01*
X149608630Y-80184168D01*
X149584073Y-80238936D01*
X149551331Y-80311565D01*
X149567107Y-80351748D01*
X149614434Y-80396099D01*
X149681705Y-80423483D01*
X149734687Y-80391336D01*
X149786281Y-80306273D01*
X149817237Y-80217770D01*
X149827556Y-80125827D01*
X149819631Y-80038316D01*
X149795856Y-79956758D01*
X149756230Y-79881154D01*
X149700755Y-79811502D01*
X149633447Y-79753161D01*
X149558326Y-79711490D01*
X149475392Y-79686486D01*
X149384644Y-79678152D01*
X149293449Y-79686338D01*
X149209175Y-79710894D01*
X149131822Y-79751822D01*
X149061389Y-79809121D01*
X149002788Y-79877507D01*
X148960930Y-79951698D01*
X148935815Y-80031693D01*
X148927444Y-80117493D01*
X148729006Y-80117493D01*
X148729006Y-79620159D01*
X148729006Y-79421721D01*
X149377500Y-78989392D01*
X150025994Y-79421721D01*
G37*
G36*
X149601337Y-81728408D02*
G01*
X149585115Y-81813092D01*
X149536448Y-81886166D01*
X149463671Y-81936619D01*
X149375119Y-81953436D01*
X149286864Y-81936172D01*
X149214980Y-81884380D01*
X149167206Y-81811157D01*
X149151281Y-81729599D01*
X149151281Y-81614108D01*
X149601337Y-81614108D01*
X149601337Y-81728408D01*
G37*
G36*
X152881845Y-96908323D02*
G01*
X152881845Y-106591677D01*
X152881845Y-106790114D01*
X151293155Y-106790114D01*
X151293155Y-106591677D01*
X151293155Y-106486902D01*
X151760673Y-106486902D01*
X151768710Y-106547921D01*
X151792820Y-106578580D01*
X151824372Y-106589891D01*
X151865448Y-106591677D01*
X152073808Y-106591677D01*
X152175871Y-106584533D01*
X152256635Y-106563102D01*
X152316100Y-106527383D01*
X152371018Y-106455350D01*
X152389323Y-106367839D01*
X152366106Y-106284495D01*
X152323244Y-106225559D01*
X152285739Y-106194008D01*
X152343286Y-106147441D01*
X152377814Y-106087116D01*
X152389323Y-106013033D01*
X152368190Y-105940107D01*
X152304789Y-105878492D01*
X152366702Y-105858252D01*
X152388133Y-105771336D01*
X152380096Y-105716865D01*
X152355986Y-105686802D01*
X152325625Y-105675491D01*
X152284548Y-105673705D01*
X151865448Y-105673705D01*
X151823777Y-105675491D01*
X151792820Y-105685611D01*
X151768710Y-105716865D01*
X151760673Y-105777289D01*
X151768412Y-105838011D01*
X151791630Y-105870158D01*
X151823181Y-105881469D01*
X151864258Y-105883255D01*
X152074998Y-105883255D01*
X152152687Y-105901114D01*
X152178583Y-105954692D01*
X152152687Y-106010056D01*
X152074998Y-106028511D01*
X151866639Y-106028511D01*
X151825562Y-106030297D01*
X151794011Y-106040417D01*
X151769008Y-106071671D01*
X151760673Y-106132095D01*
X151768710Y-106193413D01*
X151792820Y-106224964D01*
X151823777Y-106236275D01*
X151865448Y-106238061D01*
X152073808Y-106238061D01*
X152151198Y-106252944D01*
X152178583Y-106309498D01*
X152152687Y-106364863D01*
X152074998Y-106383317D01*
X151866639Y-106383317D01*
X151825562Y-106385103D01*
X151794011Y-106395223D01*
X151769008Y-106426477D01*
X151760673Y-106486902D01*
X151293155Y-106486902D01*
X151293155Y-105268892D01*
X151749958Y-105268892D01*
X151759036Y-105346134D01*
X151786272Y-105420697D01*
X151832706Y-105488414D01*
X151899381Y-105545117D01*
X151981683Y-105583515D01*
X152074998Y-105596314D01*
X152164626Y-105585334D01*
X152243009Y-105552393D01*
X152310147Y-105497492D01*
X152361410Y-105428304D01*
X152392168Y-105352501D01*
X152402420Y-105270083D01*
X152392102Y-105187533D01*
X152361145Y-105111333D01*
X152309552Y-105041483D01*
X152242083Y-104985920D01*
X152163502Y-104952583D01*
X152073808Y-104941470D01*
X151983469Y-104954121D01*
X151902953Y-104992072D01*
X151836576Y-105048478D01*
X151788653Y-105116492D01*
X151759632Y-105191502D01*
X151749958Y-105268892D01*
X151293155Y-105268892D01*
X151293155Y-104649767D01*
X151754720Y-104649767D01*
X151766627Y-104740850D01*
X151802345Y-104816455D01*
X151843124Y-104865568D01*
X151886880Y-104881939D01*
X151948792Y-104854555D01*
X151996120Y-104807227D01*
X152011895Y-104767639D01*
X151989869Y-104714656D01*
X151967842Y-104644409D01*
X151995822Y-104573567D01*
X152074403Y-104540230D01*
X152153580Y-104574758D01*
X152182155Y-104649172D01*
X152161914Y-104710489D01*
X152135720Y-104774783D01*
X152152091Y-104814966D01*
X152201205Y-104856936D01*
X152269666Y-104881939D01*
X152323839Y-104850983D01*
X152346461Y-104817645D01*
X152358367Y-104798595D01*
X152382775Y-104735492D01*
X152395277Y-104647386D01*
X152386545Y-104574229D01*
X152360352Y-104503982D01*
X152316695Y-104436645D01*
X152272493Y-104392295D01*
X152216087Y-104356873D01*
X152150008Y-104333656D01*
X152076784Y-104325917D01*
X152003263Y-104333656D01*
X151936291Y-104356873D01*
X151878992Y-104392295D01*
X151834492Y-104436645D01*
X151790174Y-104505834D01*
X151763584Y-104576874D01*
X151754720Y-104649767D01*
X151293155Y-104649767D01*
X151293155Y-104162206D01*
X151759483Y-104162206D01*
X151768115Y-104220696D01*
X151794011Y-104252098D01*
X151826753Y-104264600D01*
X151869020Y-104266386D01*
X151873783Y-104266386D01*
X151957127Y-104246145D01*
X151975879Y-104207599D01*
X151982130Y-104146728D01*
X151973200Y-104088239D01*
X151946411Y-104056836D01*
X151914264Y-104045525D01*
X151872592Y-104043739D01*
X151867830Y-104043739D01*
X151782105Y-104066956D01*
X151765138Y-104102377D01*
X151759483Y-104162206D01*
X151293155Y-104162206D01*
X151293155Y-103887767D01*
X151753530Y-103887767D01*
X151803536Y-103959205D01*
X151880927Y-103996114D01*
X151905930Y-103988375D01*
X151944030Y-103950870D01*
X152074998Y-103792517D01*
X152175011Y-103910389D01*
X152239305Y-103954442D01*
X152314909Y-103915747D01*
X152363130Y-103847286D01*
X152330983Y-103775848D01*
X152321458Y-103761561D01*
X152260736Y-103696672D01*
X152200014Y-103631783D01*
X152577442Y-103631783D01*
X152610780Y-103630592D01*
X152663167Y-103609161D01*
X152683408Y-103528198D01*
X152675371Y-103466881D01*
X152651261Y-103435330D01*
X152619709Y-103425209D01*
X152578633Y-103423423D01*
X151865448Y-103423423D01*
X151824372Y-103425209D01*
X151792820Y-103435330D01*
X151768710Y-103466584D01*
X151760673Y-103527008D01*
X151768412Y-103588027D01*
X151791630Y-103618686D01*
X151823181Y-103629997D01*
X151864258Y-103631783D01*
X151955936Y-103631783D01*
X151923938Y-103668395D01*
X151875569Y-103718698D01*
X151827497Y-103768407D01*
X151796392Y-103803233D01*
X151788058Y-103815139D01*
X151753530Y-103887767D01*
X151293155Y-103887767D01*
X151293155Y-103223398D01*
X151760673Y-103223398D01*
X151768412Y-103284418D01*
X151791630Y-103315077D01*
X151823181Y-103326388D01*
X151864258Y-103328173D01*
X152280977Y-103328173D01*
X152315505Y-103326983D01*
X152366702Y-103305552D01*
X152386942Y-103224589D01*
X152386867Y-103223994D01*
X152472667Y-103223994D01*
X152479811Y-103284120D01*
X152504219Y-103315672D01*
X152535175Y-103326388D01*
X152576252Y-103328173D01*
X152617328Y-103326388D01*
X152648880Y-103315077D01*
X152672990Y-103284716D01*
X152681027Y-103224589D01*
X152672990Y-103163272D01*
X152648880Y-103131720D01*
X152618519Y-103121600D01*
X152577442Y-103119814D01*
X152536366Y-103121600D01*
X152504814Y-103132316D01*
X152479811Y-103163867D01*
X152472667Y-103223994D01*
X152386867Y-103223994D01*
X152379203Y-103163272D01*
X152355986Y-103131720D01*
X152324434Y-103121600D01*
X152283358Y-103119814D01*
X151865448Y-103119814D01*
X151823777Y-103121600D01*
X151792820Y-103131720D01*
X151768710Y-103162974D01*
X151760673Y-103223398D01*
X151293155Y-103223398D01*
X151293155Y-102919789D01*
X151761864Y-102919789D01*
X151769901Y-102981106D01*
X151794011Y-103012658D01*
X151824372Y-103022778D01*
X151865448Y-103024564D01*
X152074998Y-103024564D01*
X152157879Y-103015767D01*
X152231896Y-102989374D01*
X152297050Y-102945388D01*
X152347652Y-102888171D01*
X152378012Y-102822092D01*
X152388133Y-102747148D01*
X152360748Y-102657852D01*
X152335745Y-102625705D01*
X152311933Y-102604273D01*
X152360748Y-102592367D01*
X152381287Y-102561709D01*
X152388133Y-102503070D01*
X152380691Y-102442646D01*
X152358367Y-102411392D01*
X152328006Y-102400081D01*
X152288120Y-102398295D01*
X151866639Y-102398295D01*
X151825562Y-102400081D01*
X151794011Y-102410202D01*
X151769901Y-102441455D01*
X151761864Y-102501880D01*
X151769901Y-102562899D01*
X151794011Y-102593558D01*
X151824372Y-102604869D01*
X151865448Y-102606655D01*
X152076189Y-102606655D01*
X152151198Y-102635825D01*
X152179773Y-102712025D01*
X152152389Y-102787034D01*
X152076189Y-102815014D01*
X151866639Y-102815014D01*
X151805917Y-102822158D01*
X151772877Y-102853114D01*
X151761864Y-102919789D01*
X151293155Y-102919789D01*
X151293155Y-101994673D01*
X151491592Y-101994673D01*
X151500853Y-102069551D01*
X151528634Y-102140194D01*
X151574936Y-102206605D01*
X151636716Y-102260183D01*
X151710932Y-102292330D01*
X151797583Y-102303045D01*
X152288120Y-102303045D01*
X152329197Y-102301259D01*
X152360153Y-102290544D01*
X152384561Y-102260183D01*
X152391705Y-102201842D01*
X152391416Y-102199461D01*
X152475048Y-102199461D01*
X152481597Y-102258397D01*
X152504814Y-102289948D01*
X152534580Y-102301259D01*
X152573870Y-102303045D01*
X152581014Y-102303045D01*
X152620305Y-102301259D01*
X152648880Y-102291139D01*
X152672097Y-102259885D01*
X152679836Y-102201842D01*
X152672097Y-102141418D01*
X152648880Y-102110164D01*
X152619114Y-102100044D01*
X152578633Y-102098258D01*
X152537556Y-102100044D01*
X152506600Y-102110759D01*
X152482192Y-102141120D01*
X152475048Y-102199461D01*
X152391416Y-102199461D01*
X152384561Y-102142906D01*
X152357772Y-102109569D01*
X152296455Y-102098258D01*
X151805917Y-102098258D01*
X151753530Y-102089923D01*
X151720192Y-102064920D01*
X151696380Y-101988125D01*
X151678520Y-101919069D01*
X151647564Y-101899870D01*
X151590414Y-101893470D01*
X151533562Y-101901209D01*
X151503498Y-101924427D01*
X151493378Y-101954192D01*
X151491592Y-101994673D01*
X151293155Y-101994673D01*
X151293155Y-101736308D01*
X151745195Y-101736308D01*
X151751818Y-101847259D01*
X151771687Y-101926510D01*
X151804801Y-101974061D01*
X151851161Y-101989911D01*
X151905930Y-101974433D01*
X151959508Y-101908948D01*
X151946411Y-101861323D01*
X151941648Y-101848227D01*
X151930933Y-101801495D01*
X151927361Y-101739880D01*
X151949983Y-101661298D01*
X152005942Y-101622008D01*
X152005942Y-101904186D01*
X152041066Y-101984553D01*
X152085714Y-102011789D01*
X152149412Y-102020867D01*
X152219808Y-102010747D01*
X152284548Y-101980386D01*
X152335596Y-101936184D01*
X152372059Y-101880969D01*
X152393937Y-101814740D01*
X152401230Y-101737498D01*
X152391242Y-101646019D01*
X152361278Y-101565255D01*
X152311337Y-101495206D01*
X152244729Y-101441297D01*
X152164758Y-101408952D01*
X152071427Y-101398170D01*
X151994565Y-101406505D01*
X151922731Y-101431508D01*
X151855923Y-101473180D01*
X151810829Y-101518870D01*
X151775556Y-101579741D01*
X151752786Y-101653113D01*
X151745195Y-101736308D01*
X151293155Y-101736308D01*
X151293155Y-101274345D01*
X151760078Y-101274345D01*
X151772580Y-101326733D01*
X151803834Y-101344592D01*
X151864258Y-101350545D01*
X151948792Y-101326733D01*
X151958912Y-101306492D01*
X151960698Y-101273750D01*
X151972009Y-101242198D01*
X152026183Y-101235055D01*
X152577442Y-101235055D01*
X152619114Y-101233269D01*
X152651261Y-101221958D01*
X152675371Y-101190406D01*
X152683408Y-101131470D01*
X152675371Y-101070153D01*
X152651261Y-101038602D01*
X152619709Y-101028481D01*
X152578633Y-101026695D01*
X152011895Y-101026695D01*
X151901763Y-101035030D01*
X151826158Y-101060033D01*
X151786570Y-101103491D01*
X151765436Y-101179095D01*
X151760078Y-101274345D01*
X151293155Y-101274345D01*
X151293155Y-100520680D01*
X151746386Y-100520680D01*
X151754683Y-100607595D01*
X151779575Y-100687367D01*
X151821060Y-100759995D01*
X151879141Y-100825480D01*
X151949015Y-100879653D01*
X152025885Y-100918348D01*
X152109750Y-100941566D01*
X152200609Y-100949305D01*
X152291134Y-100941194D01*
X152373994Y-100916860D01*
X152449190Y-100876304D01*
X152516720Y-100819527D01*
X152572456Y-100751735D01*
X152612268Y-100678140D01*
X152636155Y-100598740D01*
X152644117Y-100513536D01*
X152635783Y-100432573D01*
X152610780Y-100353992D01*
X152571191Y-100281066D01*
X152519102Y-100217070D01*
X152453766Y-100163492D01*
X152374441Y-100121820D01*
X152284995Y-100095031D01*
X152189298Y-100086102D01*
X152101936Y-100094027D01*
X152020825Y-100117802D01*
X151945964Y-100157427D01*
X151877355Y-100212903D01*
X151820056Y-100279690D01*
X151779128Y-100353248D01*
X151754571Y-100433578D01*
X151746386Y-100520680D01*
X151293155Y-100520680D01*
X151293155Y-99903936D01*
X151761864Y-99903936D01*
X151769901Y-99965253D01*
X151794011Y-99996805D01*
X151824372Y-100006925D01*
X151865448Y-100008711D01*
X152074998Y-100008711D01*
X152157879Y-99999914D01*
X152231896Y-99973521D01*
X152297050Y-99929534D01*
X152347652Y-99872318D01*
X152378012Y-99806239D01*
X152388133Y-99731295D01*
X152360748Y-99641998D01*
X152335745Y-99609852D01*
X152311933Y-99588420D01*
X152360748Y-99576514D01*
X152381287Y-99545855D01*
X152388133Y-99487217D01*
X152380691Y-99426793D01*
X152358367Y-99395539D01*
X152328006Y-99384228D01*
X152288120Y-99382442D01*
X151866639Y-99382442D01*
X151825562Y-99384228D01*
X151794011Y-99394348D01*
X151769901Y-99425602D01*
X151761864Y-99486027D01*
X151769901Y-99547046D01*
X151794011Y-99577705D01*
X151824372Y-99589016D01*
X151865448Y-99590802D01*
X152076189Y-99590802D01*
X152151198Y-99619972D01*
X152179773Y-99696172D01*
X152152389Y-99771181D01*
X152076189Y-99799161D01*
X151866639Y-99799161D01*
X151805917Y-99806305D01*
X151772877Y-99837261D01*
X151761864Y-99903936D01*
X151293155Y-99903936D01*
X151293155Y-99182417D01*
X151760673Y-99182417D01*
X151768412Y-99243437D01*
X151791630Y-99274095D01*
X151823181Y-99285406D01*
X151864258Y-99287192D01*
X152280977Y-99287192D01*
X152315505Y-99286002D01*
X152366702Y-99264570D01*
X152386942Y-99183608D01*
X152386867Y-99183013D01*
X152472667Y-99183013D01*
X152479811Y-99243139D01*
X152504219Y-99274691D01*
X152535175Y-99285406D01*
X152576252Y-99287192D01*
X152617328Y-99285406D01*
X152648880Y-99274095D01*
X152672990Y-99243734D01*
X152681027Y-99183608D01*
X152672990Y-99122291D01*
X152648880Y-99090739D01*
X152618519Y-99080619D01*
X152577442Y-99078833D01*
X152536366Y-99080619D01*
X152504814Y-99091334D01*
X152479811Y-99122886D01*
X152472667Y-99183013D01*
X152386867Y-99183013D01*
X152379203Y-99122291D01*
X152355986Y-99090739D01*
X152324434Y-99080619D01*
X152283358Y-99078833D01*
X151865448Y-99078833D01*
X151823777Y-99080619D01*
X151792820Y-99090739D01*
X151768710Y-99121993D01*
X151760673Y-99182417D01*
X151293155Y-99182417D01*
X151293155Y-98477567D01*
X151761864Y-98477567D01*
X151776449Y-98549600D01*
X151820205Y-98579961D01*
X151777342Y-98637409D01*
X151763055Y-98724027D01*
X151773440Y-98790040D01*
X151804594Y-98853143D01*
X151856519Y-98913336D01*
X151922268Y-98962284D01*
X151994896Y-98991653D01*
X152074403Y-99001442D01*
X152153977Y-98991586D01*
X152226803Y-98962019D01*
X152292883Y-98912741D01*
X152345138Y-98851688D01*
X152376491Y-98786799D01*
X152386942Y-98718073D01*
X152372357Y-98640088D01*
X152328602Y-98582342D01*
X152576252Y-98582342D01*
X152617328Y-98580556D01*
X152648880Y-98569245D01*
X152672990Y-98538884D01*
X152681027Y-98478758D01*
X152672990Y-98417441D01*
X152648880Y-98385889D01*
X152618519Y-98375769D01*
X152577442Y-98373983D01*
X151866639Y-98373983D01*
X151825562Y-98375769D01*
X151794011Y-98385889D01*
X151769901Y-98417143D01*
X151761864Y-98477567D01*
X151293155Y-98477567D01*
X151293155Y-97969170D01*
X151749958Y-97969170D01*
X151759036Y-98046412D01*
X151786272Y-98120975D01*
X151832706Y-98188692D01*
X151899381Y-98245395D01*
X151981683Y-98283793D01*
X152074998Y-98296592D01*
X152164626Y-98285612D01*
X152243009Y-98252671D01*
X152310147Y-98197770D01*
X152361410Y-98128582D01*
X152392168Y-98052779D01*
X152402420Y-97970361D01*
X152392102Y-97887811D01*
X152361145Y-97811611D01*
X152309552Y-97741761D01*
X152242083Y-97686198D01*
X152163502Y-97652861D01*
X152073808Y-97641748D01*
X151983469Y-97654399D01*
X151902953Y-97692350D01*
X151836576Y-97748756D01*
X151788653Y-97816770D01*
X151759632Y-97891780D01*
X151749958Y-97969170D01*
X151293155Y-97969170D01*
X151293155Y-97458988D01*
X151753530Y-97458988D01*
X151770198Y-97520305D01*
X151804727Y-97575669D01*
X151846398Y-97594123D01*
X151908311Y-97576264D01*
X151984114Y-97542927D01*
X152046423Y-97515939D01*
X152095239Y-97495302D01*
X152158474Y-97544911D01*
X152232293Y-97574677D01*
X152316695Y-97584598D01*
X152390514Y-97576859D01*
X152457189Y-97553642D01*
X152513744Y-97518519D01*
X152557202Y-97475061D01*
X152599535Y-97408518D01*
X152624935Y-97340653D01*
X152633402Y-97271464D01*
X152633402Y-97014289D01*
X152625365Y-96952972D01*
X152601255Y-96921420D01*
X152569703Y-96910109D01*
X152528627Y-96908323D01*
X151867830Y-96908323D01*
X151805917Y-96915467D01*
X151772877Y-96947019D01*
X151761864Y-97013098D01*
X151769901Y-97074416D01*
X151794011Y-97105967D01*
X151825562Y-97117278D01*
X151866639Y-97119064D01*
X152001180Y-97119064D01*
X152001180Y-97269083D01*
X152003561Y-97305992D01*
X151893891Y-97352294D01*
X151822057Y-97383251D01*
X151788058Y-97398861D01*
X151764841Y-97420888D01*
X151753530Y-97458988D01*
X151293155Y-97458988D01*
X151293155Y-96908323D01*
X151293155Y-96709886D01*
X152881845Y-96709886D01*
X152881845Y-96908323D01*
G37*
G36*
X152261464Y-100304383D02*
G01*
X152318812Y-100327005D01*
X152367297Y-100364708D01*
X152416857Y-100436741D01*
X152433377Y-100517108D01*
X152417005Y-100597624D01*
X152367892Y-100670103D01*
X152319473Y-100708137D01*
X152261530Y-100730957D01*
X152194061Y-100738564D01*
X152126724Y-100731023D01*
X152069178Y-100708402D01*
X152021420Y-100670698D01*
X151973200Y-100598666D01*
X151957127Y-100518298D01*
X151973646Y-100437782D01*
X152023206Y-100365303D01*
X152071691Y-100327269D01*
X152129040Y-100304449D01*
X152195252Y-100296842D01*
X152261464Y-100304383D01*
G37*
G36*
X152422661Y-97269083D02*
G01*
X152395872Y-97340520D01*
X152316695Y-97375048D01*
X152238114Y-97340520D01*
X152211920Y-97271464D01*
X152211920Y-97119064D01*
X152422661Y-97119064D01*
X152422661Y-97269083D01*
G37*
G36*
X152126344Y-97861716D02*
G01*
X152163105Y-97889398D01*
X152192870Y-97969170D01*
X152164295Y-98048942D01*
X152128279Y-98076624D01*
X152077380Y-98085852D01*
X152026183Y-98076029D01*
X151989273Y-98046561D01*
X151959508Y-97967980D01*
X151988678Y-97890589D01*
X152024992Y-97862014D01*
X152075594Y-97852489D01*
X152126344Y-97861716D01*
G37*
G36*
X152126344Y-105161438D02*
G01*
X152163105Y-105189120D01*
X152192870Y-105268892D01*
X152164295Y-105348664D01*
X152128279Y-105376346D01*
X152077380Y-105385573D01*
X152026183Y-105375751D01*
X151989273Y-105346283D01*
X151959508Y-105267702D01*
X151988678Y-105190311D01*
X152024992Y-105161736D01*
X152075594Y-105152211D01*
X152126344Y-105161438D01*
G37*
G36*
X152145245Y-98612703D02*
G01*
X152178583Y-98688308D01*
X152145841Y-98764508D01*
X152073808Y-98793083D01*
X152002370Y-98762127D01*
X151970223Y-98687117D01*
X152002370Y-98613894D01*
X152073212Y-98584723D01*
X152145245Y-98612703D01*
G37*
G36*
X152181559Y-101657727D02*
G01*
X152213111Y-101734522D01*
X152196442Y-101794053D01*
X152152389Y-101814889D01*
X152114289Y-101769645D01*
X152114289Y-101619627D01*
X152181559Y-101657727D01*
G37*
D10*
X145554758Y-98252500D02*
X145080242Y-98252500D01*
X145554758Y-97207500D02*
X145080242Y-97207500D01*
X144465000Y-84337258D02*
X144465000Y-83862742D01*
X145510000Y-84337258D02*
X145510000Y-83862742D01*
X143346920Y-89690000D02*
X143628080Y-89690000D01*
X143346920Y-90710000D02*
X143628080Y-90710000D01*
X147010000Y-83862742D02*
X147010000Y-84337258D01*
X145965000Y-83862742D02*
X145965000Y-84337258D01*
X145567500Y-101125000D02*
X146202500Y-101125000D01*
X145567500Y-101760000D02*
X145567500Y-101125000D01*
X143587500Y-91723116D02*
X143905698Y-92041314D01*
X145546186Y-94318198D02*
X145864384Y-94000000D01*
X143269302Y-92041314D02*
X143587500Y-91723116D01*
X143905698Y-95958686D02*
X143587500Y-96276884D01*
X141628814Y-93681802D02*
X141310616Y-94000000D01*
X143587500Y-96276884D02*
X143269302Y-95958686D01*
X141310616Y-94000000D02*
X141628814Y-94318198D01*
X150050242Y-95477500D02*
X150524758Y-95477500D01*
X150050242Y-96522500D02*
X150524758Y-96522500D01*
X142510000Y-80862742D02*
X142510000Y-81337258D01*
X141465000Y-80862742D02*
X141465000Y-81337258D01*
X142510000Y-83862742D02*
X142510000Y-84337258D01*
X141465000Y-83862742D02*
X141465000Y-84337258D01*
X148927500Y-91800000D02*
X148927500Y-93475000D01*
X148927500Y-91800000D02*
X148927500Y-91150000D01*
X152047500Y-91800000D02*
X152047500Y-92450000D01*
X152047500Y-91800000D02*
X152047500Y-91150000D01*
X147477500Y-84240580D02*
X147477500Y-83959420D01*
X148497500Y-84240580D02*
X148497500Y-83959420D01*
X143997500Y-86959420D02*
X143997500Y-87240580D01*
X142977500Y-86959420D02*
X142977500Y-87240580D01*
X151477500Y-78940580D02*
X151477500Y-78659420D01*
X152497500Y-78940580D02*
X152497500Y-78659420D01*
X147010000Y-86862742D02*
X147010000Y-87337258D01*
X145965000Y-86862742D02*
X145965000Y-87337258D01*
X150146920Y-88590000D02*
X150428080Y-88590000D01*
X150146920Y-89610000D02*
X150428080Y-89610000D01*
X146997500Y-89959420D02*
X146997500Y-90240580D01*
X145977500Y-89959420D02*
X145977500Y-90240580D01*
X147477500Y-87240580D02*
X147477500Y-86959420D01*
X148497500Y-87240580D02*
X148497500Y-86959420D01*
X143997500Y-83959420D02*
X143997500Y-84240580D01*
X142977500Y-83959420D02*
X142977500Y-84240580D01*
X148510000Y-89862742D02*
X148510000Y-90337258D01*
X147465000Y-89862742D02*
X147465000Y-90337258D01*
X148510000Y-92862742D02*
X148510000Y-93337258D01*
X147465000Y-92862742D02*
X147465000Y-93337258D01*
X150050242Y-93977500D02*
X150524758Y-93977500D01*
X150050242Y-95022500D02*
X150524758Y-95022500D01*
X142080242Y-97207500D02*
X142554758Y-97207500D01*
X142080242Y-98252500D02*
X142554758Y-98252500D01*
X144465000Y-87337258D02*
X144465000Y-86862742D01*
X145510000Y-87337258D02*
X145510000Y-86862742D01*
%LPC*%
D11*
X144282500Y-77530000D03*
X146822500Y-77530000D03*
X149362500Y-77530000D03*
D12*
X146142500Y-97730000D03*
X144492500Y-97730000D03*
D13*
X144987500Y-84925000D03*
X144987500Y-83275000D03*
D14*
X142712500Y-90200000D03*
X144262500Y-90200000D03*
D15*
X146487500Y-83275000D03*
X146487500Y-84925000D03*
D16*
X149377500Y-100490000D03*
D17*
X146837500Y-100490000D03*
D16*
X144297500Y-100490000D03*
X149377500Y-103665000D03*
X144297500Y-103665000D03*
D17*
X147853500Y-105570000D03*
X145821500Y-105570000D03*
D18*
X146202500Y-101760000D03*
X147472500Y-101760000D03*
X146202500Y-103030000D03*
X147472500Y-103030000D03*
X146202500Y-104300000D03*
X147472500Y-104300000D03*
D19*
X145187329Y-93531542D03*
X144904486Y-93248699D03*
X144621644Y-92965856D03*
X144338801Y-92683014D03*
X144055958Y-92400171D03*
D20*
X143119042Y-92400171D03*
X142836199Y-92683014D03*
X142553356Y-92965856D03*
X142270514Y-93248699D03*
X141987671Y-93531542D03*
D19*
X141987671Y-94468458D03*
X142270514Y-94751301D03*
X142553356Y-95034144D03*
X142836199Y-95316986D03*
X143119042Y-95599829D03*
D20*
X144055958Y-95599829D03*
X144338801Y-95316986D03*
X144621644Y-95034144D03*
X144904486Y-94751301D03*
X145187329Y-94468458D03*
D21*
X143587500Y-94000000D03*
D22*
X149462500Y-96000000D03*
X151112500Y-96000000D03*
D15*
X141987500Y-80275000D03*
X141987500Y-81925000D03*
D23*
X139217500Y-77530000D03*
D24*
X139217500Y-80070000D03*
X139217500Y-82610000D03*
X139217500Y-85150000D03*
X139217500Y-87690000D03*
X139217500Y-90230000D03*
X139217500Y-92770000D03*
X139217500Y-95310000D03*
X139217500Y-97850000D03*
X139217500Y-100390000D03*
X139217500Y-102930000D03*
X139217500Y-105470000D03*
X154457500Y-105470000D03*
X154457500Y-102930000D03*
X154457500Y-100390000D03*
X154457500Y-97850000D03*
X154457500Y-95310000D03*
X154457500Y-92770000D03*
X154457500Y-90230000D03*
X154457500Y-87690000D03*
X154457500Y-85150000D03*
X154457500Y-82610000D03*
X154457500Y-80070000D03*
X154457500Y-77530000D03*
D15*
X141987500Y-83275000D03*
X141987500Y-84925000D03*
D25*
X149537500Y-92737500D03*
X151437500Y-92737500D03*
X150487500Y-90862500D03*
D26*
X147987500Y-84875000D03*
X147987500Y-83325000D03*
D27*
X143487500Y-86325000D03*
X143487500Y-87875000D03*
D26*
X151987500Y-79575000D03*
X151987500Y-78025000D03*
D15*
X146487500Y-86275000D03*
X146487500Y-87925000D03*
D14*
X149512500Y-89100000D03*
X151062500Y-89100000D03*
D27*
X146487500Y-89325000D03*
X146487500Y-90875000D03*
D26*
X147987500Y-87875000D03*
X147987500Y-86325000D03*
D27*
X143487500Y-83325000D03*
X143487500Y-84875000D03*
D15*
X147987500Y-89275000D03*
X147987500Y-90925000D03*
X147987500Y-92275000D03*
X147987500Y-93925000D03*
D22*
X149462500Y-94500000D03*
X151112500Y-94500000D03*
X141492500Y-97730000D03*
X143142500Y-97730000D03*
D13*
X144987500Y-87925000D03*
X144987500Y-86275000D03*
%LPD*%
M02*
