M48
;DRILL file {KiCad (5.0.0)} date 07/26/18 01:09:02
;FORMAT={-:-/ absolute / inch / decimal}
FMAT,2
INCH,TZ
T1C0.0130
T2C0.0150
T3C0.0200
T4C0.0250
T5C0.0315
T6C0.0394
%
G90
G05
M72
T1
X5.0125Y-3.125
X5.025Y-3.0875
X5.1125Y-3.1125
T2
X5.375Y-2.825
X5.4Y-3.1
T3
X5.05Y-2.825
X5.075Y-2.4375
X5.125Y-3.075
X5.1625Y-2.4375
X5.1625Y-2.65
X5.1625Y-3.125
X5.1875Y-3.0125
X5.25Y-2.75
X5.25Y-3.25
X5.25Y-3.325
X5.3Y-3.0125
X5.3256Y-3.1506
X5.3625Y-3.125
X5.375Y-2.425
X5.4375Y-3.2625
X5.5Y-2.5
T4
X5.3Y-2.575
X5.3Y-2.625
X5.3Y-2.675
X5.35Y-2.575
X5.35Y-2.625
X5.35Y-2.675
X5.4Y-2.575
X5.4Y-2.625
X5.4Y-2.675
T5
X4.95Y-2.45
X4.95Y-2.55
X4.95Y-2.65
X4.95Y-2.75
X4.95Y-2.85
X4.95Y-2.95
X4.95Y-3.05
X4.95Y-3.15
X4.95Y-3.25
X4.95Y-3.35
X4.95Y-3.45
X4.95Y-3.55
X5.55Y-2.45
X5.55Y-2.55
X5.55Y-2.65
X5.55Y-2.75
X5.55Y-2.85
X5.55Y-2.95
X5.55Y-3.05
X5.55Y-3.15
X5.55Y-3.25
X5.55Y-3.35
X5.55Y-3.45
X5.55Y-3.55
T6
X5.15Y-3.45
X5.15Y-3.55
X5.25Y-3.45
X5.25Y-3.55
X5.35Y-3.45
X5.35Y-3.55
T0
M30
