M48
; DRILL file {KiCad 7.0.9} date Thu Nov 23 02:36:09 2023
; FORMAT={-:-/ absolute / metric / decimal}
; #@! TF.CreationDate,2023-11-23T02:36:09+01:00
; #@! TF.GenerationSoftware,Kicad,Pcbnew,7.0.9
; #@! TF.FileFunction,Plated,1,4,PTH
FMAT,2
METRIC
; #@! TA.AperFunction,Plated,PTH,ViaDrill
T1C0.300
; #@! TA.AperFunction,Plated,PTH,ComponentDrill
T2C0.800
; #@! TA.AperFunction,Plated,PTH,ComponentDrill
T3C1.000
%
G90
G05
T1
X140.588Y-97.3
X140.588Y-98.1
X141.088Y-80.3
X141.088Y-81.9
X141.114Y-83.3
X142.487Y-89.3
X142.688Y-85.6
X142.787Y-84.2
X143.118Y-96.63
X143.987Y-96.8
X144.088Y-87.2
X144.287Y-89.3
X144.787Y-91.8
X145.387Y-91.3
X145.4Y-99.0
X145.618Y-93.93
X145.919Y-91.832
X145.938Y-99.58
X146.188Y-95.1
X146.487Y-93.7
X146.688Y-94.5
X146.838Y-104.93
X147.0Y-97.73
X147.001Y-98.499
X147.99Y-94.903
X148.787Y-84.1
X148.787Y-87.1
X149.588Y-88.1
X150.387Y-88.4
X151.487Y-91.5
X151.987Y-94.5
T2
X139.218Y-77.53
X139.218Y-80.07
X139.218Y-82.61
X139.218Y-85.15
X139.218Y-87.69
X139.218Y-90.23
X139.218Y-92.77
X139.218Y-95.31
X139.218Y-97.85
X139.218Y-100.39
X139.218Y-102.93
X139.218Y-105.47
X154.457Y-77.53
X154.457Y-80.07
X154.457Y-82.61
X154.457Y-85.15
X154.457Y-87.69
X154.457Y-90.23
X154.457Y-92.77
X154.457Y-95.31
X154.457Y-97.85
X154.457Y-100.39
X154.457Y-102.93
X154.457Y-105.47
T3
X144.282Y-77.53
X146.822Y-77.53
X149.362Y-77.53
T0
M30
