%TF.GenerationSoftware,KiCad,Pcbnew,7.0.9*%
%TF.CreationDate,2023-11-23T02:36:10+01:00*%
%TF.ProjectId,bosch_kf4_pll,626f7363-685f-46b6-9634-5f706c6c2e6b,2*%
%TF.SameCoordinates,Original*%
%TF.FileFunction,Drillmap*%
%TF.FilePolarity,Positive*%
%FSLAX45Y45*%
G04 Gerber Fmt 4.5, Leading zero omitted, Abs format (unit mm)*
G04 Created by KiCad (PCBNEW 7.0.9) date 2023-11-23 02:36:10*
%MOMM*%
%LPD*%
G01*
G04 APERTURE LIST*
%ADD10C,0.150000*%
%ADD11C,0.200000*%
%ADD12C,0.100000*%
G04 APERTURE END LIST*
D10*
X13758750Y-7600000D02*
X15608750Y-7600000D01*
X13758750Y-10700000D02*
X13758750Y-7600000D01*
X15608750Y-7600000D02*
X15608750Y-10700000D01*
X15608750Y-10700000D02*
X13758750Y-10700000D01*
D11*
D12*
X14043750Y-9715000D02*
X14073750Y-9745000D01*
X14073750Y-9715000D02*
X14043750Y-9745000D01*
X14043750Y-9795000D02*
X14073750Y-9825000D01*
X14073750Y-9795000D02*
X14043750Y-9825000D01*
X14093750Y-8015000D02*
X14123750Y-8045000D01*
X14123750Y-8015000D02*
X14093750Y-8045000D01*
X14093750Y-8175000D02*
X14123750Y-8205000D01*
X14123750Y-8175000D02*
X14093750Y-8205000D01*
X14096440Y-8315000D02*
X14126440Y-8345000D01*
X14126440Y-8315000D02*
X14096440Y-8345000D01*
X14233750Y-8915000D02*
X14263750Y-8945000D01*
X14263750Y-8915000D02*
X14233750Y-8945000D01*
X14253750Y-8545000D02*
X14283750Y-8575000D01*
X14283750Y-8545000D02*
X14253750Y-8575000D01*
X14263750Y-8405000D02*
X14293750Y-8435000D01*
X14293750Y-8405000D02*
X14263750Y-8435000D01*
X14296750Y-9648000D02*
X14326750Y-9678000D01*
X14326750Y-9648000D02*
X14296750Y-9678000D01*
X14383750Y-9665000D02*
X14413750Y-9695000D01*
X14413750Y-9665000D02*
X14383750Y-9695000D01*
X14393750Y-8705000D02*
X14423750Y-8735000D01*
X14423750Y-8705000D02*
X14393750Y-8735000D01*
X14413750Y-8915000D02*
X14443750Y-8945000D01*
X14443750Y-8915000D02*
X14413750Y-8945000D01*
X14463750Y-9165000D02*
X14493750Y-9195000D01*
X14493750Y-9165000D02*
X14463750Y-9195000D01*
X14523750Y-9115000D02*
X14553750Y-9145000D01*
X14553750Y-9115000D02*
X14523750Y-9145000D01*
X14525000Y-9885000D02*
X14555000Y-9915000D01*
X14555000Y-9885000D02*
X14525000Y-9915000D01*
X14546750Y-9378000D02*
X14576750Y-9408000D01*
X14576750Y-9378000D02*
X14546750Y-9408000D01*
X14576918Y-9168168D02*
X14606918Y-9198168D01*
X14606918Y-9168168D02*
X14576918Y-9198168D01*
X14578750Y-9943000D02*
X14608750Y-9973000D01*
X14608750Y-9943000D02*
X14578750Y-9973000D01*
X14603750Y-9495000D02*
X14633750Y-9525000D01*
X14633750Y-9495000D02*
X14603750Y-9525000D01*
X14633750Y-9355000D02*
X14663750Y-9385000D01*
X14663750Y-9355000D02*
X14633750Y-9385000D01*
X14653750Y-9435000D02*
X14683750Y-9465000D01*
X14683750Y-9435000D02*
X14653750Y-9465000D01*
X14668750Y-10478000D02*
X14698750Y-10508000D01*
X14698750Y-10478000D02*
X14668750Y-10508000D01*
X14685000Y-9758000D02*
X14715000Y-9788000D01*
X14715000Y-9758000D02*
X14685000Y-9788000D01*
X14685119Y-9834875D02*
X14715119Y-9864875D01*
X14715119Y-9834875D02*
X14685119Y-9864875D01*
X14784007Y-9475258D02*
X14814007Y-9505258D01*
X14814007Y-9475258D02*
X14784007Y-9505258D01*
X14863750Y-8395000D02*
X14893750Y-8425000D01*
X14893750Y-8395000D02*
X14863750Y-8425000D01*
X14863750Y-8695000D02*
X14893750Y-8725000D01*
X14893750Y-8695000D02*
X14863750Y-8725000D01*
X14943750Y-8795000D02*
X14973750Y-8825000D01*
X14973750Y-8795000D02*
X14943750Y-8825000D01*
X15023750Y-8825000D02*
X15053750Y-8855000D01*
X15053750Y-8825000D02*
X15023750Y-8855000D01*
X15133750Y-9135000D02*
X15163750Y-9165000D01*
X15163750Y-9135000D02*
X15133750Y-9165000D01*
X15183750Y-9435000D02*
X15213750Y-9465000D01*
X15213750Y-9435000D02*
X15183750Y-9465000D01*
X13961750Y-7753000D02*
G75*
G03*
X13961750Y-7753000I-40000J0D01*
G01*
X13961750Y-8007000D02*
G75*
G03*
X13961750Y-8007000I-40000J0D01*
G01*
X13961750Y-8261000D02*
G75*
G03*
X13961750Y-8261000I-40000J0D01*
G01*
X13961750Y-8515000D02*
G75*
G03*
X13961750Y-8515000I-40000J0D01*
G01*
X13961750Y-8769000D02*
G75*
G03*
X13961750Y-8769000I-40000J0D01*
G01*
X13961750Y-9023000D02*
G75*
G03*
X13961750Y-9023000I-40000J0D01*
G01*
X13961750Y-9277000D02*
G75*
G03*
X13961750Y-9277000I-40000J0D01*
G01*
X13961750Y-9531000D02*
G75*
G03*
X13961750Y-9531000I-40000J0D01*
G01*
X13961750Y-9785000D02*
G75*
G03*
X13961750Y-9785000I-40000J0D01*
G01*
X13961750Y-10039000D02*
G75*
G03*
X13961750Y-10039000I-40000J0D01*
G01*
X13961750Y-10293000D02*
G75*
G03*
X13961750Y-10293000I-40000J0D01*
G01*
X13961750Y-10547000D02*
G75*
G03*
X13961750Y-10547000I-40000J0D01*
G01*
X15485750Y-7753000D02*
G75*
G03*
X15485750Y-7753000I-40000J0D01*
G01*
X15485750Y-8007000D02*
G75*
G03*
X15485750Y-8007000I-40000J0D01*
G01*
X15485750Y-8261000D02*
G75*
G03*
X15485750Y-8261000I-40000J0D01*
G01*
X15485750Y-8515000D02*
G75*
G03*
X15485750Y-8515000I-40000J0D01*
G01*
X15485750Y-8769000D02*
G75*
G03*
X15485750Y-8769000I-40000J0D01*
G01*
X15485750Y-9023000D02*
G75*
G03*
X15485750Y-9023000I-40000J0D01*
G01*
X15485750Y-9277000D02*
G75*
G03*
X15485750Y-9277000I-40000J0D01*
G01*
X15485750Y-9531000D02*
G75*
G03*
X15485750Y-9531000I-40000J0D01*
G01*
X15485750Y-9785000D02*
G75*
G03*
X15485750Y-9785000I-40000J0D01*
G01*
X15485750Y-10039000D02*
G75*
G03*
X15485750Y-10039000I-40000J0D01*
G01*
X15485750Y-10293000D02*
G75*
G03*
X15485750Y-10293000I-40000J0D01*
G01*
X15485750Y-10547000D02*
G75*
G03*
X15485750Y-10547000I-40000J0D01*
G01*
X14428250Y-7703000D02*
X14428250Y-7803000D01*
X14378250Y-7753000D02*
X14478250Y-7753000D01*
X14682250Y-7703000D02*
X14682250Y-7803000D01*
X14632250Y-7753000D02*
X14732250Y-7753000D01*
X14936250Y-7703000D02*
X14936250Y-7803000D01*
X14886250Y-7753000D02*
X14986250Y-7753000D01*
D11*
X14012027Y-11018984D02*
X14012027Y-10818984D01*
X14012027Y-10818984D02*
X14059646Y-10818984D01*
X14059646Y-10818984D02*
X14088217Y-10828508D01*
X14088217Y-10828508D02*
X14107265Y-10847555D01*
X14107265Y-10847555D02*
X14116789Y-10866603D01*
X14116789Y-10866603D02*
X14126312Y-10904698D01*
X14126312Y-10904698D02*
X14126312Y-10933270D01*
X14126312Y-10933270D02*
X14116789Y-10971365D01*
X14116789Y-10971365D02*
X14107265Y-10990412D01*
X14107265Y-10990412D02*
X14088217Y-11009460D01*
X14088217Y-11009460D02*
X14059646Y-11018984D01*
X14059646Y-11018984D02*
X14012027Y-11018984D01*
X14212027Y-11018984D02*
X14212027Y-10885650D01*
X14212027Y-10923746D02*
X14221551Y-10904698D01*
X14221551Y-10904698D02*
X14231074Y-10895174D01*
X14231074Y-10895174D02*
X14250122Y-10885650D01*
X14250122Y-10885650D02*
X14269170Y-10885650D01*
X14335836Y-11018984D02*
X14335836Y-10885650D01*
X14335836Y-10818984D02*
X14326312Y-10828508D01*
X14326312Y-10828508D02*
X14335836Y-10838031D01*
X14335836Y-10838031D02*
X14345360Y-10828508D01*
X14345360Y-10828508D02*
X14335836Y-10818984D01*
X14335836Y-10818984D02*
X14335836Y-10838031D01*
X14459646Y-11018984D02*
X14440598Y-11009460D01*
X14440598Y-11009460D02*
X14431074Y-10990412D01*
X14431074Y-10990412D02*
X14431074Y-10818984D01*
X14564408Y-11018984D02*
X14545360Y-11009460D01*
X14545360Y-11009460D02*
X14535836Y-10990412D01*
X14535836Y-10990412D02*
X14535836Y-10818984D01*
X14792979Y-11018984D02*
X14792979Y-10818984D01*
X14792979Y-10818984D02*
X14859646Y-10961841D01*
X14859646Y-10961841D02*
X14926312Y-10818984D01*
X14926312Y-10818984D02*
X14926312Y-11018984D01*
X15107265Y-11018984D02*
X15107265Y-10914222D01*
X15107265Y-10914222D02*
X15097741Y-10895174D01*
X15097741Y-10895174D02*
X15078693Y-10885650D01*
X15078693Y-10885650D02*
X15040598Y-10885650D01*
X15040598Y-10885650D02*
X15021551Y-10895174D01*
X15107265Y-11009460D02*
X15088217Y-11018984D01*
X15088217Y-11018984D02*
X15040598Y-11018984D01*
X15040598Y-11018984D02*
X15021551Y-11009460D01*
X15021551Y-11009460D02*
X15012027Y-10990412D01*
X15012027Y-10990412D02*
X15012027Y-10971365D01*
X15012027Y-10971365D02*
X15021551Y-10952317D01*
X15021551Y-10952317D02*
X15040598Y-10942793D01*
X15040598Y-10942793D02*
X15088217Y-10942793D01*
X15088217Y-10942793D02*
X15107265Y-10933270D01*
X15202503Y-10885650D02*
X15202503Y-11085650D01*
X15202503Y-10895174D02*
X15221551Y-10885650D01*
X15221551Y-10885650D02*
X15259646Y-10885650D01*
X15259646Y-10885650D02*
X15278693Y-10895174D01*
X15278693Y-10895174D02*
X15288217Y-10904698D01*
X15288217Y-10904698D02*
X15297741Y-10923746D01*
X15297741Y-10923746D02*
X15297741Y-10980889D01*
X15297741Y-10980889D02*
X15288217Y-10999936D01*
X15288217Y-10999936D02*
X15278693Y-11009460D01*
X15278693Y-11009460D02*
X15259646Y-11018984D01*
X15259646Y-11018984D02*
X15221551Y-11018984D01*
X15221551Y-11018984D02*
X15202503Y-11009460D01*
X15383455Y-10999936D02*
X15392979Y-11009460D01*
X15392979Y-11009460D02*
X15383455Y-11018984D01*
X15383455Y-11018984D02*
X15373932Y-11009460D01*
X15373932Y-11009460D02*
X15383455Y-10999936D01*
X15383455Y-10999936D02*
X15383455Y-11018984D01*
X15383455Y-10895174D02*
X15392979Y-10904698D01*
X15392979Y-10904698D02*
X15383455Y-10914222D01*
X15383455Y-10914222D02*
X15373932Y-10904698D01*
X15373932Y-10904698D02*
X15383455Y-10895174D01*
X15383455Y-10895174D02*
X15383455Y-10914222D01*
D12*
X13721250Y-11332500D02*
X13751250Y-11362500D01*
X13751250Y-11332500D02*
X13721250Y-11362500D01*
D11*
X14050122Y-11238984D02*
X14069170Y-11238984D01*
X14069170Y-11238984D02*
X14088217Y-11248508D01*
X14088217Y-11248508D02*
X14097741Y-11258031D01*
X14097741Y-11258031D02*
X14107265Y-11277079D01*
X14107265Y-11277079D02*
X14116789Y-11315174D01*
X14116789Y-11315174D02*
X14116789Y-11362793D01*
X14116789Y-11362793D02*
X14107265Y-11400888D01*
X14107265Y-11400888D02*
X14097741Y-11419936D01*
X14097741Y-11419936D02*
X14088217Y-11429460D01*
X14088217Y-11429460D02*
X14069170Y-11438984D01*
X14069170Y-11438984D02*
X14050122Y-11438984D01*
X14050122Y-11438984D02*
X14031074Y-11429460D01*
X14031074Y-11429460D02*
X14021551Y-11419936D01*
X14021551Y-11419936D02*
X14012027Y-11400888D01*
X14012027Y-11400888D02*
X14002503Y-11362793D01*
X14002503Y-11362793D02*
X14002503Y-11315174D01*
X14002503Y-11315174D02*
X14012027Y-11277079D01*
X14012027Y-11277079D02*
X14021551Y-11258031D01*
X14021551Y-11258031D02*
X14031074Y-11248508D01*
X14031074Y-11248508D02*
X14050122Y-11238984D01*
X14202503Y-11419936D02*
X14212027Y-11429460D01*
X14212027Y-11429460D02*
X14202503Y-11438984D01*
X14202503Y-11438984D02*
X14192979Y-11429460D01*
X14192979Y-11429460D02*
X14202503Y-11419936D01*
X14202503Y-11419936D02*
X14202503Y-11438984D01*
X14278693Y-11238984D02*
X14402503Y-11238984D01*
X14402503Y-11238984D02*
X14335836Y-11315174D01*
X14335836Y-11315174D02*
X14364408Y-11315174D01*
X14364408Y-11315174D02*
X14383455Y-11324698D01*
X14383455Y-11324698D02*
X14392979Y-11334222D01*
X14392979Y-11334222D02*
X14402503Y-11353269D01*
X14402503Y-11353269D02*
X14402503Y-11400888D01*
X14402503Y-11400888D02*
X14392979Y-11419936D01*
X14392979Y-11419936D02*
X14383455Y-11429460D01*
X14383455Y-11429460D02*
X14364408Y-11438984D01*
X14364408Y-11438984D02*
X14307265Y-11438984D01*
X14307265Y-11438984D02*
X14288217Y-11429460D01*
X14288217Y-11429460D02*
X14278693Y-11419936D01*
X14526312Y-11238984D02*
X14545360Y-11238984D01*
X14545360Y-11238984D02*
X14564408Y-11248508D01*
X14564408Y-11248508D02*
X14573932Y-11258031D01*
X14573932Y-11258031D02*
X14583455Y-11277079D01*
X14583455Y-11277079D02*
X14592979Y-11315174D01*
X14592979Y-11315174D02*
X14592979Y-11362793D01*
X14592979Y-11362793D02*
X14583455Y-11400888D01*
X14583455Y-11400888D02*
X14573932Y-11419936D01*
X14573932Y-11419936D02*
X14564408Y-11429460D01*
X14564408Y-11429460D02*
X14545360Y-11438984D01*
X14545360Y-11438984D02*
X14526312Y-11438984D01*
X14526312Y-11438984D02*
X14507265Y-11429460D01*
X14507265Y-11429460D02*
X14497741Y-11419936D01*
X14497741Y-11419936D02*
X14488217Y-11400888D01*
X14488217Y-11400888D02*
X14478693Y-11362793D01*
X14478693Y-11362793D02*
X14478693Y-11315174D01*
X14478693Y-11315174D02*
X14488217Y-11277079D01*
X14488217Y-11277079D02*
X14497741Y-11258031D01*
X14497741Y-11258031D02*
X14507265Y-11248508D01*
X14507265Y-11248508D02*
X14526312Y-11238984D01*
X14716789Y-11238984D02*
X14735836Y-11238984D01*
X14735836Y-11238984D02*
X14754884Y-11248508D01*
X14754884Y-11248508D02*
X14764408Y-11258031D01*
X14764408Y-11258031D02*
X14773932Y-11277079D01*
X14773932Y-11277079D02*
X14783455Y-11315174D01*
X14783455Y-11315174D02*
X14783455Y-11362793D01*
X14783455Y-11362793D02*
X14773932Y-11400888D01*
X14773932Y-11400888D02*
X14764408Y-11419936D01*
X14764408Y-11419936D02*
X14754884Y-11429460D01*
X14754884Y-11429460D02*
X14735836Y-11438984D01*
X14735836Y-11438984D02*
X14716789Y-11438984D01*
X14716789Y-11438984D02*
X14697741Y-11429460D01*
X14697741Y-11429460D02*
X14688217Y-11419936D01*
X14688217Y-11419936D02*
X14678693Y-11400888D01*
X14678693Y-11400888D02*
X14669170Y-11362793D01*
X14669170Y-11362793D02*
X14669170Y-11315174D01*
X14669170Y-11315174D02*
X14678693Y-11277079D01*
X14678693Y-11277079D02*
X14688217Y-11258031D01*
X14688217Y-11258031D02*
X14697741Y-11248508D01*
X14697741Y-11248508D02*
X14716789Y-11238984D01*
X14869170Y-11438984D02*
X14869170Y-11305650D01*
X14869170Y-11324698D02*
X14878693Y-11315174D01*
X14878693Y-11315174D02*
X14897741Y-11305650D01*
X14897741Y-11305650D02*
X14926313Y-11305650D01*
X14926313Y-11305650D02*
X14945360Y-11315174D01*
X14945360Y-11315174D02*
X14954884Y-11334222D01*
X14954884Y-11334222D02*
X14954884Y-11438984D01*
X14954884Y-11334222D02*
X14964408Y-11315174D01*
X14964408Y-11315174D02*
X14983455Y-11305650D01*
X14983455Y-11305650D02*
X15012027Y-11305650D01*
X15012027Y-11305650D02*
X15031074Y-11315174D01*
X15031074Y-11315174D02*
X15040598Y-11334222D01*
X15040598Y-11334222D02*
X15040598Y-11438984D01*
X15135836Y-11438984D02*
X15135836Y-11305650D01*
X15135836Y-11324698D02*
X15145360Y-11315174D01*
X15145360Y-11315174D02*
X15164408Y-11305650D01*
X15164408Y-11305650D02*
X15192979Y-11305650D01*
X15192979Y-11305650D02*
X15212027Y-11315174D01*
X15212027Y-11315174D02*
X15221551Y-11334222D01*
X15221551Y-11334222D02*
X15221551Y-11438984D01*
X15221551Y-11334222D02*
X15231074Y-11315174D01*
X15231074Y-11315174D02*
X15250122Y-11305650D01*
X15250122Y-11305650D02*
X15278693Y-11305650D01*
X15278693Y-11305650D02*
X15297741Y-11315174D01*
X15297741Y-11315174D02*
X15307265Y-11334222D01*
X15307265Y-11334222D02*
X15307265Y-11438984D01*
X15697741Y-11229460D02*
X15526313Y-11486603D01*
X15954884Y-11238984D02*
X15973932Y-11238984D01*
X15973932Y-11238984D02*
X15992979Y-11248508D01*
X15992979Y-11248508D02*
X16002503Y-11258031D01*
X16002503Y-11258031D02*
X16012027Y-11277079D01*
X16012027Y-11277079D02*
X16021551Y-11315174D01*
X16021551Y-11315174D02*
X16021551Y-11362793D01*
X16021551Y-11362793D02*
X16012027Y-11400888D01*
X16012027Y-11400888D02*
X16002503Y-11419936D01*
X16002503Y-11419936D02*
X15992979Y-11429460D01*
X15992979Y-11429460D02*
X15973932Y-11438984D01*
X15973932Y-11438984D02*
X15954884Y-11438984D01*
X15954884Y-11438984D02*
X15935836Y-11429460D01*
X15935836Y-11429460D02*
X15926313Y-11419936D01*
X15926313Y-11419936D02*
X15916789Y-11400888D01*
X15916789Y-11400888D02*
X15907265Y-11362793D01*
X15907265Y-11362793D02*
X15907265Y-11315174D01*
X15907265Y-11315174D02*
X15916789Y-11277079D01*
X15916789Y-11277079D02*
X15926313Y-11258031D01*
X15926313Y-11258031D02*
X15935836Y-11248508D01*
X15935836Y-11248508D02*
X15954884Y-11238984D01*
X16107265Y-11419936D02*
X16116789Y-11429460D01*
X16116789Y-11429460D02*
X16107265Y-11438984D01*
X16107265Y-11438984D02*
X16097741Y-11429460D01*
X16097741Y-11429460D02*
X16107265Y-11419936D01*
X16107265Y-11419936D02*
X16107265Y-11438984D01*
X16240598Y-11238984D02*
X16259646Y-11238984D01*
X16259646Y-11238984D02*
X16278694Y-11248508D01*
X16278694Y-11248508D02*
X16288217Y-11258031D01*
X16288217Y-11258031D02*
X16297741Y-11277079D01*
X16297741Y-11277079D02*
X16307265Y-11315174D01*
X16307265Y-11315174D02*
X16307265Y-11362793D01*
X16307265Y-11362793D02*
X16297741Y-11400888D01*
X16297741Y-11400888D02*
X16288217Y-11419936D01*
X16288217Y-11419936D02*
X16278694Y-11429460D01*
X16278694Y-11429460D02*
X16259646Y-11438984D01*
X16259646Y-11438984D02*
X16240598Y-11438984D01*
X16240598Y-11438984D02*
X16221551Y-11429460D01*
X16221551Y-11429460D02*
X16212027Y-11419936D01*
X16212027Y-11419936D02*
X16202503Y-11400888D01*
X16202503Y-11400888D02*
X16192979Y-11362793D01*
X16192979Y-11362793D02*
X16192979Y-11315174D01*
X16192979Y-11315174D02*
X16202503Y-11277079D01*
X16202503Y-11277079D02*
X16212027Y-11258031D01*
X16212027Y-11258031D02*
X16221551Y-11248508D01*
X16221551Y-11248508D02*
X16240598Y-11238984D01*
X16497741Y-11438984D02*
X16383456Y-11438984D01*
X16440598Y-11438984D02*
X16440598Y-11238984D01*
X16440598Y-11238984D02*
X16421551Y-11267555D01*
X16421551Y-11267555D02*
X16402503Y-11286603D01*
X16402503Y-11286603D02*
X16383456Y-11296127D01*
X16688217Y-11438984D02*
X16573932Y-11438984D01*
X16631075Y-11438984D02*
X16631075Y-11238984D01*
X16631075Y-11238984D02*
X16612027Y-11267555D01*
X16612027Y-11267555D02*
X16592979Y-11286603D01*
X16592979Y-11286603D02*
X16573932Y-11296127D01*
X16802503Y-11324698D02*
X16783456Y-11315174D01*
X16783456Y-11315174D02*
X16773932Y-11305650D01*
X16773932Y-11305650D02*
X16764408Y-11286603D01*
X16764408Y-11286603D02*
X16764408Y-11277079D01*
X16764408Y-11277079D02*
X16773932Y-11258031D01*
X16773932Y-11258031D02*
X16783456Y-11248508D01*
X16783456Y-11248508D02*
X16802503Y-11238984D01*
X16802503Y-11238984D02*
X16840599Y-11238984D01*
X16840599Y-11238984D02*
X16859646Y-11248508D01*
X16859646Y-11248508D02*
X16869170Y-11258031D01*
X16869170Y-11258031D02*
X16878694Y-11277079D01*
X16878694Y-11277079D02*
X16878694Y-11286603D01*
X16878694Y-11286603D02*
X16869170Y-11305650D01*
X16869170Y-11305650D02*
X16859646Y-11315174D01*
X16859646Y-11315174D02*
X16840599Y-11324698D01*
X16840599Y-11324698D02*
X16802503Y-11324698D01*
X16802503Y-11324698D02*
X16783456Y-11334222D01*
X16783456Y-11334222D02*
X16773932Y-11343746D01*
X16773932Y-11343746D02*
X16764408Y-11362793D01*
X16764408Y-11362793D02*
X16764408Y-11400888D01*
X16764408Y-11400888D02*
X16773932Y-11419936D01*
X16773932Y-11419936D02*
X16783456Y-11429460D01*
X16783456Y-11429460D02*
X16802503Y-11438984D01*
X16802503Y-11438984D02*
X16840599Y-11438984D01*
X16840599Y-11438984D02*
X16859646Y-11429460D01*
X16859646Y-11429460D02*
X16869170Y-11419936D01*
X16869170Y-11419936D02*
X16878694Y-11400888D01*
X16878694Y-11400888D02*
X16878694Y-11362793D01*
X16878694Y-11362793D02*
X16869170Y-11343746D01*
X16869170Y-11343746D02*
X16859646Y-11334222D01*
X16859646Y-11334222D02*
X16840599Y-11324698D01*
X16954884Y-11238984D02*
X16954884Y-11277079D01*
X17031075Y-11238984D02*
X17031075Y-11277079D01*
X17326313Y-11515174D02*
X17316789Y-11505650D01*
X17316789Y-11505650D02*
X17297741Y-11477079D01*
X17297741Y-11477079D02*
X17288218Y-11458031D01*
X17288218Y-11458031D02*
X17278694Y-11429460D01*
X17278694Y-11429460D02*
X17269170Y-11381841D01*
X17269170Y-11381841D02*
X17269170Y-11343746D01*
X17269170Y-11343746D02*
X17278694Y-11296127D01*
X17278694Y-11296127D02*
X17288218Y-11267555D01*
X17288218Y-11267555D02*
X17297741Y-11248508D01*
X17297741Y-11248508D02*
X17316789Y-11219936D01*
X17316789Y-11219936D02*
X17326313Y-11210412D01*
X17383456Y-11238984D02*
X17507265Y-11238984D01*
X17507265Y-11238984D02*
X17440599Y-11315174D01*
X17440599Y-11315174D02*
X17469170Y-11315174D01*
X17469170Y-11315174D02*
X17488218Y-11324698D01*
X17488218Y-11324698D02*
X17497741Y-11334222D01*
X17497741Y-11334222D02*
X17507265Y-11353269D01*
X17507265Y-11353269D02*
X17507265Y-11400888D01*
X17507265Y-11400888D02*
X17497741Y-11419936D01*
X17497741Y-11419936D02*
X17488218Y-11429460D01*
X17488218Y-11429460D02*
X17469170Y-11438984D01*
X17469170Y-11438984D02*
X17412027Y-11438984D01*
X17412027Y-11438984D02*
X17392980Y-11429460D01*
X17392980Y-11429460D02*
X17383456Y-11419936D01*
X17697741Y-11438984D02*
X17583456Y-11438984D01*
X17640599Y-11438984D02*
X17640599Y-11238984D01*
X17640599Y-11238984D02*
X17621551Y-11267555D01*
X17621551Y-11267555D02*
X17602503Y-11286603D01*
X17602503Y-11286603D02*
X17583456Y-11296127D01*
X17935837Y-11438984D02*
X17935837Y-11238984D01*
X18021551Y-11438984D02*
X18021551Y-11334222D01*
X18021551Y-11334222D02*
X18012027Y-11315174D01*
X18012027Y-11315174D02*
X17992980Y-11305650D01*
X17992980Y-11305650D02*
X17964408Y-11305650D01*
X17964408Y-11305650D02*
X17945361Y-11315174D01*
X17945361Y-11315174D02*
X17935837Y-11324698D01*
X18145361Y-11438984D02*
X18126313Y-11429460D01*
X18126313Y-11429460D02*
X18116789Y-11419936D01*
X18116789Y-11419936D02*
X18107265Y-11400888D01*
X18107265Y-11400888D02*
X18107265Y-11343746D01*
X18107265Y-11343746D02*
X18116789Y-11324698D01*
X18116789Y-11324698D02*
X18126313Y-11315174D01*
X18126313Y-11315174D02*
X18145361Y-11305650D01*
X18145361Y-11305650D02*
X18173932Y-11305650D01*
X18173932Y-11305650D02*
X18192980Y-11315174D01*
X18192980Y-11315174D02*
X18202503Y-11324698D01*
X18202503Y-11324698D02*
X18212027Y-11343746D01*
X18212027Y-11343746D02*
X18212027Y-11400888D01*
X18212027Y-11400888D02*
X18202503Y-11419936D01*
X18202503Y-11419936D02*
X18192980Y-11429460D01*
X18192980Y-11429460D02*
X18173932Y-11438984D01*
X18173932Y-11438984D02*
X18145361Y-11438984D01*
X18326313Y-11438984D02*
X18307265Y-11429460D01*
X18307265Y-11429460D02*
X18297742Y-11410412D01*
X18297742Y-11410412D02*
X18297742Y-11238984D01*
X18478694Y-11429460D02*
X18459646Y-11438984D01*
X18459646Y-11438984D02*
X18421551Y-11438984D01*
X18421551Y-11438984D02*
X18402503Y-11429460D01*
X18402503Y-11429460D02*
X18392980Y-11410412D01*
X18392980Y-11410412D02*
X18392980Y-11334222D01*
X18392980Y-11334222D02*
X18402503Y-11315174D01*
X18402503Y-11315174D02*
X18421551Y-11305650D01*
X18421551Y-11305650D02*
X18459646Y-11305650D01*
X18459646Y-11305650D02*
X18478694Y-11315174D01*
X18478694Y-11315174D02*
X18488218Y-11334222D01*
X18488218Y-11334222D02*
X18488218Y-11353269D01*
X18488218Y-11353269D02*
X18392980Y-11372317D01*
X18564408Y-11429460D02*
X18583456Y-11438984D01*
X18583456Y-11438984D02*
X18621551Y-11438984D01*
X18621551Y-11438984D02*
X18640599Y-11429460D01*
X18640599Y-11429460D02*
X18650123Y-11410412D01*
X18650123Y-11410412D02*
X18650123Y-11400888D01*
X18650123Y-11400888D02*
X18640599Y-11381841D01*
X18640599Y-11381841D02*
X18621551Y-11372317D01*
X18621551Y-11372317D02*
X18592980Y-11372317D01*
X18592980Y-11372317D02*
X18573932Y-11362793D01*
X18573932Y-11362793D02*
X18564408Y-11343746D01*
X18564408Y-11343746D02*
X18564408Y-11334222D01*
X18564408Y-11334222D02*
X18573932Y-11315174D01*
X18573932Y-11315174D02*
X18592980Y-11305650D01*
X18592980Y-11305650D02*
X18621551Y-11305650D01*
X18621551Y-11305650D02*
X18640599Y-11315174D01*
X18716789Y-11515174D02*
X18726313Y-11505650D01*
X18726313Y-11505650D02*
X18745361Y-11477079D01*
X18745361Y-11477079D02*
X18754884Y-11458031D01*
X18754884Y-11458031D02*
X18764408Y-11429460D01*
X18764408Y-11429460D02*
X18773932Y-11381841D01*
X18773932Y-11381841D02*
X18773932Y-11343746D01*
X18773932Y-11343746D02*
X18764408Y-11296127D01*
X18764408Y-11296127D02*
X18754884Y-11267555D01*
X18754884Y-11267555D02*
X18745361Y-11248508D01*
X18745361Y-11248508D02*
X18726313Y-11219936D01*
X18726313Y-11219936D02*
X18716789Y-11210412D01*
D12*
X13751250Y-11611500D02*
G75*
G03*
X13751250Y-11611500I-40000J0D01*
G01*
D11*
X14050122Y-11502984D02*
X14069170Y-11502984D01*
X14069170Y-11502984D02*
X14088217Y-11512508D01*
X14088217Y-11512508D02*
X14097741Y-11522031D01*
X14097741Y-11522031D02*
X14107265Y-11541079D01*
X14107265Y-11541079D02*
X14116789Y-11579174D01*
X14116789Y-11579174D02*
X14116789Y-11626793D01*
X14116789Y-11626793D02*
X14107265Y-11664888D01*
X14107265Y-11664888D02*
X14097741Y-11683936D01*
X14097741Y-11683936D02*
X14088217Y-11693460D01*
X14088217Y-11693460D02*
X14069170Y-11702984D01*
X14069170Y-11702984D02*
X14050122Y-11702984D01*
X14050122Y-11702984D02*
X14031074Y-11693460D01*
X14031074Y-11693460D02*
X14021551Y-11683936D01*
X14021551Y-11683936D02*
X14012027Y-11664888D01*
X14012027Y-11664888D02*
X14002503Y-11626793D01*
X14002503Y-11626793D02*
X14002503Y-11579174D01*
X14002503Y-11579174D02*
X14012027Y-11541079D01*
X14012027Y-11541079D02*
X14021551Y-11522031D01*
X14021551Y-11522031D02*
X14031074Y-11512508D01*
X14031074Y-11512508D02*
X14050122Y-11502984D01*
X14202503Y-11683936D02*
X14212027Y-11693460D01*
X14212027Y-11693460D02*
X14202503Y-11702984D01*
X14202503Y-11702984D02*
X14192979Y-11693460D01*
X14192979Y-11693460D02*
X14202503Y-11683936D01*
X14202503Y-11683936D02*
X14202503Y-11702984D01*
X14326312Y-11588698D02*
X14307265Y-11579174D01*
X14307265Y-11579174D02*
X14297741Y-11569650D01*
X14297741Y-11569650D02*
X14288217Y-11550603D01*
X14288217Y-11550603D02*
X14288217Y-11541079D01*
X14288217Y-11541079D02*
X14297741Y-11522031D01*
X14297741Y-11522031D02*
X14307265Y-11512508D01*
X14307265Y-11512508D02*
X14326312Y-11502984D01*
X14326312Y-11502984D02*
X14364408Y-11502984D01*
X14364408Y-11502984D02*
X14383455Y-11512508D01*
X14383455Y-11512508D02*
X14392979Y-11522031D01*
X14392979Y-11522031D02*
X14402503Y-11541079D01*
X14402503Y-11541079D02*
X14402503Y-11550603D01*
X14402503Y-11550603D02*
X14392979Y-11569650D01*
X14392979Y-11569650D02*
X14383455Y-11579174D01*
X14383455Y-11579174D02*
X14364408Y-11588698D01*
X14364408Y-11588698D02*
X14326312Y-11588698D01*
X14326312Y-11588698D02*
X14307265Y-11598222D01*
X14307265Y-11598222D02*
X14297741Y-11607746D01*
X14297741Y-11607746D02*
X14288217Y-11626793D01*
X14288217Y-11626793D02*
X14288217Y-11664888D01*
X14288217Y-11664888D02*
X14297741Y-11683936D01*
X14297741Y-11683936D02*
X14307265Y-11693460D01*
X14307265Y-11693460D02*
X14326312Y-11702984D01*
X14326312Y-11702984D02*
X14364408Y-11702984D01*
X14364408Y-11702984D02*
X14383455Y-11693460D01*
X14383455Y-11693460D02*
X14392979Y-11683936D01*
X14392979Y-11683936D02*
X14402503Y-11664888D01*
X14402503Y-11664888D02*
X14402503Y-11626793D01*
X14402503Y-11626793D02*
X14392979Y-11607746D01*
X14392979Y-11607746D02*
X14383455Y-11598222D01*
X14383455Y-11598222D02*
X14364408Y-11588698D01*
X14526312Y-11502984D02*
X14545360Y-11502984D01*
X14545360Y-11502984D02*
X14564408Y-11512508D01*
X14564408Y-11512508D02*
X14573932Y-11522031D01*
X14573932Y-11522031D02*
X14583455Y-11541079D01*
X14583455Y-11541079D02*
X14592979Y-11579174D01*
X14592979Y-11579174D02*
X14592979Y-11626793D01*
X14592979Y-11626793D02*
X14583455Y-11664888D01*
X14583455Y-11664888D02*
X14573932Y-11683936D01*
X14573932Y-11683936D02*
X14564408Y-11693460D01*
X14564408Y-11693460D02*
X14545360Y-11702984D01*
X14545360Y-11702984D02*
X14526312Y-11702984D01*
X14526312Y-11702984D02*
X14507265Y-11693460D01*
X14507265Y-11693460D02*
X14497741Y-11683936D01*
X14497741Y-11683936D02*
X14488217Y-11664888D01*
X14488217Y-11664888D02*
X14478693Y-11626793D01*
X14478693Y-11626793D02*
X14478693Y-11579174D01*
X14478693Y-11579174D02*
X14488217Y-11541079D01*
X14488217Y-11541079D02*
X14497741Y-11522031D01*
X14497741Y-11522031D02*
X14507265Y-11512508D01*
X14507265Y-11512508D02*
X14526312Y-11502984D01*
X14716789Y-11502984D02*
X14735836Y-11502984D01*
X14735836Y-11502984D02*
X14754884Y-11512508D01*
X14754884Y-11512508D02*
X14764408Y-11522031D01*
X14764408Y-11522031D02*
X14773932Y-11541079D01*
X14773932Y-11541079D02*
X14783455Y-11579174D01*
X14783455Y-11579174D02*
X14783455Y-11626793D01*
X14783455Y-11626793D02*
X14773932Y-11664888D01*
X14773932Y-11664888D02*
X14764408Y-11683936D01*
X14764408Y-11683936D02*
X14754884Y-11693460D01*
X14754884Y-11693460D02*
X14735836Y-11702984D01*
X14735836Y-11702984D02*
X14716789Y-11702984D01*
X14716789Y-11702984D02*
X14697741Y-11693460D01*
X14697741Y-11693460D02*
X14688217Y-11683936D01*
X14688217Y-11683936D02*
X14678693Y-11664888D01*
X14678693Y-11664888D02*
X14669170Y-11626793D01*
X14669170Y-11626793D02*
X14669170Y-11579174D01*
X14669170Y-11579174D02*
X14678693Y-11541079D01*
X14678693Y-11541079D02*
X14688217Y-11522031D01*
X14688217Y-11522031D02*
X14697741Y-11512508D01*
X14697741Y-11512508D02*
X14716789Y-11502984D01*
X14869170Y-11702984D02*
X14869170Y-11569650D01*
X14869170Y-11588698D02*
X14878693Y-11579174D01*
X14878693Y-11579174D02*
X14897741Y-11569650D01*
X14897741Y-11569650D02*
X14926313Y-11569650D01*
X14926313Y-11569650D02*
X14945360Y-11579174D01*
X14945360Y-11579174D02*
X14954884Y-11598222D01*
X14954884Y-11598222D02*
X14954884Y-11702984D01*
X14954884Y-11598222D02*
X14964408Y-11579174D01*
X14964408Y-11579174D02*
X14983455Y-11569650D01*
X14983455Y-11569650D02*
X15012027Y-11569650D01*
X15012027Y-11569650D02*
X15031074Y-11579174D01*
X15031074Y-11579174D02*
X15040598Y-11598222D01*
X15040598Y-11598222D02*
X15040598Y-11702984D01*
X15135836Y-11702984D02*
X15135836Y-11569650D01*
X15135836Y-11588698D02*
X15145360Y-11579174D01*
X15145360Y-11579174D02*
X15164408Y-11569650D01*
X15164408Y-11569650D02*
X15192979Y-11569650D01*
X15192979Y-11569650D02*
X15212027Y-11579174D01*
X15212027Y-11579174D02*
X15221551Y-11598222D01*
X15221551Y-11598222D02*
X15221551Y-11702984D01*
X15221551Y-11598222D02*
X15231074Y-11579174D01*
X15231074Y-11579174D02*
X15250122Y-11569650D01*
X15250122Y-11569650D02*
X15278693Y-11569650D01*
X15278693Y-11569650D02*
X15297741Y-11579174D01*
X15297741Y-11579174D02*
X15307265Y-11598222D01*
X15307265Y-11598222D02*
X15307265Y-11702984D01*
X15697741Y-11493460D02*
X15526313Y-11750603D01*
X15954884Y-11502984D02*
X15973932Y-11502984D01*
X15973932Y-11502984D02*
X15992979Y-11512508D01*
X15992979Y-11512508D02*
X16002503Y-11522031D01*
X16002503Y-11522031D02*
X16012027Y-11541079D01*
X16012027Y-11541079D02*
X16021551Y-11579174D01*
X16021551Y-11579174D02*
X16021551Y-11626793D01*
X16021551Y-11626793D02*
X16012027Y-11664888D01*
X16012027Y-11664888D02*
X16002503Y-11683936D01*
X16002503Y-11683936D02*
X15992979Y-11693460D01*
X15992979Y-11693460D02*
X15973932Y-11702984D01*
X15973932Y-11702984D02*
X15954884Y-11702984D01*
X15954884Y-11702984D02*
X15935836Y-11693460D01*
X15935836Y-11693460D02*
X15926313Y-11683936D01*
X15926313Y-11683936D02*
X15916789Y-11664888D01*
X15916789Y-11664888D02*
X15907265Y-11626793D01*
X15907265Y-11626793D02*
X15907265Y-11579174D01*
X15907265Y-11579174D02*
X15916789Y-11541079D01*
X15916789Y-11541079D02*
X15926313Y-11522031D01*
X15926313Y-11522031D02*
X15935836Y-11512508D01*
X15935836Y-11512508D02*
X15954884Y-11502984D01*
X16107265Y-11683936D02*
X16116789Y-11693460D01*
X16116789Y-11693460D02*
X16107265Y-11702984D01*
X16107265Y-11702984D02*
X16097741Y-11693460D01*
X16097741Y-11693460D02*
X16107265Y-11683936D01*
X16107265Y-11683936D02*
X16107265Y-11702984D01*
X16240598Y-11502984D02*
X16259646Y-11502984D01*
X16259646Y-11502984D02*
X16278694Y-11512508D01*
X16278694Y-11512508D02*
X16288217Y-11522031D01*
X16288217Y-11522031D02*
X16297741Y-11541079D01*
X16297741Y-11541079D02*
X16307265Y-11579174D01*
X16307265Y-11579174D02*
X16307265Y-11626793D01*
X16307265Y-11626793D02*
X16297741Y-11664888D01*
X16297741Y-11664888D02*
X16288217Y-11683936D01*
X16288217Y-11683936D02*
X16278694Y-11693460D01*
X16278694Y-11693460D02*
X16259646Y-11702984D01*
X16259646Y-11702984D02*
X16240598Y-11702984D01*
X16240598Y-11702984D02*
X16221551Y-11693460D01*
X16221551Y-11693460D02*
X16212027Y-11683936D01*
X16212027Y-11683936D02*
X16202503Y-11664888D01*
X16202503Y-11664888D02*
X16192979Y-11626793D01*
X16192979Y-11626793D02*
X16192979Y-11579174D01*
X16192979Y-11579174D02*
X16202503Y-11541079D01*
X16202503Y-11541079D02*
X16212027Y-11522031D01*
X16212027Y-11522031D02*
X16221551Y-11512508D01*
X16221551Y-11512508D02*
X16240598Y-11502984D01*
X16373932Y-11502984D02*
X16497741Y-11502984D01*
X16497741Y-11502984D02*
X16431075Y-11579174D01*
X16431075Y-11579174D02*
X16459646Y-11579174D01*
X16459646Y-11579174D02*
X16478694Y-11588698D01*
X16478694Y-11588698D02*
X16488217Y-11598222D01*
X16488217Y-11598222D02*
X16497741Y-11617269D01*
X16497741Y-11617269D02*
X16497741Y-11664888D01*
X16497741Y-11664888D02*
X16488217Y-11683936D01*
X16488217Y-11683936D02*
X16478694Y-11693460D01*
X16478694Y-11693460D02*
X16459646Y-11702984D01*
X16459646Y-11702984D02*
X16402503Y-11702984D01*
X16402503Y-11702984D02*
X16383456Y-11693460D01*
X16383456Y-11693460D02*
X16373932Y-11683936D01*
X16688217Y-11702984D02*
X16573932Y-11702984D01*
X16631075Y-11702984D02*
X16631075Y-11502984D01*
X16631075Y-11502984D02*
X16612027Y-11531555D01*
X16612027Y-11531555D02*
X16592979Y-11550603D01*
X16592979Y-11550603D02*
X16573932Y-11560127D01*
X16869170Y-11502984D02*
X16773932Y-11502984D01*
X16773932Y-11502984D02*
X16764408Y-11598222D01*
X16764408Y-11598222D02*
X16773932Y-11588698D01*
X16773932Y-11588698D02*
X16792979Y-11579174D01*
X16792979Y-11579174D02*
X16840599Y-11579174D01*
X16840599Y-11579174D02*
X16859646Y-11588698D01*
X16859646Y-11588698D02*
X16869170Y-11598222D01*
X16869170Y-11598222D02*
X16878694Y-11617269D01*
X16878694Y-11617269D02*
X16878694Y-11664888D01*
X16878694Y-11664888D02*
X16869170Y-11683936D01*
X16869170Y-11683936D02*
X16859646Y-11693460D01*
X16859646Y-11693460D02*
X16840599Y-11702984D01*
X16840599Y-11702984D02*
X16792979Y-11702984D01*
X16792979Y-11702984D02*
X16773932Y-11693460D01*
X16773932Y-11693460D02*
X16764408Y-11683936D01*
X16954884Y-11502984D02*
X16954884Y-11541079D01*
X17031075Y-11502984D02*
X17031075Y-11541079D01*
X17326313Y-11779174D02*
X17316789Y-11769650D01*
X17316789Y-11769650D02*
X17297741Y-11741079D01*
X17297741Y-11741079D02*
X17288218Y-11722031D01*
X17288218Y-11722031D02*
X17278694Y-11693460D01*
X17278694Y-11693460D02*
X17269170Y-11645841D01*
X17269170Y-11645841D02*
X17269170Y-11607746D01*
X17269170Y-11607746D02*
X17278694Y-11560127D01*
X17278694Y-11560127D02*
X17288218Y-11531555D01*
X17288218Y-11531555D02*
X17297741Y-11512508D01*
X17297741Y-11512508D02*
X17316789Y-11483936D01*
X17316789Y-11483936D02*
X17326313Y-11474412D01*
X17392980Y-11522031D02*
X17402503Y-11512508D01*
X17402503Y-11512508D02*
X17421551Y-11502984D01*
X17421551Y-11502984D02*
X17469170Y-11502984D01*
X17469170Y-11502984D02*
X17488218Y-11512508D01*
X17488218Y-11512508D02*
X17497741Y-11522031D01*
X17497741Y-11522031D02*
X17507265Y-11541079D01*
X17507265Y-11541079D02*
X17507265Y-11560127D01*
X17507265Y-11560127D02*
X17497741Y-11588698D01*
X17497741Y-11588698D02*
X17383456Y-11702984D01*
X17383456Y-11702984D02*
X17507265Y-11702984D01*
X17678694Y-11569650D02*
X17678694Y-11702984D01*
X17631075Y-11493460D02*
X17583456Y-11636317D01*
X17583456Y-11636317D02*
X17707265Y-11636317D01*
X17935837Y-11702984D02*
X17935837Y-11502984D01*
X18021551Y-11702984D02*
X18021551Y-11598222D01*
X18021551Y-11598222D02*
X18012027Y-11579174D01*
X18012027Y-11579174D02*
X17992980Y-11569650D01*
X17992980Y-11569650D02*
X17964408Y-11569650D01*
X17964408Y-11569650D02*
X17945361Y-11579174D01*
X17945361Y-11579174D02*
X17935837Y-11588698D01*
X18145361Y-11702984D02*
X18126313Y-11693460D01*
X18126313Y-11693460D02*
X18116789Y-11683936D01*
X18116789Y-11683936D02*
X18107265Y-11664888D01*
X18107265Y-11664888D02*
X18107265Y-11607746D01*
X18107265Y-11607746D02*
X18116789Y-11588698D01*
X18116789Y-11588698D02*
X18126313Y-11579174D01*
X18126313Y-11579174D02*
X18145361Y-11569650D01*
X18145361Y-11569650D02*
X18173932Y-11569650D01*
X18173932Y-11569650D02*
X18192980Y-11579174D01*
X18192980Y-11579174D02*
X18202503Y-11588698D01*
X18202503Y-11588698D02*
X18212027Y-11607746D01*
X18212027Y-11607746D02*
X18212027Y-11664888D01*
X18212027Y-11664888D02*
X18202503Y-11683936D01*
X18202503Y-11683936D02*
X18192980Y-11693460D01*
X18192980Y-11693460D02*
X18173932Y-11702984D01*
X18173932Y-11702984D02*
X18145361Y-11702984D01*
X18326313Y-11702984D02*
X18307265Y-11693460D01*
X18307265Y-11693460D02*
X18297742Y-11674412D01*
X18297742Y-11674412D02*
X18297742Y-11502984D01*
X18478694Y-11693460D02*
X18459646Y-11702984D01*
X18459646Y-11702984D02*
X18421551Y-11702984D01*
X18421551Y-11702984D02*
X18402503Y-11693460D01*
X18402503Y-11693460D02*
X18392980Y-11674412D01*
X18392980Y-11674412D02*
X18392980Y-11598222D01*
X18392980Y-11598222D02*
X18402503Y-11579174D01*
X18402503Y-11579174D02*
X18421551Y-11569650D01*
X18421551Y-11569650D02*
X18459646Y-11569650D01*
X18459646Y-11569650D02*
X18478694Y-11579174D01*
X18478694Y-11579174D02*
X18488218Y-11598222D01*
X18488218Y-11598222D02*
X18488218Y-11617269D01*
X18488218Y-11617269D02*
X18392980Y-11636317D01*
X18564408Y-11693460D02*
X18583456Y-11702984D01*
X18583456Y-11702984D02*
X18621551Y-11702984D01*
X18621551Y-11702984D02*
X18640599Y-11693460D01*
X18640599Y-11693460D02*
X18650123Y-11674412D01*
X18650123Y-11674412D02*
X18650123Y-11664888D01*
X18650123Y-11664888D02*
X18640599Y-11645841D01*
X18640599Y-11645841D02*
X18621551Y-11636317D01*
X18621551Y-11636317D02*
X18592980Y-11636317D01*
X18592980Y-11636317D02*
X18573932Y-11626793D01*
X18573932Y-11626793D02*
X18564408Y-11607746D01*
X18564408Y-11607746D02*
X18564408Y-11598222D01*
X18564408Y-11598222D02*
X18573932Y-11579174D01*
X18573932Y-11579174D02*
X18592980Y-11569650D01*
X18592980Y-11569650D02*
X18621551Y-11569650D01*
X18621551Y-11569650D02*
X18640599Y-11579174D01*
X18716789Y-11779174D02*
X18726313Y-11769650D01*
X18726313Y-11769650D02*
X18745361Y-11741079D01*
X18745361Y-11741079D02*
X18754884Y-11722031D01*
X18754884Y-11722031D02*
X18764408Y-11693460D01*
X18764408Y-11693460D02*
X18773932Y-11645841D01*
X18773932Y-11645841D02*
X18773932Y-11607746D01*
X18773932Y-11607746D02*
X18764408Y-11560127D01*
X18764408Y-11560127D02*
X18754884Y-11531555D01*
X18754884Y-11531555D02*
X18745361Y-11512508D01*
X18745361Y-11512508D02*
X18726313Y-11483936D01*
X18726313Y-11483936D02*
X18716789Y-11474412D01*
D12*
X13701250Y-11825500D02*
X13701250Y-11925500D01*
X13651250Y-11875500D02*
X13751250Y-11875500D01*
D11*
X14116789Y-11966984D02*
X14002503Y-11966984D01*
X14059646Y-11966984D02*
X14059646Y-11766984D01*
X14059646Y-11766984D02*
X14040598Y-11795555D01*
X14040598Y-11795555D02*
X14021551Y-11814603D01*
X14021551Y-11814603D02*
X14002503Y-11824127D01*
X14202503Y-11947936D02*
X14212027Y-11957460D01*
X14212027Y-11957460D02*
X14202503Y-11966984D01*
X14202503Y-11966984D02*
X14192979Y-11957460D01*
X14192979Y-11957460D02*
X14202503Y-11947936D01*
X14202503Y-11947936D02*
X14202503Y-11966984D01*
X14335836Y-11766984D02*
X14354884Y-11766984D01*
X14354884Y-11766984D02*
X14373932Y-11776508D01*
X14373932Y-11776508D02*
X14383455Y-11786031D01*
X14383455Y-11786031D02*
X14392979Y-11805079D01*
X14392979Y-11805079D02*
X14402503Y-11843174D01*
X14402503Y-11843174D02*
X14402503Y-11890793D01*
X14402503Y-11890793D02*
X14392979Y-11928888D01*
X14392979Y-11928888D02*
X14383455Y-11947936D01*
X14383455Y-11947936D02*
X14373932Y-11957460D01*
X14373932Y-11957460D02*
X14354884Y-11966984D01*
X14354884Y-11966984D02*
X14335836Y-11966984D01*
X14335836Y-11966984D02*
X14316789Y-11957460D01*
X14316789Y-11957460D02*
X14307265Y-11947936D01*
X14307265Y-11947936D02*
X14297741Y-11928888D01*
X14297741Y-11928888D02*
X14288217Y-11890793D01*
X14288217Y-11890793D02*
X14288217Y-11843174D01*
X14288217Y-11843174D02*
X14297741Y-11805079D01*
X14297741Y-11805079D02*
X14307265Y-11786031D01*
X14307265Y-11786031D02*
X14316789Y-11776508D01*
X14316789Y-11776508D02*
X14335836Y-11766984D01*
X14526312Y-11766984D02*
X14545360Y-11766984D01*
X14545360Y-11766984D02*
X14564408Y-11776508D01*
X14564408Y-11776508D02*
X14573932Y-11786031D01*
X14573932Y-11786031D02*
X14583455Y-11805079D01*
X14583455Y-11805079D02*
X14592979Y-11843174D01*
X14592979Y-11843174D02*
X14592979Y-11890793D01*
X14592979Y-11890793D02*
X14583455Y-11928888D01*
X14583455Y-11928888D02*
X14573932Y-11947936D01*
X14573932Y-11947936D02*
X14564408Y-11957460D01*
X14564408Y-11957460D02*
X14545360Y-11966984D01*
X14545360Y-11966984D02*
X14526312Y-11966984D01*
X14526312Y-11966984D02*
X14507265Y-11957460D01*
X14507265Y-11957460D02*
X14497741Y-11947936D01*
X14497741Y-11947936D02*
X14488217Y-11928888D01*
X14488217Y-11928888D02*
X14478693Y-11890793D01*
X14478693Y-11890793D02*
X14478693Y-11843174D01*
X14478693Y-11843174D02*
X14488217Y-11805079D01*
X14488217Y-11805079D02*
X14497741Y-11786031D01*
X14497741Y-11786031D02*
X14507265Y-11776508D01*
X14507265Y-11776508D02*
X14526312Y-11766984D01*
X14716789Y-11766984D02*
X14735836Y-11766984D01*
X14735836Y-11766984D02*
X14754884Y-11776508D01*
X14754884Y-11776508D02*
X14764408Y-11786031D01*
X14764408Y-11786031D02*
X14773932Y-11805079D01*
X14773932Y-11805079D02*
X14783455Y-11843174D01*
X14783455Y-11843174D02*
X14783455Y-11890793D01*
X14783455Y-11890793D02*
X14773932Y-11928888D01*
X14773932Y-11928888D02*
X14764408Y-11947936D01*
X14764408Y-11947936D02*
X14754884Y-11957460D01*
X14754884Y-11957460D02*
X14735836Y-11966984D01*
X14735836Y-11966984D02*
X14716789Y-11966984D01*
X14716789Y-11966984D02*
X14697741Y-11957460D01*
X14697741Y-11957460D02*
X14688217Y-11947936D01*
X14688217Y-11947936D02*
X14678693Y-11928888D01*
X14678693Y-11928888D02*
X14669170Y-11890793D01*
X14669170Y-11890793D02*
X14669170Y-11843174D01*
X14669170Y-11843174D02*
X14678693Y-11805079D01*
X14678693Y-11805079D02*
X14688217Y-11786031D01*
X14688217Y-11786031D02*
X14697741Y-11776508D01*
X14697741Y-11776508D02*
X14716789Y-11766984D01*
X14869170Y-11966984D02*
X14869170Y-11833650D01*
X14869170Y-11852698D02*
X14878693Y-11843174D01*
X14878693Y-11843174D02*
X14897741Y-11833650D01*
X14897741Y-11833650D02*
X14926313Y-11833650D01*
X14926313Y-11833650D02*
X14945360Y-11843174D01*
X14945360Y-11843174D02*
X14954884Y-11862222D01*
X14954884Y-11862222D02*
X14954884Y-11966984D01*
X14954884Y-11862222D02*
X14964408Y-11843174D01*
X14964408Y-11843174D02*
X14983455Y-11833650D01*
X14983455Y-11833650D02*
X15012027Y-11833650D01*
X15012027Y-11833650D02*
X15031074Y-11843174D01*
X15031074Y-11843174D02*
X15040598Y-11862222D01*
X15040598Y-11862222D02*
X15040598Y-11966984D01*
X15135836Y-11966984D02*
X15135836Y-11833650D01*
X15135836Y-11852698D02*
X15145360Y-11843174D01*
X15145360Y-11843174D02*
X15164408Y-11833650D01*
X15164408Y-11833650D02*
X15192979Y-11833650D01*
X15192979Y-11833650D02*
X15212027Y-11843174D01*
X15212027Y-11843174D02*
X15221551Y-11862222D01*
X15221551Y-11862222D02*
X15221551Y-11966984D01*
X15221551Y-11862222D02*
X15231074Y-11843174D01*
X15231074Y-11843174D02*
X15250122Y-11833650D01*
X15250122Y-11833650D02*
X15278693Y-11833650D01*
X15278693Y-11833650D02*
X15297741Y-11843174D01*
X15297741Y-11843174D02*
X15307265Y-11862222D01*
X15307265Y-11862222D02*
X15307265Y-11966984D01*
X15697741Y-11757460D02*
X15526313Y-12014603D01*
X15954884Y-11766984D02*
X15973932Y-11766984D01*
X15973932Y-11766984D02*
X15992979Y-11776508D01*
X15992979Y-11776508D02*
X16002503Y-11786031D01*
X16002503Y-11786031D02*
X16012027Y-11805079D01*
X16012027Y-11805079D02*
X16021551Y-11843174D01*
X16021551Y-11843174D02*
X16021551Y-11890793D01*
X16021551Y-11890793D02*
X16012027Y-11928888D01*
X16012027Y-11928888D02*
X16002503Y-11947936D01*
X16002503Y-11947936D02*
X15992979Y-11957460D01*
X15992979Y-11957460D02*
X15973932Y-11966984D01*
X15973932Y-11966984D02*
X15954884Y-11966984D01*
X15954884Y-11966984D02*
X15935836Y-11957460D01*
X15935836Y-11957460D02*
X15926313Y-11947936D01*
X15926313Y-11947936D02*
X15916789Y-11928888D01*
X15916789Y-11928888D02*
X15907265Y-11890793D01*
X15907265Y-11890793D02*
X15907265Y-11843174D01*
X15907265Y-11843174D02*
X15916789Y-11805079D01*
X15916789Y-11805079D02*
X15926313Y-11786031D01*
X15926313Y-11786031D02*
X15935836Y-11776508D01*
X15935836Y-11776508D02*
X15954884Y-11766984D01*
X16107265Y-11947936D02*
X16116789Y-11957460D01*
X16116789Y-11957460D02*
X16107265Y-11966984D01*
X16107265Y-11966984D02*
X16097741Y-11957460D01*
X16097741Y-11957460D02*
X16107265Y-11947936D01*
X16107265Y-11947936D02*
X16107265Y-11966984D01*
X16240598Y-11766984D02*
X16259646Y-11766984D01*
X16259646Y-11766984D02*
X16278694Y-11776508D01*
X16278694Y-11776508D02*
X16288217Y-11786031D01*
X16288217Y-11786031D02*
X16297741Y-11805079D01*
X16297741Y-11805079D02*
X16307265Y-11843174D01*
X16307265Y-11843174D02*
X16307265Y-11890793D01*
X16307265Y-11890793D02*
X16297741Y-11928888D01*
X16297741Y-11928888D02*
X16288217Y-11947936D01*
X16288217Y-11947936D02*
X16278694Y-11957460D01*
X16278694Y-11957460D02*
X16259646Y-11966984D01*
X16259646Y-11966984D02*
X16240598Y-11966984D01*
X16240598Y-11966984D02*
X16221551Y-11957460D01*
X16221551Y-11957460D02*
X16212027Y-11947936D01*
X16212027Y-11947936D02*
X16202503Y-11928888D01*
X16202503Y-11928888D02*
X16192979Y-11890793D01*
X16192979Y-11890793D02*
X16192979Y-11843174D01*
X16192979Y-11843174D02*
X16202503Y-11805079D01*
X16202503Y-11805079D02*
X16212027Y-11786031D01*
X16212027Y-11786031D02*
X16221551Y-11776508D01*
X16221551Y-11776508D02*
X16240598Y-11766984D01*
X16373932Y-11766984D02*
X16497741Y-11766984D01*
X16497741Y-11766984D02*
X16431075Y-11843174D01*
X16431075Y-11843174D02*
X16459646Y-11843174D01*
X16459646Y-11843174D02*
X16478694Y-11852698D01*
X16478694Y-11852698D02*
X16488217Y-11862222D01*
X16488217Y-11862222D02*
X16497741Y-11881269D01*
X16497741Y-11881269D02*
X16497741Y-11928888D01*
X16497741Y-11928888D02*
X16488217Y-11947936D01*
X16488217Y-11947936D02*
X16478694Y-11957460D01*
X16478694Y-11957460D02*
X16459646Y-11966984D01*
X16459646Y-11966984D02*
X16402503Y-11966984D01*
X16402503Y-11966984D02*
X16383456Y-11957460D01*
X16383456Y-11957460D02*
X16373932Y-11947936D01*
X16592979Y-11966984D02*
X16631075Y-11966984D01*
X16631075Y-11966984D02*
X16650122Y-11957460D01*
X16650122Y-11957460D02*
X16659646Y-11947936D01*
X16659646Y-11947936D02*
X16678694Y-11919365D01*
X16678694Y-11919365D02*
X16688217Y-11881269D01*
X16688217Y-11881269D02*
X16688217Y-11805079D01*
X16688217Y-11805079D02*
X16678694Y-11786031D01*
X16678694Y-11786031D02*
X16669170Y-11776508D01*
X16669170Y-11776508D02*
X16650122Y-11766984D01*
X16650122Y-11766984D02*
X16612027Y-11766984D01*
X16612027Y-11766984D02*
X16592979Y-11776508D01*
X16592979Y-11776508D02*
X16583456Y-11786031D01*
X16583456Y-11786031D02*
X16573932Y-11805079D01*
X16573932Y-11805079D02*
X16573932Y-11852698D01*
X16573932Y-11852698D02*
X16583456Y-11871746D01*
X16583456Y-11871746D02*
X16592979Y-11881269D01*
X16592979Y-11881269D02*
X16612027Y-11890793D01*
X16612027Y-11890793D02*
X16650122Y-11890793D01*
X16650122Y-11890793D02*
X16669170Y-11881269D01*
X16669170Y-11881269D02*
X16678694Y-11871746D01*
X16678694Y-11871746D02*
X16688217Y-11852698D01*
X16859646Y-11833650D02*
X16859646Y-11966984D01*
X16812027Y-11757460D02*
X16764408Y-11900317D01*
X16764408Y-11900317D02*
X16888218Y-11900317D01*
X16954884Y-11766984D02*
X16954884Y-11805079D01*
X17031075Y-11766984D02*
X17031075Y-11805079D01*
X17326313Y-12043174D02*
X17316789Y-12033650D01*
X17316789Y-12033650D02*
X17297741Y-12005079D01*
X17297741Y-12005079D02*
X17288218Y-11986031D01*
X17288218Y-11986031D02*
X17278694Y-11957460D01*
X17278694Y-11957460D02*
X17269170Y-11909841D01*
X17269170Y-11909841D02*
X17269170Y-11871746D01*
X17269170Y-11871746D02*
X17278694Y-11824127D01*
X17278694Y-11824127D02*
X17288218Y-11795555D01*
X17288218Y-11795555D02*
X17297741Y-11776508D01*
X17297741Y-11776508D02*
X17316789Y-11747936D01*
X17316789Y-11747936D02*
X17326313Y-11738412D01*
X17383456Y-11766984D02*
X17507265Y-11766984D01*
X17507265Y-11766984D02*
X17440599Y-11843174D01*
X17440599Y-11843174D02*
X17469170Y-11843174D01*
X17469170Y-11843174D02*
X17488218Y-11852698D01*
X17488218Y-11852698D02*
X17497741Y-11862222D01*
X17497741Y-11862222D02*
X17507265Y-11881269D01*
X17507265Y-11881269D02*
X17507265Y-11928888D01*
X17507265Y-11928888D02*
X17497741Y-11947936D01*
X17497741Y-11947936D02*
X17488218Y-11957460D01*
X17488218Y-11957460D02*
X17469170Y-11966984D01*
X17469170Y-11966984D02*
X17412027Y-11966984D01*
X17412027Y-11966984D02*
X17392980Y-11957460D01*
X17392980Y-11957460D02*
X17383456Y-11947936D01*
X17745361Y-11966984D02*
X17745361Y-11766984D01*
X17831075Y-11966984D02*
X17831075Y-11862222D01*
X17831075Y-11862222D02*
X17821551Y-11843174D01*
X17821551Y-11843174D02*
X17802503Y-11833650D01*
X17802503Y-11833650D02*
X17773932Y-11833650D01*
X17773932Y-11833650D02*
X17754884Y-11843174D01*
X17754884Y-11843174D02*
X17745361Y-11852698D01*
X17954884Y-11966984D02*
X17935837Y-11957460D01*
X17935837Y-11957460D02*
X17926313Y-11947936D01*
X17926313Y-11947936D02*
X17916789Y-11928888D01*
X17916789Y-11928888D02*
X17916789Y-11871746D01*
X17916789Y-11871746D02*
X17926313Y-11852698D01*
X17926313Y-11852698D02*
X17935837Y-11843174D01*
X17935837Y-11843174D02*
X17954884Y-11833650D01*
X17954884Y-11833650D02*
X17983456Y-11833650D01*
X17983456Y-11833650D02*
X18002503Y-11843174D01*
X18002503Y-11843174D02*
X18012027Y-11852698D01*
X18012027Y-11852698D02*
X18021551Y-11871746D01*
X18021551Y-11871746D02*
X18021551Y-11928888D01*
X18021551Y-11928888D02*
X18012027Y-11947936D01*
X18012027Y-11947936D02*
X18002503Y-11957460D01*
X18002503Y-11957460D02*
X17983456Y-11966984D01*
X17983456Y-11966984D02*
X17954884Y-11966984D01*
X18135837Y-11966984D02*
X18116789Y-11957460D01*
X18116789Y-11957460D02*
X18107265Y-11938412D01*
X18107265Y-11938412D02*
X18107265Y-11766984D01*
X18288218Y-11957460D02*
X18269170Y-11966984D01*
X18269170Y-11966984D02*
X18231075Y-11966984D01*
X18231075Y-11966984D02*
X18212027Y-11957460D01*
X18212027Y-11957460D02*
X18202503Y-11938412D01*
X18202503Y-11938412D02*
X18202503Y-11862222D01*
X18202503Y-11862222D02*
X18212027Y-11843174D01*
X18212027Y-11843174D02*
X18231075Y-11833650D01*
X18231075Y-11833650D02*
X18269170Y-11833650D01*
X18269170Y-11833650D02*
X18288218Y-11843174D01*
X18288218Y-11843174D02*
X18297742Y-11862222D01*
X18297742Y-11862222D02*
X18297742Y-11881269D01*
X18297742Y-11881269D02*
X18202503Y-11900317D01*
X18373932Y-11957460D02*
X18392980Y-11966984D01*
X18392980Y-11966984D02*
X18431075Y-11966984D01*
X18431075Y-11966984D02*
X18450123Y-11957460D01*
X18450123Y-11957460D02*
X18459646Y-11938412D01*
X18459646Y-11938412D02*
X18459646Y-11928888D01*
X18459646Y-11928888D02*
X18450123Y-11909841D01*
X18450123Y-11909841D02*
X18431075Y-11900317D01*
X18431075Y-11900317D02*
X18402503Y-11900317D01*
X18402503Y-11900317D02*
X18383456Y-11890793D01*
X18383456Y-11890793D02*
X18373932Y-11871746D01*
X18373932Y-11871746D02*
X18373932Y-11862222D01*
X18373932Y-11862222D02*
X18383456Y-11843174D01*
X18383456Y-11843174D02*
X18402503Y-11833650D01*
X18402503Y-11833650D02*
X18431075Y-11833650D01*
X18431075Y-11833650D02*
X18450123Y-11843174D01*
X18526313Y-12043174D02*
X18535837Y-12033650D01*
X18535837Y-12033650D02*
X18554884Y-12005079D01*
X18554884Y-12005079D02*
X18564408Y-11986031D01*
X18564408Y-11986031D02*
X18573932Y-11957460D01*
X18573932Y-11957460D02*
X18583456Y-11909841D01*
X18583456Y-11909841D02*
X18583456Y-11871746D01*
X18583456Y-11871746D02*
X18573932Y-11824127D01*
X18573932Y-11824127D02*
X18564408Y-11795555D01*
X18564408Y-11795555D02*
X18554884Y-11776508D01*
X18554884Y-11776508D02*
X18535837Y-11747936D01*
X18535837Y-11747936D02*
X18526313Y-11738412D01*
M02*
