G04 #@! TF.GenerationSoftware,KiCad,Pcbnew,(5.0.0)*
G04 #@! TF.CreationDate,2018-07-26T01:08:58+02:00*
G04 #@! TF.ProjectId,bosch_kf4_pll,626F7363685F6B66345F706C6C2E6B69,rev?*
G04 #@! TF.SameCoordinates,Original*
G04 #@! TF.FileFunction,Copper,L1,Top,Signal*
G04 #@! TF.FilePolarity,Positive*
%FSLAX46Y46*%
G04 Gerber Fmt 4.6, Leading zero omitted, Abs format (unit mm)*
G04 Created by KiCad (PCBNEW (5.0.0)) date 07/26/18 01:08:58*
%MOMM*%
%LPD*%
G01*
G04 APERTURE LIST*
G04 #@! TA.AperFunction,Conductor*
%ADD10C,0.100000*%
G04 #@! TD*
G04 #@! TA.AperFunction,SMDPad,CuDef*
%ADD11C,0.975000*%
G04 #@! TD*
G04 #@! TA.AperFunction,ComponentPad*
%ADD12O,1.600000X1.600000*%
G04 #@! TD*
G04 #@! TA.AperFunction,ComponentPad*
%ADD13R,1.600000X1.600000*%
G04 #@! TD*
G04 #@! TA.AperFunction,SMDPad,CuDef*
%ADD14R,0.800000X0.900000*%
G04 #@! TD*
G04 #@! TA.AperFunction,ComponentPad*
%ADD15O,1.700000X1.700000*%
G04 #@! TD*
G04 #@! TA.AperFunction,ComponentPad*
%ADD16R,1.700000X1.700000*%
G04 #@! TD*
G04 #@! TA.AperFunction,ViaPad*
%ADD17C,0.889000*%
G04 #@! TD*
G04 #@! TA.AperFunction,ViaPad*
%ADD18C,0.685800*%
G04 #@! TD*
G04 #@! TA.AperFunction,ViaPad*
%ADD19C,0.762000*%
G04 #@! TD*
G04 #@! TA.AperFunction,Conductor*
%ADD20C,0.508000*%
G04 #@! TD*
G04 #@! TA.AperFunction,Conductor*
%ADD21C,0.254000*%
G04 #@! TD*
G04 APERTURE END LIST*
D10*
G04 #@! TO.N,+5V*
G04 #@! TO.C,C5*
G36*
X128870142Y-75818674D02*
X128893803Y-75822184D01*
X128917007Y-75827996D01*
X128939529Y-75836054D01*
X128961153Y-75846282D01*
X128981670Y-75858579D01*
X129000883Y-75872829D01*
X129018607Y-75888893D01*
X129034671Y-75906617D01*
X129048921Y-75925830D01*
X129061218Y-75946347D01*
X129071446Y-75967971D01*
X129079504Y-75990493D01*
X129085316Y-76013697D01*
X129088826Y-76037358D01*
X129090000Y-76061250D01*
X129090000Y-76973750D01*
X129088826Y-76997642D01*
X129085316Y-77021303D01*
X129079504Y-77044507D01*
X129071446Y-77067029D01*
X129061218Y-77088653D01*
X129048921Y-77109170D01*
X129034671Y-77128383D01*
X129018607Y-77146107D01*
X129000883Y-77162171D01*
X128981670Y-77176421D01*
X128961153Y-77188718D01*
X128939529Y-77198946D01*
X128917007Y-77207004D01*
X128893803Y-77212816D01*
X128870142Y-77216326D01*
X128846250Y-77217500D01*
X128358750Y-77217500D01*
X128334858Y-77216326D01*
X128311197Y-77212816D01*
X128287993Y-77207004D01*
X128265471Y-77198946D01*
X128243847Y-77188718D01*
X128223330Y-77176421D01*
X128204117Y-77162171D01*
X128186393Y-77146107D01*
X128170329Y-77128383D01*
X128156079Y-77109170D01*
X128143782Y-77088653D01*
X128133554Y-77067029D01*
X128125496Y-77044507D01*
X128119684Y-77021303D01*
X128116174Y-76997642D01*
X128115000Y-76973750D01*
X128115000Y-76061250D01*
X128116174Y-76037358D01*
X128119684Y-76013697D01*
X128125496Y-75990493D01*
X128133554Y-75967971D01*
X128143782Y-75946347D01*
X128156079Y-75925830D01*
X128170329Y-75906617D01*
X128186393Y-75888893D01*
X128204117Y-75872829D01*
X128223330Y-75858579D01*
X128243847Y-75846282D01*
X128265471Y-75836054D01*
X128287993Y-75827996D01*
X128311197Y-75822184D01*
X128334858Y-75818674D01*
X128358750Y-75817500D01*
X128846250Y-75817500D01*
X128870142Y-75818674D01*
X128870142Y-75818674D01*
G37*
D11*
G04 #@! TD*
G04 #@! TO.P,C5,1*
G04 #@! TO.N,+5V*
X128602500Y-76517500D03*
D10*
G04 #@! TO.N,GND*
G04 #@! TO.C,C5*
G36*
X130745142Y-75818674D02*
X130768803Y-75822184D01*
X130792007Y-75827996D01*
X130814529Y-75836054D01*
X130836153Y-75846282D01*
X130856670Y-75858579D01*
X130875883Y-75872829D01*
X130893607Y-75888893D01*
X130909671Y-75906617D01*
X130923921Y-75925830D01*
X130936218Y-75946347D01*
X130946446Y-75967971D01*
X130954504Y-75990493D01*
X130960316Y-76013697D01*
X130963826Y-76037358D01*
X130965000Y-76061250D01*
X130965000Y-76973750D01*
X130963826Y-76997642D01*
X130960316Y-77021303D01*
X130954504Y-77044507D01*
X130946446Y-77067029D01*
X130936218Y-77088653D01*
X130923921Y-77109170D01*
X130909671Y-77128383D01*
X130893607Y-77146107D01*
X130875883Y-77162171D01*
X130856670Y-77176421D01*
X130836153Y-77188718D01*
X130814529Y-77198946D01*
X130792007Y-77207004D01*
X130768803Y-77212816D01*
X130745142Y-77216326D01*
X130721250Y-77217500D01*
X130233750Y-77217500D01*
X130209858Y-77216326D01*
X130186197Y-77212816D01*
X130162993Y-77207004D01*
X130140471Y-77198946D01*
X130118847Y-77188718D01*
X130098330Y-77176421D01*
X130079117Y-77162171D01*
X130061393Y-77146107D01*
X130045329Y-77128383D01*
X130031079Y-77109170D01*
X130018782Y-77088653D01*
X130008554Y-77067029D01*
X130000496Y-77044507D01*
X129994684Y-77021303D01*
X129991174Y-76997642D01*
X129990000Y-76973750D01*
X129990000Y-76061250D01*
X129991174Y-76037358D01*
X129994684Y-76013697D01*
X130000496Y-75990493D01*
X130008554Y-75967971D01*
X130018782Y-75946347D01*
X130031079Y-75925830D01*
X130045329Y-75906617D01*
X130061393Y-75888893D01*
X130079117Y-75872829D01*
X130098330Y-75858579D01*
X130118847Y-75846282D01*
X130140471Y-75836054D01*
X130162993Y-75827996D01*
X130186197Y-75822184D01*
X130209858Y-75818674D01*
X130233750Y-75817500D01*
X130721250Y-75817500D01*
X130745142Y-75818674D01*
X130745142Y-75818674D01*
G37*
D11*
G04 #@! TD*
G04 #@! TO.P,C5,2*
G04 #@! TO.N,GND*
X130477500Y-76517500D03*
D12*
G04 #@! TO.P,J2,24*
G04 #@! TO.N,GND*
X140970000Y-62230000D03*
G04 #@! TO.P,J2,12*
G04 #@! TO.N,Net-(J2-Pad12)*
X125730000Y-90170000D03*
G04 #@! TO.P,J2,23*
G04 #@! TO.N,+8V*
X140970000Y-64770000D03*
G04 #@! TO.P,J2,11*
G04 #@! TO.N,D7*
X125730000Y-87630000D03*
G04 #@! TO.P,J2,22*
G04 #@! TO.N,+8V*
X140970000Y-67310000D03*
G04 #@! TO.P,J2,10*
G04 #@! TO.N,D6*
X125730000Y-85090000D03*
G04 #@! TO.P,J2,21*
G04 #@! TO.N,RXD*
X140970000Y-69850000D03*
G04 #@! TO.P,J2,9*
G04 #@! TO.N,D5*
X125730000Y-82550000D03*
G04 #@! TO.P,J2,20*
G04 #@! TO.N,TXD*
X140970000Y-72390000D03*
G04 #@! TO.P,J2,8*
G04 #@! TO.N,D4*
X125730000Y-80010000D03*
G04 #@! TO.P,J2,19*
G04 #@! TO.N,SQL*
X140970000Y-74930000D03*
G04 #@! TO.P,J2,7*
G04 #@! TO.N,D3*
X125730000Y-77470000D03*
G04 #@! TO.P,J2,18*
G04 #@! TO.N,PTT_OUT*
X140970000Y-77470000D03*
G04 #@! TO.P,J2,6*
G04 #@! TO.N,D2*
X125730000Y-74930000D03*
G04 #@! TO.P,J2,17*
G04 #@! TO.N,PTT_SENSE*
X140970000Y-80010000D03*
G04 #@! TO.P,J2,5*
G04 #@! TO.N,D1*
X125730000Y-72390000D03*
G04 #@! TO.P,J2,16*
G04 #@! TO.N,GND*
X140970000Y-82550000D03*
G04 #@! TO.P,J2,4*
G04 #@! TO.N,D0*
X125730000Y-69850000D03*
G04 #@! TO.P,J2,15*
G04 #@! TO.N,Net-(J2-Pad15)*
X140970000Y-85090000D03*
G04 #@! TO.P,J2,3*
G04 #@! TO.N,A0*
X125730000Y-67310000D03*
G04 #@! TO.P,J2,14*
G04 #@! TO.N,GND*
X140970000Y-87630000D03*
G04 #@! TO.P,J2,2*
G04 #@! TO.N,A1*
X125730000Y-64770000D03*
G04 #@! TO.P,J2,13*
G04 #@! TO.N,Net-(J2-Pad13)*
X140970000Y-90170000D03*
D13*
G04 #@! TO.P,J2,1*
G04 #@! TO.N,A*
X125730000Y-62230000D03*
G04 #@! TD*
D14*
G04 #@! TO.P,Q1,1*
G04 #@! TO.N,Net-(Q1-Pad1)*
X138745000Y-72977500D03*
G04 #@! TO.P,Q1,2*
G04 #@! TO.N,GND*
X136845000Y-72977500D03*
G04 #@! TO.P,Q1,3*
G04 #@! TO.N,PTT_OUT*
X137795000Y-74977500D03*
G04 #@! TD*
D10*
G04 #@! TO.N,GND*
G04 #@! TO.C,C1*
G36*
X136807642Y-62801174D02*
X136831303Y-62804684D01*
X136854507Y-62810496D01*
X136877029Y-62818554D01*
X136898653Y-62828782D01*
X136919170Y-62841079D01*
X136938383Y-62855329D01*
X136956107Y-62871393D01*
X136972171Y-62889117D01*
X136986421Y-62908330D01*
X136998718Y-62928847D01*
X137008946Y-62950471D01*
X137017004Y-62972993D01*
X137022816Y-62996197D01*
X137026326Y-63019858D01*
X137027500Y-63043750D01*
X137027500Y-63956250D01*
X137026326Y-63980142D01*
X137022816Y-64003803D01*
X137017004Y-64027007D01*
X137008946Y-64049529D01*
X136998718Y-64071153D01*
X136986421Y-64091670D01*
X136972171Y-64110883D01*
X136956107Y-64128607D01*
X136938383Y-64144671D01*
X136919170Y-64158921D01*
X136898653Y-64171218D01*
X136877029Y-64181446D01*
X136854507Y-64189504D01*
X136831303Y-64195316D01*
X136807642Y-64198826D01*
X136783750Y-64200000D01*
X136296250Y-64200000D01*
X136272358Y-64198826D01*
X136248697Y-64195316D01*
X136225493Y-64189504D01*
X136202971Y-64181446D01*
X136181347Y-64171218D01*
X136160830Y-64158921D01*
X136141617Y-64144671D01*
X136123893Y-64128607D01*
X136107829Y-64110883D01*
X136093579Y-64091670D01*
X136081282Y-64071153D01*
X136071054Y-64049529D01*
X136062996Y-64027007D01*
X136057184Y-64003803D01*
X136053674Y-63980142D01*
X136052500Y-63956250D01*
X136052500Y-63043750D01*
X136053674Y-63019858D01*
X136057184Y-62996197D01*
X136062996Y-62972993D01*
X136071054Y-62950471D01*
X136081282Y-62928847D01*
X136093579Y-62908330D01*
X136107829Y-62889117D01*
X136123893Y-62871393D01*
X136141617Y-62855329D01*
X136160830Y-62841079D01*
X136181347Y-62828782D01*
X136202971Y-62818554D01*
X136225493Y-62810496D01*
X136248697Y-62804684D01*
X136272358Y-62801174D01*
X136296250Y-62800000D01*
X136783750Y-62800000D01*
X136807642Y-62801174D01*
X136807642Y-62801174D01*
G37*
D11*
G04 #@! TD*
G04 #@! TO.P,C1,2*
G04 #@! TO.N,GND*
X136540000Y-63500000D03*
D10*
G04 #@! TO.N,+8V*
G04 #@! TO.C,C1*
G36*
X138682642Y-62801174D02*
X138706303Y-62804684D01*
X138729507Y-62810496D01*
X138752029Y-62818554D01*
X138773653Y-62828782D01*
X138794170Y-62841079D01*
X138813383Y-62855329D01*
X138831107Y-62871393D01*
X138847171Y-62889117D01*
X138861421Y-62908330D01*
X138873718Y-62928847D01*
X138883946Y-62950471D01*
X138892004Y-62972993D01*
X138897816Y-62996197D01*
X138901326Y-63019858D01*
X138902500Y-63043750D01*
X138902500Y-63956250D01*
X138901326Y-63980142D01*
X138897816Y-64003803D01*
X138892004Y-64027007D01*
X138883946Y-64049529D01*
X138873718Y-64071153D01*
X138861421Y-64091670D01*
X138847171Y-64110883D01*
X138831107Y-64128607D01*
X138813383Y-64144671D01*
X138794170Y-64158921D01*
X138773653Y-64171218D01*
X138752029Y-64181446D01*
X138729507Y-64189504D01*
X138706303Y-64195316D01*
X138682642Y-64198826D01*
X138658750Y-64200000D01*
X138171250Y-64200000D01*
X138147358Y-64198826D01*
X138123697Y-64195316D01*
X138100493Y-64189504D01*
X138077971Y-64181446D01*
X138056347Y-64171218D01*
X138035830Y-64158921D01*
X138016617Y-64144671D01*
X137998893Y-64128607D01*
X137982829Y-64110883D01*
X137968579Y-64091670D01*
X137956282Y-64071153D01*
X137946054Y-64049529D01*
X137937996Y-64027007D01*
X137932184Y-64003803D01*
X137928674Y-63980142D01*
X137927500Y-63956250D01*
X137927500Y-63043750D01*
X137928674Y-63019858D01*
X137932184Y-62996197D01*
X137937996Y-62972993D01*
X137946054Y-62950471D01*
X137956282Y-62928847D01*
X137968579Y-62908330D01*
X137982829Y-62889117D01*
X137998893Y-62871393D01*
X138016617Y-62855329D01*
X138035830Y-62841079D01*
X138056347Y-62828782D01*
X138077971Y-62818554D01*
X138100493Y-62810496D01*
X138123697Y-62804684D01*
X138147358Y-62801174D01*
X138171250Y-62800000D01*
X138658750Y-62800000D01*
X138682642Y-62801174D01*
X138682642Y-62801174D01*
G37*
D11*
G04 #@! TD*
G04 #@! TO.P,C1,1*
G04 #@! TO.N,+8V*
X138415000Y-63500000D03*
D10*
G04 #@! TO.N,+5V*
G04 #@! TO.C,C4*
G36*
X135537642Y-80581174D02*
X135561303Y-80584684D01*
X135584507Y-80590496D01*
X135607029Y-80598554D01*
X135628653Y-80608782D01*
X135649170Y-80621079D01*
X135668383Y-80635329D01*
X135686107Y-80651393D01*
X135702171Y-80669117D01*
X135716421Y-80688330D01*
X135728718Y-80708847D01*
X135738946Y-80730471D01*
X135747004Y-80752993D01*
X135752816Y-80776197D01*
X135756326Y-80799858D01*
X135757500Y-80823750D01*
X135757500Y-81736250D01*
X135756326Y-81760142D01*
X135752816Y-81783803D01*
X135747004Y-81807007D01*
X135738946Y-81829529D01*
X135728718Y-81851153D01*
X135716421Y-81871670D01*
X135702171Y-81890883D01*
X135686107Y-81908607D01*
X135668383Y-81924671D01*
X135649170Y-81938921D01*
X135628653Y-81951218D01*
X135607029Y-81961446D01*
X135584507Y-81969504D01*
X135561303Y-81975316D01*
X135537642Y-81978826D01*
X135513750Y-81980000D01*
X135026250Y-81980000D01*
X135002358Y-81978826D01*
X134978697Y-81975316D01*
X134955493Y-81969504D01*
X134932971Y-81961446D01*
X134911347Y-81951218D01*
X134890830Y-81938921D01*
X134871617Y-81924671D01*
X134853893Y-81908607D01*
X134837829Y-81890883D01*
X134823579Y-81871670D01*
X134811282Y-81851153D01*
X134801054Y-81829529D01*
X134792996Y-81807007D01*
X134787184Y-81783803D01*
X134783674Y-81760142D01*
X134782500Y-81736250D01*
X134782500Y-80823750D01*
X134783674Y-80799858D01*
X134787184Y-80776197D01*
X134792996Y-80752993D01*
X134801054Y-80730471D01*
X134811282Y-80708847D01*
X134823579Y-80688330D01*
X134837829Y-80669117D01*
X134853893Y-80651393D01*
X134871617Y-80635329D01*
X134890830Y-80621079D01*
X134911347Y-80608782D01*
X134932971Y-80598554D01*
X134955493Y-80590496D01*
X134978697Y-80584684D01*
X135002358Y-80581174D01*
X135026250Y-80580000D01*
X135513750Y-80580000D01*
X135537642Y-80581174D01*
X135537642Y-80581174D01*
G37*
D11*
G04 #@! TD*
G04 #@! TO.P,C4,1*
G04 #@! TO.N,+5V*
X135270000Y-81280000D03*
D10*
G04 #@! TO.N,GND*
G04 #@! TO.C,C4*
G36*
X137412642Y-80581174D02*
X137436303Y-80584684D01*
X137459507Y-80590496D01*
X137482029Y-80598554D01*
X137503653Y-80608782D01*
X137524170Y-80621079D01*
X137543383Y-80635329D01*
X137561107Y-80651393D01*
X137577171Y-80669117D01*
X137591421Y-80688330D01*
X137603718Y-80708847D01*
X137613946Y-80730471D01*
X137622004Y-80752993D01*
X137627816Y-80776197D01*
X137631326Y-80799858D01*
X137632500Y-80823750D01*
X137632500Y-81736250D01*
X137631326Y-81760142D01*
X137627816Y-81783803D01*
X137622004Y-81807007D01*
X137613946Y-81829529D01*
X137603718Y-81851153D01*
X137591421Y-81871670D01*
X137577171Y-81890883D01*
X137561107Y-81908607D01*
X137543383Y-81924671D01*
X137524170Y-81938921D01*
X137503653Y-81951218D01*
X137482029Y-81961446D01*
X137459507Y-81969504D01*
X137436303Y-81975316D01*
X137412642Y-81978826D01*
X137388750Y-81980000D01*
X136901250Y-81980000D01*
X136877358Y-81978826D01*
X136853697Y-81975316D01*
X136830493Y-81969504D01*
X136807971Y-81961446D01*
X136786347Y-81951218D01*
X136765830Y-81938921D01*
X136746617Y-81924671D01*
X136728893Y-81908607D01*
X136712829Y-81890883D01*
X136698579Y-81871670D01*
X136686282Y-81851153D01*
X136676054Y-81829529D01*
X136667996Y-81807007D01*
X136662184Y-81783803D01*
X136658674Y-81760142D01*
X136657500Y-81736250D01*
X136657500Y-80823750D01*
X136658674Y-80799858D01*
X136662184Y-80776197D01*
X136667996Y-80752993D01*
X136676054Y-80730471D01*
X136686282Y-80708847D01*
X136698579Y-80688330D01*
X136712829Y-80669117D01*
X136728893Y-80651393D01*
X136746617Y-80635329D01*
X136765830Y-80621079D01*
X136786347Y-80608782D01*
X136807971Y-80598554D01*
X136830493Y-80590496D01*
X136853697Y-80584684D01*
X136877358Y-80581174D01*
X136901250Y-80580000D01*
X137388750Y-80580000D01*
X137412642Y-80581174D01*
X137412642Y-80581174D01*
G37*
D11*
G04 #@! TD*
G04 #@! TO.P,C4,2*
G04 #@! TO.N,GND*
X137145000Y-81280000D03*
D15*
G04 #@! TO.P,J1,6*
G04 #@! TO.N,GND*
X135890000Y-87630000D03*
G04 #@! TO.P,J1,5*
G04 #@! TO.N,RST*
X135890000Y-90170000D03*
G04 #@! TO.P,J1,4*
G04 #@! TO.N,MOSI*
X133350000Y-87630000D03*
G04 #@! TO.P,J1,3*
G04 #@! TO.N,SCK*
X133350000Y-90170000D03*
G04 #@! TO.P,J1,2*
G04 #@! TO.N,+5V*
X130810000Y-87630000D03*
D16*
G04 #@! TO.P,J1,1*
G04 #@! TO.N,MISO*
X130810000Y-90170000D03*
G04 #@! TD*
D10*
G04 #@! TO.N,GND*
G04 #@! TO.C,R1*
G36*
X130110142Y-66611174D02*
X130133803Y-66614684D01*
X130157007Y-66620496D01*
X130179529Y-66628554D01*
X130201153Y-66638782D01*
X130221670Y-66651079D01*
X130240883Y-66665329D01*
X130258607Y-66681393D01*
X130274671Y-66699117D01*
X130288921Y-66718330D01*
X130301218Y-66738847D01*
X130311446Y-66760471D01*
X130319504Y-66782993D01*
X130325316Y-66806197D01*
X130328826Y-66829858D01*
X130330000Y-66853750D01*
X130330000Y-67766250D01*
X130328826Y-67790142D01*
X130325316Y-67813803D01*
X130319504Y-67837007D01*
X130311446Y-67859529D01*
X130301218Y-67881153D01*
X130288921Y-67901670D01*
X130274671Y-67920883D01*
X130258607Y-67938607D01*
X130240883Y-67954671D01*
X130221670Y-67968921D01*
X130201153Y-67981218D01*
X130179529Y-67991446D01*
X130157007Y-67999504D01*
X130133803Y-68005316D01*
X130110142Y-68008826D01*
X130086250Y-68010000D01*
X129598750Y-68010000D01*
X129574858Y-68008826D01*
X129551197Y-68005316D01*
X129527993Y-67999504D01*
X129505471Y-67991446D01*
X129483847Y-67981218D01*
X129463330Y-67968921D01*
X129444117Y-67954671D01*
X129426393Y-67938607D01*
X129410329Y-67920883D01*
X129396079Y-67901670D01*
X129383782Y-67881153D01*
X129373554Y-67859529D01*
X129365496Y-67837007D01*
X129359684Y-67813803D01*
X129356174Y-67790142D01*
X129355000Y-67766250D01*
X129355000Y-66853750D01*
X129356174Y-66829858D01*
X129359684Y-66806197D01*
X129365496Y-66782993D01*
X129373554Y-66760471D01*
X129383782Y-66738847D01*
X129396079Y-66718330D01*
X129410329Y-66699117D01*
X129426393Y-66681393D01*
X129444117Y-66665329D01*
X129463330Y-66651079D01*
X129483847Y-66638782D01*
X129505471Y-66628554D01*
X129527993Y-66620496D01*
X129551197Y-66614684D01*
X129574858Y-66611174D01*
X129598750Y-66610000D01*
X130086250Y-66610000D01*
X130110142Y-66611174D01*
X130110142Y-66611174D01*
G37*
D11*
G04 #@! TD*
G04 #@! TO.P,R1,2*
G04 #@! TO.N,GND*
X129842500Y-67310000D03*
D10*
G04 #@! TO.N,A0*
G04 #@! TO.C,R1*
G36*
X128235142Y-66611174D02*
X128258803Y-66614684D01*
X128282007Y-66620496D01*
X128304529Y-66628554D01*
X128326153Y-66638782D01*
X128346670Y-66651079D01*
X128365883Y-66665329D01*
X128383607Y-66681393D01*
X128399671Y-66699117D01*
X128413921Y-66718330D01*
X128426218Y-66738847D01*
X128436446Y-66760471D01*
X128444504Y-66782993D01*
X128450316Y-66806197D01*
X128453826Y-66829858D01*
X128455000Y-66853750D01*
X128455000Y-67766250D01*
X128453826Y-67790142D01*
X128450316Y-67813803D01*
X128444504Y-67837007D01*
X128436446Y-67859529D01*
X128426218Y-67881153D01*
X128413921Y-67901670D01*
X128399671Y-67920883D01*
X128383607Y-67938607D01*
X128365883Y-67954671D01*
X128346670Y-67968921D01*
X128326153Y-67981218D01*
X128304529Y-67991446D01*
X128282007Y-67999504D01*
X128258803Y-68005316D01*
X128235142Y-68008826D01*
X128211250Y-68010000D01*
X127723750Y-68010000D01*
X127699858Y-68008826D01*
X127676197Y-68005316D01*
X127652993Y-67999504D01*
X127630471Y-67991446D01*
X127608847Y-67981218D01*
X127588330Y-67968921D01*
X127569117Y-67954671D01*
X127551393Y-67938607D01*
X127535329Y-67920883D01*
X127521079Y-67901670D01*
X127508782Y-67881153D01*
X127498554Y-67859529D01*
X127490496Y-67837007D01*
X127484684Y-67813803D01*
X127481174Y-67790142D01*
X127480000Y-67766250D01*
X127480000Y-66853750D01*
X127481174Y-66829858D01*
X127484684Y-66806197D01*
X127490496Y-66782993D01*
X127498554Y-66760471D01*
X127508782Y-66738847D01*
X127521079Y-66718330D01*
X127535329Y-66699117D01*
X127551393Y-66681393D01*
X127569117Y-66665329D01*
X127588330Y-66651079D01*
X127608847Y-66638782D01*
X127630471Y-66628554D01*
X127652993Y-66620496D01*
X127676197Y-66614684D01*
X127699858Y-66611174D01*
X127723750Y-66610000D01*
X128211250Y-66610000D01*
X128235142Y-66611174D01*
X128235142Y-66611174D01*
G37*
D11*
G04 #@! TD*
G04 #@! TO.P,R1,1*
G04 #@! TO.N,A0*
X127967500Y-67310000D03*
D10*
G04 #@! TO.N,A1*
G04 #@! TO.C,R2*
G36*
X128235142Y-64071174D02*
X128258803Y-64074684D01*
X128282007Y-64080496D01*
X128304529Y-64088554D01*
X128326153Y-64098782D01*
X128346670Y-64111079D01*
X128365883Y-64125329D01*
X128383607Y-64141393D01*
X128399671Y-64159117D01*
X128413921Y-64178330D01*
X128426218Y-64198847D01*
X128436446Y-64220471D01*
X128444504Y-64242993D01*
X128450316Y-64266197D01*
X128453826Y-64289858D01*
X128455000Y-64313750D01*
X128455000Y-65226250D01*
X128453826Y-65250142D01*
X128450316Y-65273803D01*
X128444504Y-65297007D01*
X128436446Y-65319529D01*
X128426218Y-65341153D01*
X128413921Y-65361670D01*
X128399671Y-65380883D01*
X128383607Y-65398607D01*
X128365883Y-65414671D01*
X128346670Y-65428921D01*
X128326153Y-65441218D01*
X128304529Y-65451446D01*
X128282007Y-65459504D01*
X128258803Y-65465316D01*
X128235142Y-65468826D01*
X128211250Y-65470000D01*
X127723750Y-65470000D01*
X127699858Y-65468826D01*
X127676197Y-65465316D01*
X127652993Y-65459504D01*
X127630471Y-65451446D01*
X127608847Y-65441218D01*
X127588330Y-65428921D01*
X127569117Y-65414671D01*
X127551393Y-65398607D01*
X127535329Y-65380883D01*
X127521079Y-65361670D01*
X127508782Y-65341153D01*
X127498554Y-65319529D01*
X127490496Y-65297007D01*
X127484684Y-65273803D01*
X127481174Y-65250142D01*
X127480000Y-65226250D01*
X127480000Y-64313750D01*
X127481174Y-64289858D01*
X127484684Y-64266197D01*
X127490496Y-64242993D01*
X127498554Y-64220471D01*
X127508782Y-64198847D01*
X127521079Y-64178330D01*
X127535329Y-64159117D01*
X127551393Y-64141393D01*
X127569117Y-64125329D01*
X127588330Y-64111079D01*
X127608847Y-64098782D01*
X127630471Y-64088554D01*
X127652993Y-64080496D01*
X127676197Y-64074684D01*
X127699858Y-64071174D01*
X127723750Y-64070000D01*
X128211250Y-64070000D01*
X128235142Y-64071174D01*
X128235142Y-64071174D01*
G37*
D11*
G04 #@! TD*
G04 #@! TO.P,R2,1*
G04 #@! TO.N,A1*
X127967500Y-64770000D03*
D10*
G04 #@! TO.N,GND*
G04 #@! TO.C,R2*
G36*
X130110142Y-64071174D02*
X130133803Y-64074684D01*
X130157007Y-64080496D01*
X130179529Y-64088554D01*
X130201153Y-64098782D01*
X130221670Y-64111079D01*
X130240883Y-64125329D01*
X130258607Y-64141393D01*
X130274671Y-64159117D01*
X130288921Y-64178330D01*
X130301218Y-64198847D01*
X130311446Y-64220471D01*
X130319504Y-64242993D01*
X130325316Y-64266197D01*
X130328826Y-64289858D01*
X130330000Y-64313750D01*
X130330000Y-65226250D01*
X130328826Y-65250142D01*
X130325316Y-65273803D01*
X130319504Y-65297007D01*
X130311446Y-65319529D01*
X130301218Y-65341153D01*
X130288921Y-65361670D01*
X130274671Y-65380883D01*
X130258607Y-65398607D01*
X130240883Y-65414671D01*
X130221670Y-65428921D01*
X130201153Y-65441218D01*
X130179529Y-65451446D01*
X130157007Y-65459504D01*
X130133803Y-65465316D01*
X130110142Y-65468826D01*
X130086250Y-65470000D01*
X129598750Y-65470000D01*
X129574858Y-65468826D01*
X129551197Y-65465316D01*
X129527993Y-65459504D01*
X129505471Y-65451446D01*
X129483847Y-65441218D01*
X129463330Y-65428921D01*
X129444117Y-65414671D01*
X129426393Y-65398607D01*
X129410329Y-65380883D01*
X129396079Y-65361670D01*
X129383782Y-65341153D01*
X129373554Y-65319529D01*
X129365496Y-65297007D01*
X129359684Y-65273803D01*
X129356174Y-65250142D01*
X129355000Y-65226250D01*
X129355000Y-64313750D01*
X129356174Y-64289858D01*
X129359684Y-64266197D01*
X129365496Y-64242993D01*
X129373554Y-64220471D01*
X129383782Y-64198847D01*
X129396079Y-64178330D01*
X129410329Y-64159117D01*
X129426393Y-64141393D01*
X129444117Y-64125329D01*
X129463330Y-64111079D01*
X129483847Y-64098782D01*
X129505471Y-64088554D01*
X129527993Y-64080496D01*
X129551197Y-64074684D01*
X129574858Y-64071174D01*
X129598750Y-64070000D01*
X130086250Y-64070000D01*
X130110142Y-64071174D01*
X130110142Y-64071174D01*
G37*
D11*
G04 #@! TD*
G04 #@! TO.P,R2,2*
G04 #@! TO.N,GND*
X129842500Y-64770000D03*
D17*
G04 #@! TO.N,GND*
X136525000Y-61595000D03*
X131762500Y-76517500D03*
X133350000Y-82550000D03*
X133350000Y-84455000D03*
X136207500Y-79375000D03*
X134620000Y-76517500D03*
X131127500Y-61912500D03*
X128270000Y-71755000D03*
X128905000Y-61912500D03*
X131127500Y-79375000D03*
X138112500Y-82867500D03*
X131127500Y-67310000D03*
G04 #@! TO.N,+8V*
X139700000Y-63500000D03*
G04 #@! TO.N,+5V*
X130175000Y-78105000D03*
X135890000Y-66675000D03*
X135890000Y-67945000D03*
X135890000Y-65405000D03*
X137160000Y-65405000D03*
X137160000Y-66675000D03*
X137160000Y-67945000D03*
X134620000Y-67945000D03*
X134620000Y-66675000D03*
X134620000Y-65405000D03*
X133350000Y-69850000D03*
X135270000Y-80025000D03*
D18*
G04 #@! TO.N,MISO*
X127317500Y-79375000D03*
G04 #@! TO.N,SCK*
X127635000Y-78422500D03*
G04 #@! TO.N,MOSI*
X129857500Y-79057500D03*
D19*
G04 #@! TO.N,RST*
X137160000Y-78740000D03*
G04 #@! TO.N,Net-(Q1-Pad1)*
X136525000Y-71755000D03*
G04 #@! TD*
D20*
G04 #@! TO.N,GND*
X136540000Y-61610000D02*
X136525000Y-61595000D01*
X136842500Y-76517500D02*
X134620000Y-76517500D01*
X139700000Y-79375000D02*
X136842500Y-76517500D01*
X140970000Y-82550000D02*
X139700000Y-82550000D01*
X139700000Y-82550000D02*
X139700000Y-79375000D01*
X139700000Y-87630000D02*
X140970000Y-87630000D01*
X139700000Y-82550000D02*
X139700000Y-87630000D01*
G04 #@! TO.N,+8V*
X138415000Y-63500000D02*
X139700000Y-63500000D01*
X139700000Y-63500000D02*
X140970000Y-64770000D01*
X139700000Y-63500000D02*
X139700000Y-63500000D01*
X140970000Y-67310000D02*
X140970000Y-64770000D01*
G04 #@! TO.N,+5V*
X128602500Y-77485000D02*
X128602500Y-76517500D01*
X130175000Y-78105000D02*
X129857500Y-78105000D01*
X129857500Y-78105000D02*
X129222500Y-78105000D01*
X129222500Y-78105000D02*
X128602500Y-77485000D01*
X133350000Y-77152500D02*
X133350000Y-69850000D01*
X130175000Y-78105000D02*
X133350000Y-78105000D01*
X133350000Y-78105000D02*
X133350000Y-77152500D01*
X135270000Y-80025000D02*
X135270000Y-81280000D01*
X133350000Y-78105000D02*
X135270000Y-80025000D01*
D21*
G04 #@! TO.N,MISO*
X129706000Y-90170000D02*
X127317500Y-87781500D01*
X130810000Y-90170000D02*
X129706000Y-90170000D01*
X127317500Y-87781500D02*
X127317500Y-79375000D01*
G04 #@! TO.N,SCK*
X128270000Y-87630000D02*
X128270000Y-79256126D01*
X129578999Y-88938999D02*
X128270000Y-87630000D01*
X133350000Y-90170000D02*
X132118999Y-88938999D01*
X132118999Y-88938999D02*
X129578999Y-88938999D01*
X128270000Y-79256126D02*
X128270000Y-79057500D01*
X128270000Y-79057500D02*
X127635000Y-78422500D01*
G04 #@! TO.N,MOSI*
X133350000Y-87630000D02*
X131762500Y-86042500D01*
X131762500Y-86042500D02*
X130175000Y-84455000D01*
X130175000Y-84455000D02*
X129857500Y-84137500D01*
X129857500Y-84137500D02*
X129857500Y-79057500D01*
G04 #@! TO.N,RST*
X135890000Y-90170000D02*
X136842500Y-89217500D01*
X139065000Y-86995000D02*
X137477500Y-88582500D01*
X139065000Y-80645000D02*
X139065000Y-86995000D01*
X138747500Y-80327500D02*
X139065000Y-80645000D01*
X137477500Y-79057500D02*
X138747500Y-80327500D01*
X136842500Y-89217500D02*
X137160000Y-88900000D01*
X137160000Y-88900000D02*
X137477500Y-88582500D01*
X137477500Y-79057500D02*
X137160000Y-78740000D01*
G04 #@! TO.N,A1*
X125730000Y-64770000D02*
X127967500Y-64770000D01*
G04 #@! TO.N,A0*
X125730000Y-67310000D02*
X127967500Y-67310000D01*
G04 #@! TO.N,Net-(Q1-Pad1)*
X138745000Y-72070000D02*
X138745000Y-72977500D01*
X138430000Y-71755000D02*
X138745000Y-72070000D01*
X136525000Y-71755000D02*
X138430000Y-71755000D01*
G04 #@! TO.N,PTT_OUT*
X140970000Y-77470000D02*
X139382500Y-75882500D01*
X138477500Y-74977500D02*
X138747500Y-75247500D01*
X138477500Y-74977500D02*
X137795000Y-74977500D01*
X139382500Y-75882500D02*
X138747500Y-75247500D01*
G04 #@! TD*
G04 #@! TO.N,GND*
G36*
X139700085Y-87503000D02*
X140843000Y-87503000D01*
X140843000Y-87483000D01*
X141097000Y-87483000D01*
X141097000Y-87503000D01*
X141117000Y-87503000D01*
X141117000Y-87757000D01*
X141097000Y-87757000D01*
X141097000Y-87777000D01*
X140843000Y-87777000D01*
X140843000Y-87757000D01*
X139700085Y-87757000D01*
X139578096Y-87979039D01*
X139738959Y-88367423D01*
X140114866Y-88782389D01*
X140319108Y-88879053D01*
X139935423Y-89135423D01*
X139618260Y-89610091D01*
X139506887Y-90170000D01*
X139618260Y-90729909D01*
X139830468Y-91047500D01*
X137089667Y-91047500D01*
X137288839Y-90749418D01*
X137404092Y-90170000D01*
X137331679Y-89805952D01*
X137434382Y-89703249D01*
X137434384Y-89703246D01*
X138069382Y-89068248D01*
X139550749Y-87586882D01*
X139614371Y-87544371D01*
X139673882Y-87455306D01*
X139700085Y-87503000D01*
X139700085Y-87503000D01*
G37*
X139700085Y-87503000D02*
X140843000Y-87503000D01*
X140843000Y-87483000D01*
X141097000Y-87483000D01*
X141097000Y-87503000D01*
X141117000Y-87503000D01*
X141117000Y-87757000D01*
X141097000Y-87757000D01*
X141097000Y-87777000D01*
X140843000Y-87777000D01*
X140843000Y-87757000D01*
X139700085Y-87757000D01*
X139578096Y-87979039D01*
X139738959Y-88367423D01*
X140114866Y-88782389D01*
X140319108Y-88879053D01*
X139935423Y-89135423D01*
X139618260Y-89610091D01*
X139506887Y-90170000D01*
X139618260Y-90729909D01*
X139830468Y-91047500D01*
X137089667Y-91047500D01*
X137288839Y-90749418D01*
X137404092Y-90170000D01*
X137331679Y-89805952D01*
X137434382Y-89703249D01*
X137434384Y-89703246D01*
X138069382Y-89068248D01*
X139550749Y-87586882D01*
X139614371Y-87544371D01*
X139673882Y-87455306D01*
X139700085Y-87503000D01*
G36*
X135509000Y-71957095D02*
X135663676Y-72330518D01*
X135810000Y-72476842D01*
X135810000Y-72691750D01*
X135968750Y-72850500D01*
X136718000Y-72850500D01*
X136718000Y-72830500D01*
X136972000Y-72830500D01*
X136972000Y-72850500D01*
X136992000Y-72850500D01*
X136992000Y-73104500D01*
X136972000Y-73104500D01*
X136972000Y-73903750D01*
X137057531Y-73989281D01*
X136937191Y-74069691D01*
X136796843Y-74279735D01*
X136747560Y-74527500D01*
X136747560Y-75427500D01*
X136796843Y-75675265D01*
X136937191Y-75885309D01*
X137147235Y-76025657D01*
X137395000Y-76074940D01*
X138195000Y-76074940D01*
X138442765Y-76025657D01*
X138445919Y-76023549D01*
X138896751Y-76474382D01*
X138896754Y-76474384D01*
X139570843Y-77148473D01*
X139506887Y-77470000D01*
X139618260Y-78029909D01*
X139935423Y-78504577D01*
X140287758Y-78740000D01*
X139935423Y-78975423D01*
X139618260Y-79450091D01*
X139507010Y-80009380D01*
X139339384Y-79841754D01*
X139339382Y-79841751D01*
X138176000Y-78678370D01*
X138176000Y-78537905D01*
X138021324Y-78164482D01*
X137735518Y-77878676D01*
X137362095Y-77724000D01*
X136957905Y-77724000D01*
X136584482Y-77878676D01*
X136298676Y-78164482D01*
X136144000Y-78537905D01*
X136144000Y-78942095D01*
X136298676Y-79315518D01*
X136584482Y-79601324D01*
X136957905Y-79756000D01*
X137098370Y-79756000D01*
X137359060Y-80016690D01*
X137272000Y-80103750D01*
X137272000Y-81153000D01*
X138108750Y-81153000D01*
X138267500Y-80994250D01*
X138267500Y-80925130D01*
X138303000Y-80960630D01*
X138303001Y-86679368D01*
X137375000Y-87607370D01*
X137375000Y-87502998D01*
X137210820Y-87502998D01*
X137331486Y-87273108D01*
X137085183Y-86748642D01*
X136656924Y-86358355D01*
X136246890Y-86188524D01*
X136017000Y-86309845D01*
X136017000Y-87503000D01*
X136037000Y-87503000D01*
X136037000Y-87757000D01*
X136017000Y-87757000D01*
X136017000Y-87777000D01*
X135763000Y-87777000D01*
X135763000Y-87757000D01*
X135743000Y-87757000D01*
X135743000Y-87503000D01*
X135763000Y-87503000D01*
X135763000Y-86309845D01*
X135533110Y-86188524D01*
X135123076Y-86358355D01*
X134694817Y-86748642D01*
X134633843Y-86878478D01*
X134420625Y-86559375D01*
X133929418Y-86231161D01*
X133496256Y-86145000D01*
X133203744Y-86145000D01*
X132985952Y-86188321D01*
X132354384Y-85556754D01*
X132354382Y-85556751D01*
X130660748Y-83863118D01*
X130619500Y-83821870D01*
X130619500Y-79678459D01*
X130686523Y-79611436D01*
X130835400Y-79252016D01*
X130835400Y-78994000D01*
X132981765Y-78994000D01*
X134190500Y-80202736D01*
X134190500Y-80239726D01*
X134257375Y-80401176D01*
X134202898Y-80482706D01*
X134135060Y-80823750D01*
X134135060Y-81736250D01*
X134202898Y-82077294D01*
X134396084Y-82366416D01*
X134685206Y-82559602D01*
X135026250Y-82627440D01*
X135513750Y-82627440D01*
X135854794Y-82559602D01*
X136143916Y-82366416D01*
X136144707Y-82365233D01*
X136297802Y-82518327D01*
X136531191Y-82615000D01*
X136859250Y-82615000D01*
X137018000Y-82456250D01*
X137018000Y-81407000D01*
X137272000Y-81407000D01*
X137272000Y-82456250D01*
X137430750Y-82615000D01*
X137758809Y-82615000D01*
X137992198Y-82518327D01*
X138170827Y-82339699D01*
X138267500Y-82106310D01*
X138267500Y-81565750D01*
X138108750Y-81407000D01*
X137272000Y-81407000D01*
X137018000Y-81407000D01*
X136998000Y-81407000D01*
X136998000Y-81153000D01*
X137018000Y-81153000D01*
X137018000Y-80103750D01*
X136859250Y-79945000D01*
X136531191Y-79945000D01*
X136349500Y-80020259D01*
X136349500Y-79810274D01*
X136185156Y-79413512D01*
X135881488Y-79109844D01*
X135484726Y-78945500D01*
X135447736Y-78945500D01*
X134239000Y-77736765D01*
X134239000Y-73263250D01*
X135810000Y-73263250D01*
X135810000Y-73553809D01*
X135906673Y-73787198D01*
X136085301Y-73965827D01*
X136318690Y-74062500D01*
X136559250Y-74062500D01*
X136718000Y-73903750D01*
X136718000Y-73104500D01*
X135968750Y-73104500D01*
X135810000Y-73263250D01*
X134239000Y-73263250D01*
X134239000Y-71755000D01*
X135509000Y-71755000D01*
X135509000Y-71957095D01*
X135509000Y-71957095D01*
G37*
X135509000Y-71957095D02*
X135663676Y-72330518D01*
X135810000Y-72476842D01*
X135810000Y-72691750D01*
X135968750Y-72850500D01*
X136718000Y-72850500D01*
X136718000Y-72830500D01*
X136972000Y-72830500D01*
X136972000Y-72850500D01*
X136992000Y-72850500D01*
X136992000Y-73104500D01*
X136972000Y-73104500D01*
X136972000Y-73903750D01*
X137057531Y-73989281D01*
X136937191Y-74069691D01*
X136796843Y-74279735D01*
X136747560Y-74527500D01*
X136747560Y-75427500D01*
X136796843Y-75675265D01*
X136937191Y-75885309D01*
X137147235Y-76025657D01*
X137395000Y-76074940D01*
X138195000Y-76074940D01*
X138442765Y-76025657D01*
X138445919Y-76023549D01*
X138896751Y-76474382D01*
X138896754Y-76474384D01*
X139570843Y-77148473D01*
X139506887Y-77470000D01*
X139618260Y-78029909D01*
X139935423Y-78504577D01*
X140287758Y-78740000D01*
X139935423Y-78975423D01*
X139618260Y-79450091D01*
X139507010Y-80009380D01*
X139339384Y-79841754D01*
X139339382Y-79841751D01*
X138176000Y-78678370D01*
X138176000Y-78537905D01*
X138021324Y-78164482D01*
X137735518Y-77878676D01*
X137362095Y-77724000D01*
X136957905Y-77724000D01*
X136584482Y-77878676D01*
X136298676Y-78164482D01*
X136144000Y-78537905D01*
X136144000Y-78942095D01*
X136298676Y-79315518D01*
X136584482Y-79601324D01*
X136957905Y-79756000D01*
X137098370Y-79756000D01*
X137359060Y-80016690D01*
X137272000Y-80103750D01*
X137272000Y-81153000D01*
X138108750Y-81153000D01*
X138267500Y-80994250D01*
X138267500Y-80925130D01*
X138303000Y-80960630D01*
X138303001Y-86679368D01*
X137375000Y-87607370D01*
X137375000Y-87502998D01*
X137210820Y-87502998D01*
X137331486Y-87273108D01*
X137085183Y-86748642D01*
X136656924Y-86358355D01*
X136246890Y-86188524D01*
X136017000Y-86309845D01*
X136017000Y-87503000D01*
X136037000Y-87503000D01*
X136037000Y-87757000D01*
X136017000Y-87757000D01*
X136017000Y-87777000D01*
X135763000Y-87777000D01*
X135763000Y-87757000D01*
X135743000Y-87757000D01*
X135743000Y-87503000D01*
X135763000Y-87503000D01*
X135763000Y-86309845D01*
X135533110Y-86188524D01*
X135123076Y-86358355D01*
X134694817Y-86748642D01*
X134633843Y-86878478D01*
X134420625Y-86559375D01*
X133929418Y-86231161D01*
X133496256Y-86145000D01*
X133203744Y-86145000D01*
X132985952Y-86188321D01*
X132354384Y-85556754D01*
X132354382Y-85556751D01*
X130660748Y-83863118D01*
X130619500Y-83821870D01*
X130619500Y-79678459D01*
X130686523Y-79611436D01*
X130835400Y-79252016D01*
X130835400Y-78994000D01*
X132981765Y-78994000D01*
X134190500Y-80202736D01*
X134190500Y-80239726D01*
X134257375Y-80401176D01*
X134202898Y-80482706D01*
X134135060Y-80823750D01*
X134135060Y-81736250D01*
X134202898Y-82077294D01*
X134396084Y-82366416D01*
X134685206Y-82559602D01*
X135026250Y-82627440D01*
X135513750Y-82627440D01*
X135854794Y-82559602D01*
X136143916Y-82366416D01*
X136144707Y-82365233D01*
X136297802Y-82518327D01*
X136531191Y-82615000D01*
X136859250Y-82615000D01*
X137018000Y-82456250D01*
X137018000Y-81407000D01*
X137272000Y-81407000D01*
X137272000Y-82456250D01*
X137430750Y-82615000D01*
X137758809Y-82615000D01*
X137992198Y-82518327D01*
X138170827Y-82339699D01*
X138267500Y-82106310D01*
X138267500Y-81565750D01*
X138108750Y-81407000D01*
X137272000Y-81407000D01*
X137018000Y-81407000D01*
X136998000Y-81407000D01*
X136998000Y-81153000D01*
X137018000Y-81153000D01*
X137018000Y-80103750D01*
X136859250Y-79945000D01*
X136531191Y-79945000D01*
X136349500Y-80020259D01*
X136349500Y-79810274D01*
X136185156Y-79413512D01*
X135881488Y-79109844D01*
X135484726Y-78945500D01*
X135447736Y-78945500D01*
X134239000Y-77736765D01*
X134239000Y-73263250D01*
X135810000Y-73263250D01*
X135810000Y-73553809D01*
X135906673Y-73787198D01*
X136085301Y-73965827D01*
X136318690Y-74062500D01*
X136559250Y-74062500D01*
X136718000Y-73903750D01*
X136718000Y-73104500D01*
X135968750Y-73104500D01*
X135810000Y-73263250D01*
X134239000Y-73263250D01*
X134239000Y-71755000D01*
X135509000Y-71755000D01*
X135509000Y-71957095D01*
G36*
X141097000Y-82423000D02*
X141117000Y-82423000D01*
X141117000Y-82677000D01*
X141097000Y-82677000D01*
X141097000Y-82697000D01*
X140843000Y-82697000D01*
X140843000Y-82677000D01*
X140823000Y-82677000D01*
X140823000Y-82423000D01*
X140843000Y-82423000D01*
X140843000Y-82403000D01*
X141097000Y-82403000D01*
X141097000Y-82423000D01*
X141097000Y-82423000D01*
G37*
X141097000Y-82423000D02*
X141117000Y-82423000D01*
X141117000Y-82677000D01*
X141097000Y-82677000D01*
X141097000Y-82697000D01*
X140843000Y-82697000D01*
X140843000Y-82677000D01*
X140823000Y-82677000D01*
X140823000Y-82423000D01*
X140843000Y-82423000D01*
X140843000Y-82403000D01*
X141097000Y-82403000D01*
X141097000Y-82423000D01*
G36*
X139738959Y-61492577D02*
X139578096Y-61880961D01*
X139700085Y-62103000D01*
X140843000Y-62103000D01*
X140843000Y-62083000D01*
X141097000Y-62083000D01*
X141097000Y-62103000D01*
X141117000Y-62103000D01*
X141117000Y-62357000D01*
X141097000Y-62357000D01*
X141097000Y-62377000D01*
X140843000Y-62377000D01*
X140843000Y-62357000D01*
X139700085Y-62357000D01*
X139665198Y-62420500D01*
X139485274Y-62420500D01*
X139335101Y-62482704D01*
X139288916Y-62413584D01*
X138999794Y-62220398D01*
X138658750Y-62152560D01*
X138171250Y-62152560D01*
X137830206Y-62220398D01*
X137541084Y-62413584D01*
X137540293Y-62414767D01*
X137387198Y-62261673D01*
X137153809Y-62165000D01*
X136825750Y-62165000D01*
X136667000Y-62323750D01*
X136667000Y-63373000D01*
X136687000Y-63373000D01*
X136687000Y-63627000D01*
X136667000Y-63627000D01*
X136667000Y-63647000D01*
X136413000Y-63647000D01*
X136413000Y-63627000D01*
X135576250Y-63627000D01*
X135417500Y-63785750D01*
X135417500Y-63817500D01*
X132080000Y-63817500D01*
X131836996Y-63865836D01*
X131630987Y-64003487D01*
X131493336Y-64209496D01*
X131445000Y-64452500D01*
X131445000Y-69850000D01*
X131493336Y-70093004D01*
X131630987Y-70299013D01*
X132461001Y-71129027D01*
X132461000Y-77216000D01*
X131600000Y-77216000D01*
X131600000Y-76803250D01*
X131441250Y-76644500D01*
X130604500Y-76644500D01*
X130604500Y-76664500D01*
X130350500Y-76664500D01*
X130350500Y-76644500D01*
X130330500Y-76644500D01*
X130330500Y-76390500D01*
X130350500Y-76390500D01*
X130350500Y-75341250D01*
X130604500Y-75341250D01*
X130604500Y-76390500D01*
X131441250Y-76390500D01*
X131600000Y-76231750D01*
X131600000Y-75691190D01*
X131503327Y-75457801D01*
X131324698Y-75279173D01*
X131091309Y-75182500D01*
X130763250Y-75182500D01*
X130604500Y-75341250D01*
X130350500Y-75341250D01*
X130191750Y-75182500D01*
X129863691Y-75182500D01*
X129630302Y-75279173D01*
X129477207Y-75432267D01*
X129476416Y-75431084D01*
X129187294Y-75237898D01*
X128846250Y-75170060D01*
X128358750Y-75170060D01*
X128017706Y-75237898D01*
X127728584Y-75431084D01*
X127535398Y-75720206D01*
X127467560Y-76061250D01*
X127467560Y-76973750D01*
X127535398Y-77314794D01*
X127622132Y-77444600D01*
X127440484Y-77444600D01*
X127176407Y-77553984D01*
X127193113Y-77470000D01*
X127081740Y-76910091D01*
X126764577Y-76435423D01*
X126412242Y-76200000D01*
X126764577Y-75964577D01*
X127081740Y-75489909D01*
X127193113Y-74930000D01*
X127081740Y-74370091D01*
X126764577Y-73895423D01*
X126412242Y-73660000D01*
X126764577Y-73424577D01*
X127081740Y-72949909D01*
X127193113Y-72390000D01*
X127081740Y-71830091D01*
X126764577Y-71355423D01*
X126412242Y-71120000D01*
X126764577Y-70884577D01*
X127081740Y-70409909D01*
X127193113Y-69850000D01*
X127081740Y-69290091D01*
X126764577Y-68815423D01*
X126412242Y-68580000D01*
X126764577Y-68344577D01*
X126911761Y-68124300D01*
X127093584Y-68396416D01*
X127382706Y-68589602D01*
X127723750Y-68657440D01*
X128211250Y-68657440D01*
X128552294Y-68589602D01*
X128841416Y-68396416D01*
X128842207Y-68395233D01*
X128995302Y-68548327D01*
X129228691Y-68645000D01*
X129556750Y-68645000D01*
X129715500Y-68486250D01*
X129715500Y-67437000D01*
X129969500Y-67437000D01*
X129969500Y-68486250D01*
X130128250Y-68645000D01*
X130456309Y-68645000D01*
X130689698Y-68548327D01*
X130868327Y-68369699D01*
X130965000Y-68136310D01*
X130965000Y-67595750D01*
X130806250Y-67437000D01*
X129969500Y-67437000D01*
X129715500Y-67437000D01*
X129695500Y-67437000D01*
X129695500Y-67183000D01*
X129715500Y-67183000D01*
X129715500Y-66133750D01*
X129621750Y-66040000D01*
X129715500Y-65946250D01*
X129715500Y-64897000D01*
X129969500Y-64897000D01*
X129969500Y-65946250D01*
X130063250Y-66040000D01*
X129969500Y-66133750D01*
X129969500Y-67183000D01*
X130806250Y-67183000D01*
X130965000Y-67024250D01*
X130965000Y-66483690D01*
X130868327Y-66250301D01*
X130689698Y-66071673D01*
X130613233Y-66040000D01*
X130689698Y-66008327D01*
X130868327Y-65829699D01*
X130965000Y-65596310D01*
X130965000Y-65055750D01*
X130806250Y-64897000D01*
X129969500Y-64897000D01*
X129715500Y-64897000D01*
X129695500Y-64897000D01*
X129695500Y-64643000D01*
X129715500Y-64643000D01*
X129715500Y-63593750D01*
X129969500Y-63593750D01*
X129969500Y-64643000D01*
X130806250Y-64643000D01*
X130965000Y-64484250D01*
X130965000Y-63943690D01*
X130868327Y-63710301D01*
X130689698Y-63531673D01*
X130456309Y-63435000D01*
X130128250Y-63435000D01*
X129969500Y-63593750D01*
X129715500Y-63593750D01*
X129556750Y-63435000D01*
X129228691Y-63435000D01*
X128995302Y-63531673D01*
X128842207Y-63684767D01*
X128841416Y-63683584D01*
X128552294Y-63490398D01*
X128211250Y-63422560D01*
X127723750Y-63422560D01*
X127382706Y-63490398D01*
X127093584Y-63683584D01*
X126911761Y-63955700D01*
X126764577Y-63735423D01*
X126643894Y-63654785D01*
X126777765Y-63628157D01*
X126987809Y-63487809D01*
X127128157Y-63277765D01*
X127177440Y-63030000D01*
X127177440Y-62673690D01*
X135417500Y-62673690D01*
X135417500Y-63214250D01*
X135576250Y-63373000D01*
X136413000Y-63373000D01*
X136413000Y-62323750D01*
X136254250Y-62165000D01*
X135926191Y-62165000D01*
X135692802Y-62261673D01*
X135514173Y-62440301D01*
X135417500Y-62673690D01*
X127177440Y-62673690D01*
X127177440Y-61430000D01*
X127162024Y-61352500D01*
X139865851Y-61352500D01*
X139738959Y-61492577D01*
X139738959Y-61492577D01*
G37*
X139738959Y-61492577D02*
X139578096Y-61880961D01*
X139700085Y-62103000D01*
X140843000Y-62103000D01*
X140843000Y-62083000D01*
X141097000Y-62083000D01*
X141097000Y-62103000D01*
X141117000Y-62103000D01*
X141117000Y-62357000D01*
X141097000Y-62357000D01*
X141097000Y-62377000D01*
X140843000Y-62377000D01*
X140843000Y-62357000D01*
X139700085Y-62357000D01*
X139665198Y-62420500D01*
X139485274Y-62420500D01*
X139335101Y-62482704D01*
X139288916Y-62413584D01*
X138999794Y-62220398D01*
X138658750Y-62152560D01*
X138171250Y-62152560D01*
X137830206Y-62220398D01*
X137541084Y-62413584D01*
X137540293Y-62414767D01*
X137387198Y-62261673D01*
X137153809Y-62165000D01*
X136825750Y-62165000D01*
X136667000Y-62323750D01*
X136667000Y-63373000D01*
X136687000Y-63373000D01*
X136687000Y-63627000D01*
X136667000Y-63627000D01*
X136667000Y-63647000D01*
X136413000Y-63647000D01*
X136413000Y-63627000D01*
X135576250Y-63627000D01*
X135417500Y-63785750D01*
X135417500Y-63817500D01*
X132080000Y-63817500D01*
X131836996Y-63865836D01*
X131630987Y-64003487D01*
X131493336Y-64209496D01*
X131445000Y-64452500D01*
X131445000Y-69850000D01*
X131493336Y-70093004D01*
X131630987Y-70299013D01*
X132461001Y-71129027D01*
X132461000Y-77216000D01*
X131600000Y-77216000D01*
X131600000Y-76803250D01*
X131441250Y-76644500D01*
X130604500Y-76644500D01*
X130604500Y-76664500D01*
X130350500Y-76664500D01*
X130350500Y-76644500D01*
X130330500Y-76644500D01*
X130330500Y-76390500D01*
X130350500Y-76390500D01*
X130350500Y-75341250D01*
X130604500Y-75341250D01*
X130604500Y-76390500D01*
X131441250Y-76390500D01*
X131600000Y-76231750D01*
X131600000Y-75691190D01*
X131503327Y-75457801D01*
X131324698Y-75279173D01*
X131091309Y-75182500D01*
X130763250Y-75182500D01*
X130604500Y-75341250D01*
X130350500Y-75341250D01*
X130191750Y-75182500D01*
X129863691Y-75182500D01*
X129630302Y-75279173D01*
X129477207Y-75432267D01*
X129476416Y-75431084D01*
X129187294Y-75237898D01*
X128846250Y-75170060D01*
X128358750Y-75170060D01*
X128017706Y-75237898D01*
X127728584Y-75431084D01*
X127535398Y-75720206D01*
X127467560Y-76061250D01*
X127467560Y-76973750D01*
X127535398Y-77314794D01*
X127622132Y-77444600D01*
X127440484Y-77444600D01*
X127176407Y-77553984D01*
X127193113Y-77470000D01*
X127081740Y-76910091D01*
X126764577Y-76435423D01*
X126412242Y-76200000D01*
X126764577Y-75964577D01*
X127081740Y-75489909D01*
X127193113Y-74930000D01*
X127081740Y-74370091D01*
X126764577Y-73895423D01*
X126412242Y-73660000D01*
X126764577Y-73424577D01*
X127081740Y-72949909D01*
X127193113Y-72390000D01*
X127081740Y-71830091D01*
X126764577Y-71355423D01*
X126412242Y-71120000D01*
X126764577Y-70884577D01*
X127081740Y-70409909D01*
X127193113Y-69850000D01*
X127081740Y-69290091D01*
X126764577Y-68815423D01*
X126412242Y-68580000D01*
X126764577Y-68344577D01*
X126911761Y-68124300D01*
X127093584Y-68396416D01*
X127382706Y-68589602D01*
X127723750Y-68657440D01*
X128211250Y-68657440D01*
X128552294Y-68589602D01*
X128841416Y-68396416D01*
X128842207Y-68395233D01*
X128995302Y-68548327D01*
X129228691Y-68645000D01*
X129556750Y-68645000D01*
X129715500Y-68486250D01*
X129715500Y-67437000D01*
X129969500Y-67437000D01*
X129969500Y-68486250D01*
X130128250Y-68645000D01*
X130456309Y-68645000D01*
X130689698Y-68548327D01*
X130868327Y-68369699D01*
X130965000Y-68136310D01*
X130965000Y-67595750D01*
X130806250Y-67437000D01*
X129969500Y-67437000D01*
X129715500Y-67437000D01*
X129695500Y-67437000D01*
X129695500Y-67183000D01*
X129715500Y-67183000D01*
X129715500Y-66133750D01*
X129621750Y-66040000D01*
X129715500Y-65946250D01*
X129715500Y-64897000D01*
X129969500Y-64897000D01*
X129969500Y-65946250D01*
X130063250Y-66040000D01*
X129969500Y-66133750D01*
X129969500Y-67183000D01*
X130806250Y-67183000D01*
X130965000Y-67024250D01*
X130965000Y-66483690D01*
X130868327Y-66250301D01*
X130689698Y-66071673D01*
X130613233Y-66040000D01*
X130689698Y-66008327D01*
X130868327Y-65829699D01*
X130965000Y-65596310D01*
X130965000Y-65055750D01*
X130806250Y-64897000D01*
X129969500Y-64897000D01*
X129715500Y-64897000D01*
X129695500Y-64897000D01*
X129695500Y-64643000D01*
X129715500Y-64643000D01*
X129715500Y-63593750D01*
X129969500Y-63593750D01*
X129969500Y-64643000D01*
X130806250Y-64643000D01*
X130965000Y-64484250D01*
X130965000Y-63943690D01*
X130868327Y-63710301D01*
X130689698Y-63531673D01*
X130456309Y-63435000D01*
X130128250Y-63435000D01*
X129969500Y-63593750D01*
X129715500Y-63593750D01*
X129556750Y-63435000D01*
X129228691Y-63435000D01*
X128995302Y-63531673D01*
X128842207Y-63684767D01*
X128841416Y-63683584D01*
X128552294Y-63490398D01*
X128211250Y-63422560D01*
X127723750Y-63422560D01*
X127382706Y-63490398D01*
X127093584Y-63683584D01*
X126911761Y-63955700D01*
X126764577Y-63735423D01*
X126643894Y-63654785D01*
X126777765Y-63628157D01*
X126987809Y-63487809D01*
X127128157Y-63277765D01*
X127177440Y-63030000D01*
X127177440Y-62673690D01*
X135417500Y-62673690D01*
X135417500Y-63214250D01*
X135576250Y-63373000D01*
X136413000Y-63373000D01*
X136413000Y-62323750D01*
X136254250Y-62165000D01*
X135926191Y-62165000D01*
X135692802Y-62261673D01*
X135514173Y-62440301D01*
X135417500Y-62673690D01*
X127177440Y-62673690D01*
X127177440Y-61430000D01*
X127162024Y-61352500D01*
X139865851Y-61352500D01*
X139738959Y-61492577D01*
G04 #@! TO.N,+5V*
G36*
X135666084Y-64586416D02*
X135955206Y-64779602D01*
X136296250Y-64847440D01*
X136783750Y-64847440D01*
X137124794Y-64779602D01*
X137413916Y-64586416D01*
X137418537Y-64579500D01*
X137536463Y-64579500D01*
X137541084Y-64586416D01*
X137830206Y-64779602D01*
X138171250Y-64847440D01*
X138658750Y-64847440D01*
X138999794Y-64779602D01*
X139288916Y-64586416D01*
X139293537Y-64579500D01*
X139522265Y-64579500D01*
X139541044Y-64598280D01*
X139506887Y-64770000D01*
X139573000Y-65102372D01*
X139573000Y-66977628D01*
X139506887Y-67310000D01*
X139573000Y-67642372D01*
X139573000Y-69517628D01*
X139506887Y-69850000D01*
X139573000Y-70182372D01*
X139573000Y-70993000D01*
X138505043Y-70993000D01*
X138430000Y-70978073D01*
X138354957Y-70993000D01*
X137199842Y-70993000D01*
X137100518Y-70893676D01*
X136727095Y-70739000D01*
X136322905Y-70739000D01*
X135949482Y-70893676D01*
X135850158Y-70993000D01*
X133402606Y-70993000D01*
X132207000Y-69797394D01*
X132207000Y-64579500D01*
X135661463Y-64579500D01*
X135666084Y-64586416D01*
X135666084Y-64586416D01*
G37*
X135666084Y-64586416D02*
X135955206Y-64779602D01*
X136296250Y-64847440D01*
X136783750Y-64847440D01*
X137124794Y-64779602D01*
X137413916Y-64586416D01*
X137418537Y-64579500D01*
X137536463Y-64579500D01*
X137541084Y-64586416D01*
X137830206Y-64779602D01*
X138171250Y-64847440D01*
X138658750Y-64847440D01*
X138999794Y-64779602D01*
X139288916Y-64586416D01*
X139293537Y-64579500D01*
X139522265Y-64579500D01*
X139541044Y-64598280D01*
X139506887Y-64770000D01*
X139573000Y-65102372D01*
X139573000Y-66977628D01*
X139506887Y-67310000D01*
X139573000Y-67642372D01*
X139573000Y-69517628D01*
X139506887Y-69850000D01*
X139573000Y-70182372D01*
X139573000Y-70993000D01*
X138505043Y-70993000D01*
X138430000Y-70978073D01*
X138354957Y-70993000D01*
X137199842Y-70993000D01*
X137100518Y-70893676D01*
X136727095Y-70739000D01*
X136322905Y-70739000D01*
X135949482Y-70893676D01*
X135850158Y-70993000D01*
X133402606Y-70993000D01*
X132207000Y-69797394D01*
X132207000Y-64579500D01*
X135661463Y-64579500D01*
X135666084Y-64586416D01*
G04 #@! TD*
M02*
